<svg xmlns="http://www.w3.org/2000/svg" xmlns:xlink="http://www.w3.org/1999/xlink" width="1080" zoomAndPan="magnify" viewBox="0 0 810 809.999993" height="1080" preserveAspectRatio="xMidYMid meet" version="1.0"><path fill="#b6afc8" d="M 62.8125 206.890625 C 117.136719 146.269531 235.433594 5.90625 231.554688 4.554688 C 228.019531 3.324219 283.28125 96.296875 301.933594 146.433594 L 106.355469 219.140625 L 62.8125 206.890625 " fill-opacity="1" fill-rule="nonzero"/><path fill="#22183b" d="M 106.355469 223.355469 C 105.972656 223.355469 105.589844 223.304688 105.214844 223.199219 L 61.671875 210.949219 C 60.269531 210.554688 59.171875 209.464844 58.765625 208.066406 C 58.359375 206.667969 58.703125 205.160156 59.675781 204.078125 C 111.035156 146.757812 217.679688 20.214844 227.085938 4.59375 C 226.96875 3.304688 227.484375 2.703125 228.214844 1.839844 C 229.339844 0.515625 231.292969 0 232.941406 0.578125 C 234.273438 1.039062 235.371094 2.238281 235.722656 3.601562 C 235.816406 3.964844 235.90625 4.320312 235.855469 4.835938 C 237.445312 8.539062 243.785156 20.246094 250.457031 32.570312 C 267.789062 64.59375 293.988281 112.980469 305.882812 144.96875 C 306.273438 146.015625 306.230469 147.175781 305.765625 148.191406 C 305.300781 149.207031 304.449219 150 303.402344 150.386719 L 107.828125 223.09375 C 107.355469 223.269531 106.855469 223.355469 106.355469 223.355469 Z M 70.457031 204.660156 L 106.175781 214.710938 L 296.472656 143.964844 C 284.171875 112.566406 259.558594 67.09375 243.039062 36.582031 C 237.183594 25.757812 233.3125 18.609375 230.851562 13.777344 C 223.9375 23.542969 207.835938 43.742188 171.023438 87.65625 C 135.964844 129.484375 96.394531 175.511719 70.457031 204.660156 Z M 70.457031 204.660156 " fill-opacity="1" fill-rule="nonzero"/><path fill="#b6afc8" d="M 289.042969 805.789062 L 242.660156 788.394531 L 62.832031 207.644531 L 111.089844 221.992188 " fill-opacity="1" fill-rule="nonzero"/><path fill="#22183b" d="M 289.042969 810.003906 C 288.550781 810.003906 288.050781 809.921875 287.5625 809.734375 L 241.179688 792.34375 C 239.960938 791.886719 239.019531 790.886719 238.632812 789.644531 L 58.804688 208.890625 C 58.34375 207.40625 58.738281 205.785156 59.835938 204.679688 C 60.925781 203.570312 62.539062 203.160156 64.035156 203.601562 L 112.292969 217.953125 C 114.523438 218.617188 115.796875 220.960938 115.132812 223.195312 C 114.46875 225.429688 112.128906 226.699219 109.886719 226.035156 L 69.191406 213.929688 L 246.078125 785.171875 L 290.523438 801.839844 C 292.703125 802.660156 293.808594 805.085938 292.988281 807.269531 C 292.355469 808.960938 290.75 810.003906 289.042969 810.003906 Z M 289.042969 810.003906 " fill-opacity="1" fill-rule="nonzero"/><path fill="#f5eaf9" d="M 75.707031 211.472656 C 140.722656 147.726562 220.691406 43.199219 231.554688 4.496094 C 247.019531 27.367188 291.707031 117.4375 300.128906 141.722656 " fill-opacity="1" fill-rule="nonzero"/><path fill="#22183b" d="M 75.707031 215.6875 C 74.613281 215.6875 73.523438 215.265625 72.695312 214.421875 C 71.066406 212.757812 71.09375 210.089844 72.753906 208.457031 C 139.160156 143.355469 217.253906 39.84375 227.496094 3.359375 C 227.9375 1.777344 229.257812 0.597656 230.882812 0.335938 C 232.507812 0.0820312 234.128906 0.777344 235.046875 2.136719 C 251.195312 26.019531 295.941406 116.769531 304.113281 140.34375 C 304.875 142.542969 303.710938 144.941406 301.511719 145.707031 C 299.308594 146.46875 296.910156 145.300781 296.148438 143.109375 C 288.757812 121.804688 251.074219 44.84375 232.585938 14.039062 C 215.585938 54.332031 148.410156 146.09375 78.65625 214.480469 C 77.835938 215.289062 76.769531 215.6875 75.707031 215.6875 Z M 75.707031 215.6875 " fill-opacity="1" fill-rule="nonzero"/><path fill="#b6afc8" d="M 111.089844 221.992188 C 254.53125 164.773438 424.125 117.167969 571.320312 70.453125 C 586.792969 134.453125 748.414062 657.613281 746.703125 662.585938 C 743.914062 670.679688 291.464844 806.730469 289.046875 805.785156 C 286.753906 804.894531 170.625 402.375 111.089844 221.992188 Z M 111.089844 221.992188 " fill-opacity="1" fill-rule="nonzero"/><path fill="#22183b" d="M 288.621094 809.933594 C 288.085938 809.933594 287.816406 809.832031 287.507812 809.710938 C 285.03125 808.75 285.03125 808.75 273.1875 769.425781 C 266.089844 745.84375 256.183594 712.507812 244.542969 673.335938 C 204.761719 539.4375 144.636719 337.089844 107.085938 223.316406 C 106.386719 221.199219 107.457031 218.902344 109.527344 218.078125 C 216.792969 175.289062 337.738281 138.152344 454.703125 102.238281 C 494.851562 89.90625 532.777344 78.261719 570.042969 66.4375 C 571.15625 66.085938 572.371094 66.207031 573.386719 66.78125 C 574.402344 67.355469 575.140625 68.328125 575.414062 69.460938 C 583.480469 102.816406 632.246094 264.195312 675.269531 406.574219 C 748.90625 650.238281 751.683594 661.058594 750.683594 663.960938 C 750.035156 665.847656 748.429688 666.875 745.507812 668.230469 C 722.855469 678.699219 584.351562 721.609375 503.800781 746.253906 C 453.371094 761.683594 399.777344 777.871094 356.757812 790.664062 C 300.859375 807.289062 291.320312 809.933594 288.621094 809.933594 Z M 116.335938 224.445312 C 153.996094 338.988281 213.261719 538.449219 252.625 670.933594 C 271.785156 735.417969 287.34375 787.765625 291.675781 800.84375 C 310.449219 795.804688 406.808594 767.191406 514.972656 734.015625 C 644.519531 694.277344 728.074219 667.246094 742.074219 660.578125 C 737.65625 642.148438 701.871094 523.734375 667.203125 409.015625 C 625.785156 271.953125 579.050781 117.300781 568.320312 75.828125 C 532.390625 87.203125 495.816406 98.433594 457.175781 110.296875 C 341.714844 145.75 222.367188 182.394531 116.335938 224.445312 Z M 743.773438 659.648438 Z M 743.773438 659.648438 " fill-opacity="1" fill-rule="nonzero"/><path fill="#f5eaf9" d="M 555.964844 75.308594 C 394.003906 122.917969 242.621094 171.523438 111.089844 221.992188 L 86.65625 213.539062 C 172.824219 159.761719 462.929688 72.71875 555.964844 75.308594 Z M 555.964844 75.308594 " fill-opacity="1" fill-rule="nonzero"/><path fill="#22183b" d="M 111.089844 226.210938 C 110.625 226.210938 110.15625 226.132812 109.710938 225.976562 L 85.277344 217.523438 C 83.742188 216.992188 82.648438 215.625 82.46875 214.011719 C 82.289062 212.394531 83.046875 210.820312 84.421875 209.960938 C 173.753906 154.210938 464.574219 68.46875 556.078125 71.09375 C 558.148438 71.152344 559.875 72.707031 560.140625 74.765625 C 560.40625 76.820312 559.140625 78.769531 557.148438 79.351562 C 377.203125 132.25 231.785156 180.195312 112.597656 225.929688 C 112.117188 226.117188 111.601562 226.210938 111.089844 226.210938 Z M 96.597656 212.515625 L 111.015625 217.507812 C 222.253906 174.878906 356.199219 130.34375 519.546875 81.6875 C 408.253906 94.824219 182.148438 163.515625 96.597656 212.515625 Z M 96.597656 212.515625 " fill-opacity="1" fill-rule="nonzero"/><path fill="#f5eaf9" d="M 566.539062 359.882812 L 271.675781 453.320312 L 221.15625 281.761719 L 516.019531 188.324219 Z M 566.539062 359.882812 " fill-opacity="1" fill-rule="nonzero"/><path fill="#22183b" d="M 271.675781 457.539062 C 270.992188 457.539062 270.3125 457.367188 269.699219 457.042969 C 268.699219 456.511719 267.953125 455.597656 267.632812 454.511719 L 217.113281 282.953125 C 216.464844 280.753906 217.695312 278.4375 219.882812 277.742188 L 514.746094 184.304688 C 515.824219 183.960938 517 184.070312 518 184.601562 C 519 185.128906 519.742188 186.042969 520.0625 187.128906 L 570.582031 358.6875 C 571.230469 360.886719 570 363.203125 567.8125 363.898438 L 272.949219 457.339844 C 272.535156 457.472656 272.105469 457.539062 271.675781 457.539062 Z M 226.367188 284.535156 L 274.503906 448.003906 L 561.324219 357.109375 L 513.191406 193.640625 Z M 226.367188 284.535156 " fill-opacity="1" fill-rule="nonzero"/></svg>