<svg xmlns="http://www.w3.org/2000/svg" xmlns:xlink="http://www.w3.org/1999/xlink" width="64" zoomAndPan="magnify" viewBox="0 0 48 44.249999" height="59" preserveAspectRatio="xMidYMid meet" version="1.0"><defs><clipPath id="b197df9463"><path d="M 8 1.011719 L 41 1.011719 L 41 5 L 8 5 Z M 8 1.011719 " clip-rule="nonzero"/></clipPath><clipPath id="f135866213"><path d="M 8 4 L 41 4 L 41 37 L 8 37 Z M 8 4 " clip-rule="nonzero"/></clipPath><clipPath id="ba1c116b84"><path d="M 8.210938 4.460938 L 40.402344 4.460938 L 40.402344 33.503906 C 40.402344 33.898438 40.324219 34.285156 40.171875 34.648438 C 40.019531 35.015625 39.800781 35.34375 39.519531 35.621094 C 39.242188 35.902344 38.910156 36.121094 38.542969 36.273438 C 38.175781 36.421875 37.785156 36.5 37.390625 36.5 L 11.222656 36.5 C 10.828125 36.5 10.433594 36.421875 10.070312 36.273438 C 9.703125 36.121094 9.371094 35.902344 9.09375 35.621094 C 8.8125 35.34375 8.589844 35.015625 8.441406 34.648438 C 8.289062 34.285156 8.210938 33.898438 8.210938 33.503906 Z M 8.210938 4.460938 " clip-rule="nonzero"/></clipPath><linearGradient x1="2460.58763" gradientTransform="matrix(0.0105758, 0, 0, 0.0105259, 0.400001, 1.011328)" y1="50.043409" x2="3016.201661" gradientUnits="userSpaceOnUse" y2="3495.165968" id="8721d29969"><stop stop-opacity="1" stop-color="rgb(85.400391%, 90.440369%, 100%)" offset="0"/><stop stop-opacity="1" stop-color="rgb(85.289001%, 90.367126%, 100%)" offset="0.015625"/><stop stop-opacity="1" stop-color="rgb(85.066223%, 90.220642%, 100%)" offset="0.03125"/><stop stop-opacity="1" stop-color="rgb(84.841919%, 90.075684%, 100%)" offset="0.046875"/><stop stop-opacity="1" stop-color="rgb(84.619141%, 89.929199%, 100%)" offset="0.0625"/><stop stop-opacity="1" stop-color="rgb(84.394836%, 89.782715%, 100%)" offset="0.078125"/><stop stop-opacity="1" stop-color="rgb(84.172058%, 89.63623%, 100%)" offset="0.09375"/><stop stop-opacity="1" stop-color="rgb(83.947754%, 89.489746%, 100%)" offset="0.109375"/><stop stop-opacity="1" stop-color="rgb(83.724976%, 89.343262%, 100%)" offset="0.125"/><stop stop-opacity="1" stop-color="rgb(83.500671%, 89.196777%, 100%)" offset="0.138877"/><stop stop-opacity="1" stop-color="rgb(83.389282%, 89.123535%, 100%)" offset="0.140625"/><stop stop-opacity="1" stop-color="rgb(83.277893%, 89.050293%, 100%)" offset="0.15625"/><stop stop-opacity="1" stop-color="rgb(83.055115%, 88.903809%, 100%)" offset="0.171875"/><stop stop-opacity="1" stop-color="rgb(82.830811%, 88.75885%, 100%)" offset="0.1875"/><stop stop-opacity="1" stop-color="rgb(82.608032%, 88.612366%, 100%)" offset="0.203125"/><stop stop-opacity="1" stop-color="rgb(82.383728%, 88.465881%, 100%)" offset="0.21875"/><stop stop-opacity="1" stop-color="rgb(82.16095%, 88.319397%, 100%)" offset="0.234375"/><stop stop-opacity="1" stop-color="rgb(81.936646%, 88.172913%, 100%)" offset="0.25"/><stop stop-opacity="1" stop-color="rgb(81.713867%, 88.026428%, 100%)" offset="0.265625"/><stop stop-opacity="1" stop-color="rgb(81.489563%, 87.879944%, 100%)" offset="0.28125"/><stop stop-opacity="1" stop-color="rgb(81.266785%, 87.733459%, 100%)" offset="0.296875"/><stop stop-opacity="1" stop-color="rgb(81.04248%, 87.586975%, 100%)" offset="0.3125"/><stop stop-opacity="1" stop-color="rgb(80.819702%, 87.442017%, 100%)" offset="0.328125"/><stop stop-opacity="1" stop-color="rgb(80.596924%, 87.295532%, 100%)" offset="0.34375"/><stop stop-opacity="1" stop-color="rgb(80.37262%, 87.149048%, 100%)" offset="0.359375"/><stop stop-opacity="1" stop-color="rgb(80.149841%, 87.002563%, 100%)" offset="0.375"/><stop stop-opacity="1" stop-color="rgb(79.925537%, 86.856079%, 100%)" offset="0.390625"/><stop stop-opacity="1" stop-color="rgb(79.702759%, 86.709595%, 100%)" offset="0.40625"/><stop stop-opacity="1" stop-color="rgb(79.478455%, 86.56311%, 100%)" offset="0.421875"/><stop stop-opacity="1" stop-color="rgb(79.255676%, 86.416626%, 100%)" offset="0.4375"/><stop stop-opacity="1" stop-color="rgb(79.031372%, 86.270142%, 100%)" offset="0.453125"/><stop stop-opacity="1" stop-color="rgb(78.808594%, 86.125183%, 100%)" offset="0.46875"/><stop stop-opacity="1" stop-color="rgb(78.58429%, 85.978699%, 100%)" offset="0.484375"/><stop stop-opacity="1" stop-color="rgb(78.361511%, 85.832214%, 100%)" offset="0.5"/><stop stop-opacity="1" stop-color="rgb(78.138733%, 85.68573%, 100%)" offset="0.515625"/><stop stop-opacity="1" stop-color="rgb(77.914429%, 85.539246%, 100%)" offset="0.53125"/><stop stop-opacity="1" stop-color="rgb(77.69165%, 85.392761%, 100%)" offset="0.546875"/><stop stop-opacity="1" stop-color="rgb(77.467346%, 85.246277%, 100%)" offset="0.5625"/><stop stop-opacity="1" stop-color="rgb(77.244568%, 85.099792%, 100%)" offset="0.578125"/><stop stop-opacity="1" stop-color="rgb(77.020264%, 84.953308%, 100%)" offset="0.59375"/><stop stop-opacity="1" stop-color="rgb(76.797485%, 84.80835%, 100%)" offset="0.609375"/><stop stop-opacity="1" stop-color="rgb(76.573181%, 84.661865%, 100%)" offset="0.625"/><stop stop-opacity="1" stop-color="rgb(76.350403%, 84.515381%, 100%)" offset="0.640625"/><stop stop-opacity="1" stop-color="rgb(76.127625%, 84.368896%, 100%)" offset="0.65625"/><stop stop-opacity="1" stop-color="rgb(75.90332%, 84.222412%, 100%)" offset="0.671875"/><stop stop-opacity="1" stop-color="rgb(75.680542%, 84.075928%, 100%)" offset="0.6875"/><stop stop-opacity="1" stop-color="rgb(75.456238%, 83.929443%, 100%)" offset="0.703125"/><stop stop-opacity="1" stop-color="rgb(75.233459%, 83.782959%, 100%)" offset="0.71875"/><stop stop-opacity="1" stop-color="rgb(75.009155%, 83.636475%, 100%)" offset="0.734375"/><stop stop-opacity="1" stop-color="rgb(74.786377%, 83.491516%, 100%)" offset="0.75"/><stop stop-opacity="1" stop-color="rgb(74.562073%, 83.345032%, 100%)" offset="0.765625"/><stop stop-opacity="1" stop-color="rgb(74.339294%, 83.198547%, 100%)" offset="0.78125"/><stop stop-opacity="1" stop-color="rgb(74.11499%, 83.052063%, 100%)" offset="0.796875"/><stop stop-opacity="1" stop-color="rgb(73.892212%, 82.905579%, 100%)" offset="0.8125"/><stop stop-opacity="1" stop-color="rgb(73.669434%, 82.759094%, 100%)" offset="0.828125"/><stop stop-opacity="1" stop-color="rgb(73.445129%, 82.61261%, 100%)" offset="0.84375"/><stop stop-opacity="1" stop-color="rgb(73.222351%, 82.466125%, 100%)" offset="0.859375"/><stop stop-opacity="1" stop-color="rgb(72.998047%, 82.319641%, 100%)" offset="0.861123"/><stop stop-opacity="1" stop-color="rgb(72.886658%, 82.247925%, 100%)" offset="0.875"/><stop stop-opacity="1" stop-color="rgb(72.775269%, 82.174683%, 100%)" offset="0.890625"/><stop stop-opacity="1" stop-color="rgb(72.550964%, 82.028198%, 100%)" offset="0.90625"/><stop stop-opacity="1" stop-color="rgb(72.328186%, 81.881714%, 100%)" offset="0.921875"/><stop stop-opacity="1" stop-color="rgb(72.103882%, 81.735229%, 100%)" offset="0.9375"/><stop stop-opacity="1" stop-color="rgb(71.881104%, 81.588745%, 100%)" offset="0.953125"/><stop stop-opacity="1" stop-color="rgb(71.658325%, 81.442261%, 100%)" offset="0.96875"/><stop stop-opacity="1" stop-color="rgb(71.434021%, 81.295776%, 100%)" offset="0.984375"/><stop stop-opacity="1" stop-color="rgb(71.211243%, 81.149292%, 100%)" offset="1"/></linearGradient><clipPath id="476cb40a1b"><path d="M 23 23 L 35 23 L 35 31 L 23 31 Z M 23 23 " clip-rule="nonzero"/></clipPath><clipPath id="096dccdfc5"><path d="M 33.496094 30.9375 L 24.953125 30.9375 C 24.785156 30.9375 24.625 30.878906 24.503906 30.769531 C 24.378906 30.660156 24.300781 30.507812 24.277344 30.347656 L 23.488281 24.082031 C 23.476562 23.988281 23.488281 23.890625 23.515625 23.796875 C 23.542969 23.707031 23.589844 23.621094 23.652344 23.550781 C 23.71875 23.480469 23.796875 23.421875 23.882812 23.382812 C 23.972656 23.34375 24.066406 23.324219 24.164062 23.324219 L 34.285156 23.324219 C 34.378906 23.324219 34.476562 23.34375 34.5625 23.382812 C 34.652344 23.421875 34.730469 23.480469 34.792969 23.550781 C 34.855469 23.621094 34.90625 23.707031 34.933594 23.796875 C 34.960938 23.890625 34.96875 23.988281 34.957031 24.082031 L 34.167969 30.347656 C 34.148438 30.507812 34.070312 30.660156 33.945312 30.769531 C 33.820312 30.878906 33.660156 30.9375 33.496094 30.9375 Z M 33.496094 30.9375 " clip-rule="nonzero"/></clipPath><linearGradient x1="2695.840314" gradientTransform="matrix(0.0105758, 0, 0, 0.0105259, 0.400001, 1.011328)" y1="2082.523486" x2="2753.496999" gradientUnits="userSpaceOnUse" y2="2880.305933" id="e87091ef4b"><stop stop-opacity="1" stop-color="rgb(100%, 100%, 100%)" offset="0"/><stop stop-opacity="1" stop-color="rgb(100%, 100%, 100%)" offset="0.03125"/><stop stop-opacity="1" stop-color="rgb(99.972534%, 99.981689%, 100%)" offset="0.046875"/><stop stop-opacity="1" stop-color="rgb(99.775696%, 99.85199%, 100%)" offset="0.0625"/><stop stop-opacity="1" stop-color="rgb(99.436951%, 99.630737%, 100%)" offset="0.078125"/><stop stop-opacity="1" stop-color="rgb(99.09668%, 99.407959%, 100%)" offset="0.09375"/><stop stop-opacity="1" stop-color="rgb(98.757935%, 99.186707%, 100%)" offset="0.0979228"/><stop stop-opacity="1" stop-color="rgb(98.588562%, 99.075317%, 100%)" offset="0.109375"/><stop stop-opacity="1" stop-color="rgb(98.419189%, 98.963928%, 100%)" offset="0.125"/><stop stop-opacity="1" stop-color="rgb(98.080444%, 98.742676%, 100%)" offset="0.140625"/><stop stop-opacity="1" stop-color="rgb(97.740173%, 98.519897%, 100%)" offset="0.15625"/><stop stop-opacity="1" stop-color="rgb(97.401428%, 98.298645%, 100%)" offset="0.171875"/><stop stop-opacity="1" stop-color="rgb(97.062683%, 98.075867%, 100%)" offset="0.1875"/><stop stop-opacity="1" stop-color="rgb(96.723938%, 97.854614%, 100%)" offset="0.203125"/><stop stop-opacity="1" stop-color="rgb(96.383667%, 97.631836%, 100%)" offset="0.21875"/><stop stop-opacity="1" stop-color="rgb(96.044922%, 97.410583%, 100%)" offset="0.234375"/><stop stop-opacity="1" stop-color="rgb(95.706177%, 97.187805%, 100%)" offset="0.25"/><stop stop-opacity="1" stop-color="rgb(95.367432%, 96.966553%, 100%)" offset="0.265625"/><stop stop-opacity="1" stop-color="rgb(95.027161%, 96.743774%, 100%)" offset="0.28125"/><stop stop-opacity="1" stop-color="rgb(94.688416%, 96.522522%, 100%)" offset="0.296875"/><stop stop-opacity="1" stop-color="rgb(94.34967%, 96.299744%, 100%)" offset="0.3125"/><stop stop-opacity="1" stop-color="rgb(94.010925%, 96.076965%, 100%)" offset="0.328125"/><stop stop-opacity="1" stop-color="rgb(93.670654%, 95.855713%, 100%)" offset="0.34375"/><stop stop-opacity="1" stop-color="rgb(93.331909%, 95.632935%, 100%)" offset="0.359375"/><stop stop-opacity="1" stop-color="rgb(92.993164%, 95.411682%, 100%)" offset="0.375"/><stop stop-opacity="1" stop-color="rgb(92.654419%, 95.188904%, 100%)" offset="0.390625"/><stop stop-opacity="1" stop-color="rgb(92.314148%, 94.967651%, 100%)" offset="0.40625"/><stop stop-opacity="1" stop-color="rgb(91.975403%, 94.744873%, 100%)" offset="0.421875"/><stop stop-opacity="1" stop-color="rgb(91.636658%, 94.523621%, 100%)" offset="0.4375"/><stop stop-opacity="1" stop-color="rgb(91.297913%, 94.300842%, 100%)" offset="0.453125"/><stop stop-opacity="1" stop-color="rgb(90.957642%, 94.07959%, 100%)" offset="0.46875"/><stop stop-opacity="1" stop-color="rgb(90.618896%, 93.856812%, 100%)" offset="0.484375"/><stop stop-opacity="1" stop-color="rgb(90.280151%, 93.635559%, 100%)" offset="0.5"/><stop stop-opacity="1" stop-color="rgb(89.941406%, 93.412781%, 100%)" offset="0.515625"/><stop stop-opacity="1" stop-color="rgb(89.601135%, 93.191528%, 100%)" offset="0.53125"/><stop stop-opacity="1" stop-color="rgb(89.26239%, 92.96875%, 100%)" offset="0.546875"/><stop stop-opacity="1" stop-color="rgb(88.923645%, 92.747498%, 100%)" offset="0.5625"/><stop stop-opacity="1" stop-color="rgb(88.5849%, 92.524719%, 100%)" offset="0.578125"/><stop stop-opacity="1" stop-color="rgb(88.244629%, 92.303467%, 100%)" offset="0.59375"/><stop stop-opacity="1" stop-color="rgb(87.905884%, 92.080688%, 100%)" offset="0.609375"/><stop stop-opacity="1" stop-color="rgb(87.567139%, 91.859436%, 100%)" offset="0.625"/><stop stop-opacity="1" stop-color="rgb(87.228394%, 91.636658%, 100%)" offset="0.640625"/><stop stop-opacity="1" stop-color="rgb(86.888123%, 91.413879%, 100%)" offset="0.65625"/><stop stop-opacity="1" stop-color="rgb(86.549377%, 91.192627%, 100%)" offset="0.671875"/><stop stop-opacity="1" stop-color="rgb(86.210632%, 90.969849%, 100%)" offset="0.6875"/><stop stop-opacity="1" stop-color="rgb(85.871887%, 90.748596%, 100%)" offset="0.703125"/><stop stop-opacity="1" stop-color="rgb(85.531616%, 90.525818%, 100%)" offset="0.71875"/><stop stop-opacity="1" stop-color="rgb(85.192871%, 90.304565%, 100%)" offset="0.734375"/><stop stop-opacity="1" stop-color="rgb(84.854126%, 90.081787%, 100%)" offset="0.75"/><stop stop-opacity="1" stop-color="rgb(84.513855%, 89.860535%, 100%)" offset="0.765625"/><stop stop-opacity="1" stop-color="rgb(84.17511%, 89.637756%, 100%)" offset="0.78125"/><stop stop-opacity="1" stop-color="rgb(83.836365%, 89.416504%, 100%)" offset="0.796875"/><stop stop-opacity="1" stop-color="rgb(83.49762%, 89.193726%, 100%)" offset="0.8125"/><stop stop-opacity="1" stop-color="rgb(83.157349%, 88.972473%, 100%)" offset="0.828125"/><stop stop-opacity="1" stop-color="rgb(82.818604%, 88.749695%, 100%)" offset="0.84375"/><stop stop-opacity="1" stop-color="rgb(82.479858%, 88.528442%, 100%)" offset="0.859375"/><stop stop-opacity="1" stop-color="rgb(82.141113%, 88.305664%, 100%)" offset="0.875"/><stop stop-opacity="1" stop-color="rgb(81.800842%, 88.084412%, 100%)" offset="0.890625"/><stop stop-opacity="1" stop-color="rgb(81.462097%, 87.861633%, 100%)" offset="0.902077"/><stop stop-opacity="1" stop-color="rgb(81.292725%, 87.75177%, 100%)" offset="0.90625"/><stop stop-opacity="1" stop-color="rgb(81.123352%, 87.640381%, 100%)" offset="0.921875"/><stop stop-opacity="1" stop-color="rgb(80.784607%, 87.417603%, 100%)" offset="0.9375"/><stop stop-opacity="1" stop-color="rgb(80.444336%, 87.19635%, 100%)" offset="0.953125"/><stop stop-opacity="1" stop-color="rgb(80.105591%, 86.973572%, 100%)" offset="0.96875"/><stop stop-opacity="1" stop-color="rgb(79.766846%, 86.750793%, 100%)" offset="0.984375"/><stop stop-opacity="1" stop-color="rgb(79.428101%, 86.529541%, 100%)" offset="1"/></linearGradient><clipPath id="c979d826aa"><path d="M 0.40625 2 L 14 2 L 14 18 L 0.40625 18 Z M 0.40625 2 " clip-rule="nonzero"/></clipPath><clipPath id="3a7e4165d0"><path d="M 0.40625 1.011719 L 11 1.011719 L 11 13 L 0.40625 13 Z M 0.40625 1.011719 " clip-rule="nonzero"/></clipPath><clipPath id="68998a88bd"><path d="M 0.40625 1.011719 L 12 1.011719 L 12 15 L 0.40625 15 Z M 0.40625 1.011719 " clip-rule="nonzero"/></clipPath><clipPath id="98c045fcda"><path d="M 28 21 L 47 21 L 47 42.300781 L 28 42.300781 Z M 28 21 " clip-rule="nonzero"/></clipPath><clipPath id="ecf243616a"><path d="M 33 18 L 47.597656 18 L 47.597656 36 L 33 36 Z M 33 18 " clip-rule="nonzero"/></clipPath><clipPath id="2b515f4cbf"><path d="M 31 20 L 47.597656 20 L 47.597656 38 L 31 38 Z M 31 20 " clip-rule="nonzero"/></clipPath><clipPath id="f39ae2caa2"><path d="M 0.40625 34 L 8 34 L 8 39 L 0.40625 39 Z M 0.40625 34 " clip-rule="nonzero"/></clipPath><clipPath id="0a0b038c15"><path d="M 22 24 L 47.597656 24 L 47.597656 42.300781 L 22 42.300781 Z M 22 24 " clip-rule="nonzero"/></clipPath><clipPath id="c2a0a030b5"><path d="M 12 31 L 22 31 L 22 40 L 12 40 Z M 12 31 " clip-rule="nonzero"/></clipPath><clipPath id="dc0b7791b6"><path d="M 13.03125 31.703125 C 14.324219 32.066406 17.339844 32.722656 21.296875 32.269531 C 21.359375 32.261719 21.425781 32.265625 21.484375 32.285156 C 21.546875 32.304688 21.601562 32.335938 21.652344 32.378906 C 21.699219 32.421875 21.738281 32.472656 21.761719 32.53125 C 21.789062 32.589844 21.800781 32.652344 21.800781 32.714844 L 21.800781 38.792969 C 21.796875 38.925781 21.746094 39.054688 21.65625 39.15625 C 21.570312 39.253906 21.445312 39.320312 21.3125 39.339844 C 19.90625 39.535156 15.726562 39.941406 12.609375 38.605469 C 12.53125 38.570312 12.460938 38.511719 12.414062 38.4375 C 12.367188 38.363281 12.34375 38.28125 12.347656 38.191406 L 12.347656 32.238281 C 12.347656 31.886719 12.703125 31.609375 13.03125 31.703125 Z M 13.03125 31.703125 " clip-rule="nonzero"/></clipPath><linearGradient x1="1550.37966" gradientTransform="matrix(0.0105758, 0, 0, 0.0105259, 0.400001, 1.011328)" y1="2868.585859" x2="1628.914193" gradientUnits="userSpaceOnUse" y2="3734.468414" id="a96a8022f0"><stop stop-opacity="1" stop-color="rgb(100%, 100%, 100%)" offset="0"/><stop stop-opacity="1" stop-color="rgb(99.859619%, 99.908447%, 100%)" offset="0.0625"/><stop stop-opacity="1" stop-color="rgb(99.542236%, 99.699402%, 100%)" offset="0.078125"/><stop stop-opacity="1" stop-color="rgb(99.185181%, 99.465942%, 100%)" offset="0.0928925"/><stop stop-opacity="1" stop-color="rgb(99.006653%, 99.34845%, 100%)" offset="0.09375"/><stop stop-opacity="1" stop-color="rgb(98.828125%, 99.230957%, 100%)" offset="0.109375"/><stop stop-opacity="1" stop-color="rgb(98.469543%, 98.997498%, 100%)" offset="0.125"/><stop stop-opacity="1" stop-color="rgb(98.112488%, 98.764038%, 100%)" offset="0.140625"/><stop stop-opacity="1" stop-color="rgb(97.755432%, 98.530579%, 100%)" offset="0.15625"/><stop stop-opacity="1" stop-color="rgb(97.398376%, 98.295593%, 100%)" offset="0.171875"/><stop stop-opacity="1" stop-color="rgb(97.041321%, 98.062134%, 100%)" offset="0.1875"/><stop stop-opacity="1" stop-color="rgb(96.684265%, 97.828674%, 100%)" offset="0.203125"/><stop stop-opacity="1" stop-color="rgb(96.327209%, 97.595215%, 100%)" offset="0.21875"/><stop stop-opacity="1" stop-color="rgb(95.970154%, 97.360229%, 100%)" offset="0.234375"/><stop stop-opacity="1" stop-color="rgb(95.613098%, 97.12677%, 100%)" offset="0.25"/><stop stop-opacity="1" stop-color="rgb(95.256042%, 96.893311%, 100%)" offset="0.265625"/><stop stop-opacity="1" stop-color="rgb(94.898987%, 96.658325%, 100%)" offset="0.28125"/><stop stop-opacity="1" stop-color="rgb(94.541931%, 96.424866%, 100%)" offset="0.296875"/><stop stop-opacity="1" stop-color="rgb(94.184875%, 96.191406%, 100%)" offset="0.3125"/><stop stop-opacity="1" stop-color="rgb(93.82782%, 95.957947%, 100%)" offset="0.328125"/><stop stop-opacity="1" stop-color="rgb(93.470764%, 95.722961%, 100%)" offset="0.34375"/><stop stop-opacity="1" stop-color="rgb(93.112183%, 95.489502%, 100%)" offset="0.359375"/><stop stop-opacity="1" stop-color="rgb(92.755127%, 95.256042%, 100%)" offset="0.375"/><stop stop-opacity="1" stop-color="rgb(92.398071%, 95.022583%, 100%)" offset="0.390625"/><stop stop-opacity="1" stop-color="rgb(92.041016%, 94.787598%, 100%)" offset="0.40625"/><stop stop-opacity="1" stop-color="rgb(91.68396%, 94.554138%, 100%)" offset="0.421875"/><stop stop-opacity="1" stop-color="rgb(91.326904%, 94.320679%, 100%)" offset="0.4375"/><stop stop-opacity="1" stop-color="rgb(90.969849%, 94.087219%, 100%)" offset="0.453125"/><stop stop-opacity="1" stop-color="rgb(90.612793%, 93.852234%, 100%)" offset="0.46875"/><stop stop-opacity="1" stop-color="rgb(90.255737%, 93.618774%, 100%)" offset="0.484375"/><stop stop-opacity="1" stop-color="rgb(89.898682%, 93.385315%, 100%)" offset="0.5"/><stop stop-opacity="1" stop-color="rgb(89.541626%, 93.151855%, 100%)" offset="0.515625"/><stop stop-opacity="1" stop-color="rgb(89.18457%, 92.91687%, 100%)" offset="0.53125"/><stop stop-opacity="1" stop-color="rgb(88.827515%, 92.683411%, 100%)" offset="0.546875"/><stop stop-opacity="1" stop-color="rgb(88.470459%, 92.449951%, 100%)" offset="0.5625"/><stop stop-opacity="1" stop-color="rgb(88.111877%, 92.216492%, 100%)" offset="0.578125"/><stop stop-opacity="1" stop-color="rgb(87.754822%, 91.981506%, 100%)" offset="0.59375"/><stop stop-opacity="1" stop-color="rgb(87.397766%, 91.748047%, 100%)" offset="0.609375"/><stop stop-opacity="1" stop-color="rgb(87.04071%, 91.514587%, 100%)" offset="0.625"/><stop stop-opacity="1" stop-color="rgb(86.683655%, 91.281128%, 100%)" offset="0.640625"/><stop stop-opacity="1" stop-color="rgb(86.326599%, 91.046143%, 100%)" offset="0.65625"/><stop stop-opacity="1" stop-color="rgb(85.969543%, 90.812683%, 100%)" offset="0.671875"/><stop stop-opacity="1" stop-color="rgb(85.612488%, 90.579224%, 100%)" offset="0.6875"/><stop stop-opacity="1" stop-color="rgb(85.255432%, 90.344238%, 100%)" offset="0.703125"/><stop stop-opacity="1" stop-color="rgb(84.898376%, 90.110779%, 100%)" offset="0.71875"/><stop stop-opacity="1" stop-color="rgb(84.541321%, 89.877319%, 100%)" offset="0.734375"/><stop stop-opacity="1" stop-color="rgb(84.184265%, 89.64386%, 100%)" offset="0.75"/><stop stop-opacity="1" stop-color="rgb(83.827209%, 89.408875%, 100%)" offset="0.765625"/><stop stop-opacity="1" stop-color="rgb(83.470154%, 89.175415%, 100%)" offset="0.78125"/><stop stop-opacity="1" stop-color="rgb(83.113098%, 88.941956%, 100%)" offset="0.796875"/><stop stop-opacity="1" stop-color="rgb(82.754517%, 88.708496%, 100%)" offset="0.8125"/><stop stop-opacity="1" stop-color="rgb(82.397461%, 88.473511%, 100%)" offset="0.828125"/><stop stop-opacity="1" stop-color="rgb(82.040405%, 88.240051%, 100%)" offset="0.84375"/><stop stop-opacity="1" stop-color="rgb(81.68335%, 88.006592%, 100%)" offset="0.859375"/><stop stop-opacity="1" stop-color="rgb(81.326294%, 87.773132%, 100%)" offset="0.875"/><stop stop-opacity="1" stop-color="rgb(80.969238%, 87.538147%, 100%)" offset="0.890625"/><stop stop-opacity="1" stop-color="rgb(80.612183%, 87.304688%, 100%)" offset="0.90625"/><stop stop-opacity="1" stop-color="rgb(80.255127%, 87.071228%, 100%)" offset="0.907108"/><stop stop-opacity="1" stop-color="rgb(80.076599%, 86.955261%, 100%)" offset="0.921875"/><stop stop-opacity="1" stop-color="rgb(79.898071%, 86.837769%, 100%)" offset="0.9375"/><stop stop-opacity="1" stop-color="rgb(79.541016%, 86.602783%, 100%)" offset="0.953125"/><stop stop-opacity="1" stop-color="rgb(79.18396%, 86.369324%, 100%)" offset="0.96875"/><stop stop-opacity="1" stop-color="rgb(78.826904%, 86.135864%, 100%)" offset="0.984375"/><stop stop-opacity="1" stop-color="rgb(78.469849%, 85.902405%, 100%)" offset="1"/></linearGradient><clipPath id="9c8fbfd99a"><path d="M 34 1.011719 L 47.597656 1.011719 L 47.597656 18 L 34 18 Z M 34 1.011719 " clip-rule="nonzero"/></clipPath><clipPath id="6d43c19e9b"><path d="M 46.863281 1.980469 C 45.175781 3.214844 42.09375 6.320312 35.363281 7.351562 C 34.847656 7.429688 34.65625 7.796875 34.65625 8.199219 L 34.65625 16.691406 C 34.660156 16.808594 34.703125 16.921875 34.78125 17.011719 C 34.855469 17.101562 34.960938 17.160156 35.078125 17.183594 C 36.777344 17.46875 43.3125 15.808594 47.222656 12.464844 C 47.597656 12.148438 47.597656 11.609375 47.597656 11.5 L 47.597656 2.40625 C 47.597656 2.027344 47.152344 1.769531 46.863281 1.980469 Z M 46.863281 1.980469 " clip-rule="nonzero"/></clipPath><linearGradient x1="4019.741768" gradientTransform="matrix(0.0105758, 0, 0, 0.0105259, 0.400001, 1.011328)" y1="-77.555418" x2="4338.875835" gradientUnits="userSpaceOnUse" y2="1587.069377" id="c99114b213"><stop stop-opacity="1" stop-color="rgb(85.510254%, 90.512085%, 100%)" offset="0"/><stop stop-opacity="1" stop-color="rgb(85.395813%, 90.437317%, 100%)" offset="0.015625"/><stop stop-opacity="1" stop-color="rgb(85.166931%, 90.287781%, 100%)" offset="0.03125"/><stop stop-opacity="1" stop-color="rgb(84.938049%, 90.138245%, 100%)" offset="0.046875"/><stop stop-opacity="1" stop-color="rgb(84.710693%, 89.988708%, 100%)" offset="0.0625"/><stop stop-opacity="1" stop-color="rgb(84.481812%, 89.839172%, 100%)" offset="0.078125"/><stop stop-opacity="1" stop-color="rgb(84.25293%, 89.689636%, 100%)" offset="0.09375"/><stop stop-opacity="1" stop-color="rgb(84.025574%, 89.5401%, 100%)" offset="0.109375"/><stop stop-opacity="1" stop-color="rgb(83.796692%, 89.390564%, 100%)" offset="0.125"/><stop stop-opacity="1" stop-color="rgb(83.569336%, 89.241028%, 100%)" offset="0.135919"/><stop stop-opacity="1" stop-color="rgb(83.454895%, 89.16626%, 100%)" offset="0.140625"/><stop stop-opacity="1" stop-color="rgb(83.340454%, 89.091492%, 100%)" offset="0.15625"/><stop stop-opacity="1" stop-color="rgb(83.111572%, 88.941956%, 100%)" offset="0.171875"/><stop stop-opacity="1" stop-color="rgb(82.884216%, 88.792419%, 100%)" offset="0.1875"/><stop stop-opacity="1" stop-color="rgb(82.655334%, 88.642883%, 100%)" offset="0.203125"/><stop stop-opacity="1" stop-color="rgb(82.426453%, 88.493347%, 100%)" offset="0.21875"/><stop stop-opacity="1" stop-color="rgb(82.199097%, 88.343811%, 100%)" offset="0.234375"/><stop stop-opacity="1" stop-color="rgb(81.970215%, 88.194275%, 100%)" offset="0.25"/><stop stop-opacity="1" stop-color="rgb(81.741333%, 88.044739%, 100%)" offset="0.265625"/><stop stop-opacity="1" stop-color="rgb(81.513977%, 87.895203%, 100%)" offset="0.28125"/><stop stop-opacity="1" stop-color="rgb(81.285095%, 87.745667%, 100%)" offset="0.296875"/><stop stop-opacity="1" stop-color="rgb(81.056213%, 87.59613%, 100%)" offset="0.3125"/><stop stop-opacity="1" stop-color="rgb(80.828857%, 87.446594%, 100%)" offset="0.328125"/><stop stop-opacity="1" stop-color="rgb(80.599976%, 87.297058%, 100%)" offset="0.34375"/><stop stop-opacity="1" stop-color="rgb(80.371094%, 87.147522%, 100%)" offset="0.359375"/><stop stop-opacity="1" stop-color="rgb(80.143738%, 86.997986%, 100%)" offset="0.375"/><stop stop-opacity="1" stop-color="rgb(79.914856%, 86.84845%, 100%)" offset="0.390625"/><stop stop-opacity="1" stop-color="rgb(79.685974%, 86.698914%, 100%)" offset="0.40625"/><stop stop-opacity="1" stop-color="rgb(79.458618%, 86.549377%, 100%)" offset="0.421875"/><stop stop-opacity="1" stop-color="rgb(79.229736%, 86.399841%, 100%)" offset="0.4375"/><stop stop-opacity="1" stop-color="rgb(79.00238%, 86.250305%, 100%)" offset="0.453125"/><stop stop-opacity="1" stop-color="rgb(78.773499%, 86.100769%, 100%)" offset="0.46875"/><stop stop-opacity="1" stop-color="rgb(78.544617%, 85.951233%, 100%)" offset="0.484375"/><stop stop-opacity="1" stop-color="rgb(78.317261%, 85.801697%, 100%)" offset="0.5"/><stop stop-opacity="1" stop-color="rgb(78.088379%, 85.653687%, 100%)" offset="0.515625"/><stop stop-opacity="1" stop-color="rgb(77.859497%, 85.50415%, 100%)" offset="0.53125"/><stop stop-opacity="1" stop-color="rgb(77.632141%, 85.354614%, 100%)" offset="0.546875"/><stop stop-opacity="1" stop-color="rgb(77.403259%, 85.205078%, 100%)" offset="0.5625"/><stop stop-opacity="1" stop-color="rgb(77.174377%, 85.055542%, 100%)" offset="0.578125"/><stop stop-opacity="1" stop-color="rgb(76.947021%, 84.906006%, 100%)" offset="0.59375"/><stop stop-opacity="1" stop-color="rgb(76.71814%, 84.75647%, 100%)" offset="0.609375"/><stop stop-opacity="1" stop-color="rgb(76.489258%, 84.606934%, 100%)" offset="0.625"/><stop stop-opacity="1" stop-color="rgb(76.261902%, 84.457397%, 100%)" offset="0.640625"/><stop stop-opacity="1" stop-color="rgb(76.03302%, 84.307861%, 100%)" offset="0.65625"/><stop stop-opacity="1" stop-color="rgb(75.804138%, 84.158325%, 100%)" offset="0.671875"/><stop stop-opacity="1" stop-color="rgb(75.576782%, 84.008789%, 100%)" offset="0.6875"/><stop stop-opacity="1" stop-color="rgb(75.3479%, 83.859253%, 100%)" offset="0.703125"/><stop stop-opacity="1" stop-color="rgb(75.120544%, 83.709717%, 100%)" offset="0.71875"/><stop stop-opacity="1" stop-color="rgb(74.891663%, 83.560181%, 100%)" offset="0.734375"/><stop stop-opacity="1" stop-color="rgb(74.662781%, 83.410645%, 100%)" offset="0.75"/><stop stop-opacity="1" stop-color="rgb(74.435425%, 83.261108%, 100%)" offset="0.765625"/><stop stop-opacity="1" stop-color="rgb(74.206543%, 83.111572%, 100%)" offset="0.78125"/><stop stop-opacity="1" stop-color="rgb(73.977661%, 82.962036%, 100%)" offset="0.796875"/><stop stop-opacity="1" stop-color="rgb(73.750305%, 82.8125%, 100%)" offset="0.8125"/><stop stop-opacity="1" stop-color="rgb(73.521423%, 82.662964%, 100%)" offset="0.828125"/><stop stop-opacity="1" stop-color="rgb(73.292542%, 82.513428%, 100%)" offset="0.84375"/><stop stop-opacity="1" stop-color="rgb(73.065186%, 82.363892%, 100%)" offset="0.859375"/><stop stop-opacity="1" stop-color="rgb(72.836304%, 82.214355%, 100%)" offset="0.864081"/><stop stop-opacity="1" stop-color="rgb(72.721863%, 82.139587%, 100%)" offset="0.875"/><stop stop-opacity="1" stop-color="rgb(72.607422%, 82.064819%, 100%)" offset="0.890625"/><stop stop-opacity="1" stop-color="rgb(72.380066%, 81.915283%, 100%)" offset="0.90625"/><stop stop-opacity="1" stop-color="rgb(72.151184%, 81.765747%, 100%)" offset="0.921875"/><stop stop-opacity="1" stop-color="rgb(71.922302%, 81.616211%, 100%)" offset="0.9375"/><stop stop-opacity="1" stop-color="rgb(71.694946%, 81.466675%, 100%)" offset="0.953125"/><stop stop-opacity="1" stop-color="rgb(71.466064%, 81.317139%, 100%)" offset="0.96875"/><stop stop-opacity="1" stop-color="rgb(71.237183%, 81.167603%, 100%)" offset="0.984375"/><stop stop-opacity="1" stop-color="rgb(71.009827%, 81.018066%, 100%)" offset="1"/></linearGradient><clipPath id="55f4354b7f"><path d="M 35 1.011719 L 47.597656 1.011719 L 47.597656 14 L 35 14 Z M 35 1.011719 " clip-rule="nonzero"/></clipPath><clipPath id="5974dad7d1"><path d="M 35 1.011719 L 47.597656 1.011719 L 47.597656 16 L 35 16 Z M 35 1.011719 " clip-rule="nonzero"/></clipPath><clipPath id="1aca8265fe"><path d="M 35 1.011719 L 47.597656 1.011719 L 47.597656 18 L 35 18 Z M 35 1.011719 " clip-rule="nonzero"/></clipPath><clipPath id="f8dade28fd"><path d="M 35 4 L 47.597656 4 L 47.597656 21 L 35 21 Z M 35 4 " clip-rule="nonzero"/></clipPath></defs><g clip-path="url(#b197df9463)"><path fill="#1c85e8" d="M 9.859375 1.011719 L 38.753906 1.011719 C 39.191406 1.011719 39.609375 1.183594 39.917969 1.492188 C 40.226562 1.800781 40.402344 2.214844 40.402344 2.652344 L 40.402344 4.460938 L 8.210938 4.460938 L 8.210938 2.652344 C 8.210938 2.214844 8.382812 1.800781 8.695312 1.492188 C 9.003906 1.183594 9.421875 1.011719 9.859375 1.011719 Z M 9.859375 1.011719 " fill-opacity="1" fill-rule="nonzero"/></g><g clip-path="url(#f135866213)"><g clip-path="url(#ba1c116b84)"><path fill="url(#8721d29969)" d="M 8.210938 4.460938 L 8.210938 36.5 L 40.402344 36.5 L 40.402344 4.460938 Z M 8.210938 4.460938 " fill-rule="nonzero"/></g></g><path fill="#ffccb3" d="M 29.242188 25.0625 L 20.414062 25.0625 L 20.414062 29.328125 L 29.242188 29.328125 Z M 29.242188 25.0625 " fill-opacity="1" fill-rule="nonzero"/><path fill="#1f2d49" d="M 20.363281 27.695312 C 19.328125 28.707031 18.917969 33.703125 18.972656 36.5 L 31.300781 36.5 C 31.300781 36.5 31.277344 30.398438 30.34375 28.339844 C 29.484375 26.449219 28.054688 29.238281 20.363281 27.695312 Z M 20.363281 27.695312 " fill-opacity="1" fill-rule="nonzero"/><path fill="#1c85e8" d="M 22.398438 15.796875 C 22.398438 15.796875 23.984375 17.570312 23.457031 18.136719 C 22.414062 19.304688 19.636719 21.5 18.726562 22.226562 C 18.683594 22.257812 18.640625 22.277344 18.59375 22.289062 C 18.542969 22.304688 18.496094 22.304688 18.445312 22.300781 C 18.398438 22.292969 18.351562 22.277344 18.308594 22.253906 C 18.265625 22.226562 18.226562 22.195312 18.195312 22.15625 L 16.042969 19.335938 C 15.960938 19.230469 15.921875 19.09375 15.933594 18.957031 C 15.949219 18.820312 16.015625 18.695312 16.117188 18.605469 L 20.289062 15.027344 Z M 22.398438 15.796875 " fill-opacity="1" fill-rule="nonzero"/><path fill="#0e66af" d="M 19.894531 18.050781 C 19.894531 18.050781 17.917969 19.21875 17.742188 21.566406 L 18.136719 22.070312 C 18.136719 22.070312 18.382812 22.5 18.726562 22.226562 C 19.066406 21.953125 20.652344 20.691406 20.652344 20.691406 Z M 19.894531 18.050781 " fill-opacity="1" fill-rule="nonzero"/><path fill="#1c85e8" d="M 21.742188 18.941406 C 22.976562 18.941406 23.976562 17.945312 23.976562 16.71875 C 23.976562 15.492188 22.976562 14.496094 21.742188 14.496094 C 20.511719 14.496094 19.511719 15.492188 19.511719 16.71875 C 19.511719 17.945312 20.511719 18.941406 21.742188 18.941406 Z M 21.742188 18.941406 " fill-opacity="1" fill-rule="nonzero"/><path fill="#ffccb3" d="M 15.929688 23.683594 L 13.980469 21.113281 L 15.828125 19.683594 L 16.117188 19.453125 L 18.140625 22.085938 L 17.789062 22.339844 Z M 15.929688 23.683594 " fill-opacity="1" fill-rule="nonzero"/><path fill="#ff967c" d="M 17.789062 22.339844 C 17.265625 21.640625 16.28125 20.28125 15.828125 19.683594 L 16.117188 19.453125 L 18.136719 22.070312 Z M 17.789062 22.339844 " fill-opacity="1" fill-rule="nonzero"/><path fill="#ffccb3" d="M 14.925781 24.039062 C 15.820312 24.039062 16.546875 23.316406 16.546875 22.425781 C 16.546875 21.535156 15.820312 20.8125 14.925781 20.8125 C 14.03125 20.8125 13.304688 21.535156 13.304688 22.425781 C 13.304688 23.316406 14.03125 24.039062 14.925781 24.039062 Z M 14.925781 24.039062 " fill-opacity="1" fill-rule="nonzero"/><path fill="#ffccb3" d="M 16.296875 21.558594 C 16.296875 21.558594 11.070312 13.917969 10.828125 13.269531 C 10.59375 12.636719 9.359375 14.160156 9.359375 14.160156 L 13.40625 22.945312 Z M 16.296875 21.558594 " fill-opacity="1" fill-rule="nonzero"/><path fill="#ffccb3" d="M 23.496094 10.902344 L 22.867188 15.265625 C 22.867188 15.265625 22.703125 15.84375 23.433594 15.929688 C 24.164062 16.019531 25.726562 15.824219 26.285156 15.230469 C 26.839844 14.640625 26.648438 14.347656 26.648438 14.347656 L 25.464844 9.613281 Z M 23.496094 10.902344 " fill-opacity="1" fill-rule="nonzero"/><path fill="#ff967c" d="M 23.40625 11.46875 L 24.945312 10.929688 L 23.039062 13.738281 Z M 23.40625 11.46875 " fill-opacity="1" fill-rule="nonzero"/><path fill="#ffccb3" d="M 21.753906 5.519531 C 21.753906 5.519531 20.4375 8.601562 21.125 10.714844 C 21.574219 12.09375 22.546875 12.339844 24.785156 11.308594 C 26.832031 10.363281 27.367188 9.644531 27.367188 9.644531 L 27.667969 6.207031 C 27.667969 6.207031 23.09375 2.769531 21.753906 5.519531 Z M 21.753906 5.519531 " fill-opacity="1" fill-rule="nonzero"/><path fill="#1c85e8" d="M 22.855469 14.011719 C 22.855469 14.011719 21.164062 14.476562 20.824219 14.75 C 20.480469 15.023438 19.9375 16.421875 19.9375 18.019531 C 19.9375 20.285156 20.25 21.5 20.25 22.90625 C 20.25 24.316406 19.503906 29.683594 19.503906 29.683594 L 30.464844 29.683594 C 30.183594 24.304688 30.464844 14.703125 30.464844 14.703125 L 26.289062 13.746094 C 25.347656 13.90625 22.855469 14.011719 22.855469 14.011719 Z M 22.855469 14.011719 " fill-opacity="1" fill-rule="nonzero"/><path fill="#0e66af" d="M 28.441406 16.71875 C 28.441406 16.71875 26.984375 17.675781 27.414062 18.644531 C 27.894531 19.730469 27.414062 20.929688 27.414062 22.597656 C 27.246094 23.097656 27.152344 23.574219 27.152344 23.980469 C 27.152344 24.386719 26.925781 24 26.925781 25.175781 C 26.925781 26.015625 29.574219 26.742188 29.503906 26.0625 C 29.042969 21.535156 30.957031 18.664062 28.441406 16.71875 Z M 28.441406 16.71875 " fill-opacity="1" fill-rule="nonzero"/><path fill="#ffccb3" d="M 33.484375 25.386719 L 30.257812 25.648438 L 29.707031 23.324219 L 29.042969 21.535156 L 32.4375 21.128906 L 32.863281 23.132812 Z M 33.484375 25.386719 " fill-opacity="1" fill-rule="nonzero"/><path fill="#ff967c" d="M 32.554688 21.667969 L 32.671875 22.230469 L 29.328125 22.304688 L 29.109375 21.710938 Z M 32.554688 21.667969 " fill-opacity="1" fill-rule="nonzero"/><path fill="#1c85e8" d="M 29.910156 19.078125 C 31.140625 19.078125 32.140625 18.082031 32.140625 16.855469 C 32.140625 15.628906 31.140625 14.632812 29.910156 14.632812 C 28.675781 14.632812 27.675781 15.628906 27.675781 16.855469 C 27.675781 18.082031 28.675781 19.078125 29.910156 19.078125 Z M 29.910156 19.078125 " fill-opacity="1" fill-rule="nonzero"/><path fill="#1c85e8" d="M 29.480469 15.8125 C 29.480469 15.8125 31.832031 15.425781 32.03125 16.175781 C 32.460938 17.675781 32.992188 20.089844 33.121094 21.246094 C 33.125 21.292969 33.121094 21.34375 33.105469 21.390625 C 33.089844 21.4375 33.066406 21.480469 33.035156 21.519531 C 33.003906 21.558594 32.964844 21.589844 32.921875 21.609375 C 32.875 21.632812 32.828125 21.648438 32.777344 21.652344 L 29.234375 21.953125 C 29.097656 21.964844 28.960938 21.925781 28.851562 21.839844 C 28.746094 21.753906 28.671875 21.632812 28.652344 21.496094 L 27.695312 17.171875 Z M 29.480469 15.8125 " fill-opacity="1" fill-rule="nonzero"/><path fill="#080b09" d="M 22.578125 5.226562 C 22.578125 5.226562 22.660156 6.722656 23.9375 7.449219 C 23.9375 7.449219 24.308594 8.597656 25.699219 8.867188 C 25.699219 8.867188 25.617188 7.8125 26.28125 7.824219 C 27.40625 7.84375 26.855469 9.542969 26.09375 9.820312 C 25.574219 10.011719 25.261719 10.683594 26.03125 12.21875 C 27.796875 11.589844 29.035156 9.0625 28.550781 6.257812 C 28.160156 4.011719 25.363281 3.277344 24.785156 3.351562 C 24.785156 3.351562 22.398438 2.527344 21.140625 4.78125 C 20.066406 6.707031 21.070312 7.855469 21.070312 7.855469 L 21.644531 6.140625 C 21.644531 6.140625 21.882812 6.308594 22.578125 5.226562 Z M 22.578125 5.226562 " fill-opacity="1" fill-rule="nonzero"/><g clip-path="url(#476cb40a1b)"><g clip-path="url(#096dccdfc5)"><path fill="url(#e87091ef4b)" d="M 23.476562 23.324219 L 23.476562 30.9375 L 34.96875 30.9375 L 34.96875 23.324219 Z M 23.476562 23.324219 " fill-rule="nonzero"/></g></g><path fill="#ffffff" d="M 29.242188 27.609375 C 29.574219 27.609375 29.84375 27.34375 29.84375 27.011719 C 29.84375 26.683594 29.574219 26.417969 29.242188 26.417969 C 28.914062 26.417969 28.644531 26.683594 28.644531 27.011719 C 28.644531 27.34375 28.914062 27.609375 29.242188 27.609375 Z M 29.242188 27.609375 " fill-opacity="1" fill-rule="nonzero"/><path fill="#ffccb3" d="M 9.582031 14.664062 L 9.066406 13.679688 C 9.066406 13.679688 7.246094 12.644531 7.035156 12.269531 C 6.824219 11.894531 6.742188 10.824219 7.113281 10.550781 C 7.113281 10.550781 5.664062 9.464844 5.910156 9.242188 C 6.15625 9.007812 9.011719 11.117188 9.011719 11.117188 C 9.011719 11.117188 8.664062 9.5625 9.191406 9.488281 C 9.332031 10.09375 9.578125 10.667969 9.914062 11.1875 C 10.472656 12.042969 10.539062 12.808594 10.539062 12.808594 L 11.195312 14.058594 Z M 9.582031 14.664062 " fill-opacity="1" fill-rule="nonzero"/><path stroke-linecap="round" transform="matrix(0.0105758, 0, 0, 0.0105259, 0.400001, 1.011328)" fill="none" stroke-linejoin="round" d="M 644.378092 908.88013 L 727.483152 961.20633 " stroke="#ff967c" stroke-width="13.016" stroke-opacity="1" stroke-miterlimit="4"/><path stroke-linecap="round" transform="matrix(0.0105758, 0, 0, 0.0105259, 0.400001, 1.011328)" fill="none" stroke-linejoin="round" d="M 631.819994 968.628486 L 702.366956 1012.419207 " stroke="#ff967c" stroke-width="13.016" stroke-opacity="1" stroke-miterlimit="4"/><path stroke-linecap="round" transform="matrix(0.0105758, 0, 0, 0.0105259, 0.400001, 1.011328)" fill="none" stroke-linejoin="round" d="M 645.48616 1033.572352 L 692.763705 1063.260977 " stroke="#ff967c" stroke-width="13.016" stroke-opacity="1" stroke-miterlimit="4"/><path fill="#ffffff" d="M 10.652344 3.152344 C 10.886719 3.152344 11.074219 2.96875 11.074219 2.738281 C 11.074219 2.507812 10.886719 2.320312 10.652344 2.320312 C 10.421875 2.320312 10.234375 2.507812 10.234375 2.738281 C 10.234375 2.96875 10.421875 3.152344 10.652344 3.152344 Z M 10.652344 3.152344 " fill-opacity="1" fill-rule="nonzero"/><path fill="#ffffff" d="M 12.347656 3.152344 C 12.578125 3.152344 12.765625 2.96875 12.765625 2.738281 C 12.765625 2.507812 12.578125 2.320312 12.347656 2.320312 C 12.117188 2.320312 11.929688 2.507812 11.929688 2.738281 C 11.929688 2.96875 12.117188 3.152344 12.347656 3.152344 Z M 12.347656 3.152344 " fill-opacity="1" fill-rule="nonzero"/><path fill="#ffffff" d="M 13.9375 3.152344 C 14.167969 3.152344 14.359375 2.96875 14.359375 2.738281 C 14.359375 2.507812 14.167969 2.320312 13.9375 2.320312 C 13.707031 2.320312 13.519531 2.507812 13.519531 2.738281 C 13.519531 2.96875 13.707031 3.152344 13.9375 3.152344 Z M 13.9375 3.152344 " fill-opacity="1" fill-rule="nonzero"/><g clip-path="url(#c979d826aa)"><path fill="#febb94" d="M 1.34375 2.683594 C 3.03125 4.117188 7.476562 7.378906 13.121094 7.535156 C 13.238281 7.539062 13.347656 7.585938 13.425781 7.667969 C 13.507812 7.75 13.550781 7.859375 13.550781 7.976562 L 13.550781 16.878906 C 13.550781 16.992188 13.507812 17.101562 13.429688 17.183594 C 13.351562 17.265625 13.242188 17.316406 13.128906 17.320312 C 11.433594 17.40625 4.996094 17.394531 0.730469 12.851562 C 0.652344 12.769531 0.613281 12.664062 0.613281 12.550781 L 0.613281 3.023438 C 0.613281 2.9375 0.636719 2.855469 0.683594 2.785156 C 0.726562 2.710938 0.792969 2.65625 0.871094 2.621094 C 0.945312 2.585938 1.03125 2.574219 1.117188 2.582031 C 1.199219 2.59375 1.28125 2.628906 1.34375 2.683594 Z M 1.34375 2.683594 " fill-opacity="0.7" fill-rule="nonzero"/></g><g clip-path="url(#3a7e4165d0)"><path stroke-linecap="round" transform="matrix(0.0105758, 0, 0, 0.0105259, 0.400001, 1.011328)" fill="none" stroke-linejoin="miter" d="M 149.81065 408.2557 C 149.81065 408.2557 275.391628 530.350168 447.51144 606.427268 " stroke="#ffffff" stroke-width="33.686001" stroke-opacity="1" stroke-miterlimit="10"/></g><g clip-path="url(#68998a88bd)"><path stroke-linecap="round" transform="matrix(0.0105758, 0, 0, 0.0105259, 0.400001, 1.011328)" fill="none" stroke-linejoin="miter" d="M 149.81065 556.327715 C 149.81065 556.327715 324.885308 719.615149 552.408493 780.476829 " stroke="#ffffff" stroke-width="33.686001" stroke-opacity="0.4" stroke-miterlimit="10"/></g><path fill="#ffffff" d="M 1.707031 12.570312 L 1.707031 8.851562 L 3.019531 9.785156 L 3.019531 13.59375 Z M 1.707031 12.570312 " fill-opacity="1" fill-rule="nonzero"/><path fill="#ffffff" d="M 3.917969 14.074219 L 3.917969 11.425781 L 5.230469 12.203125 L 5.230469 14.824219 Z M 3.917969 14.074219 " fill-opacity="1" fill-rule="nonzero"/><path fill="#ffffff" d="M 9.519531 16.148438 L 9.519531 13.5 L 8.210938 13.320312 L 8.210938 15.9375 Z M 9.519531 16.148438 " fill-opacity="1" fill-rule="nonzero"/><path fill="#ffffff" d="M 11.671875 16.261719 L 11.671875 11.621094 L 10.363281 11.621094 L 10.363281 16.230469 Z M 11.671875 16.261719 " fill-opacity="1" fill-rule="nonzero"/><path fill="#ffffff" d="M 6.066406 15.234375 L 6.066406 14.023438 L 7.375 14.390625 L 7.375 15.707031 Z M 6.066406 15.234375 " fill-opacity="1" fill-rule="nonzero"/><path fill="#96bafd" d="M 4.625 21.132812 C 6.3125 22.367188 10.757812 25.582031 16.402344 25.070312 C 16.457031 25.0625 16.511719 25.070312 16.566406 25.085938 C 16.617188 25.101562 16.667969 25.128906 16.707031 25.167969 C 16.746094 25.203125 16.78125 25.25 16.800781 25.300781 C 16.824219 25.351562 16.832031 25.40625 16.832031 25.460938 L 16.832031 34.363281 C 16.828125 34.480469 16.785156 34.59375 16.710938 34.683594 C 16.632812 34.773438 16.527344 34.835938 16.410156 34.855469 C 14.710938 35.140625 7.652344 35 4.011719 31.371094 C 3.972656 31.335938 3.941406 31.289062 3.921875 31.242188 C 3.902344 31.191406 3.890625 31.140625 3.894531 31.085938 L 3.894531 21.558594 C 3.894531 21.179688 4.335938 20.921875 4.625 21.132812 Z M 4.625 21.132812 " fill-opacity="0.7" fill-rule="nonzero"/><path fill="#ffccb3" d="M 31.757812 30.683594 C 31.757812 30.683594 32.207031 30.71875 32.140625 30.945312 C 32.070312 31.171875 31.667969 31.066406 31.300781 31.292969 C 30.933594 31.523438 29.476562 31.683594 28.75 31.5625 C 28.023438 31.441406 27.820312 30.683594 27.820312 30.683594 C 27.820312 30.683594 27.699219 29.960938 28.984375 29.886719 C 30.265625 29.8125 30.863281 30.222656 31.089844 30.667969 Z M 31.757812 30.683594 " fill-opacity="1" fill-rule="nonzero"/><path stroke-linecap="round" transform="matrix(0.0105758, 0, 0, 0.0105259, 0.400001, 1.011328)" fill="none" stroke-linejoin="miter" d="M 2644.439855 2754.028137 L 2670.664118 2824.53862 " stroke="#e56441" stroke-width="10.147" stroke-opacity="1" stroke-miterlimit="4"/><path stroke-linecap="round" transform="matrix(0.0105758, 0, 0, 0.0105259, 0.400001, 1.011328)" fill="none" stroke-linejoin="miter" d="M 2712.401326 2742.523795 L 2738.625589 2813.034278 " stroke="#e56441" stroke-width="10.147" stroke-opacity="1" stroke-miterlimit="4"/><path stroke-linecap="round" transform="matrix(0.0105758, 0, 0, 0.0105259, 0.400001, 1.011328)" fill="none" stroke-linejoin="miter" d="M 2784.056355 2748.46152 L 2810.280618 2818.972003 " stroke="#e56441" stroke-width="10.147" stroke-opacity="1" stroke-miterlimit="4"/><g clip-path="url(#98c045fcda)"><path fill="#1c85e8" d="M 45.421875 21.859375 C 43.070312 23.855469 36.871094 28.40625 28.996094 28.621094 C 28.835938 28.625 28.679688 28.695312 28.570312 28.808594 C 28.457031 28.925781 28.394531 29.078125 28.394531 29.238281 L 28.394531 41.65625 C 28.394531 41.816406 28.457031 41.96875 28.566406 42.082031 C 28.675781 42.199219 28.824219 42.265625 28.984375 42.273438 C 31.351562 42.390625 40.332031 42.378906 46.28125 36.039062 C 46.386719 35.925781 46.445312 35.773438 46.445312 35.621094 L 46.445312 22.328125 C 46.445312 22.210938 46.410156 22.09375 46.347656 21.996094 C 46.28125 21.898438 46.191406 21.816406 46.085938 21.769531 C 45.976562 21.71875 45.855469 21.699219 45.742188 21.714844 C 45.621094 21.734375 45.511719 21.78125 45.421875 21.859375 Z M 45.421875 21.859375 " fill-opacity="0.7" fill-rule="nonzero"/></g><g clip-path="url(#ecf243616a)"><path stroke-linecap="round" transform="matrix(0.0105758, 0, 0, 0.0105259, 0.400001, 1.011328)" fill="none" stroke-linejoin="miter" d="M 4172.834237 2328.367484 C 4172.834237 2328.367484 3997.390222 2498.705967 3757.678296 2604.471692 " stroke="#ffffff" stroke-width="46.988998" stroke-opacity="1" stroke-miterlimit="10"/></g><g clip-path="url(#2b515f4cbf)"><path stroke-linecap="round" transform="matrix(0.0105758, 0, 0, 0.0105259, 0.400001, 1.011328)" fill="none" stroke-linejoin="miter" d="M 4172.834237 2535.074532 C 4172.834237 2535.074532 3928.69004 2762.563617 3611.044035 2847.176196 " stroke="#ffffff" stroke-width="46.988998" stroke-opacity="0.4" stroke-miterlimit="10"/></g><path fill="#ffffff" d="M 43.324219 17.929688 L 36.148438 17.929688 C 36.007812 17.929688 35.867188 17.957031 35.738281 18.011719 C 35.605469 18.0625 35.488281 18.144531 35.390625 18.242188 C 35.289062 18.339844 35.210938 18.457031 35.15625 18.589844 C 35.101562 18.71875 35.074219 18.855469 35.074219 18.996094 L 35.074219 21.207031 C 35.074219 21.347656 35.101562 21.484375 35.15625 21.613281 C 35.210938 21.746094 35.289062 21.863281 35.390625 21.960938 C 35.488281 22.058594 35.605469 22.140625 35.738281 22.191406 C 35.867188 22.246094 36.007812 22.273438 36.148438 22.273438 L 38.695312 22.273438 L 39.445312 23.023438 C 39.515625 23.09375 39.613281 23.132812 39.710938 23.132812 C 39.8125 23.132812 39.90625 23.09375 39.976562 23.023438 L 40.730469 22.273438 L 43.324219 22.273438 C 43.609375 22.273438 43.882812 22.160156 44.082031 21.960938 C 44.285156 21.761719 44.398438 21.488281 44.398438 21.207031 L 44.398438 18.996094 C 44.398438 18.714844 44.285156 18.441406 44.082031 18.242188 C 43.882812 18.042969 43.609375 17.929688 43.324219 17.929688 Z M 43.324219 17.929688 " fill-opacity="1" fill-rule="nonzero"/><path fill="#f4608a" d="M 38.121094 19.402344 C 38.023438 19.3125 37.898438 19.261719 37.769531 19.261719 C 37.636719 19.261719 37.511719 19.3125 37.417969 19.402344 L 37.285156 19.523438 L 37.152344 19.402344 C 37.054688 19.3125 36.929688 19.261719 36.800781 19.261719 C 36.667969 19.261719 36.542969 19.3125 36.449219 19.402344 C 36.398438 19.445312 36.355469 19.5 36.328125 19.5625 C 36.300781 19.625 36.285156 19.691406 36.285156 19.761719 C 36.285156 19.828125 36.300781 19.894531 36.328125 19.957031 C 36.355469 20.019531 36.398438 20.074219 36.449219 20.121094 L 37.285156 20.890625 L 38.121094 20.132812 C 38.171875 20.085938 38.214844 20.03125 38.242188 19.96875 C 38.273438 19.902344 38.289062 19.835938 38.289062 19.765625 C 38.289062 19.695312 38.273438 19.628906 38.242188 19.566406 C 38.214844 19.5 38.171875 19.445312 38.121094 19.402344 Z M 38.121094 19.402344 " fill-opacity="1" fill-rule="nonzero"/><path fill="#1c85e8" d="M 39.054688 19.851562 C 39.0625 19.757812 39.097656 19.683594 39.164062 19.632812 C 39.226562 19.578125 39.3125 19.550781 39.417969 19.550781 C 39.484375 19.550781 39.546875 19.566406 39.59375 19.589844 C 39.648438 19.613281 39.683594 19.648438 39.710938 19.691406 C 39.738281 19.734375 39.75 19.78125 39.75 19.835938 C 39.75 19.898438 39.730469 19.953125 39.695312 20 C 39.660156 20.042969 39.613281 20.074219 39.554688 20.085938 L 39.554688 20.09375 C 39.621094 20.113281 39.671875 20.144531 39.710938 20.191406 C 39.75 20.238281 39.769531 20.300781 39.769531 20.378906 C 39.769531 20.4375 39.757812 20.488281 39.730469 20.535156 C 39.703125 20.582031 39.664062 20.617188 39.609375 20.644531 C 39.558594 20.671875 39.492188 20.683594 39.417969 20.683594 C 39.3125 20.683594 39.222656 20.65625 39.152344 20.601562 C 39.082031 20.542969 39.042969 20.460938 39.035156 20.359375 L 39.171875 20.359375 C 39.179688 20.417969 39.203125 20.46875 39.246094 20.507812 C 39.289062 20.546875 39.347656 20.566406 39.417969 20.566406 C 39.488281 20.566406 39.542969 20.546875 39.582031 20.511719 C 39.617188 20.472656 39.636719 20.425781 39.636719 20.367188 C 39.636719 20.289062 39.613281 20.234375 39.5625 20.203125 C 39.507812 20.167969 39.433594 20.152344 39.328125 20.152344 L 39.292969 20.152344 L 39.292969 20.035156 L 39.332031 20.035156 C 39.425781 20.035156 39.496094 20.019531 39.542969 19.988281 C 39.589844 19.960938 39.617188 19.914062 39.617188 19.851562 C 39.617188 19.796875 39.597656 19.753906 39.5625 19.71875 C 39.527344 19.6875 39.476562 19.671875 39.410156 19.671875 C 39.347656 19.671875 39.296875 19.6875 39.257812 19.71875 C 39.21875 19.753906 39.195312 19.796875 39.191406 19.851562 Z M 40.125 20.484375 L 39.953125 20.894531 L 39.859375 20.894531 L 39.972656 20.484375 Z M 40.96875 19.695312 L 40.429688 19.695312 L 40.429688 20.042969 C 40.453125 20.007812 40.488281 19.984375 40.535156 19.960938 C 40.582031 19.941406 40.628906 19.929688 40.683594 19.929688 C 40.769531 19.929688 40.835938 19.949219 40.890625 19.984375 C 40.941406 20.019531 40.980469 20.0625 41.003906 20.121094 C 41.027344 20.175781 41.039062 20.234375 41.039062 20.292969 C 41.039062 20.367188 41.023438 20.433594 40.996094 20.492188 C 40.96875 20.550781 40.925781 20.59375 40.871094 20.628906 C 40.8125 20.664062 40.742188 20.679688 40.660156 20.679688 C 40.554688 20.679688 40.464844 20.652344 40.398438 20.597656 C 40.332031 20.542969 40.292969 20.46875 40.277344 20.378906 L 40.414062 20.378906 C 40.429688 20.433594 40.457031 20.480469 40.5 20.511719 C 40.542969 20.546875 40.597656 20.5625 40.660156 20.5625 C 40.742188 20.5625 40.804688 20.539062 40.84375 20.488281 C 40.886719 20.441406 40.90625 20.378906 40.90625 20.296875 C 40.90625 20.21875 40.886719 20.15625 40.84375 20.113281 C 40.804688 20.070312 40.742188 20.050781 40.664062 20.050781 C 40.609375 20.050781 40.5625 20.0625 40.519531 20.089844 C 40.480469 20.113281 40.453125 20.148438 40.433594 20.195312 L 40.300781 20.195312 L 40.300781 19.574219 L 40.96875 19.574219 Z M 41.207031 20.566406 C 41.335938 20.460938 41.4375 20.375 41.511719 20.308594 C 41.585938 20.242188 41.648438 20.171875 41.695312 20.101562 C 41.75 20.027344 41.773438 19.957031 41.773438 19.886719 C 41.773438 19.820312 41.757812 19.769531 41.726562 19.730469 C 41.691406 19.691406 41.640625 19.671875 41.570312 19.671875 C 41.5 19.671875 41.445312 19.695312 41.40625 19.738281 C 41.371094 19.78125 41.347656 19.839844 41.347656 19.910156 L 41.210938 19.910156 C 41.214844 19.796875 41.25 19.710938 41.316406 19.648438 C 41.382812 19.585938 41.464844 19.554688 41.570312 19.554688 C 41.671875 19.554688 41.757812 19.582031 41.816406 19.640625 C 41.878906 19.699219 41.910156 19.777344 41.910156 19.878906 C 41.910156 19.964844 41.886719 20.046875 41.835938 20.128906 C 41.785156 20.207031 41.726562 20.277344 41.664062 20.335938 C 41.597656 20.398438 41.515625 20.46875 41.417969 20.546875 L 41.941406 20.546875 L 41.941406 20.664062 L 41.207031 20.664062 Z M 42.785156 19.683594 L 42.359375 20.675781 L 42.21875 20.675781 L 42.652344 19.695312 L 42.058594 19.695312 L 42.058594 19.578125 L 42.785156 19.578125 Z M 42.785156 19.683594 " fill-opacity="1" fill-rule="nonzero"/><g clip-path="url(#f39ae2caa2)"><path fill="#1c85e8" d="M 1.214844 38.269531 L 6.625 38.269531 C 6.730469 38.269531 6.835938 38.25 6.933594 38.210938 C 7.03125 38.167969 7.121094 38.109375 7.195312 38.035156 C 7.273438 37.960938 7.332031 37.871094 7.371094 37.773438 C 7.414062 37.675781 7.433594 37.570312 7.433594 37.464844 L 7.433594 35.800781 C 7.433594 35.695312 7.414062 35.589844 7.371094 35.492188 C 7.332031 35.394531 7.273438 35.304688 7.195312 35.230469 C 7.121094 35.15625 7.03125 35.097656 6.933594 35.054688 C 6.835938 35.015625 6.730469 34.996094 6.625 34.996094 L 4.703125 34.996094 L 4.136719 34.429688 C 4.085938 34.378906 4.011719 34.347656 3.9375 34.347656 C 3.863281 34.347656 3.789062 34.378906 3.738281 34.429688 L 3.171875 34.996094 L 1.214844 34.996094 C 1 34.996094 0.792969 35.078125 0.640625 35.230469 C 0.492188 35.382812 0.40625 35.585938 0.40625 35.800781 L 0.40625 37.464844 C 0.40625 37.679688 0.492188 37.882812 0.640625 38.035156 C 0.792969 38.1875 1 38.269531 1.214844 38.269531 Z M 1.214844 38.269531 " fill-opacity="0.7" fill-rule="nonzero"/></g><path fill="#ffffff" d="M 3.761719 37.042969 C 3.859375 36.964844 3.9375 36.902344 3.992188 36.851562 C 4.046875 36.800781 4.09375 36.746094 4.132812 36.691406 C 4.171875 36.636719 4.191406 36.582031 4.191406 36.53125 C 4.191406 36.480469 4.179688 36.441406 4.152344 36.414062 C 4.128906 36.386719 4.089844 36.371094 4.035156 36.371094 C 3.984375 36.371094 3.945312 36.386719 3.914062 36.417969 C 3.886719 36.453125 3.871094 36.496094 3.867188 36.550781 L 3.765625 36.550781 C 3.769531 36.464844 3.796875 36.398438 3.84375 36.351562 C 3.894531 36.304688 3.957031 36.28125 4.035156 36.28125 C 4.113281 36.28125 4.175781 36.300781 4.222656 36.347656 C 4.269531 36.390625 4.292969 36.449219 4.292969 36.527344 C 4.292969 36.589844 4.273438 36.652344 4.238281 36.710938 C 4.199219 36.773438 4.15625 36.824219 4.105469 36.871094 C 4.058594 36.917969 3.996094 36.96875 3.921875 37.03125 L 4.316406 37.03125 L 4.316406 37.117188 L 3.761719 37.117188 Z M 4.414062 36.941406 L 4.414062 36.863281 L 4.820312 36.304688 L 4.945312 36.304688 L 4.945312 36.851562 L 5.0625 36.851562 L 5.0625 36.941406 L 4.945312 36.941406 L 4.945312 37.125 L 4.839844 37.125 L 4.839844 36.941406 Z M 4.847656 36.414062 L 4.535156 36.851562 L 4.847656 36.851562 Z M 5.164062 36.503906 C 5.167969 36.433594 5.195312 36.378906 5.246094 36.339844 C 5.292969 36.300781 5.359375 36.28125 5.4375 36.28125 C 5.488281 36.28125 5.535156 36.289062 5.574219 36.308594 C 5.609375 36.328125 5.640625 36.351562 5.660156 36.382812 C 5.679688 36.417969 5.6875 36.453125 5.6875 36.492188 C 5.6875 36.539062 5.675781 36.582031 5.648438 36.617188 C 5.621094 36.652344 5.585938 36.671875 5.542969 36.683594 L 5.542969 36.6875 C 5.589844 36.699219 5.628906 36.726562 5.660156 36.761719 C 5.6875 36.796875 5.703125 36.84375 5.703125 36.902344 C 5.703125 36.945312 5.695312 36.984375 5.675781 37.019531 C 5.652344 37.054688 5.625 37.082031 5.582031 37.101562 C 5.542969 37.121094 5.496094 37.132812 5.441406 37.132812 C 5.359375 37.132812 5.289062 37.109375 5.238281 37.070312 C 5.1875 37.027344 5.15625 36.964844 5.152344 36.886719 L 5.253906 36.886719 C 5.257812 36.933594 5.277344 36.972656 5.308594 37 C 5.339844 37.027344 5.382812 37.042969 5.4375 37.042969 C 5.492188 37.042969 5.53125 37.03125 5.5625 37.003906 C 5.589844 36.972656 5.605469 36.9375 5.605469 36.894531 C 5.605469 36.835938 5.585938 36.792969 5.546875 36.769531 C 5.507812 36.742188 5.449219 36.730469 5.371094 36.730469 L 5.34375 36.730469 L 5.34375 36.644531 L 5.371094 36.644531 C 5.445312 36.644531 5.496094 36.632812 5.53125 36.609375 C 5.570312 36.585938 5.585938 36.550781 5.585938 36.503906 C 5.585938 36.464844 5.574219 36.429688 5.546875 36.40625 C 5.519531 36.382812 5.484375 36.367188 5.433594 36.367188 C 5.386719 36.367188 5.347656 36.382812 5.316406 36.40625 C 5.289062 36.429688 5.273438 36.464844 5.265625 36.503906 Z M 6.3125 36.492188 C 6.292969 36.40625 6.242188 36.367188 6.152344 36.367188 C 6.085938 36.367188 6.035156 36.390625 6 36.445312 C 5.964844 36.496094 5.949219 36.582031 5.949219 36.703125 C 5.96875 36.664062 5.996094 36.632812 6.039062 36.609375 C 6.078125 36.585938 6.125 36.574219 6.175781 36.574219 C 6.253906 36.574219 6.320312 36.601562 6.367188 36.648438 C 6.414062 36.699219 6.4375 36.765625 6.4375 36.851562 C 6.4375 36.90625 6.425781 36.953125 6.40625 36.992188 C 6.386719 37.035156 6.355469 37.066406 6.3125 37.09375 C 6.273438 37.117188 6.222656 37.128906 6.164062 37.128906 C 6.085938 37.128906 6.023438 37.109375 5.980469 37.074219 C 5.933594 37.039062 5.902344 36.992188 5.886719 36.929688 C 5.867188 36.867188 5.859375 36.792969 5.859375 36.699219 C 5.859375 36.417969 5.957031 36.277344 6.152344 36.277344 C 6.230469 36.277344 6.289062 36.296875 6.332031 36.339844 C 6.375 36.378906 6.402344 36.429688 6.40625 36.492188 Z M 6.152344 36.664062 C 6.121094 36.664062 6.089844 36.671875 6.0625 36.683594 C 6.03125 36.699219 6.007812 36.71875 5.988281 36.746094 C 5.972656 36.773438 5.960938 36.804688 5.960938 36.84375 C 5.960938 36.902344 5.980469 36.949219 6.011719 36.988281 C 6.046875 37.023438 6.09375 37.042969 6.160156 37.042969 C 6.210938 37.042969 6.253906 37.023438 6.285156 36.992188 C 6.320312 36.957031 6.335938 36.914062 6.335938 36.855469 C 6.335938 36.796875 6.320312 36.75 6.289062 36.714844 C 6.257812 36.683594 6.214844 36.664062 6.152344 36.664062 Z M 6.152344 36.664062 " fill-opacity="1" fill-rule="nonzero"/><g clip-path="url(#0a0b038c15)"><path stroke-linecap="round" transform="matrix(0.0105758, 0, 0, 0.0105259, 0.400001, 1.011328)" fill="none" stroke-linejoin="miter" d="M 2800.308011 3407.92009 C 2800.308011 3407.92009 2963.563283 3373.778172 3038.173159 3294.732209 C 3137.160519 3189.7087 3159.691224 3064.274262 3268.281835 3051.285489 C 3438.185512 3030.87456 3536.43416 3630.955881 3742.904063 3549.683271 C 3949.373966 3468.410662 3900.618998 3020.483541 4023.24513 2944.406441 C 4107.827613 2892.080241 4151.780955 3047.945519 4270.344173 3007.12366 " stroke="#ffffff" stroke-width="46.988998" stroke-opacity="1" stroke-miterlimit="10"/></g><g clip-path="url(#c2a0a030b5)"><g clip-path="url(#dc0b7791b6)"><path fill="url(#a96a8022f0)" d="M 12.34375 31.609375 L 12.34375 39.941406 L 21.800781 39.941406 L 21.800781 31.609375 Z M 12.34375 31.609375 " fill-rule="nonzero"/></g></g><path fill="#ffffff" d="M 1.460938 37.292969 L 1.640625 37.292969 C 1.671875 37.292969 1.703125 37.28125 1.726562 37.257812 C 1.75 37.234375 1.761719 37.203125 1.761719 37.171875 L 1.761719 36.359375 C 1.761719 36.328125 1.75 36.296875 1.726562 36.273438 C 1.703125 36.25 1.671875 36.234375 1.640625 36.234375 L 1.460938 36.234375 C 1.429688 36.234375 1.398438 36.25 1.375 36.273438 C 1.351562 36.296875 1.339844 36.328125 1.339844 36.359375 L 1.339844 37.171875 C 1.339844 37.203125 1.351562 37.234375 1.375 37.257812 C 1.398438 37.28125 1.429688 37.292969 1.460938 37.292969 Z M 1.460938 37.292969 " fill-opacity="1" fill-rule="nonzero"/><path fill="#ffffff" d="M 2.246094 35.722656 C 2.171875 35.722656 2.136719 35.757812 2.136719 35.9375 C 2.136719 36.105469 1.976562 36.238281 1.871094 36.308594 L 1.871094 37.183594 C 1.984375 37.234375 2.210938 37.3125 2.5625 37.3125 L 2.675781 37.3125 C 2.742188 37.3125 2.808594 37.289062 2.859375 37.246094 C 2.910156 37.203125 2.945312 37.144531 2.957031 37.078125 L 3.035156 36.617188 C 3.042969 36.578125 3.042969 36.535156 3.03125 36.496094 C 3.019531 36.457031 3 36.421875 2.972656 36.390625 C 2.945312 36.359375 2.914062 36.332031 2.875 36.316406 C 2.839844 36.296875 2.796875 36.289062 2.757812 36.289062 L 2.421875 36.289062 C 2.460938 36.199219 2.476562 36.101562 2.476562 36.007812 C 2.476562 35.792969 2.316406 35.722656 2.246094 35.722656 Z M 2.246094 35.722656 " fill-opacity="1" fill-rule="nonzero"/><path fill="#ffffff" d="M 7.367188 30.140625 C 6.429688 29.8125 5.664062 28.785156 5.664062 27.847656 C 5.664062 26.914062 6.429688 26.421875 7.367188 26.75 L 7.367188 25.664062 C 5.847656 25.128906 4.617188 25.925781 4.617188 27.4375 C 4.617188 28.949219 5.847656 30.609375 7.367188 31.140625 C 8.824219 31.652344 10.015625 30.945312 10.113281 29.554688 L 9.066406 29.1875 C 8.992188 30.03125 8.261719 30.453125 7.367188 30.140625 Z M 7.367188 30.140625 " fill-opacity="1" fill-rule="nonzero"/><path fill="#1c85e8" d="M 7.71875 25.4375 L 7.71875 26.527344 C 8.660156 26.855469 9.421875 27.882812 9.421875 28.820312 C 9.421875 28.867188 9.417969 28.914062 9.414062 28.960938 L 10.460938 29.328125 C 10.464844 29.269531 10.46875 29.207031 10.46875 29.144531 C 10.46875 27.628906 9.238281 25.972656 7.71875 25.4375 Z M 7.71875 25.4375 " fill-opacity="1" fill-rule="nonzero"/><path stroke-linecap="butt" transform="matrix(0.0105758, 0, 0, 0.0105259, 0.400001, 1.011328)" fill="none" stroke-linejoin="miter" d="M 658.782969 2767.388018 L 658.782969 2862.391616 " stroke="#ffffff" stroke-width="11.005" stroke-opacity="1" stroke-miterlimit="10"/><path stroke-linecap="butt" transform="matrix(0.0105758, 0, 0, 0.0105259, 0.400001, 1.011328)" fill="none" stroke-linejoin="miter" d="M 497.743832 2549.547736 L 398.756472 2514.663603 " stroke="#ffffff" stroke-width="11.005" stroke-opacity="1" stroke-miterlimit="10"/><path stroke-linecap="round" transform="matrix(0.0105758, 0, 0, 0.0105259, 0.400001, 1.011328)" fill="none" stroke-linejoin="miter" d="M 1076.155045 2564.392049 L 1260.094243 2599.276182 " stroke="#ffffff" stroke-width="46.988998" stroke-opacity="1" stroke-miterlimit="10"/><path stroke-linecap="round" transform="matrix(0.0105758, 0, 0, 0.0105259, 0.400001, 1.011328)" fill="none" stroke-linejoin="miter" d="M 1076.155045 2852.742813 L 1260.094243 2887.626947 " stroke="#ffffff" stroke-width="46.988998" stroke-opacity="0.4" stroke-miterlimit="10"/><path stroke-linecap="round" transform="matrix(0.0105758, 0, 0, 0.0105259, 0.400001, 1.011328)" fill="none" stroke-linejoin="miter" d="M 1076.155045 2711.350739 L 1340.244456 2761.821401 " stroke="#ffffff" stroke-width="46.988998" stroke-opacity="1" stroke-miterlimit="10"/><g clip-path="url(#9c8fbfd99a)"><g clip-path="url(#6d43c19e9b)"><path fill="url(#c99114b213)" d="M 34.65625 1.769531 L 34.65625 17.46875 L 47.597656 17.46875 L 47.597656 1.769531 Z M 34.65625 1.769531 " fill-rule="nonzero"/></g></g><path fill="#ffffff" d="M 35.546875 8.863281 L 35.546875 14.117188 C 35.546875 14.164062 35.554688 14.207031 35.578125 14.25 C 35.597656 14.289062 35.625 14.328125 35.660156 14.355469 C 35.695312 14.382812 35.738281 14.402344 35.785156 14.414062 C 35.828125 14.425781 35.875 14.425781 35.917969 14.414062 C 36.878906 14.199219 39.480469 13.582031 41.125 12.808594 C 41.175781 12.785156 41.21875 12.746094 41.25 12.699219 C 41.28125 12.648438 41.296875 12.59375 41.296875 12.535156 L 41.296875 7.417969 C 41.296875 7.367188 41.285156 7.316406 41.261719 7.273438 C 41.234375 7.226562 41.199219 7.191406 41.15625 7.164062 C 41.113281 7.132812 41.066406 7.117188 41.011719 7.113281 C 40.960938 7.109375 40.910156 7.121094 40.863281 7.140625 C 39.949219 7.5625 37.75 8.476562 35.835938 8.558594 C 35.757812 8.5625 35.683594 8.597656 35.628906 8.652344 C 35.574219 8.710938 35.546875 8.785156 35.546875 8.863281 Z M 35.546875 8.863281 " fill-opacity="1" fill-rule="nonzero"/><path fill="#1c85e8" d="M 35.785156 13.273438 L 35.785156 13.824219 C 35.785156 13.867188 35.792969 13.90625 35.8125 13.945312 C 35.832031 13.980469 35.859375 14.015625 35.890625 14.039062 C 35.925781 14.066406 35.964844 14.082031 36.003906 14.089844 C 36.046875 14.097656 36.089844 14.097656 36.128906 14.085938 L 39.003906 13.304688 C 39.050781 13.292969 39.09375 13.269531 39.125 13.234375 C 39.160156 13.203125 39.183594 13.160156 39.195312 13.117188 C 39.210938 13.070312 39.210938 13.023438 39.199219 12.976562 C 39.1875 12.933594 39.164062 12.890625 39.132812 12.855469 L 37.589844 11.203125 C 37.5625 11.175781 37.53125 11.152344 37.492188 11.136719 C 37.453125 11.121094 37.414062 11.117188 37.375 11.117188 C 37.332031 11.121094 37.292969 11.132812 37.257812 11.152344 C 37.222656 11.171875 37.191406 11.199219 37.167969 11.234375 L 35.832031 13.113281 C 35.800781 13.160156 35.785156 13.214844 35.785156 13.273438 Z M 35.785156 13.273438 " fill-opacity="1" fill-rule="nonzero"/><path fill="#1c85e8" d="M 38.714844 11.976562 L 39.578125 12.886719 C 39.609375 12.917969 39.644531 12.9375 39.683594 12.945312 C 39.722656 12.957031 39.761719 12.953125 39.800781 12.9375 C 40.054688 12.839844 40.628906 12.613281 40.917969 12.488281 C 40.957031 12.472656 40.984375 12.449219 41.007812 12.414062 C 41.03125 12.382812 41.042969 12.34375 41.042969 12.304688 L 41.042969 11.449219 C 41.042969 11.40625 41.027344 11.363281 41 11.328125 L 39.789062 9.710938 C 39.765625 9.683594 39.734375 9.660156 39.703125 9.644531 C 39.667969 9.632812 39.632812 9.628906 39.597656 9.632812 C 39.558594 9.636719 39.527344 9.652344 39.496094 9.675781 C 39.46875 9.695312 39.449219 9.726562 39.433594 9.761719 L 38.675781 11.765625 C 38.660156 11.800781 38.65625 11.839844 38.664062 11.878906 C 38.671875 11.914062 38.691406 11.949219 38.714844 11.976562 Z M 38.714844 11.976562 " fill-opacity="0.6" fill-rule="nonzero"/><path fill="#febb94" d="M 37.957031 10.550781 C 38.214844 10.550781 38.421875 10.347656 38.421875 10.089844 C 38.421875 9.835938 38.214844 9.628906 37.957031 9.628906 C 37.703125 9.628906 37.496094 9.835938 37.496094 10.089844 C 37.496094 10.347656 37.703125 10.550781 37.957031 10.550781 Z M 37.957031 10.550781 " fill-opacity="1" fill-rule="nonzero"/><g clip-path="url(#55f4354b7f)"><path stroke-linecap="round" transform="matrix(0.0105758, 0, 0, 0.0105259, 0.400001, 1.011328)" fill="none" stroke-linejoin="miter" d="M 3993.327308 565.976518 C 4105.980833 509.197024 4214.202089 444.253158 4317.252362 371.516028 " stroke="#ffffff" stroke-width="46.988998" stroke-opacity="1" stroke-miterlimit="10"/></g><g clip-path="url(#5974dad7d1)"><path stroke-linecap="round" transform="matrix(0.0105758, 0, 0, 0.0105259, 0.400001, 1.011328)" fill="none" stroke-linejoin="miter" d="M 3993.327308 755.241498 C 3993.327308 755.241498 4067.198472 719.615149 4168.401967 658.011253 " stroke="#ffffff" stroke-width="46.988998" stroke-opacity="1" stroke-miterlimit="10"/></g><g clip-path="url(#1aca8265fe)"><path stroke-linecap="round" transform="matrix(0.0105758, 0, 0, 0.0105259, 0.400001, 1.011328)" fill="none" stroke-linejoin="miter" d="M 3993.327308 940.424293 C 4105.980833 883.273691 4214.202089 818.329825 4317.252362 745.963803 " stroke="#ffffff" stroke-width="46.988998" stroke-opacity="1" stroke-miterlimit="10"/></g><g clip-path="url(#f8dade28fd)"><path stroke-linecap="round" transform="matrix(0.0105758, 0, 0, 0.0105259, 0.400001, 1.011328)" fill="none" stroke-linejoin="miter" d="M 3993.327308 1148.244664 C 4105.980833 1091.094062 4214.202089 1026.150196 4317.252362 953.784174 " stroke="#ffffff" stroke-width="46.988998" stroke-opacity="1" stroke-miterlimit="10"/></g><path fill="#ffffff" d="M 36.207031 15.929688 C 36.441406 15.929688 36.628906 15.742188 36.628906 15.507812 C 36.628906 15.277344 36.441406 15.085938 36.207031 15.085938 C 35.972656 15.085938 35.785156 15.277344 35.785156 15.507812 C 35.785156 15.742188 35.972656 15.929688 36.207031 15.929688 Z M 36.207031 15.929688 " fill-opacity="1" fill-rule="nonzero"/><path fill="#ffffff" d="M 38.660156 15.25 C 38.894531 15.25 39.085938 15.058594 39.085938 14.828125 C 39.085938 14.59375 38.894531 14.40625 38.660156 14.40625 C 38.425781 14.40625 38.238281 14.59375 38.238281 14.828125 C 38.238281 15.058594 38.425781 15.25 38.660156 15.25 Z M 38.660156 15.25 " fill-opacity="1" fill-rule="nonzero"/><path fill="#ffffff" d="M 40.875 14.496094 C 41.109375 14.496094 41.296875 14.308594 41.296875 14.074219 C 41.296875 13.84375 41.109375 13.652344 40.875 13.652344 C 40.640625 13.652344 40.453125 13.84375 40.453125 14.074219 C 40.453125 14.308594 40.640625 14.496094 40.875 14.496094 Z M 40.875 14.496094 " fill-opacity="1" fill-rule="nonzero"/></svg>