<svg xmlns="http://www.w3.org/2000/svg" xmlns:xlink="http://www.w3.org/1999/xlink" width="64" zoomAndPan="magnify" viewBox="0 0 48 44.249999" height="59" preserveAspectRatio="xMidYMid meet" version="1.0"><defs><clipPath id="2248ac81a8"><path d="M 0.398438 34 L 10 34 L 10 41 L 0.398438 41 Z M 0.398438 34 " clip-rule="nonzero"/></clipPath><clipPath id="818190a2be"><path d="M 38 30 L 47 30 L 47 41.402344 L 38 41.402344 Z M 38 30 " clip-rule="nonzero"/></clipPath><clipPath id="df68669fce"><path d="M 14 2.316406 L 21 2.316406 L 21 9 L 14 9 Z M 14 2.316406 " clip-rule="nonzero"/></clipPath><clipPath id="8aa6ac90a3"><path d="M 9 2.316406 L 16 2.316406 L 16 13 L 9 13 Z M 9 2.316406 " clip-rule="nonzero"/></clipPath><clipPath id="87a272579f"><path d="M 38.066406 30.714844 L 46.277344 30.714844 L 46.277344 41.164062 L 38.066406 41.164062 Z M 38.066406 30.714844 " clip-rule="nonzero"/></clipPath><clipPath id="270336060a"><path d="M 0.398438 34 L 10 34 L 10 41 L 0.398438 41 Z M 0.398438 34 " clip-rule="nonzero"/></clipPath><clipPath id="74a4ba2bc7"><path d="M 9 2.316406 L 22 2.316406 L 22 15 L 9 15 Z M 9 2.316406 " clip-rule="nonzero"/></clipPath><clipPath id="1670c76494"><path d="M 11 2.316406 L 16 2.316406 L 16 13 L 11 13 Z M 11 2.316406 " clip-rule="nonzero"/></clipPath><clipPath id="05fcedfa40"><path d="M 39 7 L 47.597656 7 L 47.597656 12 L 39 12 Z M 39 7 " clip-rule="nonzero"/></clipPath><clipPath id="d8e4a4888b"><path d="M 41 13 L 47.597656 13 L 47.597656 17 L 41 17 Z M 41 13 " clip-rule="nonzero"/></clipPath><clipPath id="cb8675547c"><path d="M 0.398438 13 L 7 13 L 7 16 L 0.398438 16 Z M 0.398438 13 " clip-rule="nonzero"/></clipPath><clipPath id="cf0d0cb8ef"><path d="M 0.398438 12 L 7 12 L 7 16 L 0.398438 16 Z M 0.398438 12 " clip-rule="nonzero"/></clipPath><clipPath id="6aeadaef79"><path d="M 0.398438 16 L 11 16 L 11 21 L 0.398438 21 Z M 0.398438 16 " clip-rule="nonzero"/></clipPath><clipPath id="49923a3c88"><path d="M 42 14 L 47.597656 14 L 47.597656 15 L 42 15 Z M 42 14 " clip-rule="nonzero"/></clipPath><clipPath id="2203b77ee9"><path d="M 42 15 L 47.597656 15 L 47.597656 16 L 42 16 Z M 42 15 " clip-rule="nonzero"/></clipPath><clipPath id="f2a3203673"><path d="M 0.398438 14 L 6 14 L 6 15 L 0.398438 15 Z M 0.398438 14 " clip-rule="nonzero"/></clipPath><clipPath id="3b1c4cae89"><path d="M 0.398438 15 L 6 15 L 6 16 L 0.398438 16 Z M 0.398438 15 " clip-rule="nonzero"/></clipPath></defs><path fill="#586580" d="M 7.429688 10.730469 C 7.558594 10.625 7.785156 10.644531 7.785156 10.644531 L 37.585938 10.617188 C 37.585938 10.617188 37.785156 10.640625 37.910156 10.757812 C 38.039062 10.875 38.09375 11.089844 38.09375 11.089844 L 38.078125 30.269531 C 38.078125 30.269531 38.035156 30.519531 37.933594 30.65625 C 37.828125 30.796875 37.664062 30.828125 37.664062 30.828125 L 7.265625 30.828125 L 7.265625 11.054688 C 7.265625 11.054688 7.300781 10.832031 7.429688 10.730469 " fill-opacity="1" fill-rule="evenodd"/><path fill="#efefef" d="M 8.640625 11.402344 C 8.746094 11.285156 8.953125 11.238281 8.953125 11.238281 L 36.902344 11.238281 C 36.902344 11.238281 37.066406 11.265625 37.164062 11.382812 C 37.265625 11.5 37.296875 11.710938 37.296875 11.710938 L 37.296875 29.75 C 37.296875 29.75 37.238281 29.941406 37.113281 30.054688 C 36.992188 30.167969 36.800781 30.207031 36.800781 30.207031 L 8.53125 30.207031 L 8.53125 11.707031 C 8.53125 11.707031 8.535156 11.519531 8.640625 11.402344 " fill-opacity="1" fill-rule="evenodd"/><path fill="#ffd4af" d="M 6.78125 26.371094 C 6.78125 26.371094 7.082031 25.886719 7.371094 25.75 C 7.730469 25.582031 8.132812 25.753906 8.507812 25.835938 C 8.722656 25.878906 9.371094 25.113281 9.882812 25.15625 C 10.132812 25.175781 10.554688 25.582031 10.835938 25.566406 C 11.257812 25.542969 11.824219 25.019531 12.421875 24.9375 C 13.09375 24.839844 13.320312 25.769531 13.707031 25.542969 C 14.082031 25.328125 14.820312 23.714844 15.460938 22.402344 C 15.996094 21.304688 16.527344 19.960938 16.949219 19.324219 C 17.238281 18.886719 17.488281 18.9375 17.617188 19.003906 C 18.230469 19.316406 17.851562 20.597656 17.253906 22.402344 C 16.742188 23.949219 16.046875 25.652344 15.535156 26.929688 C 15.136719 27.917969 14.847656 28.6875 14.847656 28.6875 C 14.847656 28.6875 15.164062 30.683594 14.777344 31.496094 C 14.417969 32.246094 13.835938 32.847656 13.265625 33.371094 C 12.488281 34.082031 11.683594 34.644531 11 35.164062 C 10.175781 35.78125 9.609375 36.765625 9.609375 36.765625 C 9.609375 36.765625 8.949219 35.863281 7.347656 35.171875 C 6.039062 34.605469 4.414062 34.40625 4.414062 34.40625 C 4.414062 34.40625 4.710938 33.796875 4.867188 33.023438 C 5.042969 32.160156 5.09375 31.078125 5.40625 30.019531 C 6 28.011719 6.78125 26.371094 6.78125 26.371094 " fill-opacity="1" fill-rule="evenodd"/><path fill="#ffd4af" d="M 36.605469 16.933594 C 36.769531 16.605469 37.136719 16.386719 37.433594 16.53125 C 37.679688 16.652344 38.058594 17.285156 38.058594 17.285156 L 38.09375 16.519531 C 38.09375 16.519531 39.613281 17.503906 40.875 18.585938 C 41.859375 19.429688 42.636719 20.335938 42.730469 20.859375 C 42.839844 21.4375 42.78125 22.183594 42.761719 22.832031 C 42.71875 24.382812 42.503906 25.949219 42.457031 27.421875 C 42.402344 29.296875 42.867188 30.855469 42.867188 30.855469 C 42.867188 30.855469 41.625 30.980469 40.578125 31.363281 C 39.53125 31.75 38.683594 32.390625 38.683594 32.390625 C 38.683594 32.390625 38.472656 31 38.21875 30.179688 C 37.972656 29.382812 37.6875 29.175781 37.316406 27.78125 C 37.230469 27.46875 37.167969 26.847656 37.164062 26.335938 C 37.152344 25.011719 37.398438 23.59375 37.25 22.339844 C 37.082031 20.910156 36.65625 19.988281 36.488281 19.089844 C 36.351562 18.359375 36.382812 17.386719 36.605469 16.933594 " fill-opacity="1" fill-rule="evenodd"/><g clip-path="url(#2248ac81a8)"><path fill="#9aa6be" d="M 3.683594 34.675781 C 3.683594 34.675781 3.925781 34.398438 4.394531 34.402344 C 5.117188 34.40625 6.289062 34.742188 7.207031 35.132812 C 8.042969 35.488281 8.984375 36.046875 9.429688 36.519531 C 9.789062 36.902344 9.734375 37.246094 9.734375 37.246094 L 7.890625 40.734375 C 7.890625 40.734375 6.027344 40.894531 4.28125 40.515625 C 2.539062 40.140625 0.910156 39.230469 0.910156 39.230469 L 3.683594 34.675781 " fill-opacity="1" fill-rule="evenodd"/></g><g clip-path="url(#818190a2be)"><path fill="#9aa6be" d="M 38.238281 33.109375 C 38.238281 33.109375 38.273438 32.851562 38.644531 32.519531 C 39.136719 32.085938 40.074219 31.527344 40.886719 31.269531 C 41.757812 30.992188 42.710938 30.832031 43.320312 30.929688 C 43.703125 30.988281 43.949219 31.292969 43.949219 31.292969 C 43.949219 31.292969 44.648438 33.710938 45.183594 35.769531 C 45.71875 37.832031 46.089844 39.539062 46.089844 39.539062 C 46.089844 39.539062 44.691406 40.546875 42.921875 40.90625 C 40.535156 41.390625 39.113281 40.984375 39.113281 40.984375 C 39.113281 40.984375 38.859375 39.101562 38.640625 37.132812 C 38.421875 35.164062 38.238281 33.109375 38.238281 33.109375 " fill-opacity="1" fill-rule="evenodd"/></g><g clip-path="url(#df68669fce)"><path fill="#80c254" d="M 14.230469 2.710938 C 14.230469 2.710938 16.214844 2.328125 17.996094 3.300781 C 19.933594 4.359375 20.652344 6.316406 20.652344 6.316406 L 15.300781 8.355469 L 14.230469 2.710938 " fill-opacity="1" fill-rule="evenodd"/></g><g clip-path="url(#8aa6ac90a3)"><path fill="#febc42" d="M 9.78125 6.988281 C 10.078125 6.003906 10.75 4.722656 11.582031 4.015625 C 12.800781 2.980469 14.234375 2.71875 14.234375 2.71875 L 15.300781 8.363281 L 11.292969 12.433594 C 11.292969 12.433594 10.480469 11.703125 9.988281 10.398438 C 9.625 9.429688 9.46875 8.027344 9.78125 6.988281 " fill-opacity="1" fill-rule="evenodd"/></g><path fill="#e2453e" d="M 15.257812 8.394531 L 20.636719 6.3125 C 20.636719 6.3125 21.1875 7.808594 20.914062 9.371094 C 20.65625 10.847656 19.609375 12.371094 18.46875 13.109375 C 17.335938 13.847656 15.582031 14.289062 14.105469 13.945312 C 12.539062 13.578125 11.285156 12.394531 11.285156 12.394531 L 15.257812 8.394531 " fill-opacity="1" fill-rule="evenodd"/><path fill="#ff6464" d="M 11.53125 21.214844 L 12.375 21.214844 L 12.375 23.097656 L 11.53125 23.097656 L 11.53125 21.214844 " fill-opacity="1" fill-rule="evenodd"/><path fill="#64a058" d="M 15.488281 19.25 L 16.34375 19.25 L 16.363281 20.4375 L 16.019531 21.210938 L 15.507812 22.25 L 15.488281 19.25 " fill-opacity="1" fill-rule="evenodd"/><path fill="#ff7538" d="M 17.339844 17.546875 L 18.167969 17.546875 L 18.167969 23.109375 L 17.339844 23.109375 L 17.339844 22.070312 C 17.339844 22.070312 17.851562 20.550781 17.898438 19.773438 C 17.957031 18.851562 17.339844 18.953125 17.339844 18.953125 L 17.339844 17.546875 " fill-opacity="1" fill-rule="evenodd"/><path fill="#000000" d="M 38.664062 32.5 C 38.613281 32.5 38.574219 32.464844 38.566406 32.414062 C 38.484375 31.527344 38.339844 30.777344 38.132812 30.195312 C 38 29.8125 37.859375 29.488281 37.726562 29.175781 C 37.449219 28.527344 37.210938 27.96875 37.097656 27.125 C 37 26.382812 37.066406 25.46875 37.125 24.660156 C 37.148438 24.335938 37.171875 24.027344 37.183594 23.746094 C 37.210938 23.148438 37.164062 22.511719 37.042969 21.742188 C 36.957031 21.175781 36.804688 20.660156 36.671875 20.207031 C 36.542969 19.777344 36.425781 19.371094 36.375 18.980469 C 36.257812 18.066406 36.308594 17.304688 36.515625 16.894531 C 36.6875 16.558594 36.941406 16.371094 37.210938 16.386719 C 37.496094 16.40625 37.917969 16.65625 38.320312 17.757812 C 38.636719 18.621094 38.867188 19.457031 39.074219 20.195312 C 39.417969 21.441406 39.71875 22.519531 40.28125 23.261719 C 40.316406 23.304688 40.308594 23.363281 40.265625 23.398438 C 40.222656 23.429688 40.160156 23.421875 40.128906 23.378906 C 39.539062 22.609375 39.238281 21.515625 38.886719 20.246094 C 38.683594 19.511719 38.453125 18.679688 38.140625 17.824219 C 37.753906 16.769531 37.386719 16.59375 37.199219 16.582031 C 37.015625 16.570312 36.820312 16.722656 36.6875 16.984375 C 36.5 17.355469 36.457031 18.09375 36.566406 18.957031 C 36.613281 19.332031 36.730469 19.730469 36.855469 20.152344 C 36.992188 20.609375 37.144531 21.132812 37.234375 21.714844 C 37.359375 22.496094 37.402344 23.144531 37.378906 23.753906 C 37.367188 24.039062 37.34375 24.347656 37.320312 24.675781 C 37.257812 25.472656 37.191406 26.378906 37.289062 27.097656 C 37.398438 27.917969 37.632812 28.464844 37.90625 29.101562 C 38.039062 29.414062 38.179688 29.742188 38.316406 30.128906 C 38.527344 30.730469 38.675781 31.492188 38.761719 32.394531 C 38.765625 32.449219 38.726562 32.496094 38.671875 32.5 C 38.671875 32.5 38.667969 32.5 38.664062 32.5 " fill-opacity="1" fill-rule="nonzero"/><path fill="#000000" d="M 39.675781 21.140625 C 39.632812 21.140625 39.59375 21.109375 39.582031 21.066406 C 39.460938 20.570312 39.09375 19.9375 38.714844 19.554688 C 38.679688 19.515625 38.679688 19.457031 38.714844 19.417969 C 38.753906 19.378906 38.816406 19.378906 38.851562 19.417969 C 39.253906 19.820312 39.640625 20.492188 39.769531 21.019531 C 39.785156 21.070312 39.75 21.125 39.699219 21.136719 C 39.691406 21.136719 39.683594 21.140625 39.675781 21.140625 " fill-opacity="1" fill-rule="nonzero"/><path fill="#000000" d="M 42.871094 30.953125 C 42.828125 30.953125 42.789062 30.925781 42.777344 30.878906 C 42.332031 28.984375 42.335938 28.402344 42.414062 26.46875 C 42.453125 25.546875 42.523438 24.691406 42.589844 23.9375 C 42.71875 22.40625 42.820312 21.195312 42.515625 20.621094 C 41.738281 19.183594 38.714844 16.964844 38.058594 16.589844 C 38.011719 16.5625 37.996094 16.5 38.023438 16.457031 C 38.050781 16.410156 38.109375 16.390625 38.15625 16.417969 C 38.820312 16.804688 41.890625 19.054688 42.683594 20.53125 C 43.019531 21.152344 42.917969 22.328125 42.78125 23.953125 C 42.71875 24.707031 42.644531 25.558594 42.609375 26.476562 C 42.53125 28.386719 42.527344 28.964844 42.964844 30.835938 C 42.976562 30.886719 42.945312 30.941406 42.894531 30.953125 C 42.886719 30.953125 42.878906 30.953125 42.871094 30.953125 " fill-opacity="1" fill-rule="nonzero"/><g clip-path="url(#87a272579f)"><path fill="#000000" d="M 39.082031 41.164062 C 39.035156 41.164062 38.992188 41.128906 38.984375 41.082031 C 38.847656 40.242188 38.246094 34.453125 38.144531 33.171875 C 38.085938 32.441406 39.679688 31.578125 40.699219 31.203125 C 41.90625 30.761719 43.148438 30.660156 43.71875 30.953125 C 43.898438 31.046875 44.015625 31.179688 44.058594 31.34375 C 44.152344 31.6875 44.261719 32.0625 44.378906 32.484375 C 44.8125 33.996094 45.398438 36.0625 46.222656 39.558594 C 46.238281 39.613281 46.203125 39.664062 46.152344 39.675781 C 46.101562 39.6875 46.046875 39.65625 46.035156 39.605469 C 45.210938 36.109375 44.625 34.046875 44.195312 32.539062 C 44.074219 32.113281 43.964844 31.738281 43.871094 31.394531 C 43.84375 31.285156 43.761719 31.195312 43.628906 31.128906 C 43.113281 30.859375 41.910156 30.96875 40.765625 31.386719 C 39.71875 31.769531 38.292969 32.597656 38.335938 33.15625 C 38.433594 34.398438 39.042969 40.242188 39.175781 41.050781 C 39.1875 41.101562 39.148438 41.152344 39.097656 41.160156 C 39.09375 41.164062 39.085938 41.164062 39.082031 41.164062 " fill-opacity="1" fill-rule="nonzero"/></g><path fill="#000000" d="M 4.390625 34.5 C 4.371094 34.5 4.351562 34.492188 4.335938 34.484375 C 4.292969 34.453125 4.28125 34.390625 4.308594 34.347656 C 4.664062 33.816406 4.804688 32.894531 4.953125 31.917969 C 5.082031 31.085938 5.226562 30.144531 5.523438 29.300781 L 5.574219 29.148438 C 6.207031 27.335938 6.667969 26.03125 7.226562 25.714844 C 7.722656 25.4375 8.058594 25.570312 8.300781 25.664062 C 8.445312 25.71875 8.523438 25.746094 8.589844 25.707031 C 8.660156 25.664062 8.738281 25.601562 8.820312 25.535156 C 9.074219 25.335938 9.390625 25.085938 9.816406 25.085938 C 10.121094 25.085938 10.34375 25.222656 10.519531 25.335938 C 10.667969 25.425781 10.785156 25.5 10.902344 25.476562 C 11.011719 25.453125 11.167969 25.363281 11.34375 25.265625 C 11.652344 25.089844 12.039062 24.871094 12.445312 24.851562 C 12.785156 24.832031 13.042969 25.0625 13.25 25.246094 C 13.484375 25.457031 13.59375 25.53125 13.710938 25.4375 C 13.992188 25.207031 14.378906 24.394531 14.789062 23.535156 C 14.964844 23.164062 15.152344 22.777344 15.339844 22.410156 C 15.652344 21.800781 15.902344 21.226562 16.125 20.722656 C 16.667969 19.488281 17.027344 18.675781 17.605469 18.90625 C 18.359375 19.203125 17.921875 20.683594 17.410156 22.171875 C 17.105469 23.0625 16.804688 23.847656 16.488281 24.683594 C 16.335938 25.078125 16.179688 25.488281 16.011719 25.933594 C 15.730469 26.6875 14.382812 30.097656 13.863281 31.257812 C 13.84375 31.308594 13.785156 31.328125 13.738281 31.308594 C 13.6875 31.285156 13.667969 31.226562 13.6875 31.179688 C 14.203125 30.019531 15.546875 26.617188 15.828125 25.867188 C 15.996094 25.417969 16.15625 25.007812 16.304688 24.613281 C 16.625 23.78125 16.925781 22.996094 17.226562 22.109375 C 17.585938 21.074219 18.179688 19.339844 17.535156 19.085938 C 17.128906 18.925781 16.800781 19.671875 16.304688 20.800781 C 16.078125 21.308594 15.824219 21.886719 15.511719 22.496094 C 15.324219 22.863281 15.140625 23.246094 14.964844 23.621094 C 14.527344 24.539062 14.148438 25.332031 13.832031 25.585938 C 13.578125 25.796875 13.332031 25.582031 13.121094 25.390625 C 12.929688 25.222656 12.714844 25.03125 12.453125 25.046875 C 12.09375 25.0625 11.730469 25.269531 11.441406 25.433594 C 11.246094 25.542969 11.082031 25.636719 10.941406 25.664062 C 10.746094 25.707031 10.585938 25.605469 10.417969 25.5 C 10.246094 25.390625 10.066406 25.28125 9.816406 25.28125 C 9.457031 25.28125 9.183594 25.496094 8.941406 25.691406 C 8.851562 25.757812 8.769531 25.824219 8.691406 25.875 C 8.539062 25.964844 8.390625 25.90625 8.230469 25.84375 C 8 25.753906 7.738281 25.652344 7.320312 25.886719 C 6.824219 26.164062 6.355469 27.507812 5.757812 29.210938 L 5.703125 29.363281 C 5.414062 30.191406 5.277344 31.085938 5.144531 31.949219 C 4.984375 32.988281 4.847656 33.890625 4.472656 34.457031 C 4.453125 34.484375 4.421875 34.5 4.390625 34.5 " fill-opacity="1" fill-rule="nonzero"/><path fill="#000000" d="M 9.625 36.867188 C 9.609375 36.867188 9.589844 36.859375 9.574219 36.851562 C 9.53125 36.824219 9.515625 36.765625 9.542969 36.71875 C 10.222656 35.546875 11.253906 34.796875 12.011719 34.25 L 12.164062 34.136719 C 13.65625 33.050781 14.523438 31.960938 14.695312 31.410156 C 14.90625 30.742188 14.925781 29.746094 14.742188 28.679688 C 14.734375 28.628906 14.769531 28.578125 14.820312 28.570312 C 14.875 28.558594 14.925781 28.59375 14.933594 28.648438 C 15.121094 29.742188 15.101562 30.773438 14.882812 31.46875 C 14.699219 32.050781 13.804688 33.183594 12.277344 34.296875 L 12.125 34.40625 C 11.382812 34.945312 10.367188 35.679688 9.707031 36.816406 C 9.691406 36.847656 9.65625 36.867188 9.625 36.867188 " fill-opacity="1" fill-rule="nonzero"/><g clip-path="url(#270336060a)"><path fill="#000000" d="M 7.851562 40.871094 C 7.835938 40.871094 7.816406 40.867188 7.800781 40.859375 C 7.757812 40.832031 7.738281 40.773438 7.765625 40.726562 C 8.265625 39.824219 8.699219 39.003906 9.046875 38.34375 C 9.265625 37.933594 9.453125 37.574219 9.605469 37.292969 C 9.652344 37.210938 9.65625 37.113281 9.617188 37 C 9.425781 36.457031 8.3125 35.667969 6.976562 35.125 C 5.882812 34.679688 4.121094 34.25 3.800781 34.734375 C 2.976562 36.007812 0.964844 39.3125 0.945312 39.34375 C 0.914062 39.390625 0.855469 39.40625 0.808594 39.375 C 0.765625 39.347656 0.75 39.289062 0.777344 39.242188 C 0.796875 39.210938 2.8125 35.902344 3.640625 34.628906 C 4.09375 33.933594 6.253906 34.621094 7.050781 34.945312 C 8.199219 35.410156 9.550781 36.234375 9.796875 36.933594 C 9.855469 37.101562 9.851562 37.253906 9.777344 37.386719 C 9.625 37.667969 9.433594 38.023438 9.21875 38.4375 C 8.867188 39.097656 8.433594 39.917969 7.933594 40.820312 C 7.917969 40.851562 7.882812 40.871094 7.851562 40.871094 " fill-opacity="1" fill-rule="nonzero"/></g><path fill="#000000" d="M 37.535156 30.910156 L 14.957031 30.910156 C 14.902344 30.910156 14.859375 30.863281 14.859375 30.8125 C 14.859375 30.757812 14.902344 30.714844 14.953125 30.714844 L 37.535156 30.714844 C 37.777344 30.714844 37.976562 30.515625 37.976562 30.269531 L 37.976562 29.777344 C 37.976562 29.722656 38.019531 29.679688 38.070312 29.679688 C 38.125 29.679688 38.167969 29.722656 38.167969 29.777344 L 38.167969 30.269531 C 38.167969 30.621094 37.882812 30.910156 37.535156 30.910156 " fill-opacity="1" fill-rule="nonzero"/><path fill="#000000" d="M 7.265625 25.855469 C 7.210938 25.855469 7.167969 25.8125 7.167969 25.757812 L 7.167969 11.15625 C 7.167969 10.804688 7.453125 10.519531 7.804688 10.519531 L 10.023438 10.519531 C 10.078125 10.519531 10.121094 10.5625 10.121094 10.617188 C 10.121094 10.667969 10.078125 10.714844 10.023438 10.714844 L 7.804688 10.714844 C 7.5625 10.714844 7.363281 10.914062 7.363281 11.15625 L 7.363281 24.828125 L 7.359375 25.757812 C 7.359375 25.8125 7.316406 25.855469 7.265625 25.855469 " fill-opacity="1" fill-rule="nonzero"/><path fill="#000000" d="M 38.066406 17.480469 C 38.015625 17.480469 37.96875 17.433594 37.96875 17.382812 L 37.976562 11.15625 C 37.976562 10.914062 37.777344 10.714844 37.535156 10.714844 L 20.585938 10.714844 C 20.535156 10.714844 20.492188 10.667969 20.492188 10.617188 C 20.492188 10.5625 20.535156 10.519531 20.585938 10.519531 L 37.535156 10.519531 C 37.882812 10.519531 38.167969 10.804688 38.167969 11.15625 L 38.164062 17.382812 C 38.164062 17.433594 38.121094 17.480469 38.066406 17.480469 " fill-opacity="1" fill-rule="nonzero"/><path fill="#000000" d="M 36.792969 30.277344 L 15.011719 30.277344 C 14.957031 30.277344 14.914062 30.234375 14.914062 30.179688 C 14.914062 30.125 14.953125 30.082031 15.007812 30.082031 L 36.792969 30.082031 C 37.015625 30.082031 37.199219 29.898438 37.199219 29.671875 L 37.179688 27.636719 C 37.179688 27.582031 37.222656 27.539062 37.277344 27.539062 C 37.332031 27.539062 37.375 27.582031 37.375 27.632812 L 37.390625 29.671875 C 37.390625 30.003906 37.121094 30.277344 36.792969 30.277344 " fill-opacity="1" fill-rule="nonzero"/><path fill="#000000" d="M 8.511719 25.804688 C 8.460938 25.804688 8.414062 25.761719 8.414062 25.707031 L 8.414062 11.753906 C 8.414062 11.421875 8.683594 11.152344 9.015625 11.152344 L 10.371094 11.152344 C 10.421875 11.152344 10.46875 11.195312 10.46875 11.246094 C 10.46875 11.300781 10.425781 11.34375 10.371094 11.34375 L 9.015625 11.34375 C 8.792969 11.34375 8.609375 11.527344 8.609375 11.753906 L 8.609375 25.707031 C 8.609375 25.761719 8.566406 25.804688 8.511719 25.804688 " fill-opacity="1" fill-rule="nonzero"/><path fill="#000000" d="M 37.304688 16.554688 C 37.25 16.554688 37.207031 16.511719 37.207031 16.457031 L 37.199219 11.753906 C 37.199219 11.527344 37.015625 11.34375 36.792969 11.34375 L 20.257812 11.34375 C 20.203125 11.34375 20.160156 11.300781 20.160156 11.246094 C 20.160156 11.195312 20.203125 11.152344 20.257812 11.152344 L 36.792969 11.152344 C 37.121094 11.152344 37.390625 11.421875 37.390625 11.753906 L 37.402344 16.457031 C 37.402344 16.511719 37.359375 16.554688 37.304688 16.554688 " fill-opacity="1" fill-rule="nonzero"/><path fill="#000000" d="M 7.890625 20.550781 C 7.835938 20.550781 7.792969 20.597656 7.792969 20.660156 C 7.792969 20.71875 7.835938 20.765625 7.890625 20.765625 C 7.941406 20.765625 7.984375 20.71875 7.984375 20.660156 C 7.984375 20.597656 7.941406 20.550781 7.890625 20.550781 Z M 7.890625 20.960938 C 7.730469 20.960938 7.597656 20.824219 7.597656 20.660156 C 7.597656 20.492188 7.730469 20.355469 7.890625 20.355469 C 8.050781 20.355469 8.179688 20.492188 8.179688 20.660156 C 8.179688 20.824219 8.050781 20.960938 7.890625 20.960938 " fill-opacity="1" fill-rule="nonzero"/><g clip-path="url(#74a4ba2bc7)"><path fill="#000000" d="M 15.308594 2.722656 C 12.214844 2.722656 9.695312 5.246094 9.695312 8.351562 C 9.695312 11.453125 12.214844 13.980469 15.308594 13.980469 C 18.40625 13.980469 20.921875 11.453125 20.921875 8.351562 C 20.921875 5.246094 18.40625 2.722656 15.308594 2.722656 Z M 15.308594 14.175781 C 12.109375 14.175781 9.503906 11.5625 9.503906 8.351562 C 9.503906 5.140625 12.109375 2.527344 15.308594 2.527344 C 18.511719 2.527344 21.117188 5.140625 21.117188 8.351562 C 21.117188 11.5625 18.511719 14.175781 15.308594 14.175781 " fill-opacity="1" fill-rule="nonzero"/></g><g clip-path="url(#1670c76494)"><path fill="#000000" d="M 11.339844 12.476562 C 11.3125 12.476562 11.289062 12.46875 11.269531 12.449219 C 11.230469 12.410156 11.230469 12.351562 11.269531 12.3125 L 15.191406 8.34375 L 14.148438 2.78125 C 14.136719 2.726562 14.171875 2.675781 14.222656 2.667969 C 14.277344 2.65625 14.328125 2.691406 14.335938 2.746094 L 15.390625 8.355469 C 15.394531 8.386719 15.386719 8.421875 15.363281 8.441406 L 11.40625 12.449219 C 11.386719 12.46875 11.363281 12.476562 11.339844 12.476562 " fill-opacity="1" fill-rule="nonzero"/></g><path fill="#000000" d="M 15.289062 8.5 C 15.25 8.5 15.210938 8.476562 15.195312 8.4375 C 15.179688 8.386719 15.203125 8.332031 15.253906 8.3125 L 20.570312 6.246094 C 20.621094 6.226562 20.679688 6.253906 20.695312 6.304688 C 20.714844 6.351562 20.691406 6.410156 20.640625 6.429688 L 15.324219 8.492188 C 15.3125 8.496094 15.300781 8.5 15.289062 8.5 " fill-opacity="1" fill-rule="nonzero"/><path fill="#000000" d="M 12.699219 8.597656 C 12.703125 8.652344 12.71875 8.699219 12.753906 8.726562 C 12.785156 8.753906 12.824219 8.769531 12.863281 8.769531 C 12.898438 8.769531 12.933594 8.757812 12.96875 8.730469 C 13 8.703125 13.019531 8.660156 13.019531 8.605469 C 13.019531 8.554688 13 8.519531 12.96875 8.492188 C 12.933594 8.464844 12.898438 8.453125 12.855469 8.453125 C 12.828125 8.453125 12.800781 8.457031 12.78125 8.46875 C 12.761719 8.480469 12.746094 8.492188 12.734375 8.511719 C 12.722656 8.527344 12.714844 8.546875 12.707031 8.566406 C 12.703125 8.589844 12.699219 8.609375 12.695312 8.628906 Z M 12.484375 8.605469 C 12.488281 8.542969 12.5 8.488281 12.523438 8.441406 C 12.546875 8.394531 12.574219 8.355469 12.609375 8.328125 C 12.644531 8.296875 12.683594 8.273438 12.726562 8.257812 C 12.769531 8.242188 12.8125 8.234375 12.859375 8.234375 C 12.902344 8.234375 12.949219 8.242188 12.996094 8.257812 C 13.039062 8.273438 13.082031 8.296875 13.113281 8.328125 C 13.148438 8.359375 13.179688 8.394531 13.199219 8.441406 C 13.222656 8.488281 13.234375 8.539062 13.234375 8.597656 C 13.234375 8.65625 13.222656 8.710938 13.203125 8.757812 C 13.179688 8.804688 13.152344 8.847656 13.117188 8.878906 C 13.082031 8.914062 13.039062 8.9375 12.996094 8.957031 C 12.949219 8.972656 12.902344 8.984375 12.851562 8.984375 C 12.8125 8.984375 12.769531 8.976562 12.726562 8.960938 C 12.6875 8.945312 12.648438 8.921875 12.613281 8.890625 C 12.578125 8.863281 12.550781 8.820312 12.527344 8.773438 C 12.503906 8.726562 12.488281 8.667969 12.484375 8.605469 Z M 11.785156 7.511719 C 11.785156 7.574219 11.804688 7.617188 11.839844 7.648438 C 11.875 7.675781 11.914062 7.691406 11.953125 7.691406 C 11.992188 7.691406 12.03125 7.675781 12.0625 7.648438 C 12.097656 7.617188 12.117188 7.578125 12.117188 7.519531 C 12.117188 7.476562 12.097656 7.4375 12.0625 7.402344 C 12.027344 7.371094 11.984375 7.355469 11.941406 7.355469 C 11.914062 7.355469 11.890625 7.359375 11.871094 7.371094 C 11.851562 7.386719 11.835938 7.402344 11.824219 7.417969 C 11.8125 7.4375 11.800781 7.457031 11.792969 7.480469 C 11.785156 7.503906 11.78125 7.527344 11.78125 7.546875 Z M 11.570312 7.519531 C 11.570312 7.457031 11.585938 7.402344 11.609375 7.355469 C 11.632812 7.308594 11.660156 7.269531 11.695312 7.234375 C 11.730469 7.203125 11.769531 7.179688 11.816406 7.167969 C 11.859375 7.152344 11.90625 7.144531 11.949219 7.144531 C 11.996094 7.144531 12.042969 7.152344 12.089844 7.167969 C 12.132812 7.183594 12.175781 7.207031 12.210938 7.238281 C 12.246094 7.269531 12.273438 7.308594 12.296875 7.355469 C 12.320312 7.398438 12.332031 7.453125 12.332031 7.511719 C 12.332031 7.570312 12.320312 7.625 12.296875 7.675781 C 12.273438 7.722656 12.242188 7.765625 12.207031 7.800781 C 12.171875 7.835938 12.128906 7.859375 12.082031 7.878906 C 12.035156 7.898438 11.984375 7.910156 11.933594 7.910156 C 11.890625 7.910156 11.847656 7.902344 11.804688 7.882812 C 11.765625 7.867188 11.726562 7.839844 11.691406 7.808594 C 11.660156 7.777344 11.628906 7.734375 11.609375 7.6875 C 11.585938 7.640625 11.570312 7.582031 11.570312 7.519531 Z M 12.898438 7.136719 C 12.925781 7.113281 12.953125 7.101562 12.984375 7.101562 C 13.011719 7.101562 13.035156 7.113281 13.054688 7.128906 C 13.074219 7.148438 13.082031 7.175781 13.082031 7.203125 C 13.082031 7.21875 13.078125 7.238281 13.070312 7.261719 C 12.964844 7.410156 12.867188 7.554688 12.769531 7.695312 C 12.671875 7.832031 12.578125 7.96875 12.484375 8.109375 C 12.386719 8.246094 12.292969 8.382812 12.195312 8.523438 C 12.097656 8.664062 11.996094 8.808594 11.894531 8.957031 C 11.878906 8.976562 11.863281 8.988281 11.84375 8.996094 C 11.824219 9.003906 11.808594 9.007812 11.796875 9.007812 C 11.769531 9.007812 11.746094 8.996094 11.726562 8.980469 C 11.707031 8.960938 11.695312 8.9375 11.695312 8.90625 C 11.695312 8.882812 11.703125 8.855469 11.71875 8.832031 C 11.824219 8.679688 11.925781 8.535156 12.019531 8.398438 C 12.117188 8.257812 12.210938 8.121094 12.308594 7.984375 C 12.402344 7.847656 12.5 7.707031 12.59375 7.570312 C 12.691406 7.429688 12.792969 7.285156 12.898438 7.136719 " fill-opacity="1" fill-rule="evenodd"/><path fill="#000000" d="M 17.125 5.695312 C 17.128906 5.746094 17.144531 5.78125 17.171875 5.804688 C 17.199219 5.832031 17.230469 5.84375 17.265625 5.84375 C 17.296875 5.84375 17.324219 5.832031 17.351562 5.808594 C 17.378906 5.785156 17.394531 5.75 17.394531 5.703125 C 17.394531 5.664062 17.378906 5.632812 17.351562 5.609375 C 17.324219 5.585938 17.292969 5.574219 17.257812 5.574219 C 17.234375 5.574219 17.210938 5.582031 17.195312 5.589844 C 17.179688 5.597656 17.164062 5.609375 17.15625 5.625 C 17.148438 5.640625 17.140625 5.65625 17.132812 5.671875 C 17.128906 5.691406 17.125 5.707031 17.125 5.726562 Z M 16.945312 5.703125 C 16.949219 5.652344 16.960938 5.605469 16.980469 5.566406 C 17 5.527344 17.023438 5.496094 17.050781 5.472656 C 17.082031 5.445312 17.113281 5.425781 17.148438 5.414062 C 17.183594 5.402344 17.222656 5.394531 17.261719 5.394531 C 17.296875 5.394531 17.335938 5.402344 17.375 5.414062 C 17.414062 5.429688 17.445312 5.445312 17.476562 5.472656 C 17.503906 5.496094 17.527344 5.527344 17.546875 5.566406 C 17.566406 5.605469 17.574219 5.648438 17.574219 5.695312 C 17.574219 5.746094 17.566406 5.792969 17.546875 5.832031 C 17.53125 5.871094 17.507812 5.90625 17.476562 5.933594 C 17.445312 5.964844 17.414062 5.984375 17.375 6 C 17.335938 6.015625 17.296875 6.019531 17.257812 6.019531 C 17.222656 6.019531 17.1875 6.015625 17.152344 6.003906 C 17.117188 5.988281 17.085938 5.972656 17.054688 5.945312 C 17.027344 5.917969 17.003906 5.886719 16.984375 5.847656 C 16.960938 5.804688 16.953125 5.757812 16.945312 5.703125 Z M 16.359375 4.789062 C 16.359375 4.839844 16.378906 4.875 16.40625 4.902344 C 16.4375 4.925781 16.46875 4.9375 16.5 4.9375 C 16.535156 4.9375 16.566406 4.925781 16.59375 4.902344 C 16.621094 4.875 16.636719 4.839844 16.636719 4.792969 C 16.636719 4.757812 16.621094 4.722656 16.59375 4.695312 C 16.5625 4.667969 16.527344 4.65625 16.488281 4.65625 C 16.46875 4.65625 16.449219 4.660156 16.433594 4.671875 C 16.417969 4.679688 16.402344 4.695312 16.390625 4.710938 C 16.382812 4.722656 16.371094 4.742188 16.367188 4.761719 C 16.359375 4.78125 16.359375 4.796875 16.355469 4.816406 Z M 16.179688 4.792969 C 16.179688 4.742188 16.191406 4.695312 16.210938 4.65625 C 16.230469 4.617188 16.257812 4.582031 16.285156 4.554688 C 16.316406 4.53125 16.347656 4.511719 16.386719 4.496094 C 16.421875 4.484375 16.460938 4.480469 16.5 4.480469 C 16.539062 4.480469 16.578125 4.484375 16.613281 4.5 C 16.652344 4.511719 16.6875 4.53125 16.71875 4.558594 C 16.746094 4.585938 16.769531 4.617188 16.789062 4.65625 C 16.808594 4.695312 16.816406 4.738281 16.816406 4.789062 C 16.816406 4.835938 16.808594 4.882812 16.789062 4.921875 C 16.769531 4.964844 16.746094 5 16.714844 5.027344 C 16.683594 5.058594 16.648438 5.082031 16.609375 5.097656 C 16.570312 5.113281 16.527344 5.121094 16.484375 5.121094 C 16.449219 5.121094 16.414062 5.113281 16.378906 5.097656 C 16.34375 5.085938 16.3125 5.0625 16.28125 5.035156 C 16.253906 5.007812 16.230469 4.976562 16.210938 4.933594 C 16.191406 4.894531 16.179688 4.847656 16.179688 4.792969 Z M 17.292969 4.472656 C 17.316406 4.453125 17.339844 4.445312 17.367188 4.445312 C 17.390625 4.445312 17.410156 4.453125 17.425781 4.46875 C 17.441406 4.484375 17.449219 4.503906 17.449219 4.53125 C 17.449219 4.542969 17.445312 4.558594 17.4375 4.578125 C 17.351562 4.703125 17.265625 4.824219 17.1875 4.941406 C 17.105469 5.054688 17.023438 5.171875 16.945312 5.289062 C 16.867188 5.402344 16.785156 5.519531 16.703125 5.636719 C 16.621094 5.753906 16.539062 5.875 16.449219 6 C 16.4375 6.015625 16.425781 6.027344 16.410156 6.03125 C 16.394531 6.039062 16.382812 6.042969 16.367188 6.042969 C 16.347656 6.042969 16.328125 6.035156 16.3125 6.019531 C 16.292969 6.003906 16.285156 5.980469 16.285156 5.957031 C 16.285156 5.9375 16.292969 5.914062 16.304688 5.894531 C 16.394531 5.769531 16.476562 5.648438 16.558594 5.53125 C 16.636719 5.414062 16.71875 5.296875 16.796875 5.183594 C 16.878906 5.066406 16.957031 4.953125 17.039062 4.835938 C 17.121094 4.71875 17.207031 4.597656 17.292969 4.472656 " fill-opacity="1" fill-rule="evenodd"/><path fill="#000000" d="M 17.1875 11.683594 C 17.191406 11.753906 17.210938 11.808594 17.253906 11.84375 C 17.296875 11.878906 17.339844 11.898438 17.390625 11.898438 C 17.433594 11.898438 17.480469 11.882812 17.519531 11.847656 C 17.558594 11.816406 17.582031 11.761719 17.582031 11.691406 C 17.582031 11.632812 17.558594 11.589844 17.519531 11.554688 C 17.480469 11.519531 17.433594 11.503906 17.378906 11.503906 C 17.34375 11.503906 17.3125 11.511719 17.289062 11.523438 C 17.261719 11.539062 17.242188 11.558594 17.230469 11.578125 C 17.214844 11.597656 17.203125 11.621094 17.199219 11.648438 C 17.191406 11.671875 17.183594 11.699219 17.183594 11.726562 Z M 16.921875 11.691406 C 16.925781 11.613281 16.941406 11.546875 16.96875 11.492188 C 16.996094 11.433594 17.03125 11.386719 17.074219 11.347656 C 17.117188 11.3125 17.167969 11.285156 17.21875 11.265625 C 17.273438 11.246094 17.328125 11.238281 17.382812 11.238281 C 17.441406 11.238281 17.496094 11.246094 17.550781 11.265625 C 17.609375 11.285156 17.65625 11.3125 17.699219 11.351562 C 17.746094 11.386719 17.78125 11.433594 17.804688 11.492188 C 17.832031 11.546875 17.847656 11.613281 17.847656 11.683594 C 17.847656 11.757812 17.835938 11.824219 17.808594 11.882812 C 17.78125 11.945312 17.746094 11.992188 17.703125 12.035156 C 17.660156 12.078125 17.609375 12.109375 17.550781 12.128906 C 17.496094 12.152344 17.4375 12.164062 17.378906 12.164062 C 17.324219 12.164062 17.273438 12.152344 17.222656 12.132812 C 17.167969 12.117188 17.121094 12.085938 17.082031 12.050781 C 17.039062 12.011719 17.003906 11.964844 16.972656 11.902344 C 16.945312 11.84375 16.925781 11.773438 16.921875 11.691406 Z M 16.050781 10.339844 C 16.054688 10.417969 16.078125 10.472656 16.125 10.507812 C 16.167969 10.542969 16.210938 10.5625 16.261719 10.5625 C 16.3125 10.5625 16.359375 10.542969 16.398438 10.507812 C 16.441406 10.472656 16.464844 10.421875 16.464844 10.351562 C 16.464844 10.292969 16.441406 10.246094 16.398438 10.207031 C 16.351562 10.164062 16.300781 10.144531 16.246094 10.144531 C 16.214844 10.144531 16.1875 10.152344 16.164062 10.167969 C 16.136719 10.183594 16.117188 10.203125 16.101562 10.226562 C 16.085938 10.25 16.074219 10.273438 16.066406 10.300781 C 16.054688 10.332031 16.050781 10.359375 16.046875 10.382812 Z M 15.785156 10.351562 C 15.789062 10.273438 15.808594 10.203125 15.835938 10.144531 C 15.867188 10.085938 15.902344 10.039062 15.945312 10 C 15.988281 9.960938 16.039062 9.929688 16.09375 9.914062 C 16.148438 9.894531 16.203125 9.886719 16.257812 9.886719 C 16.316406 9.886719 16.375 9.894531 16.429688 9.914062 C 16.488281 9.933594 16.539062 9.964844 16.582031 10.003906 C 16.625 10.042969 16.660156 10.089844 16.6875 10.144531 C 16.714844 10.203125 16.730469 10.265625 16.730469 10.339844 C 16.730469 10.414062 16.714844 10.480469 16.6875 10.542969 C 16.660156 10.601562 16.621094 10.652344 16.578125 10.695312 C 16.53125 10.738281 16.480469 10.773438 16.421875 10.796875 C 16.363281 10.820312 16.300781 10.832031 16.238281 10.832031 C 16.1875 10.832031 16.132812 10.824219 16.082031 10.800781 C 16.03125 10.777344 15.980469 10.746094 15.941406 10.707031 C 15.898438 10.667969 15.863281 10.617188 15.835938 10.558594 C 15.808594 10.5 15.789062 10.429688 15.785156 10.351562 Z M 17.433594 9.875 C 17.464844 9.847656 17.503906 9.832031 17.539062 9.832031 C 17.574219 9.832031 17.601562 9.84375 17.625 9.867188 C 17.652344 9.894531 17.664062 9.921875 17.664062 9.960938 C 17.664062 9.980469 17.65625 10.003906 17.644531 10.03125 C 17.515625 10.214844 17.390625 10.394531 17.273438 10.566406 C 17.15625 10.738281 17.035156 10.910156 16.917969 11.078125 C 16.800781 11.25 16.683594 11.421875 16.5625 11.59375 C 16.441406 11.765625 16.316406 11.945312 16.1875 12.128906 C 16.171875 12.152344 16.152344 12.171875 16.128906 12.179688 C 16.105469 12.1875 16.085938 12.191406 16.066406 12.191406 C 16.035156 12.191406 16.007812 12.179688 15.980469 12.15625 C 15.957031 12.132812 15.945312 12.105469 15.945312 12.066406 C 15.945312 12.039062 15.953125 12.003906 15.972656 11.972656 C 16.105469 11.789062 16.226562 11.609375 16.347656 11.4375 C 16.464844 11.265625 16.582031 11.09375 16.703125 10.925781 C 16.820312 10.753906 16.9375 10.585938 17.058594 10.410156 C 17.179688 10.238281 17.304688 10.058594 17.433594 9.875 " fill-opacity="1" fill-rule="evenodd"/><path fill="#efefef" d="M 26.101562 4.28125 L 34.496094 4.28125 C 34.671875 4.28125 34.816406 4.429688 34.816406 4.605469 L 34.816406 8.410156 C 34.816406 8.589844 34.671875 8.734375 34.496094 8.734375 L 26.101562 8.734375 C 25.925781 8.734375 25.78125 8.589844 25.78125 8.410156 L 25.78125 4.605469 C 25.78125 4.429688 25.925781 4.28125 26.101562 4.28125 " fill-opacity="1" fill-rule="evenodd"/><path fill="#000000" d="M 26.101562 4.378906 C 25.976562 4.378906 25.875 4.480469 25.875 4.605469 L 25.875 8.410156 C 25.875 8.535156 25.976562 8.636719 26.101562 8.636719 L 34.496094 8.636719 C 34.621094 8.636719 34.71875 8.535156 34.71875 8.410156 L 34.71875 4.605469 C 34.71875 4.480469 34.621094 4.378906 34.496094 4.378906 Z M 34.496094 8.832031 L 26.101562 8.832031 C 25.871094 8.832031 25.683594 8.644531 25.683594 8.410156 L 25.683594 4.605469 C 25.683594 4.375 25.871094 4.1875 26.101562 4.1875 L 34.496094 4.1875 C 34.726562 4.1875 34.914062 4.375 34.914062 4.605469 L 34.914062 8.410156 C 34.914062 8.644531 34.726562 8.832031 34.496094 8.832031 " fill-opacity="1" fill-rule="nonzero"/><path fill="#efefef" d="M 40.160156 7.265625 L 46.679688 7.265625 C 46.855469 7.265625 47 7.410156 47 7.589844 L 47 10.773438 C 47 10.953125 46.855469 11.097656 46.679688 11.097656 L 40.160156 11.097656 C 39.980469 11.097656 39.835938 10.953125 39.835938 10.773438 L 39.835938 7.589844 C 39.835938 7.410156 39.980469 7.265625 40.160156 7.265625 " fill-opacity="1" fill-rule="evenodd"/><g clip-path="url(#05fcedfa40)"><path fill="#000000" d="M 40.160156 7.363281 C 40.035156 7.363281 39.933594 7.464844 39.933594 7.589844 L 39.933594 10.773438 C 39.933594 10.898438 40.035156 11 40.160156 11 L 46.679688 11 C 46.804688 11 46.902344 10.898438 46.902344 10.773438 L 46.902344 7.589844 C 46.902344 7.464844 46.804688 7.363281 46.679688 7.363281 Z M 46.679688 11.195312 L 40.160156 11.195312 C 39.925781 11.195312 39.738281 11.003906 39.738281 10.773438 L 39.738281 7.589844 C 39.738281 7.355469 39.925781 7.167969 40.160156 7.167969 L 46.679688 7.167969 C 46.910156 7.167969 47.097656 7.355469 47.097656 7.589844 L 47.097656 10.773438 C 47.097656 11.003906 46.910156 11.195312 46.679688 11.195312 " fill-opacity="1" fill-rule="nonzero"/></g><g clip-path="url(#d8e4a4888b)"><path fill="#efefef" d="M 42.304688 13.582031 L 47.179688 13.582031 C 47.359375 13.582031 47.503906 13.726562 47.503906 13.90625 L 47.503906 15.8125 C 47.503906 15.992188 47.359375 16.136719 47.179688 16.136719 L 42.304688 16.136719 C 42.128906 16.136719 41.984375 15.992188 41.984375 15.8125 L 41.984375 13.90625 C 41.984375 13.726562 42.128906 13.582031 42.304688 13.582031 " fill-opacity="1" fill-rule="evenodd"/><path fill="#000000" d="M 42.304688 13.679688 C 42.179688 13.679688 42.078125 13.78125 42.078125 13.90625 L 42.078125 15.8125 C 42.078125 15.9375 42.179688 16.039062 42.304688 16.039062 L 47.179688 16.039062 C 47.304688 16.039062 47.40625 15.9375 47.40625 15.8125 L 47.40625 13.90625 C 47.40625 13.78125 47.304688 13.679688 47.179688 13.679688 Z M 47.179688 16.234375 L 42.304688 16.234375 C 42.074219 16.234375 41.886719 16.042969 41.886719 15.8125 L 41.886719 13.90625 C 41.886719 13.671875 42.074219 13.484375 42.304688 13.484375 L 47.179688 13.484375 C 47.410156 13.484375 47.601562 13.671875 47.601562 13.90625 L 47.601562 15.8125 C 47.601562 16.042969 47.410156 16.234375 47.179688 16.234375 " fill-opacity="1" fill-rule="nonzero"/></g><g clip-path="url(#cb8675547c)"><path fill="#efefef" d="M 0.820312 13.066406 L 5.734375 13.066406 C 5.910156 13.066406 6.054688 13.210938 6.054688 13.390625 L 6.054688 15.566406 C 6.054688 15.746094 5.910156 15.890625 5.734375 15.890625 L 0.820312 15.890625 C 0.640625 15.890625 0.496094 15.746094 0.496094 15.566406 L 0.496094 13.390625 C 0.496094 13.210938 0.640625 13.066406 0.820312 13.066406 " fill-opacity="1" fill-rule="evenodd"/></g><g clip-path="url(#cf0d0cb8ef)"><path fill="#000000" d="M 0.820312 13.164062 C 0.695312 13.164062 0.59375 13.265625 0.59375 13.390625 L 0.59375 15.566406 C 0.59375 15.691406 0.695312 15.792969 0.820312 15.792969 L 5.734375 15.792969 C 5.859375 15.792969 5.960938 15.691406 5.960938 15.566406 L 5.960938 13.390625 C 5.960938 13.265625 5.859375 13.164062 5.734375 13.164062 Z M 5.734375 15.988281 L 0.820312 15.988281 C 0.589844 15.988281 0.398438 15.796875 0.398438 15.566406 L 0.398438 13.390625 C 0.398438 13.15625 0.589844 12.96875 0.820312 12.96875 L 5.734375 12.96875 C 5.964844 12.96875 6.152344 13.15625 6.152344 13.390625 L 6.152344 15.566406 C 6.152344 15.796875 5.964844 15.988281 5.734375 15.988281 " fill-opacity="1" fill-rule="nonzero"/></g><g clip-path="url(#6aeadaef79)"><path fill="#000000" d="M 10.554688 20.53125 C 10.53125 20.53125 10.507812 20.527344 10.492188 20.511719 L 5.96875 16.652344 L 0.605469 16.652344 C 0.550781 16.652344 0.507812 16.609375 0.507812 16.554688 C 0.507812 16.5 0.550781 16.457031 0.605469 16.457031 L 6.003906 16.457031 C 6.027344 16.457031 6.046875 16.464844 6.066406 16.480469 L 10.617188 20.363281 C 10.65625 20.398438 10.660156 20.457031 10.628906 20.5 C 10.609375 20.523438 10.582031 20.53125 10.554688 20.53125 " fill-opacity="1" fill-rule="nonzero"/></g><path fill="#000000" d="M 23.214844 13.988281 C 23.199219 13.988281 23.179688 13.984375 23.167969 13.976562 C 23.121094 13.945312 23.105469 13.890625 23.132812 13.847656 L 25.96875 9.375 C 25.988281 9.347656 26.019531 9.332031 26.050781 9.332031 L 34.578125 9.332031 C 34.632812 9.332031 34.675781 9.375 34.675781 9.429688 C 34.675781 9.480469 34.632812 9.527344 34.578125 9.527344 L 26.105469 9.527344 L 23.300781 13.941406 C 23.28125 13.972656 23.25 13.988281 23.214844 13.988281 " fill-opacity="1" fill-rule="nonzero"/><path fill="#000000" d="M 20.273438 18.632812 C 20.253906 18.632812 20.234375 18.628906 20.21875 18.617188 C 20.175781 18.589844 20.160156 18.527344 20.191406 18.484375 L 21.476562 16.457031 C 21.507812 16.410156 21.566406 16.394531 21.609375 16.425781 C 21.65625 16.453125 21.671875 16.511719 21.644531 16.558594 L 21.625 16.585938 L 20.351562 18.585938 C 20.335938 18.617188 20.304688 18.632812 20.273438 18.632812 " fill-opacity="1" fill-rule="nonzero"/><path fill="#000000" d="M 20.992188 14.015625 C 20.894531 14.015625 20.816406 14.117188 20.816406 14.242188 L 20.816406 16.148438 C 20.816406 16.273438 20.894531 16.375 20.992188 16.375 L 25.121094 16.375 C 25.21875 16.375 25.296875 16.273438 25.296875 16.148438 L 25.296875 14.242188 C 25.296875 14.117188 25.21875 14.015625 25.121094 14.015625 Z M 25.121094 16.566406 L 20.992188 16.566406 C 20.789062 16.566406 20.625 16.378906 20.625 16.148438 L 20.625 14.242188 C 20.625 14.007812 20.789062 13.820312 20.992188 13.820312 L 25.121094 13.820312 C 25.324219 13.820312 25.488281 14.007812 25.488281 14.242188 L 25.488281 16.148438 C 25.488281 16.378906 25.324219 16.566406 25.121094 16.566406 " fill-opacity="1" fill-rule="nonzero"/><path fill="#000000" d="M 34.695312 14.742188 C 34.664062 14.742188 34.628906 14.722656 34.613281 14.691406 C 34.585938 14.644531 34.601562 14.585938 34.648438 14.558594 L 39.863281 11.464844 C 39.878906 11.453125 39.894531 11.449219 39.910156 11.449219 L 46.847656 11.449219 C 46.902344 11.449219 46.945312 11.492188 46.945312 11.546875 C 46.945312 11.601562 46.902344 11.644531 46.847656 11.644531 L 39.9375 11.644531 L 34.746094 14.726562 C 34.730469 14.734375 34.710938 14.742188 34.695312 14.742188 " fill-opacity="1" fill-rule="nonzero"/><path fill="#000000" d="M 44.617188 13.648438 C 44.5625 13.648438 44.519531 13.605469 44.519531 13.550781 L 44.519531 11.589844 C 44.519531 11.535156 44.5625 11.492188 44.617188 11.492188 C 44.671875 11.492188 44.714844 11.535156 44.714844 11.589844 L 44.714844 13.550781 C 44.714844 13.605469 44.671875 13.648438 44.617188 13.648438 " fill-opacity="1" fill-rule="nonzero"/><path fill="#000000" d="M 46.273438 8.863281 L 40.53125 8.863281 C 40.480469 8.863281 40.433594 8.820312 40.433594 8.765625 C 40.433594 8.710938 40.480469 8.667969 40.53125 8.667969 L 46.273438 8.667969 C 46.328125 8.667969 46.371094 8.710938 46.371094 8.765625 C 46.371094 8.820312 46.328125 8.863281 46.273438 8.863281 " fill-opacity="1" fill-rule="nonzero"/><path fill="#000000" d="M 46.289062 8.195312 L 40.546875 8.195312 C 40.492188 8.195312 40.449219 8.152344 40.449219 8.097656 C 40.449219 8.046875 40.492188 8.003906 40.546875 8.003906 L 46.289062 8.003906 C 46.34375 8.003906 46.386719 8.046875 46.386719 8.097656 C 46.386719 8.152344 46.34375 8.195312 46.289062 8.195312 " fill-opacity="1" fill-rule="nonzero"/><path fill="#000000" d="M 46.273438 10.234375 L 40.53125 10.234375 C 40.480469 10.234375 40.433594 10.191406 40.433594 10.136719 C 40.433594 10.082031 40.480469 10.039062 40.53125 10.039062 L 46.273438 10.039062 C 46.328125 10.039062 46.371094 10.082031 46.371094 10.136719 C 46.371094 10.191406 46.328125 10.234375 46.273438 10.234375 " fill-opacity="1" fill-rule="nonzero"/><path fill="#000000" d="M 46.28125 9.542969 L 40.539062 9.542969 C 40.484375 9.542969 40.441406 9.5 40.441406 9.445312 C 40.441406 9.394531 40.484375 9.347656 40.539062 9.347656 L 46.28125 9.347656 C 46.335938 9.347656 46.378906 9.394531 46.378906 9.445312 C 46.378906 9.5 46.335938 9.542969 46.28125 9.542969 " fill-opacity="1" fill-rule="nonzero"/><g clip-path="url(#49923a3c88)"><path fill="#000000" d="M 47 14.933594 L 42.5 14.933594 C 42.445312 14.933594 42.402344 14.890625 42.402344 14.835938 C 42.402344 14.78125 42.445312 14.738281 42.5 14.738281 L 47 14.738281 C 47.054688 14.738281 47.097656 14.78125 47.097656 14.835938 C 47.097656 14.890625 47.054688 14.933594 47 14.933594 " fill-opacity="1" fill-rule="nonzero"/><path fill="#000000" d="M 46.992188 14.355469 L 42.488281 14.355469 C 42.4375 14.355469 42.394531 14.3125 42.394531 14.257812 C 42.394531 14.207031 42.4375 14.164062 42.488281 14.164062 L 46.992188 14.164062 C 47.046875 14.164062 47.089844 14.207031 47.089844 14.257812 C 47.089844 14.3125 47.046875 14.355469 46.992188 14.355469 " fill-opacity="1" fill-rule="nonzero"/></g><g clip-path="url(#2203b77ee9)"><path fill="#000000" d="M 46.984375 15.503906 L 42.480469 15.503906 C 42.429688 15.503906 42.386719 15.460938 42.386719 15.40625 C 42.386719 15.351562 42.429688 15.308594 42.480469 15.308594 L 46.984375 15.308594 C 47.039062 15.308594 47.082031 15.351562 47.082031 15.40625 C 47.082031 15.460938 47.039062 15.503906 46.984375 15.503906 " fill-opacity="1" fill-rule="nonzero"/></g><path fill="#000000" d="M 33.914062 5.917969 L 26.640625 5.917969 C 26.585938 5.917969 26.542969 5.875 26.542969 5.820312 C 26.542969 5.765625 26.585938 5.722656 26.640625 5.722656 L 33.914062 5.722656 C 33.96875 5.722656 34.011719 5.765625 34.011719 5.820312 C 34.011719 5.875 33.96875 5.917969 33.914062 5.917969 " fill-opacity="1" fill-rule="nonzero"/><path fill="#000000" d="M 33.933594 5.25 L 26.660156 5.25 C 26.605469 5.25 26.5625 5.207031 26.5625 5.152344 C 26.5625 5.097656 26.605469 5.054688 26.660156 5.054688 L 33.933594 5.054688 C 33.988281 5.054688 34.03125 5.097656 34.03125 5.152344 C 34.03125 5.207031 33.988281 5.25 33.933594 5.25 " fill-opacity="1" fill-rule="nonzero"/><path fill="#000000" d="M 33.914062 7.285156 L 26.640625 7.285156 C 26.585938 7.285156 26.542969 7.242188 26.542969 7.191406 C 26.542969 7.136719 26.585938 7.09375 26.640625 7.09375 L 33.914062 7.09375 C 33.96875 7.09375 34.011719 7.136719 34.011719 7.191406 C 34.011719 7.242188 33.96875 7.285156 33.914062 7.285156 " fill-opacity="1" fill-rule="nonzero"/><path fill="#000000" d="M 33.925781 6.597656 L 26.652344 6.597656 C 26.597656 6.597656 26.554688 6.554688 26.554688 6.5 C 26.554688 6.449219 26.597656 6.402344 26.652344 6.402344 L 33.925781 6.402344 C 33.976562 6.402344 34.019531 6.449219 34.019531 6.5 C 34.019531 6.554688 33.976562 6.597656 33.925781 6.597656 " fill-opacity="1" fill-rule="nonzero"/><path fill="#000000" d="M 33.902344 7.960938 L 26.628906 7.960938 C 26.574219 7.960938 26.53125 7.917969 26.53125 7.863281 C 26.53125 7.808594 26.574219 7.765625 26.628906 7.765625 L 33.902344 7.765625 C 33.957031 7.765625 34 7.808594 34 7.863281 C 34 7.917969 33.957031 7.960938 33.902344 7.960938 " fill-opacity="1" fill-rule="nonzero"/><path fill="#000000" d="M 5.492188 14.3125 L 1.105469 14.3125 C 1.050781 14.3125 1.007812 14.269531 1.007812 14.214844 C 1.007812 14.164062 1.050781 14.121094 1.105469 14.121094 L 5.492188 14.121094 C 5.542969 14.121094 5.589844 14.164062 5.589844 14.214844 C 5.589844 14.269531 5.542969 14.3125 5.492188 14.3125 " fill-opacity="1" fill-rule="nonzero"/><path fill="#000000" d="M 5.484375 13.738281 L 1.097656 13.738281 C 1.042969 13.738281 1 13.691406 1 13.640625 C 1 13.585938 1.042969 13.542969 1.097656 13.542969 L 5.484375 13.542969 C 5.535156 13.542969 5.578125 13.585938 5.578125 13.640625 C 5.578125 13.691406 5.535156 13.738281 5.484375 13.738281 " fill-opacity="1" fill-rule="nonzero"/><g clip-path="url(#f2a3203673)"><path fill="#000000" d="M 5.476562 14.882812 L 1.089844 14.882812 C 1.035156 14.882812 0.992188 14.839844 0.992188 14.785156 C 0.992188 14.730469 1.035156 14.6875 1.089844 14.6875 L 5.476562 14.6875 C 5.527344 14.6875 5.570312 14.730469 5.570312 14.785156 C 5.570312 14.839844 5.527344 14.882812 5.476562 14.882812 " fill-opacity="1" fill-rule="nonzero"/></g><g clip-path="url(#3b1c4cae89)"><path fill="#000000" d="M 5.46875 15.441406 L 1.082031 15.441406 C 1.027344 15.441406 0.984375 15.398438 0.984375 15.34375 C 0.984375 15.292969 1.027344 15.25 1.082031 15.25 L 5.46875 15.25 C 5.523438 15.25 5.566406 15.292969 5.566406 15.34375 C 5.566406 15.398438 5.523438 15.441406 5.46875 15.441406 " fill-opacity="1" fill-rule="nonzero"/></g><path fill="#000000" d="M 17.332031 23.21875 C 17.308594 23.21875 17.285156 23.207031 17.265625 23.191406 C 17.246094 23.171875 17.238281 23.148438 17.238281 23.121094 L 17.238281 22.113281 C 17.238281 22.058594 17.28125 22.015625 17.335938 22.015625 C 17.386719 22.015625 17.429688 22.058594 17.429688 22.113281 L 17.429688 23.023438 L 18.089844 23.023438 L 18.085938 17.644531 L 17.429688 17.644531 L 17.429688 18.960938 C 17.429688 19.015625 17.386719 19.058594 17.332031 19.058594 C 17.277344 19.058594 17.234375 19.015625 17.234375 18.960938 L 17.234375 17.546875 C 17.234375 17.519531 17.246094 17.496094 17.261719 17.476562 C 17.28125 17.460938 17.304688 17.449219 17.332031 17.449219 L 18.183594 17.449219 C 18.238281 17.449219 18.28125 17.492188 18.28125 17.546875 L 18.28125 23.121094 C 18.28125 23.148438 18.273438 23.171875 18.253906 23.191406 C 18.238281 23.207031 18.210938 23.21875 18.1875 23.21875 L 17.332031 23.21875 " fill-opacity="1" fill-rule="nonzero"/><path fill="#000000" d="M 15.492188 22.378906 C 15.4375 22.378906 15.394531 22.335938 15.394531 22.28125 L 15.390625 19.246094 C 15.390625 19.191406 15.433594 19.148438 15.488281 19.148438 L 16.339844 19.148438 C 16.394531 19.148438 16.4375 19.191406 16.4375 19.246094 L 16.441406 20.445312 C 16.441406 20.5 16.398438 20.542969 16.34375 20.542969 C 16.289062 20.542969 16.246094 20.5 16.246094 20.445312 L 16.246094 19.34375 L 15.585938 19.34375 L 15.585938 22.28125 C 15.585938 22.335938 15.542969 22.378906 15.492188 22.378906 " fill-opacity="1" fill-rule="nonzero"/><path fill="#ffc662" d="M 14.355469 20.558594 L 13.503906 20.558594 L 13.503906 23.125 L 14.359375 23.125 L 14.355469 20.558594 " fill-opacity="1" fill-rule="evenodd"/><path fill="#000000" d="M 13.601562 20.65625 L 13.601562 23.027344 L 14.261719 23.027344 L 14.257812 20.65625 Z M 13.503906 23.222656 C 13.453125 23.222656 13.40625 23.179688 13.40625 23.125 L 13.40625 20.558594 C 13.40625 20.507812 13.449219 20.460938 13.503906 20.460938 L 14.355469 20.460938 C 14.382812 20.460938 14.40625 20.472656 14.425781 20.492188 C 14.441406 20.507812 14.453125 20.535156 14.453125 20.558594 L 14.453125 23.125 C 14.453125 23.152344 14.445312 23.175781 14.425781 23.191406 C 14.40625 23.210938 14.382812 23.222656 14.359375 23.222656 L 13.503906 23.222656 " fill-opacity="1" fill-rule="nonzero"/><path fill="#000000" d="M 11.632812 21.308594 L 11.632812 23.023438 L 12.292969 23.023438 L 12.292969 21.304688 Z M 11.535156 23.21875 C 11.511719 23.21875 11.484375 23.210938 11.46875 23.191406 C 11.449219 23.171875 11.441406 23.148438 11.441406 23.121094 L 11.4375 21.210938 C 11.4375 21.183594 11.449219 21.160156 11.46875 21.140625 C 11.484375 21.121094 11.507812 21.113281 11.535156 21.113281 L 12.386719 21.113281 C 12.441406 21.113281 12.484375 21.15625 12.484375 21.210938 L 12.484375 23.121094 C 12.484375 23.175781 12.441406 23.21875 12.390625 23.21875 L 11.535156 23.21875 " fill-opacity="1" fill-rule="nonzero"/><path fill="#000000" d="M 19.378906 23.222656 L 16.984375 23.222656 C 16.929688 23.222656 16.886719 23.179688 16.886719 23.125 C 16.886719 23.070312 16.929688 23.027344 16.984375 23.027344 L 19.28125 23.027344 L 19.28125 16.792969 L 10.6875 16.792969 L 10.6875 23.027344 L 15.085938 23.027344 C 15.140625 23.027344 15.1875 23.070312 15.1875 23.125 C 15.1875 23.179688 15.148438 23.222656 15.097656 23.222656 L 10.589844 23.222656 C 10.539062 23.222656 10.496094 23.179688 10.496094 23.125 L 10.496094 16.695312 C 10.496094 16.640625 10.539062 16.597656 10.589844 16.597656 L 19.378906 16.597656 C 19.429688 16.597656 19.476562 16.640625 19.476562 16.695312 L 19.476562 23.125 C 19.476562 23.179688 19.429688 23.222656 19.378906 23.222656 " fill-opacity="1" fill-rule="nonzero"/><path fill="#000000" d="M 24.828125 15.28125 L 21.269531 15.28125 C 21.214844 15.28125 21.171875 15.238281 21.171875 15.183594 C 21.171875 15.128906 21.214844 15.085938 21.269531 15.085938 L 24.828125 15.085938 C 24.882812 15.085938 24.925781 15.128906 24.925781 15.183594 C 24.925781 15.238281 24.882812 15.28125 24.828125 15.28125 " fill-opacity="1" fill-rule="nonzero"/><path fill="#000000" d="M 24.820312 14.703125 L 21.261719 14.703125 C 21.210938 14.703125 21.164062 14.660156 21.164062 14.605469 C 21.164062 14.554688 21.210938 14.511719 21.261719 14.511719 L 24.820312 14.511719 C 24.875 14.511719 24.917969 14.554688 24.917969 14.605469 C 24.917969 14.660156 24.875 14.703125 24.820312 14.703125 " fill-opacity="1" fill-rule="nonzero"/><path fill="#000000" d="M 24.816406 15.851562 L 21.257812 15.851562 C 21.203125 15.851562 21.160156 15.804688 21.160156 15.753906 C 21.160156 15.699219 21.203125 15.65625 21.257812 15.65625 L 24.816406 15.65625 C 24.871094 15.65625 24.914062 15.699219 24.914062 15.753906 C 24.914062 15.804688 24.871094 15.851562 24.816406 15.851562 " fill-opacity="1" fill-rule="nonzero"/><path fill="#000000" d="M 22.664062 18.988281 C 22.617188 18.988281 22.558594 19.078125 22.558594 19.191406 L 22.558594 20.933594 C 22.558594 21.042969 22.617188 21.132812 22.664062 21.132812 L 25.71875 21.132812 C 25.765625 21.132812 25.824219 21.042969 25.824219 20.933594 L 25.824219 19.191406 C 25.824219 19.078125 25.765625 18.988281 25.71875 18.988281 Z M 25.71875 21.328125 L 22.664062 21.328125 C 22.496094 21.328125 22.367188 21.152344 22.367188 20.933594 L 22.367188 19.191406 C 22.367188 18.96875 22.496094 18.796875 22.664062 18.796875 L 25.71875 18.796875 C 25.886719 18.796875 26.019531 18.96875 26.019531 19.191406 L 26.019531 20.933594 C 26.019531 21.152344 25.886719 21.328125 25.71875 21.328125 " fill-opacity="1" fill-rule="nonzero"/><path fill="#000000" d="M 25.429688 20.144531 L 22.941406 20.144531 C 22.890625 20.144531 22.847656 20.101562 22.847656 20.046875 C 22.847656 19.996094 22.890625 19.953125 22.941406 19.953125 L 25.429688 19.953125 C 25.484375 19.953125 25.527344 19.996094 25.527344 20.046875 C 25.527344 20.101562 25.484375 20.144531 25.429688 20.144531 " fill-opacity="1" fill-rule="nonzero"/><path fill="#000000" d="M 25.425781 19.570312 L 22.9375 19.570312 C 22.882812 19.570312 22.839844 19.523438 22.839844 19.472656 C 22.839844 19.417969 22.882812 19.375 22.9375 19.375 L 25.425781 19.375 C 25.480469 19.375 25.523438 19.417969 25.523438 19.472656 C 25.523438 19.523438 25.480469 19.570312 25.425781 19.570312 " fill-opacity="1" fill-rule="nonzero"/><path fill="#000000" d="M 25.421875 20.714844 L 22.933594 20.714844 C 22.878906 20.714844 22.835938 20.671875 22.835938 20.617188 C 22.835938 20.5625 22.878906 20.519531 22.933594 20.519531 L 25.421875 20.519531 C 25.476562 20.519531 25.519531 20.5625 25.519531 20.617188 C 25.519531 20.671875 25.476562 20.714844 25.421875 20.714844 " fill-opacity="1" fill-rule="nonzero"/><path fill="#76ceff" d="M 27.703125 14.558594 L 28.945312 14.558594 L 28.945312 20.34375 L 27.703125 20.34375 L 27.703125 14.558594 " fill-opacity="1" fill-rule="evenodd"/><path fill="#000000" d="M 27.800781 20.246094 L 28.851562 20.246094 L 28.851562 14.65625 L 27.800781 14.65625 Z M 28.945312 20.441406 L 27.703125 20.441406 C 27.652344 20.441406 27.609375 20.398438 27.609375 20.34375 L 27.609375 14.558594 C 27.609375 14.507812 27.652344 14.464844 27.703125 14.464844 L 28.945312 14.464844 C 29 14.464844 29.042969 14.507812 29.042969 14.558594 L 29.042969 20.34375 C 29.042969 20.398438 29 20.441406 28.945312 20.441406 " fill-opacity="1" fill-rule="nonzero"/><path fill="#ff7439" d="M 29.632812 13.117188 L 30.886719 13.117188 L 30.886719 20.34375 L 29.632812 20.34375 L 29.632812 13.117188 " fill-opacity="1" fill-rule="evenodd"/><path fill="#000000" d="M 29.730469 20.246094 L 30.789062 20.246094 L 30.789062 13.214844 L 29.730469 13.214844 Z M 30.886719 20.441406 L 29.632812 20.441406 C 29.578125 20.441406 29.535156 20.398438 29.535156 20.34375 L 29.535156 13.117188 C 29.535156 13.0625 29.578125 13.019531 29.632812 13.019531 L 30.886719 13.019531 C 30.941406 13.019531 30.984375 13.0625 30.984375 13.117188 L 30.984375 20.34375 C 30.984375 20.398438 30.941406 20.441406 30.886719 20.441406 " fill-opacity="1" fill-rule="nonzero"/><path fill="#bab6ff" d="M 32.863281 15.5 L 31.546875 15.5 L 31.546875 20.34375 L 32.863281 20.34375 L 32.863281 15.5 " fill-opacity="1" fill-rule="evenodd"/><path fill="#000000" d="M 31.644531 20.246094 L 32.765625 20.246094 L 32.765625 15.597656 L 31.644531 15.597656 Z M 32.863281 20.441406 L 31.546875 20.441406 C 31.492188 20.441406 31.449219 20.398438 31.449219 20.34375 L 31.449219 15.5 C 31.449219 15.445312 31.492188 15.402344 31.546875 15.402344 L 32.863281 15.402344 C 32.917969 15.402344 32.960938 15.445312 32.960938 15.5 L 32.960938 20.34375 C 32.960938 20.398438 32.917969 20.441406 32.863281 20.441406 " fill-opacity="1" fill-rule="nonzero"/><path fill="#81ed97" d="M 34.660156 14.644531 L 33.464844 14.644531 L 33.464844 20.34375 L 34.660156 20.34375 L 34.660156 14.644531 " fill-opacity="1" fill-rule="evenodd"/><path fill="#000000" d="M 33.5625 20.246094 L 34.5625 20.246094 L 34.5625 14.742188 L 33.5625 14.742188 Z M 34.660156 20.441406 L 33.464844 20.441406 C 33.410156 20.441406 33.367188 20.398438 33.367188 20.34375 L 33.367188 14.644531 C 33.367188 14.59375 33.410156 14.546875 33.464844 14.546875 L 34.660156 14.546875 C 34.714844 14.546875 34.757812 14.59375 34.757812 14.644531 L 34.757812 20.34375 C 34.757812 20.398438 34.714844 20.441406 34.660156 20.441406 " fill-opacity="1" fill-rule="nonzero"/><path fill="#000000" d="M 20.914062 26.566406 C 20.898438 26.566406 20.882812 26.5625 20.867188 26.554688 C 20.820312 26.527344 20.804688 26.46875 20.832031 26.421875 L 21.1875 25.804688 C 21.203125 25.773438 21.238281 25.757812 21.269531 25.757812 C 21.273438 25.757812 21.273438 25.757812 21.273438 25.757812 C 21.308594 25.757812 21.339844 25.773438 21.355469 25.804688 L 21.699219 26.421875 C 21.726562 26.46875 21.710938 26.527344 21.664062 26.550781 C 21.617188 26.578125 21.558594 26.5625 21.53125 26.515625 L 21.269531 26.050781 L 21 26.519531 C 20.980469 26.550781 20.949219 26.566406 20.914062 26.566406 " fill-opacity="1" fill-rule="nonzero"/><path fill="#000000" d="M 32.828125 33.996094 L 21.234375 33.964844 C 21.210938 33.964844 21.183594 33.953125 21.167969 33.9375 C 21.148438 33.917969 21.136719 33.890625 21.136719 33.867188 L 21.175781 26.023438 C 21.175781 25.96875 21.21875 25.925781 21.273438 25.925781 C 21.324219 25.925781 21.367188 25.96875 21.367188 26.023438 L 21.332031 33.769531 L 32.832031 33.804688 C 32.882812 33.804688 32.925781 33.847656 32.925781 33.902344 C 32.925781 33.953125 32.882812 33.996094 32.828125 33.996094 " fill-opacity="1" fill-rule="nonzero"/><path fill="#000000" d="M 21.238281 32.25 C 21.21875 32.25 21.199219 32.246094 21.183594 32.234375 C 21.136719 32.203125 21.128906 32.140625 21.160156 32.097656 L 23.046875 29.398438 C 23.066406 29.371094 23.097656 29.355469 23.132812 29.359375 C 23.167969 29.359375 23.195312 29.382812 23.210938 29.414062 L 24.03125 31.109375 L 24.957031 31.105469 C 24.992188 31.105469 25.019531 31.121094 25.039062 31.148438 L 25.59375 31.953125 L 26.09375 31.175781 C 26.113281 31.148438 26.144531 31.132812 26.175781 31.132812 L 28.199219 31.121094 L 28.628906 30.363281 C 28.648438 30.332031 28.679688 30.3125 28.714844 30.3125 C 28.75 30.3125 28.78125 30.332031 28.796875 30.363281 L 29.082031 30.855469 L 29.800781 29.402344 C 29.816406 29.367188 29.851562 29.347656 29.886719 29.347656 L 31.496094 29.347656 L 32.832031 27.960938 C 32.867188 27.921875 32.929688 27.921875 32.96875 27.960938 C 33.007812 27.996094 33.007812 28.058594 32.96875 28.097656 L 31.605469 29.511719 C 31.589844 29.53125 31.5625 29.542969 31.539062 29.542969 L 29.949219 29.542969 L 29.175781 31.101562 C 29.160156 31.132812 29.128906 31.15625 29.09375 31.15625 C 29.058594 31.15625 29.023438 31.140625 29.003906 31.109375 L 28.714844 30.605469 L 28.339844 31.265625 C 28.324219 31.296875 28.292969 31.3125 28.257812 31.316406 L 26.230469 31.324219 L 25.675781 32.179688 C 25.660156 32.207031 25.628906 32.222656 25.597656 32.226562 C 25.597656 32.226562 25.59375 32.226562 25.59375 32.226562 C 25.5625 32.226562 25.535156 32.210938 25.515625 32.183594 L 24.90625 31.300781 L 23.96875 31.304688 C 23.933594 31.304688 23.898438 31.28125 23.882812 31.25 L 23.109375 29.648438 L 21.316406 32.210938 C 21.296875 32.238281 21.269531 32.25 21.238281 32.25 " fill-opacity="1" fill-rule="nonzero"/><path fill="#000000" d="M 26.554688 30.570312 C 26.519531 30.570312 26.488281 30.546875 26.46875 30.515625 L 25.742188 29.070312 L 24.34375 29.070312 C 24.304688 29.070312 24.269531 29.046875 24.253906 29.011719 L 23.058594 26.546875 L 21.339844 29.164062 C 21.3125 29.207031 21.25 29.222656 21.207031 29.191406 C 21.160156 29.164062 21.148438 29.101562 21.179688 29.058594 L 22.988281 26.296875 C 23.007812 26.269531 23.042969 26.253906 23.078125 26.253906 C 23.109375 26.257812 23.140625 26.277344 23.15625 26.308594 L 24.402344 28.875 L 25.800781 28.875 C 25.839844 28.875 25.871094 28.894531 25.890625 28.925781 L 26.558594 30.257812 L 27.234375 28.910156 C 27.253906 28.878906 27.285156 28.859375 27.324219 28.859375 L 28.074219 28.863281 L 28.695312 27.597656 C 28.710938 27.5625 28.746094 27.542969 28.78125 27.542969 L 30.871094 27.542969 L 31.5 26.84375 C 31.535156 26.804688 31.597656 26.800781 31.636719 26.835938 C 31.675781 26.871094 31.679688 26.933594 31.644531 26.972656 L 30.988281 27.707031 C 30.96875 27.726562 30.941406 27.738281 30.914062 27.738281 L 28.839844 27.738281 L 28.222656 29.003906 C 28.203125 29.035156 28.167969 29.058594 28.132812 29.058594 L 27.382812 29.054688 L 26.644531 30.515625 C 26.625 30.550781 26.59375 30.570312 26.554688 30.570312 " fill-opacity="1" fill-rule="nonzero"/><path fill="#000000" d="M 21.289062 33.890625 C 21.269531 33.890625 21.25 33.886719 21.234375 33.875 C 21.191406 33.84375 21.179688 33.78125 21.210938 33.738281 L 24.34375 29.261719 C 24.363281 29.234375 24.394531 29.21875 24.425781 29.21875 C 24.460938 29.21875 24.488281 29.238281 24.507812 29.265625 L 26.601562 32.800781 L 27.453125 31.933594 C 27.472656 31.914062 27.496094 31.902344 27.523438 31.902344 C 27.550781 31.902344 27.574219 31.914062 27.59375 31.933594 L 28.089844 32.453125 L 28.683594 31.945312 C 28.699219 31.929688 28.722656 31.921875 28.746094 31.921875 L 30.523438 31.921875 L 32.953125 29.3125 C 32.992188 29.273438 33.050781 29.273438 33.089844 29.308594 C 33.128906 29.34375 33.132812 29.40625 33.097656 29.445312 L 30.636719 32.085938 C 30.617188 32.105469 30.59375 32.113281 30.566406 32.113281 L 28.78125 32.117188 L 28.144531 32.660156 C 28.105469 32.695312 28.046875 32.691406 28.011719 32.65625 L 27.523438 32.140625 L 26.648438 33.027344 C 26.628906 33.046875 26.601562 33.058594 26.570312 33.054688 C 26.539062 33.050781 26.511719 33.035156 26.5 33.007812 L 24.417969 29.496094 L 21.371094 33.851562 C 21.351562 33.878906 21.320312 33.890625 21.289062 33.890625 " fill-opacity="1" fill-rule="nonzero"/><path fill="#000000" d="M 32.386719 34.355469 C 32.351562 34.355469 32.316406 34.335938 32.300781 34.304688 C 32.273438 34.257812 32.292969 34.195312 32.339844 34.171875 L 32.804688 33.914062 L 32.34375 33.636719 C 32.296875 33.609375 32.28125 33.546875 32.308594 33.503906 C 32.335938 33.457031 32.394531 33.441406 32.441406 33.46875 L 33.050781 33.832031 C 33.078125 33.851562 33.097656 33.882812 33.097656 33.917969 C 33.097656 33.953125 33.078125 33.984375 33.046875 34 L 32.433594 34.339844 C 32.417969 34.351562 32.402344 34.355469 32.386719 34.355469 " fill-opacity="1" fill-rule="nonzero"/><path fill="#000000" d="M 32.867188 28.667969 C 32.863281 28.667969 32.855469 28.667969 32.847656 28.667969 C 32.796875 28.65625 32.761719 28.601562 32.773438 28.550781 L 32.882812 28.046875 L 32.367188 28.214844 C 32.316406 28.230469 32.261719 28.203125 32.246094 28.152344 C 32.230469 28.101562 32.257812 28.042969 32.308594 28.027344 L 32.984375 27.808594 C 33.015625 27.796875 33.050781 27.804688 33.078125 27.828125 C 33.105469 27.851562 33.113281 27.886719 33.109375 27.921875 L 32.960938 28.589844 C 32.953125 28.636719 32.914062 28.667969 32.867188 28.667969 " fill-opacity="1" fill-rule="nonzero"/><path fill="#000000" d="M 31.539062 27.542969 C 31.53125 27.542969 31.523438 27.542969 31.515625 27.542969 C 31.464844 27.527344 31.429688 27.476562 31.441406 27.425781 L 31.558594 26.921875 L 31.046875 27.089844 C 30.992188 27.105469 30.9375 27.078125 30.921875 27.027344 C 30.90625 26.976562 30.933594 26.921875 30.984375 26.902344 L 31.660156 26.683594 C 31.691406 26.671875 31.730469 26.679688 31.753906 26.703125 C 31.78125 26.726562 31.792969 26.761719 31.785156 26.796875 L 31.632812 27.46875 C 31.621094 27.511719 31.582031 27.542969 31.539062 27.542969 " fill-opacity="1" fill-rule="nonzero"/><path fill="#000000" d="M 32.976562 30.015625 C 32.96875 30.015625 32.964844 30.015625 32.957031 30.015625 C 32.902344 30.003906 32.871094 29.949219 32.882812 29.898438 L 32.992188 29.390625 L 32.476562 29.558594 C 32.425781 29.578125 32.371094 29.546875 32.355469 29.496094 C 32.339844 29.445312 32.367188 29.390625 32.417969 29.375 L 33.09375 29.15625 C 33.125 29.144531 33.160156 29.152344 33.1875 29.175781 C 33.210938 29.199219 33.222656 29.234375 33.21875 29.265625 L 33.070312 29.941406 C 33.0625 29.984375 33.023438 30.015625 32.976562 30.015625 " fill-opacity="1" fill-rule="nonzero"/><path fill="#ffc662" d="M 21.53125 24.21875 C 21.53125 23.410156 22.40625 22.753906 23.480469 22.753906 C 24.558594 22.753906 25.429688 23.410156 25.429688 24.21875 C 25.429688 25.027344 24.558594 25.683594 23.480469 25.683594 C 22.40625 25.683594 21.53125 25.027344 21.53125 24.21875 " fill-opacity="1" fill-rule="evenodd"/><path fill="#000000" d="M 23.480469 22.851562 C 22.460938 22.851562 21.628906 23.464844 21.628906 24.21875 C 21.628906 24.972656 22.460938 25.585938 23.480469 25.585938 C 24.5 25.585938 25.332031 24.972656 25.332031 24.21875 C 25.332031 23.464844 24.5 22.851562 23.480469 22.851562 Z M 23.480469 25.78125 C 22.351562 25.78125 21.4375 25.078125 21.4375 24.21875 C 21.4375 23.355469 22.351562 22.65625 23.480469 22.65625 C 24.609375 22.65625 25.527344 23.355469 25.527344 24.21875 C 25.527344 25.078125 24.609375 25.78125 23.480469 25.78125 " fill-opacity="1" fill-rule="nonzero"/><path fill="#000000" d="M 24.539062 24.316406 L 22.375 24.316406 C 22.324219 24.316406 22.28125 24.273438 22.28125 24.21875 C 22.28125 24.167969 22.324219 24.121094 22.375 24.121094 L 24.539062 24.121094 C 24.589844 24.121094 24.632812 24.167969 24.632812 24.21875 C 24.632812 24.273438 24.589844 24.316406 24.539062 24.316406 " fill-opacity="1" fill-rule="nonzero"/><path fill="#000000" d="M 24.535156 23.816406 L 22.371094 23.816406 C 22.320312 23.816406 22.277344 23.773438 22.277344 23.71875 C 22.277344 23.664062 22.320312 23.621094 22.371094 23.621094 L 24.535156 23.621094 C 24.585938 23.621094 24.628906 23.664062 24.628906 23.71875 C 24.628906 23.773438 24.585938 23.816406 24.535156 23.816406 " fill-opacity="1" fill-rule="nonzero"/><path fill="#000000" d="M 24.53125 24.8125 L 22.367188 24.8125 C 22.316406 24.8125 22.273438 24.769531 22.273438 24.714844 C 22.273438 24.660156 22.316406 24.617188 22.367188 24.617188 L 24.53125 24.617188 C 24.582031 24.617188 24.625 24.660156 24.625 24.714844 C 24.625 24.769531 24.582031 24.8125 24.53125 24.8125 " fill-opacity="1" fill-rule="nonzero"/><path fill="#84d3ff" d="M 27.648438 25.269531 C 27.648438 24.617188 28.355469 24.085938 29.222656 24.085938 C 30.089844 24.085938 30.796875 24.617188 30.796875 25.269531 C 30.796875 25.921875 30.089844 26.449219 29.222656 26.449219 C 28.355469 26.449219 27.648438 25.921875 27.648438 25.269531 " fill-opacity="1" fill-rule="evenodd"/><path fill="#000000" d="M 29.222656 24.183594 C 28.410156 24.183594 27.746094 24.671875 27.746094 25.269531 C 27.746094 25.867188 28.410156 26.355469 29.222656 26.355469 C 30.035156 26.355469 30.699219 25.867188 30.699219 25.269531 C 30.699219 24.671875 30.035156 24.183594 29.222656 24.183594 Z M 29.222656 26.546875 C 28.300781 26.546875 27.554688 25.972656 27.554688 25.269531 C 27.554688 24.5625 28.300781 23.988281 29.222656 23.988281 C 30.144531 23.988281 30.890625 24.5625 30.890625 25.269531 C 30.890625 25.972656 30.144531 26.546875 29.222656 26.546875 " fill-opacity="1" fill-rule="nonzero"/><path fill="#000000" d="M 30.074219 25.367188 L 28.332031 25.367188 C 28.277344 25.367188 28.234375 25.324219 28.234375 25.273438 C 28.234375 25.21875 28.277344 25.175781 28.332031 25.175781 L 30.074219 25.175781 C 30.128906 25.175781 30.171875 25.21875 30.171875 25.273438 C 30.171875 25.324219 30.128906 25.367188 30.074219 25.367188 " fill-opacity="1" fill-rule="nonzero"/><path fill="#000000" d="M 30.070312 24.964844 L 28.328125 24.964844 C 28.273438 24.964844 28.230469 24.921875 28.230469 24.867188 C 28.230469 24.8125 28.273438 24.769531 28.328125 24.769531 L 30.070312 24.769531 C 30.125 24.769531 30.167969 24.8125 30.167969 24.867188 C 30.167969 24.921875 30.125 24.964844 30.070312 24.964844 " fill-opacity="1" fill-rule="nonzero"/><path fill="#000000" d="M 30.070312 25.765625 L 28.324219 25.765625 C 28.269531 25.765625 28.226562 25.722656 28.226562 25.667969 C 28.226562 25.617188 28.269531 25.574219 28.324219 25.574219 L 30.070312 25.574219 C 30.121094 25.574219 30.164062 25.617188 30.164062 25.667969 C 30.164062 25.722656 30.121094 25.765625 30.070312 25.765625 " fill-opacity="1" fill-rule="nonzero"/><path fill="#ff5c56" d="M 33.605469 24.011719 C 33.605469 23.472656 34.183594 23.039062 34.902344 23.039062 C 35.617188 23.039062 36.199219 23.472656 36.199219 24.011719 C 36.199219 24.550781 35.617188 24.984375 34.902344 24.984375 C 34.183594 24.984375 33.605469 24.550781 33.605469 24.011719 " fill-opacity="1" fill-rule="evenodd"/><path fill="#000000" d="M 34.902344 23.132812 C 34.238281 23.132812 33.703125 23.527344 33.703125 24.011719 C 33.703125 24.496094 34.238281 24.886719 34.902344 24.886719 C 35.5625 24.886719 36.101562 24.496094 36.101562 24.011719 C 36.101562 23.527344 35.5625 23.132812 34.902344 23.132812 Z M 34.902344 25.082031 C 34.132812 25.082031 33.507812 24.601562 33.507812 24.011719 C 33.507812 23.421875 34.132812 22.941406 34.902344 22.941406 C 35.667969 22.941406 36.292969 23.421875 36.292969 24.011719 C 36.292969 24.601562 35.667969 25.082031 34.902344 25.082031 " fill-opacity="1" fill-rule="nonzero"/><path fill="#000000" d="M 35.597656 24.316406 L 34.160156 24.316406 C 34.105469 24.316406 34.0625 24.273438 34.0625 24.21875 C 34.0625 24.167969 34.105469 24.125 34.160156 24.125 L 35.597656 24.125 C 35.652344 24.125 35.695312 24.167969 35.695312 24.21875 C 35.695312 24.273438 35.652344 24.316406 35.597656 24.316406 " fill-opacity="1" fill-rule="nonzero"/><path fill="#000000" d="M 35.609375 23.890625 L 34.167969 23.890625 C 34.117188 23.890625 34.074219 23.847656 34.074219 23.792969 C 34.074219 23.738281 34.117188 23.695312 34.167969 23.695312 L 35.609375 23.695312 C 35.660156 23.695312 35.703125 23.738281 35.703125 23.792969 C 35.703125 23.847656 35.660156 23.890625 35.609375 23.890625 " fill-opacity="1" fill-rule="nonzero"/><path fill="#b9b5ff" d="M 33.605469 27.515625 C 33.605469 26.976562 34.183594 26.542969 34.898438 26.542969 C 35.617188 26.542969 36.195312 26.976562 36.195312 27.515625 C 36.195312 28.054688 35.617188 28.488281 34.898438 28.488281 C 34.183594 28.488281 33.605469 28.054688 33.605469 27.515625 " fill-opacity="1" fill-rule="evenodd"/><path fill="#000000" d="M 34.898438 26.636719 C 34.238281 26.636719 33.699219 27.03125 33.699219 27.515625 C 33.699219 28 34.238281 28.390625 34.898438 28.390625 C 35.5625 28.390625 36.097656 28 36.097656 27.515625 C 36.097656 27.03125 35.5625 26.636719 34.898438 26.636719 Z M 34.898438 28.585938 C 34.132812 28.585938 33.507812 28.105469 33.507812 27.515625 C 33.507812 26.925781 34.132812 26.445312 34.898438 26.445312 C 35.667969 26.445312 36.292969 26.925781 36.292969 27.515625 C 36.292969 28.105469 35.667969 28.585938 34.898438 28.585938 " fill-opacity="1" fill-rule="nonzero"/><path fill="#000000" d="M 34.898438 26.5625 C 34.84375 26.5625 34.800781 26.519531 34.800781 26.464844 L 34.800781 25.015625 C 34.800781 24.960938 34.84375 24.917969 34.898438 24.917969 C 34.953125 24.917969 34.996094 24.960938 34.996094 25.015625 L 34.996094 26.464844 C 34.996094 26.519531 34.953125 26.5625 34.898438 26.5625 " fill-opacity="1" fill-rule="nonzero"/><path fill="#000000" d="M 27.609375 25.257812 C 27.597656 25.257812 27.589844 25.253906 27.578125 25.253906 L 25.421875 24.574219 C 25.371094 24.558594 25.34375 24.503906 25.359375 24.453125 C 25.375 24.398438 25.429688 24.371094 25.480469 24.386719 L 27.636719 25.066406 C 27.6875 25.082031 27.714844 25.136719 27.699219 25.1875 C 27.6875 25.230469 27.648438 25.257812 27.609375 25.257812 " fill-opacity="1" fill-rule="nonzero"/><path fill="#000000" d="M 30.828125 25.261719 C 30.789062 25.261719 30.75 25.234375 30.738281 25.195312 C 30.722656 25.144531 30.75 25.089844 30.800781 25.074219 L 33.546875 24.230469 C 33.597656 24.210938 33.652344 24.242188 33.667969 24.292969 C 33.683594 24.34375 33.65625 24.398438 33.605469 24.414062 L 30.855469 25.257812 C 30.847656 25.261719 30.839844 25.261719 30.828125 25.261719 " fill-opacity="1" fill-rule="nonzero"/><path fill="#000000" d="M 34.785156 27.945312 C 34.785156 27.917969 34.796875 27.894531 34.816406 27.875 C 34.835938 27.855469 34.859375 27.84375 34.886719 27.84375 C 34.917969 27.84375 34.941406 27.855469 34.960938 27.875 C 34.980469 27.894531 34.992188 27.917969 34.992188 27.945312 C 34.992188 27.976562 34.980469 28 34.960938 28.019531 C 34.941406 28.039062 34.917969 28.050781 34.886719 28.050781 C 34.859375 28.050781 34.835938 28.039062 34.816406 28.019531 C 34.796875 28 34.785156 27.976562 34.785156 27.945312 Z M 34.941406 27.609375 C 34.96875 27.617188 34.984375 27.628906 34.996094 27.648438 C 35.003906 27.664062 35.007812 27.683594 35.003906 27.703125 C 35 27.71875 34.992188 27.734375 34.976562 27.746094 C 34.957031 27.757812 34.9375 27.761719 34.910156 27.757812 C 34.875 27.75 34.84375 27.738281 34.816406 27.714844 C 34.792969 27.695312 34.777344 27.667969 34.765625 27.640625 C 34.753906 27.613281 34.75 27.582031 34.753906 27.546875 C 34.761719 27.515625 34.773438 27.484375 34.796875 27.453125 C 34.8125 27.433594 34.832031 27.410156 34.859375 27.390625 C 34.882812 27.371094 34.90625 27.351562 34.933594 27.332031 C 34.960938 27.308594 34.984375 27.289062 35.003906 27.269531 C 35.027344 27.25 35.042969 27.226562 35.050781 27.203125 C 35.0625 27.179688 35.0625 27.15625 35.054688 27.132812 C 35.046875 27.109375 35.023438 27.085938 34.988281 27.058594 C 34.984375 27.058594 34.980469 27.054688 34.976562 27.054688 C 34.972656 27.054688 34.96875 27.054688 34.964844 27.050781 C 34.914062 27.054688 34.863281 27.070312 34.820312 27.097656 C 34.777344 27.128906 34.738281 27.164062 34.707031 27.207031 C 34.6875 27.226562 34.671875 27.238281 34.648438 27.242188 C 34.628906 27.242188 34.613281 27.238281 34.597656 27.230469 C 34.582031 27.21875 34.574219 27.203125 34.570312 27.183594 C 34.566406 27.164062 34.570312 27.140625 34.585938 27.117188 C 34.609375 27.085938 34.636719 27.054688 34.671875 27.023438 C 34.707031 26.996094 34.742188 26.972656 34.78125 26.953125 C 34.820312 26.933594 34.859375 26.917969 34.898438 26.910156 C 34.9375 26.902344 34.976562 26.898438 35.015625 26.910156 C 35.050781 26.917969 35.085938 26.933594 35.117188 26.960938 C 35.148438 26.988281 35.171875 27.027344 35.195312 27.078125 C 35.207031 27.113281 35.214844 27.144531 35.210938 27.175781 C 35.207031 27.207031 35.199219 27.234375 35.1875 27.265625 C 35.175781 27.292969 35.160156 27.316406 35.140625 27.34375 C 35.117188 27.367188 35.09375 27.386719 35.070312 27.410156 C 35.0625 27.417969 35.046875 27.425781 35.023438 27.441406 C 35.003906 27.457031 34.984375 27.472656 34.964844 27.488281 C 34.945312 27.507812 34.929688 27.527344 34.917969 27.546875 C 34.90625 27.5625 34.902344 27.582031 34.910156 27.601562 C 34.914062 27.605469 34.917969 27.605469 34.917969 27.605469 C 34.921875 27.605469 34.925781 27.609375 34.929688 27.609375 C 34.933594 27.609375 34.9375 27.609375 34.941406 27.609375 " fill-opacity="1" fill-rule="evenodd"/><path fill="#000000" d="M 14.011719 25.292969 L 13.058594 25.292969 C 13.003906 25.292969 12.960938 25.246094 12.960938 25.195312 C 12.960938 25.140625 13.003906 25.097656 13.058594 25.097656 L 14.003906 25.097656 C 14.058594 25.097656 14.105469 25.140625 14.105469 25.195312 C 14.105469 25.246094 14.066406 25.292969 14.011719 25.292969 " fill-opacity="1" fill-rule="nonzero"/><path fill="#000000" d="M 19.121094 29.121094 L 14.933594 29.121094 C 14.882812 29.121094 14.835938 29.078125 14.835938 29.023438 C 14.835938 28.96875 14.875 28.925781 14.925781 28.925781 L 19.121094 28.925781 C 19.308594 28.925781 19.460938 28.773438 19.460938 28.585938 L 19.460938 25.632812 C 19.460938 25.445312 19.308594 25.292969 19.121094 25.292969 L 16.183594 25.292969 C 16.128906 25.292969 16.085938 25.246094 16.085938 25.195312 C 16.085938 25.140625 16.128906 25.097656 16.183594 25.097656 L 19.121094 25.097656 C 19.417969 25.097656 19.65625 25.335938 19.65625 25.632812 L 19.65625 28.585938 C 19.65625 28.878906 19.417969 29.121094 19.121094 29.121094 " fill-opacity="1" fill-rule="nonzero"/><path fill="#000000" d="M 18.792969 26.851562 L 15.589844 26.851562 C 15.535156 26.851562 15.492188 26.808594 15.492188 26.753906 C 15.492188 26.699219 15.535156 26.65625 15.589844 26.65625 L 18.792969 26.65625 C 18.84375 26.65625 18.890625 26.699219 18.890625 26.753906 C 18.890625 26.808594 18.84375 26.851562 18.792969 26.851562 " fill-opacity="1" fill-rule="nonzero"/><path fill="#000000" d="M 18.78125 26.070312 L 15.902344 26.070312 C 15.851562 26.070312 15.808594 26.027344 15.808594 25.972656 C 15.808594 25.917969 15.851562 25.875 15.902344 25.875 L 18.78125 25.875 C 18.835938 25.875 18.878906 25.917969 18.878906 25.972656 C 18.878906 26.027344 18.835938 26.070312 18.78125 26.070312 " fill-opacity="1" fill-rule="nonzero"/><path fill="#000000" d="M 18.769531 27.621094 L 15.304688 27.621094 C 15.25 27.621094 15.207031 27.578125 15.207031 27.527344 C 15.207031 27.472656 15.25 27.429688 15.304688 27.429688 L 18.769531 27.429688 C 18.824219 27.429688 18.867188 27.472656 18.867188 27.527344 C 18.867188 27.578125 18.824219 27.621094 18.769531 27.621094 " fill-opacity="1" fill-rule="nonzero"/><path fill="#000000" d="M 18.761719 28.382812 L 15 28.382812 C 14.949219 28.382812 14.902344 28.339844 14.902344 28.285156 C 14.902344 28.234375 14.949219 28.1875 15 28.1875 L 18.761719 28.1875 C 18.816406 28.1875 18.859375 28.234375 18.859375 28.285156 C 18.859375 28.339844 18.816406 28.382812 18.761719 28.382812 " fill-opacity="1" fill-rule="nonzero"/><path fill="#000000" d="M 17.734375 17.285156 C 17.695312 17.285156 17.660156 17.261719 17.644531 17.222656 L 17.234375 16.214844 C 17.214844 16.167969 17.238281 16.109375 17.285156 16.089844 C 17.335938 16.070312 17.390625 16.09375 17.414062 16.144531 L 17.726562 16.910156 L 18.226562 15.417969 C 18.242188 15.367188 18.296875 15.339844 18.347656 15.355469 C 18.398438 15.371094 18.425781 15.425781 18.410156 15.480469 L 17.824219 17.21875 C 17.8125 17.257812 17.777344 17.285156 17.738281 17.285156 C 17.734375 17.285156 17.734375 17.285156 17.734375 17.285156 " fill-opacity="1" fill-rule="nonzero"/><path fill="#000000" d="M 34.6875 21.800781 L 27.683594 21.800781 C 27.632812 21.800781 27.589844 21.753906 27.589844 21.703125 C 27.589844 21.648438 27.632812 21.605469 27.683594 21.605469 L 34.6875 21.605469 C 34.742188 21.605469 34.785156 21.648438 34.785156 21.703125 C 34.785156 21.753906 34.742188 21.800781 34.6875 21.800781 " fill-opacity="1" fill-rule="nonzero"/><path fill="#000000" d="M 34.699219 21.109375 L 27.695312 21.109375 C 27.640625 21.109375 27.597656 21.066406 27.597656 21.011719 C 27.597656 20.960938 27.640625 20.914062 27.695312 20.914062 L 34.699219 20.914062 C 34.753906 20.914062 34.796875 20.960938 34.796875 21.011719 C 34.796875 21.066406 34.753906 21.109375 34.699219 21.109375 " fill-opacity="1" fill-rule="nonzero"/><path fill="#000000" d="M 34.675781 22.472656 L 27.671875 22.472656 C 27.621094 22.472656 27.574219 22.429688 27.574219 22.375 C 27.574219 22.324219 27.621094 22.277344 27.671875 22.277344 L 34.675781 22.277344 C 34.730469 22.277344 34.773438 22.324219 34.773438 22.375 C 34.773438 22.429688 34.730469 22.472656 34.675781 22.472656 " fill-opacity="1" fill-rule="nonzero"/></svg>