<svg xmlns="http://www.w3.org/2000/svg" xmlns:xlink="http://www.w3.org/1999/xlink" width="64" zoomAndPan="magnify" viewBox="0 0 48 44.249999" height="59" preserveAspectRatio="xMidYMid meet" version="1.0"><defs><clipPath id="347169b111"><path d="M 2.242188 0 L 45.757812 0 L 45.757812 43.511719 L 2.242188 43.511719 Z M 2.242188 0 " clip-rule="nonzero"/></clipPath></defs><g clip-path="url(#347169b111)"><path fill="#ffffff" d="M 23.980469 -0.0117188 C 11.96875 -0.0117188 2.230469 9.726562 2.230469 21.738281 C 2.230469 33.75 11.96875 43.488281 23.980469 43.488281 C 35.992188 43.488281 45.730469 33.75 45.730469 21.738281 C 45.730469 9.726562 35.992188 -0.0117188 23.980469 -0.0117188 Z M 23.980469 8.5625 C 27.609375 8.5625 30.554688 11.507812 30.554688 15.136719 C 30.554688 18.765625 27.609375 21.707031 23.980469 21.707031 C 20.351562 21.707031 17.410156 18.765625 17.410156 15.136719 C 17.410156 11.507812 20.351562 8.5625 23.980469 8.5625 Z M 24.042969 33.484375 L 14.390625 33.484375 C 14.390625 27.003906 17.914062 24.699219 20.226562 22.628906 C 21.347656 23.230469 22.625 23.578125 23.980469 23.585938 C 25.335938 23.578125 26.613281 23.230469 27.734375 22.628906 C 30.046875 24.699219 33.570312 27.003906 33.570312 33.484375 Z M 24.042969 33.484375 " fill-opacity="1" fill-rule="nonzero"/></g></svg>