<svg xmlns="http://www.w3.org/2000/svg" xmlns:xlink="http://www.w3.org/1999/xlink" width="64" zoomAndPan="magnify" viewBox="0 0 48 44.249999" height="59" preserveAspectRatio="xMidYMid meet" version="1.0"><defs><clipPath id="fa6ea1d956"><path d="M 0.398438 11 L 47.597656 11 L 47.597656 38 L 0.398438 38 Z M 0.398438 11 " clip-rule="nonzero"/></clipPath><clipPath id="4d18b719d0"><path d="M 0.398438 6 L 19 6 L 19 25 L 0.398438 25 Z M 0.398438 6 " clip-rule="nonzero"/></clipPath><clipPath id="fb885a170e"><path d="M 9 5.679688 L 44 5.679688 L 44 30 L 9 30 Z M 9 5.679688 " clip-rule="nonzero"/></clipPath></defs><g clip-path="url(#fa6ea1d956)"><path fill="#fefefe" d="M 46.859375 35.269531 L 42.433594 31.609375 C 42.359375 31.574219 42.324219 31.539062 42.25 31.5 C 42.25 31.429688 42.289062 31.355469 42.289062 31.28125 L 42.289062 12.628906 C 42.289062 11.859375 41.703125 11.273438 40.972656 11.164062 L 39.507812 12.628906 L 40.789062 12.628906 L 40.789062 31.28125 L 7.175781 31.28125 L 7.175781 22.648438 C 6.882812 22.539062 6.625 22.394531 6.332031 22.246094 L 5.710938 22.871094 L 5.710938 31.28125 C 5.710938 31.355469 5.710938 31.429688 5.75 31.5 C 5.675781 31.539062 5.640625 31.574219 5.566406 31.609375 L 1.140625 35.269531 C 0.664062 35.671875 0.480469 36.292969 0.699219 36.878906 C 0.921875 37.464844 1.46875 37.828125 2.089844 37.828125 L 45.980469 37.828125 C 46.605469 37.828125 47.152344 37.425781 47.371094 36.878906 C 47.519531 36.328125 47.335938 35.671875 46.859375 35.269531 Z M 2.054688 36.402344 L 6.480469 32.746094 L 41.519531 32.746094 L 45.945312 36.402344 Z M 2.054688 36.402344 " fill-opacity="1" fill-rule="nonzero"/></g><g clip-path="url(#4d18b719d0)"><path fill="#fefefe" d="M 1.324219 24.882812 C 1.503906 24.882812 1.6875 24.808594 1.835938 24.660156 L 6.152344 20.347656 C 7.503906 21.371094 9.113281 21.957031 10.832031 21.957031 C 12.882812 21.957031 14.820312 21.152344 16.246094 19.6875 C 19.246094 16.6875 19.246094 11.824219 16.246094 8.824219 C 14.78125 7.359375 12.882812 6.554688 10.832031 6.554688 C 8.785156 6.554688 6.847656 7.359375 5.417969 8.824219 C 2.53125 11.714844 2.421875 16.359375 5.089844 19.359375 L 0.8125 23.636719 C 0.519531 23.929688 0.519531 24.367188 0.8125 24.660156 C 0.957031 24.808594 1.140625 24.882812 1.324219 24.882812 Z M 6.445312 9.886719 C 7.652344 8.679688 9.261719 8.054688 10.832031 8.054688 C 12.441406 8.054688 14.015625 8.679688 15.222656 9.886719 C 17.636719 12.300781 17.636719 16.25 15.222656 18.664062 C 14.015625 19.871094 12.40625 20.492188 10.832031 20.492188 C 9.222656 20.492188 7.652344 19.871094 6.445312 18.664062 C 3.992188 16.25 3.992188 12.300781 6.445312 9.886719 Z M 6.445312 9.886719 " fill-opacity="1" fill-rule="nonzero"/></g><g clip-path="url(#fb885a170e)"><path fill="#fefefe" d="M 14.488281 23.601562 C 14.308594 23.601562 14.125 23.675781 13.976562 23.820312 L 10.832031 27.332031 L 10.832031 23.417969 C 10.320312 23.417969 9.84375 23.382812 9.371094 23.308594 L 9.371094 29.085938 C 9.371094 29.488281 9.699219 29.820312 10.101562 29.820312 L 38.628906 29.820312 C 39.03125 29.820312 39.363281 29.488281 39.363281 29.085938 C 39.363281 28.683594 39.03125 28.355469 38.628906 28.355469 L 38.265625 28.355469 L 38.265625 19.210938 C 38.265625 18.40625 37.605469 17.75 36.800781 17.75 L 35.339844 17.75 C 34.535156 17.75 33.875 18.40625 33.875 19.210938 L 33.875 28.355469 L 32.414062 28.355469 L 32.414062 22.136719 C 32.414062 21.332031 31.753906 20.675781 30.949219 20.675781 L 29.488281 20.675781 C 28.683594 20.675781 28.023438 21.332031 28.023438 22.136719 L 28.023438 28.355469 L 26.558594 28.355469 L 26.558594 25.0625 C 26.558594 24.257812 25.902344 23.601562 25.097656 23.601562 L 23.632812 23.601562 C 22.828125 23.601562 22.171875 24.257812 22.171875 25.0625 L 22.171875 28.355469 L 11.855469 28.355469 L 14.78125 25.0625 L 19.609375 25.0625 C 19.792969 25.0625 19.976562 24.992188 20.121094 24.84375 L 27.585938 17.382812 L 32.414062 17.382812 C 32.59375 17.382812 32.777344 17.308594 32.925781 17.164062 L 41.921875 8.164062 L 41.921875 8.96875 C 41.921875 9.371094 42.25 9.703125 42.652344 9.703125 C 43.054688 9.703125 43.386719 9.371094 43.386719 8.96875 L 43.386719 6.410156 C 43.386719 6.410156 43.386719 6.375 43.386719 6.375 C 43.386719 6.375 43.386719 6.335938 43.386719 6.335938 C 43.386719 6.265625 43.347656 6.226562 43.347656 6.152344 C 43.3125 6.082031 43.277344 6.042969 43.238281 5.972656 C 43.238281 5.972656 43.203125 5.933594 43.203125 5.933594 C 43.164062 5.898438 43.128906 5.863281 43.054688 5.789062 C 43.019531 5.75 42.945312 5.714844 42.875 5.714844 C 42.875 5.714844 42.835938 5.714844 42.835938 5.714844 C 42.761719 5.714844 42.726562 5.679688 42.652344 5.679688 L 39.726562 5.679688 C 39.324219 5.679688 38.996094 6.007812 38.996094 6.410156 C 38.996094 6.8125 39.324219 7.140625 39.726562 7.140625 L 40.898438 7.140625 L 32.121094 15.921875 L 27.292969 15.921875 C 27.109375 15.921875 26.925781 15.992188 26.78125 16.140625 L 19.316406 23.601562 Z M 35.339844 19.210938 L 36.800781 19.210938 L 36.800781 28.355469 L 35.339844 28.355469 Z M 29.488281 22.136719 L 30.949219 22.136719 L 30.949219 28.355469 L 29.488281 28.355469 Z M 23.632812 25.0625 L 25.097656 25.0625 L 25.097656 28.355469 L 23.632812 28.355469 Z M 23.632812 25.0625 " fill-opacity="1" fill-rule="nonzero"/></g><path fill="#fefefe" d="M 34.789062 11.164062 L 19.429688 11.164062 C 19.609375 11.640625 19.71875 12.117188 19.832031 12.628906 L 33.328125 12.628906 Z M 34.789062 11.164062 " fill-opacity="1" fill-rule="nonzero"/></svg>