<svg xmlns="http://www.w3.org/2000/svg" xmlns:xlink="http://www.w3.org/1999/xlink" width="64" zoomAndPan="magnify" viewBox="0 0 48 44.249999" height="59" preserveAspectRatio="xMidYMid meet" version="1.0"><defs><clipPath id="bdd4a74b65"><path d="M 17 0.839844 L 31 0.839844 L 31 11 L 17 11 Z M 17 0.839844 " clip-rule="nonzero"/></clipPath><clipPath id="10c336bb07"><path d="M 0.40625 37.511719 L 47.59375 37.511719 L 47.59375 42.671875 L 0.40625 42.671875 Z M 0.40625 37.511719 " clip-rule="nonzero"/></clipPath></defs><path fill="#fefefe" d="M 11.742188 37.503906 L 36.257812 37.503906 L 37.34375 23.015625 C 37.351562 22.894531 37.292969 22.8125 37.257812 22.777344 C 37.222656 22.738281 37.148438 22.675781 37.027344 22.675781 L 10.972656 22.675781 C 10.851562 22.675781 10.777344 22.738281 10.742188 22.777344 C 10.707031 22.8125 10.648438 22.894531 10.65625 23.015625 Z M 36.859375 38.800781 L 11.140625 38.800781 C 10.800781 38.800781 10.519531 38.539062 10.492188 38.203125 L 9.367188 23.109375 C 9.332031 22.664062 9.488281 22.222656 9.792969 21.894531 C 10.097656 21.566406 10.527344 21.378906 10.972656 21.378906 L 37.027344 21.378906 C 37.472656 21.378906 37.902344 21.566406 38.207031 21.894531 C 38.511719 22.222656 38.667969 22.664062 38.632812 23.109375 L 37.507812 38.203125 C 37.480469 38.539062 37.199219 38.800781 36.859375 38.800781 " fill-opacity="1" fill-rule="nonzero"/><path fill="#fefefe" d="M 24 22.488281 C 23.804688 22.488281 23.617188 22.402344 23.496094 22.25 L 20.9375 19.074219 C 20.84375 18.960938 20.792969 18.816406 20.792969 18.667969 L 20.792969 16.398438 C 20.792969 16.039062 21.082031 15.75 21.441406 15.75 C 21.796875 15.75 22.089844 16.039062 22.089844 16.398438 L 22.089844 18.441406 L 24 20.808594 L 25.910156 18.441406 L 25.910156 16.398438 C 25.910156 16.039062 26.203125 15.75 26.558594 15.75 C 26.917969 15.75 27.207031 16.039062 27.207031 16.398438 L 27.207031 18.667969 C 27.207031 18.816406 27.15625 18.960938 27.0625 19.074219 L 24.503906 22.25 C 24.382812 22.402344 24.195312 22.488281 24 22.488281 " fill-opacity="1" fill-rule="nonzero"/><g clip-path="url(#bdd4a74b65)"><path fill="#fefefe" d="M 30.027344 10.515625 C 29.671875 10.515625 29.378906 10.226562 29.378906 9.871094 L 29.378906 7.515625 C 29.378906 4.558594 26.976562 2.148438 24.019531 2.136719 C 24.011719 2.136719 24.007812 2.136719 24 2.136719 C 22.585938 2.136719 21.246094 2.695312 20.230469 3.710938 C 19.191406 4.742188 18.621094 6.113281 18.621094 7.5625 L 18.621094 9.871094 C 18.621094 10.226562 18.328125 10.515625 17.972656 10.515625 C 17.613281 10.515625 17.324219 10.226562 17.324219 9.871094 L 17.324219 7.5625 C 17.324219 6.65625 17.503906 5.773438 17.859375 4.941406 C 18.203125 4.136719 18.691406 3.414062 19.316406 2.792969 C 20.578125 1.53125 22.242188 0.839844 24 0.839844 C 24.007812 0.839844 24.015625 0.839844 24.023438 0.839844 C 25.800781 0.847656 27.472656 1.542969 28.726562 2.804688 C 29.984375 4.0625 30.675781 5.738281 30.675781 7.515625 L 30.675781 9.871094 C 30.675781 10.226562 30.386719 10.515625 30.027344 10.515625 " fill-opacity="1" fill-rule="nonzero"/></g><path fill="#fefefe" d="M 20.183594 9.335938 L 20.183594 12.730469 C 20.183594 14.832031 21.894531 16.546875 24 16.546875 C 26.105469 16.546875 27.816406 14.832031 27.816406 12.730469 L 27.816406 8.9375 L 26.585938 7.566406 C 24.636719 9.039062 21.539062 9.296875 20.183594 9.335938 Z M 24 17.839844 C 21.183594 17.839844 18.890625 15.546875 18.890625 12.730469 L 18.890625 8.691406 C 18.890625 8.515625 18.960938 8.347656 19.085938 8.226562 C 19.210938 8.105469 19.378906 8.039062 19.554688 8.042969 C 19.601562 8.042969 24.234375 8.15625 26.1875 6.203125 C 26.3125 6.074219 26.484375 6.007812 26.660156 6.011719 C 26.839844 6.015625 27.007812 6.09375 27.125 6.226562 L 28.945312 8.257812 C 29.050781 8.375 29.109375 8.53125 29.109375 8.691406 L 29.109375 12.730469 C 29.109375 15.546875 26.816406 17.839844 24 17.839844 " fill-opacity="1" fill-rule="nonzero"/><path fill="#fefefe" d="M 18.890625 10.269531 C 18.367188 10.277344 17.941406 10.703125 17.941406 11.226562 C 17.941406 11.753906 18.367188 12.179688 18.890625 12.1875 Z M 19.539062 13.484375 L 18.902344 13.484375 C 17.660156 13.484375 16.648438 12.472656 16.648438 11.226562 C 16.648438 9.984375 17.660156 8.972656 18.902344 8.972656 L 19.539062 8.972656 C 19.894531 8.972656 20.183594 9.261719 20.183594 9.621094 L 20.183594 12.835938 C 20.183594 13.195312 19.894531 13.484375 19.539062 13.484375 " fill-opacity="1" fill-rule="nonzero"/><path fill="#fefefe" d="M 29.109375 10.269531 L 29.109375 12.1875 C 29.632812 12.179688 30.058594 11.753906 30.058594 11.226562 C 30.058594 10.703125 29.632812 10.277344 29.109375 10.269531 Z M 29.097656 13.484375 L 28.460938 13.484375 C 28.105469 13.484375 27.816406 13.195312 27.816406 12.835938 L 27.816406 9.621094 C 27.816406 9.261719 28.105469 8.972656 28.460938 8.972656 L 29.097656 8.972656 C 30.339844 8.972656 31.351562 9.984375 31.351562 11.226562 C 31.351562 12.472656 30.339844 13.484375 29.097656 13.484375 " fill-opacity="1" fill-rule="nonzero"/><path fill="#fefefe" d="M 13.488281 22.675781 C 13.347656 22.675781 13.203125 22.628906 13.082031 22.53125 C 12.804688 22.308594 12.761719 21.898438 12.984375 21.621094 C 13.703125 20.730469 14.660156 20.078125 15.753906 19.742188 L 21.273438 18.035156 C 21.613281 17.929688 21.976562 18.121094 22.082031 18.464844 C 22.1875 18.804688 21.992188 19.167969 21.652344 19.273438 L 21.628906 19.28125 L 16.136719 20.976562 C 15.289062 21.238281 14.546875 21.742188 13.992188 22.433594 C 13.867188 22.589844 13.675781 22.675781 13.488281 22.675781 " fill-opacity="1" fill-rule="nonzero"/><path fill="#fefefe" d="M 34.511719 22.675781 C 34.324219 22.675781 34.132812 22.589844 34.007812 22.433594 C 33.453125 21.742188 32.710938 21.238281 31.863281 20.976562 L 26.347656 19.273438 C 26.007812 19.167969 25.8125 18.804688 25.917969 18.464844 C 26.023438 18.121094 26.386719 17.929688 26.726562 18.035156 L 26.75 18.042969 L 32.246094 19.742188 C 33.339844 20.078125 34.296875 20.730469 35.015625 21.621094 C 35.238281 21.898438 35.195312 22.308594 34.917969 22.53125 C 34.796875 22.628906 34.652344 22.675781 34.511719 22.675781 " fill-opacity="1" fill-rule="nonzero"/><path fill="#fefefe" d="M 20.8125 33.269531 C 20.675781 33.269531 20.535156 33.226562 20.417969 33.136719 L 17.136719 30.601562 C 16.976562 30.480469 16.882812 30.289062 16.882812 30.089844 C 16.882812 29.890625 16.976562 29.699219 17.136719 29.578125 L 20.417969 27.046875 C 20.699219 26.828125 21.109375 26.878906 21.328125 27.164062 C 21.542969 27.445312 21.492188 27.851562 21.207031 28.070312 L 18.589844 30.089844 L 21.207031 32.109375 C 21.492188 32.328125 21.542969 32.734375 21.328125 33.019531 C 21.199219 33.183594 21.007812 33.269531 20.8125 33.269531 " fill-opacity="1" fill-rule="nonzero"/><path fill="#fefefe" d="M 27.1875 33.269531 C 26.992188 33.269531 26.800781 33.183594 26.671875 33.019531 C 26.457031 32.734375 26.507812 32.328125 26.792969 32.109375 L 29.410156 30.089844 L 26.792969 28.070312 C 26.507812 27.851562 26.457031 27.445312 26.671875 27.164062 C 26.890625 26.878906 27.300781 26.828125 27.582031 27.046875 L 30.863281 29.578125 C 31.023438 29.699219 31.117188 29.890625 31.117188 30.089844 C 31.117188 30.289062 31.023438 30.480469 30.863281 30.601562 L 27.582031 33.136719 C 27.464844 33.226562 27.324219 33.269531 27.1875 33.269531 " fill-opacity="1" fill-rule="nonzero"/><path fill="#fefefe" d="M 22.804688 35.199219 C 22.75 35.199219 22.691406 35.191406 22.636719 35.175781 C 22.292969 35.085938 22.085938 34.730469 22.179688 34.382812 L 24.570312 25.460938 C 24.664062 25.117188 25.015625 24.910156 25.363281 25.003906 C 25.707031 25.09375 25.914062 25.449219 25.820312 25.796875 L 23.429688 34.71875 C 23.351562 35.007812 23.089844 35.199219 22.804688 35.199219 " fill-opacity="1" fill-rule="nonzero"/><g clip-path="url(#10c336bb07)"><path fill="#fefefe" d="M 1.703125 41.375 L 46.296875 41.375 C 46.257812 39.953125 45.089844 38.8125 43.660156 38.8125 L 4.339844 38.8125 C 2.910156 38.8125 1.742188 39.953125 1.703125 41.375 Z M 46.945312 42.671875 L 1.054688 42.671875 C 0.695312 42.671875 0.40625 42.378906 0.40625 42.023438 L 0.40625 41.453125 C 0.40625 39.28125 2.171875 37.515625 4.339844 37.515625 L 43.660156 37.515625 C 45.828125 37.515625 47.59375 39.28125 47.59375 41.453125 L 47.59375 42.023438 C 47.59375 42.378906 47.304688 42.671875 46.945312 42.671875 " fill-opacity="1" fill-rule="nonzero"/></g></svg>