<svg xmlns="http://www.w3.org/2000/svg" xmlns:xlink="http://www.w3.org/1999/xlink" width="64" zoomAndPan="magnify" viewBox="0 0 48 44.249999" height="59" preserveAspectRatio="xMidYMid meet" version="1.0"><defs><clipPath id="dd9c89a080"><path d="M 3 0 L 45.992188 0 L 45.992188 43 L 3 43 Z M 3 0 " clip-rule="nonzero"/></clipPath><clipPath id="157edd8298"><path d="M 15 3 L 45.992188 3 L 45.992188 26 L 15 26 Z M 15 3 " clip-rule="nonzero"/></clipPath></defs><g clip-path="url(#dd9c89a080)"><path fill="#cbacf9" d="M 44.746094 34.660156 C 43.519531 37.644531 40.648438 39.054688 38.816406 39.957031 C 31.589844 43.511719 20.613281 43.09375 12.710938 36.609375 C 10.859375 35.09375 1.742188 27.144531 3.867188 16.378906 C 5.742188 6.863281 15.175781 1.34375 23.125 0.609375 C 29.707031 0 38.308594 2.402344 41.347656 8.207031 C 43.257812 11.859375 40.960938 13.019531 42.523438 21.289062 C 43.878906 28.449219 46.246094 31.011719 44.746094 34.660156 " fill-opacity="1" fill-rule="nonzero"/></g><g clip-path="url(#157edd8298)"><path fill="#8875a4" d="M 36.394531 24.339844 C 35.644531 23.804688 34.871094 23.304688 34.082031 22.828125 C 32.484375 21.863281 30.828125 21 29.160156 20.164062 C 28.28125 19.726562 27.378906 19.328125 26.488281 18.917969 C 25.589844 18.507812 24.691406 18.097656 23.792969 17.691406 C 22.96875 17.320312 22.148438 16.945312 21.328125 16.570312 C 18.59375 10.769531 15.574219 4.195312 15.945312 4.195312 L 43.949219 3.402344 C 44.613281 3.402344 45.152344 3.941406 45.152344 4.601562 L 45.152344 24.039062 C 45.152344 24.703125 44.613281 25.242188 43.949219 25.242188 L 37.6875 25.242188 C 37.261719 24.929688 36.820312 24.644531 36.394531 24.339844 " fill-opacity="1" fill-rule="nonzero"/><path fill="#000000" d="M 15.949219 4.269531 Z M 37.710938 25.167969 L 43.949219 25.167969 C 44.570312 25.167969 45.074219 24.660156 45.074219 24.039062 L 45.074219 4.601562 C 45.074219 3.980469 44.570312 3.476562 43.949219 3.476562 L 15.988281 4.269531 C 15.988281 4.585938 16.742188 6.667969 21.382812 16.515625 C 22.191406 16.882812 23.015625 17.257812 23.8125 17.617188 L 23.824219 17.621094 C 24.734375 18.035156 25.628906 18.441406 26.519531 18.851562 C 26.722656 18.941406 26.921875 19.035156 27.125 19.125 C 27.804688 19.4375 28.511719 19.757812 29.191406 20.097656 C 30.683594 20.84375 32.433594 21.746094 34.121094 22.765625 C 34.988281 23.289062 35.746094 23.78125 36.4375 24.277344 C 36.625 24.410156 36.816406 24.542969 37 24.667969 C 37.234375 24.828125 37.476562 24.996094 37.710938 25.167969 Z M 43.949219 25.316406 L 37.660156 25.316406 L 37.640625 25.300781 C 37.40625 25.128906 37.15625 24.957031 36.917969 24.792969 C 36.730469 24.664062 36.535156 24.535156 36.347656 24.398438 C 35.660156 23.90625 34.90625 23.414062 34.042969 22.894531 C 32.359375 21.875 30.613281 20.976562 29.125 20.234375 C 28.445312 19.894531 27.742188 19.574219 27.0625 19.261719 C 26.859375 19.171875 26.65625 19.078125 26.457031 18.988281 C 25.566406 18.578125 24.671875 18.171875 23.761719 17.761719 L 23.75 17.753906 C 22.945312 17.390625 22.113281 17.011719 21.296875 16.640625 L 21.269531 16.628906 L 21.257812 16.605469 C 15.59375 4.585938 15.789062 4.28125 15.859375 4.167969 C 15.878906 4.136719 15.910156 4.121094 15.945312 4.121094 L 43.945312 3.324219 C 44.652344 3.324219 45.226562 3.898438 45.226562 4.601562 L 45.226562 24.039062 C 45.226562 24.746094 44.652344 25.316406 43.949219 25.316406 " fill-opacity="1" fill-rule="nonzero"/></g><path fill="#ffffff" d="M 15.015625 3.46875 L 43.378906 3.46875 C 44.003906 3.46875 44.511719 3.976562 44.511719 4.601562 L 44.511719 24.039062 C 44.511719 24.667969 44.003906 25.171875 43.378906 25.171875 L 15.015625 25.171875 C 14.390625 25.171875 13.882812 24.667969 13.882812 24.039062 L 13.882812 4.601562 C 13.882812 3.976562 14.390625 3.46875 15.015625 3.46875 " fill-opacity="1" fill-rule="nonzero"/><path fill="#8875a4" d="M 43.488281 25.261719 L 8.457031 25.261719 C 7.988281 25.261719 7.609375 25.640625 7.609375 26.105469 C 7.609375 26.574219 7.988281 26.953125 8.457031 26.953125 L 43.488281 26.953125 C 43.953125 26.953125 44.332031 26.574219 44.332031 26.105469 C 44.332031 25.640625 43.953125 25.261719 43.488281 25.261719 " fill-opacity="1" fill-rule="nonzero"/><path fill="#000000" d="M 35.585938 27.027344 L 30.277344 27.027344 C 30.234375 27.027344 30.203125 26.996094 30.203125 26.953125 C 30.203125 26.910156 30.234375 26.878906 30.277344 26.878906 L 35.585938 26.878906 C 35.625 26.878906 35.660156 26.910156 35.660156 26.953125 C 35.660156 26.996094 35.625 27.027344 35.585938 27.027344 " fill-opacity="1" fill-rule="nonzero"/><path fill="#000000" d="M 41.089844 27.027344 C 41.046875 27.027344 41.011719 26.996094 41.011719 26.953125 C 41.011719 26.910156 41.046875 26.878906 41.085938 26.878906 L 43.652344 26.859375 C 44.003906 26.78125 44.257812 26.46875 44.257812 26.105469 C 44.257812 25.683594 43.910156 25.335938 43.488281 25.335938 L 8.457031 25.335938 C 8.03125 25.335938 7.6875 25.683594 7.6875 26.105469 C 7.6875 26.53125 8.03125 26.878906 8.457031 26.878906 L 25.058594 26.878906 C 25.101562 26.878906 25.136719 26.910156 25.136719 26.953125 C 25.136719 26.996094 25.101562 27.027344 25.058594 27.027344 L 8.457031 27.027344 C 7.949219 27.027344 7.535156 26.613281 7.535156 26.105469 C 7.535156 25.597656 7.949219 25.183594 8.457031 25.183594 L 43.488281 25.183594 C 43.996094 25.183594 44.410156 25.597656 44.410156 26.105469 C 44.410156 26.539062 44.101562 26.921875 43.675781 27.007812 C 43.671875 27.011719 43.664062 27.011719 43.660156 27.011719 L 41.089844 27.027344 " fill-opacity="1" fill-rule="nonzero"/><path fill="#cbacf9" d="M 15.847656 4.242188 L 42.5625 4.242188 C 43.152344 4.242188 43.628906 4.714844 43.628906 5.296875 L 43.628906 23.347656 C 43.628906 23.929688 43.152344 24.398438 42.5625 24.398438 L 15.847656 24.398438 C 15.257812 24.398438 14.777344 23.929688 14.777344 23.347656 L 14.777344 5.296875 C 14.777344 4.714844 15.257812 4.242188 15.847656 4.242188 " fill-opacity="1" fill-rule="nonzero"/><path fill="#000000" d="M 43.378906 25.25 L 15.015625 25.25 C 14.347656 25.25 13.804688 24.707031 13.804688 24.039062 L 13.804688 4.601562 C 13.804688 3.933594 14.347656 3.394531 15.015625 3.394531 L 27.386719 3.40625 C 27.425781 3.40625 27.460938 3.4375 27.460938 3.480469 C 27.460938 3.523438 27.425781 3.554688 27.386719 3.554688 L 15.015625 3.542969 C 14.433594 3.542969 13.957031 4.019531 13.957031 4.601562 L 13.957031 24.039062 C 13.957031 24.625 14.433594 25.097656 15.015625 25.097656 L 43.378906 25.097656 C 43.960938 25.097656 44.4375 24.625 44.4375 24.039062 L 44.4375 4.601562 C 44.4375 4.019531 43.960938 3.542969 43.378906 3.542969 L 35.152344 3.542969 C 35.109375 3.542969 35.074219 3.511719 35.074219 3.46875 C 35.074219 3.425781 35.109375 3.394531 35.152344 3.394531 L 43.378906 3.394531 C 44.042969 3.394531 44.585938 3.933594 44.585938 4.601562 L 44.585938 24.039062 C 44.585938 24.707031 44.042969 25.25 43.378906 25.25 " fill-opacity="1" fill-rule="nonzero"/><path fill="#8875a4" d="M 43.652344 5.996094 L 43.652344 5.335938 C 43.652344 4.75 43.148438 4.210938 42.5625 4.210938 L 15.878906 4.285156 C 15.292969 4.285156 14.808594 4.75 14.808594 5.335938 L 14.777344 6.152344 L 43.652344 5.996094 " fill-opacity="1" fill-rule="nonzero"/><path fill="#cbacf9" d="M 16.648438 5.367188 C 16.648438 5.558594 16.496094 5.710938 16.308594 5.710938 C 16.121094 5.710938 15.964844 5.558594 15.964844 5.367188 C 15.964844 5.179688 16.121094 5.027344 16.308594 5.027344 C 16.496094 5.027344 16.648438 5.179688 16.648438 5.367188 " fill-opacity="1" fill-rule="nonzero"/><path fill="#cbacf9" d="M 17.746094 5.347656 C 17.746094 5.535156 17.589844 5.6875 17.402344 5.6875 C 17.214844 5.6875 17.058594 5.535156 17.058594 5.347656 C 17.058594 5.15625 17.214844 5.003906 17.402344 5.003906 C 17.589844 5.003906 17.746094 5.15625 17.746094 5.347656 " fill-opacity="1" fill-rule="nonzero"/><path fill="#cbacf9" d="M 18.929688 5.390625 C 18.929688 5.582031 18.777344 5.734375 18.585938 5.734375 C 18.398438 5.734375 18.246094 5.582031 18.246094 5.390625 C 18.246094 5.203125 18.398438 5.050781 18.585938 5.050781 C 18.777344 5.050781 18.929688 5.203125 18.929688 5.390625 " fill-opacity="1" fill-rule="nonzero"/><path fill="#cbacf9" d="M 42.253906 5.335938 L 30.050781 5.335938 C 29.953125 5.335938 29.875 5.257812 29.875 5.160156 C 29.875 5.0625 29.953125 4.984375 30.050781 4.984375 L 42.253906 4.984375 C 42.351562 4.984375 42.429688 5.0625 42.429688 5.160156 C 42.429688 5.257812 42.351562 5.335938 42.253906 5.335938 " fill-opacity="1" fill-rule="nonzero"/><path fill="#ffffff" d="M 23.039062 18.328125 C 23.039062 18.871094 22.628906 19.308594 22.125 19.308594 L 16.632812 19.308594 C 16.128906 19.308594 15.71875 18.871094 15.71875 18.328125 L 15.71875 8.269531 C 15.71875 7.726562 16.128906 7.285156 16.632812 7.285156 L 22.125 7.285156 C 22.628906 7.285156 23.039062 7.726562 23.039062 8.269531 L 23.039062 18.328125 " fill-opacity="1" fill-rule="nonzero"/><path fill="#000000" d="M 22.125 19.386719 L 16.632812 19.386719 C 16.085938 19.386719 15.640625 18.910156 15.640625 18.328125 L 15.640625 8.269531 C 15.640625 7.6875 16.085938 7.210938 16.632812 7.210938 L 22.125 7.210938 C 22.671875 7.210938 23.113281 7.6875 23.113281 8.269531 L 23.113281 13.746094 C 23.113281 13.789062 23.082031 13.824219 23.039062 13.824219 C 22.996094 13.824219 22.964844 13.789062 22.964844 13.746094 L 22.964844 8.269531 C 22.964844 7.769531 22.585938 7.363281 22.125 7.363281 L 16.632812 7.363281 C 16.171875 7.363281 15.792969 7.769531 15.792969 8.269531 L 15.792969 18.328125 C 15.792969 18.828125 16.171875 19.234375 16.632812 19.234375 L 22.125 19.234375 C 22.585938 19.234375 22.964844 18.828125 22.964844 18.328125 L 22.964844 15.003906 C 22.964844 14.960938 22.996094 14.925781 23.039062 14.925781 C 23.082031 14.925781 23.113281 14.960938 23.113281 15.003906 L 23.113281 18.328125 C 23.113281 18.910156 22.671875 19.386719 22.125 19.386719 " fill-opacity="1" fill-rule="nonzero"/><path fill="#8875a4" d="M 20.078125 13.632812 L 18.582031 13.632812 C 18.476562 13.632812 18.394531 13.546875 18.394531 13.445312 L 18.394531 13.429688 C 18.394531 13.328125 18.476562 13.242188 18.582031 13.242188 L 20.078125 13.242188 C 20.183594 13.242188 20.265625 13.328125 20.265625 13.429688 L 20.265625 13.445312 C 20.265625 13.546875 20.183594 13.632812 20.078125 13.632812 " fill-opacity="1" fill-rule="nonzero"/><path fill="#cbacf9" d="M 21.886719 14.777344 L 16.773438 14.777344 C 16.667969 14.777344 16.582031 14.691406 16.582031 14.589844 L 16.582031 14.574219 C 16.582031 14.472656 16.667969 14.386719 16.773438 14.386719 L 21.886719 14.386719 C 21.992188 14.386719 22.078125 14.472656 22.078125 14.574219 L 22.078125 14.589844 C 22.078125 14.691406 21.992188 14.777344 21.886719 14.777344 " fill-opacity="1" fill-rule="nonzero"/><path fill="#cbacf9" d="M 21.886719 15.625 L 16.773438 15.625 C 16.667969 15.625 16.582031 15.542969 16.582031 15.4375 L 16.582031 15.425781 C 16.582031 15.320312 16.667969 15.234375 16.773438 15.234375 L 21.886719 15.234375 C 21.992188 15.234375 22.078125 15.320312 22.078125 15.425781 L 22.078125 15.4375 C 22.078125 15.542969 21.992188 15.625 21.886719 15.625 " fill-opacity="1" fill-rule="nonzero"/><path fill="#cbacf9" d="M 20.191406 16.476562 L 16.773438 16.476562 C 16.667969 16.476562 16.582031 16.390625 16.582031 16.289062 L 16.582031 16.273438 C 16.582031 16.171875 16.667969 16.085938 16.773438 16.085938 L 20.191406 16.085938 C 20.296875 16.085938 20.378906 16.171875 20.378906 16.273438 L 20.378906 16.289062 C 20.378906 16.390625 20.296875 16.476562 20.191406 16.476562 " fill-opacity="1" fill-rule="nonzero"/><path fill="#cbacf9" d="M 21.886719 17.324219 L 16.773438 17.324219 C 16.667969 17.324219 16.582031 17.242188 16.582031 17.136719 L 16.582031 17.125 C 16.582031 17.019531 16.667969 16.9375 16.773438 16.9375 L 21.886719 16.9375 C 21.992188 16.9375 22.078125 17.019531 22.078125 17.125 L 22.078125 17.136719 C 22.078125 17.242188 21.992188 17.324219 21.886719 17.324219 " fill-opacity="1" fill-rule="nonzero"/><path fill="#000000" d="M 18.695312 11.179688 C 18.320312 11.179688 18.042969 10.828125 18.132812 10.46875 C 18.28125 9.871094 18.605469 9.105469 19.304688 8.996094 C 20.03125 8.882812 20.425781 9.769531 20.617188 10.449219 C 20.722656 10.816406 20.445312 11.179688 20.0625 11.179688 L 18.695312 11.179688 " fill-opacity="1" fill-rule="nonzero"/><path fill="#8875a4" d="M 19.277344 12.351562 C 19.816406 12.339844 20.175781 12.222656 20.566406 11.859375 C 20.117188 11.71875 19.894531 11.710938 19.359375 11.710938 C 18.828125 11.710938 18.503906 11.738281 18.054688 11.878906 C 18.054688 11.878906 18.5625 12.371094 19.277344 12.351562 " fill-opacity="1" fill-rule="nonzero"/><path fill="#000000" d="M 18.042969 11.957031 C 18.011719 11.957031 17.980469 11.933594 17.972656 11.898438 C 17.960938 11.859375 17.984375 11.820312 18.023438 11.808594 C 18.449219 11.695312 18.898438 11.636719 19.359375 11.636719 C 19.777344 11.636719 20.183594 11.683594 20.570312 11.777344 C 20.613281 11.785156 20.636719 11.828125 20.628906 11.867188 C 20.617188 11.90625 20.578125 11.933594 20.535156 11.921875 C 20.160156 11.832031 19.765625 11.789062 19.359375 11.789062 C 18.910156 11.789062 18.476562 11.84375 18.0625 11.953125 C 18.058594 11.957031 18.050781 11.957031 18.042969 11.957031 " fill-opacity="1" fill-rule="nonzero"/><path fill="#ffffff" d="M 19.375 12.089844 C 19.183594 12.089844 19.03125 11.9375 19.03125 11.746094 L 19.03125 9.699219 L 19.714844 9.699219 L 19.714844 11.746094 C 19.714844 11.9375 19.5625 12.089844 19.375 12.089844 " fill-opacity="1" fill-rule="nonzero"/><path fill="#000000" d="M 19.105469 9.777344 L 19.105469 11.746094 C 19.105469 11.894531 19.226562 12.015625 19.375 12.015625 C 19.519531 12.015625 19.640625 11.894531 19.640625 11.746094 L 19.640625 9.777344 Z M 19.375 12.164062 C 19.144531 12.164062 18.957031 11.976562 18.957031 11.746094 L 18.957031 9.699219 C 18.957031 9.660156 18.988281 9.625 19.03125 9.625 L 19.714844 9.625 C 19.757812 9.625 19.789062 9.660156 19.789062 9.699219 L 19.789062 11.746094 C 19.789062 11.976562 19.605469 12.164062 19.375 12.164062 " fill-opacity="1" fill-rule="nonzero"/><path fill="#ffffff" d="M 19.117188 10.851562 C 18.894531 10.742188 18.742188 10.5 18.742188 10.214844 L 18.742188 9.851562 C 18.742188 9.457031 19.039062 9.132812 19.40625 9.132812 C 19.746094 9.132812 20.023438 9.433594 20.023438 9.804688 L 20.023438 10.214844 C 20.023438 10.601562 19.738281 10.914062 19.382812 10.914062 L 19.117188 10.851562 " fill-opacity="1" fill-rule="nonzero"/><path fill="#000000" d="M 19.382812 10.988281 C 19.339844 10.988281 19.308594 10.953125 19.308594 10.914062 C 19.308594 10.871094 19.339844 10.835938 19.382812 10.835938 C 19.695312 10.835938 19.949219 10.558594 19.949219 10.214844 L 19.949219 9.804688 C 19.949219 9.476562 19.707031 9.207031 19.40625 9.207031 C 19.082031 9.207031 18.816406 9.496094 18.816406 9.851562 L 18.816406 10.214844 C 18.816406 10.460938 18.949219 10.683594 19.152344 10.78125 C 19.1875 10.800781 19.203125 10.847656 19.183594 10.882812 C 19.167969 10.921875 19.121094 10.9375 19.085938 10.917969 C 18.832031 10.792969 18.667969 10.515625 18.667969 10.214844 L 18.667969 9.851562 C 18.667969 9.414062 18.996094 9.058594 19.40625 9.058594 C 19.789062 9.058594 20.101562 9.394531 20.101562 9.804688 L 20.101562 10.214844 C 20.101562 10.640625 19.777344 10.988281 19.382812 10.988281 " fill-opacity="1" fill-rule="nonzero"/><path fill="#000000" d="M 18.738281 9.65625 L 20.070312 9.65625 C 20.070312 9.65625 20.042969 9.394531 19.804688 9.21875 C 19.601562 9.070312 19.332031 9.054688 19.101562 9.15625 C 18.945312 9.226562 18.785156 9.351562 18.753906 9.578125 L 18.738281 9.65625 " fill-opacity="1" fill-rule="nonzero"/><path fill="#000000" d="M 19.382812 10.542969 C 19.296875 10.542969 19.210938 10.503906 19.148438 10.441406 C 19.121094 10.410156 19.121094 10.363281 19.152344 10.332031 C 19.183594 10.304688 19.230469 10.308594 19.257812 10.335938 C 19.292969 10.371094 19.335938 10.390625 19.382812 10.390625 C 19.433594 10.390625 19.476562 10.371094 19.507812 10.335938 C 19.539062 10.308594 19.585938 10.304688 19.617188 10.332031 C 19.648438 10.363281 19.648438 10.410156 19.621094 10.441406 C 19.558594 10.503906 19.472656 10.542969 19.382812 10.542969 " fill-opacity="1" fill-rule="nonzero"/><path fill="#000000" d="M 19.289062 12.421875 C 18.703125 12.421875 18.121094 12.164062 17.730469 11.667969 C 17.402344 11.25 17.257812 10.734375 17.320312 10.207031 C 17.382812 9.683594 17.648438 9.214844 18.0625 8.886719 C 18.921875 8.210938 20.167969 8.363281 20.84375 9.21875 C 21.070312 9.507812 21.210938 9.847656 21.253906 10.207031 C 21.257812 10.246094 21.230469 10.285156 21.1875 10.289062 C 21.148438 10.296875 21.109375 10.265625 21.105469 10.222656 C 21.0625 9.894531 20.933594 9.578125 20.726562 9.3125 C 20.101562 8.519531 18.949219 8.382812 18.15625 9.003906 C 17.773438 9.308594 17.527344 9.742188 17.46875 10.226562 C 17.410156 10.710938 17.546875 11.191406 17.847656 11.574219 C 18.472656 12.367188 19.625 12.503906 20.417969 11.882812 C 20.761719 11.613281 20.996094 11.230469 21.082031 10.800781 C 21.089844 10.761719 21.128906 10.734375 21.171875 10.742188 C 21.210938 10.75 21.238281 10.792969 21.230469 10.832031 C 21.136719 11.292969 20.882812 11.710938 20.511719 12 C 20.148438 12.285156 19.71875 12.421875 19.289062 12.421875 " fill-opacity="1" fill-rule="nonzero"/><path fill="#000000" d="M 30.257812 8.667969 L 29.039062 8.660156 C 28.996094 8.660156 28.960938 8.625 28.964844 8.582031 C 28.964844 8.542969 28.996094 8.507812 29.039062 8.507812 L 30.257812 8.515625 C 30.300781 8.515625 30.332031 8.550781 30.332031 8.59375 C 30.332031 8.632812 30.296875 8.667969 30.257812 8.667969 " fill-opacity="1" fill-rule="nonzero"/><path fill="#000000" d="M 30.285156 8.800781 C 30.273438 8.800781 30.265625 8.800781 30.253906 8.796875 C 30.226562 8.785156 30.210938 8.757812 30.210938 8.726562 L 30.210938 8.46875 C 30.210938 8.441406 30.226562 8.410156 30.253906 8.398438 C 30.285156 8.386719 30.316406 8.394531 30.339844 8.417969 L 30.46875 8.546875 C 30.484375 8.5625 30.492188 8.582031 30.492188 8.601562 C 30.488281 8.621094 30.480469 8.640625 30.46875 8.65625 L 30.335938 8.78125 C 30.324219 8.792969 30.304688 8.800781 30.285156 8.800781 " fill-opacity="1" fill-rule="nonzero"/><path fill="#000000" d="M 36.859375 8.667969 L 35.640625 8.660156 C 35.597656 8.660156 35.566406 8.625 35.566406 8.582031 C 35.566406 8.542969 35.601562 8.507812 35.640625 8.507812 L 36.859375 8.515625 C 36.902344 8.515625 36.933594 8.550781 36.933594 8.59375 C 36.933594 8.632812 36.902344 8.667969 36.859375 8.667969 " fill-opacity="1" fill-rule="nonzero"/><path fill="#000000" d="M 36.886719 8.800781 C 36.878906 8.800781 36.867188 8.800781 36.859375 8.796875 C 36.832031 8.785156 36.8125 8.757812 36.8125 8.726562 L 36.8125 8.46875 C 36.8125 8.441406 36.832031 8.410156 36.859375 8.398438 C 36.886719 8.386719 36.917969 8.394531 36.941406 8.417969 L 37.070312 8.546875 C 37.085938 8.5625 37.09375 8.582031 37.09375 8.601562 C 37.09375 8.621094 37.085938 8.640625 37.070312 8.65625 L 36.941406 8.78125 C 36.925781 8.792969 36.90625 8.800781 36.886719 8.800781 " fill-opacity="1" fill-rule="nonzero"/><path fill="#ffffff" d="M 28.957031 7.5625 C 28.957031 7.445312 28.859375 7.351562 28.742188 7.351562 L 24.210938 7.351562 C 24.09375 7.351562 24 7.445312 24 7.5625 L 24.015625 9.511719 C 24.015625 9.628906 24.105469 9.726562 24.222656 9.726562 L 28.785156 9.726562 C 28.902344 9.726562 28.996094 9.621094 28.996094 9.507812 L 28.957031 7.5625 " fill-opacity="1" fill-rule="nonzero"/><path fill="#ffffff" d="M 28.75 7.34375 L 24.21875 7.34375 C 24.105469 7.34375 24.007812 7.4375 24.011719 7.550781 L 24.019531 9.5 C 24.019531 9.613281 24.113281 9.71875 24.230469 9.71875 L 28.777344 9.71875 C 28.894531 9.71875 28.980469 9.625 28.976562 9.507812 L 28.964844 7.554688 C 28.964844 7.441406 28.867188 7.34375 28.75 7.34375 " fill-opacity="1" fill-rule="nonzero"/><path fill="#8875a4" d="M 24.21875 7.417969 C 24.183594 7.417969 24.148438 7.433594 24.125 7.457031 C 24.097656 7.484375 24.085938 7.515625 24.085938 7.550781 L 24.09375 9.5 C 24.09375 9.574219 24.160156 9.640625 24.230469 9.640625 L 28.777344 9.640625 C 28.8125 9.640625 28.84375 9.628906 28.867188 9.605469 C 28.890625 9.582031 28.902344 9.546875 28.902344 9.511719 L 28.890625 7.554688 C 28.890625 7.480469 28.824219 7.417969 28.75 7.417969 Z M 28.777344 9.792969 L 24.230469 9.792969 C 24.078125 9.792969 23.945312 9.65625 23.945312 9.5 L 23.933594 7.554688 C 23.933594 7.476562 23.964844 7.40625 24.019531 7.351562 C 24.070312 7.296875 24.144531 7.265625 24.21875 7.265625 L 28.75 7.265625 C 28.910156 7.265625 29.039062 7.394531 29.042969 7.554688 L 29.054688 9.507812 C 29.054688 9.585938 29.027344 9.660156 28.972656 9.710938 C 28.921875 9.765625 28.851562 9.792969 28.777344 9.792969 " fill-opacity="1" fill-rule="nonzero"/><path fill="#8875a4" d="M 26.871094 7.9375 C 26.871094 7.980469 26.835938 8.019531 26.789062 8.019531 L 24.527344 8.019531 C 24.484375 8.019531 24.445312 7.980469 24.445312 7.9375 C 24.445312 7.890625 24.480469 7.855469 24.527344 7.855469 L 26.789062 7.855469 C 26.835938 7.855469 26.871094 7.890625 26.871094 7.9375 " fill-opacity="1" fill-rule="nonzero"/><path fill="#8875a4" d="M 27.699219 7.941406 C 27.699219 7.988281 27.660156 8.015625 27.613281 8.015625 L 27.074219 8.015625 C 27.03125 8.015625 26.992188 7.988281 26.992188 7.941406 C 26.992188 7.898438 27.03125 7.867188 27.074219 7.867188 L 27.613281 7.867188 C 27.660156 7.867188 27.695312 7.898438 27.699219 7.941406 " fill-opacity="1" fill-rule="nonzero"/><path fill="#8875a4" d="M 28.523438 7.941406 C 28.523438 7.988281 28.484375 8.015625 28.4375 8.015625 L 27.898438 8.015625 C 27.855469 8.015625 27.816406 7.988281 27.816406 7.941406 C 27.816406 7.898438 27.855469 7.867188 27.898438 7.867188 L 28.4375 7.867188 C 28.484375 7.867188 28.519531 7.898438 28.523438 7.941406 " fill-opacity="1" fill-rule="nonzero"/><path fill="#8875a4" d="M 26.097656 8.53125 C 26.097656 8.578125 26.132812 8.613281 26.179688 8.613281 L 28.445312 8.613281 C 28.492188 8.613281 28.527344 8.578125 28.527344 8.53125 C 28.527344 8.484375 28.488281 8.449219 28.441406 8.449219 L 26.179688 8.449219 C 26.132812 8.449219 26.097656 8.484375 26.097656 8.53125 " fill-opacity="1" fill-rule="nonzero"/><path fill="#8875a4" d="M 25.976562 8.53125 C 25.976562 8.484375 25.941406 8.449219 25.894531 8.449219 L 25.355469 8.449219 C 25.308594 8.449219 25.273438 8.484375 25.273438 8.53125 C 25.273438 8.574219 25.308594 8.613281 25.355469 8.613281 L 25.894531 8.613281 C 25.941406 8.613281 25.976562 8.574219 25.976562 8.53125 " fill-opacity="1" fill-rule="nonzero"/><path fill="#8875a4" d="M 25.152344 8.53125 C 25.152344 8.484375 25.113281 8.449219 25.070312 8.449219 L 24.53125 8.449219 C 24.484375 8.449219 24.445312 8.484375 24.445312 8.53125 C 24.445312 8.574219 24.484375 8.613281 24.527344 8.613281 L 25.070312 8.613281 C 25.113281 8.613281 25.152344 8.574219 25.152344 8.53125 " fill-opacity="1" fill-rule="nonzero"/><path fill="#8875a4" d="M 26.890625 9.125 C 26.890625 9.171875 26.851562 9.207031 26.808594 9.207031 L 24.535156 9.207031 C 24.488281 9.207031 24.453125 9.171875 24.453125 9.125 C 24.453125 9.082031 24.488281 9.042969 24.535156 9.042969 L 26.804688 9.042969 C 26.851562 9.042969 26.890625 9.082031 26.890625 9.125 " fill-opacity="1" fill-rule="nonzero"/><path fill="#ffffff" d="M 28.957031 10.542969 C 28.957031 10.429688 28.859375 10.332031 28.742188 10.332031 L 24.210938 10.332031 C 24.09375 10.332031 24 10.429688 24 10.542969 L 24.015625 16.007812 C 24.015625 16.125 24.105469 16.222656 24.222656 16.222656 L 28.785156 16.222656 C 28.902344 16.222656 28.996094 16.117188 28.996094 16.003906 L 28.957031 10.542969 " fill-opacity="1" fill-rule="nonzero"/><path fill="#ffffff" d="M 28.75 10.324219 L 24.21875 10.324219 C 24.105469 10.324219 24.007812 10.421875 24.011719 10.535156 L 24.019531 15.996094 C 24.019531 16.109375 24.113281 16.214844 24.230469 16.214844 L 28.777344 16.214844 C 28.894531 16.214844 28.980469 16.121094 28.976562 16.003906 L 28.964844 10.539062 C 28.964844 10.421875 28.867188 10.324219 28.75 10.324219 " fill-opacity="1" fill-rule="nonzero"/><path fill="#8875a4" d="M 24.21875 10.398438 C 24.183594 10.398438 24.148438 10.414062 24.125 10.441406 C 24.097656 10.464844 24.085938 10.5 24.085938 10.535156 L 24.09375 15.996094 C 24.09375 16.070312 24.160156 16.136719 24.230469 16.136719 L 28.777344 16.136719 C 28.8125 16.136719 28.84375 16.125 28.867188 16.101562 C 28.890625 16.078125 28.902344 16.042969 28.902344 16.007812 L 28.890625 10.539062 C 28.890625 10.464844 28.824219 10.398438 28.75 10.398438 Z M 28.777344 16.289062 L 24.230469 16.289062 C 24.078125 16.289062 23.945312 16.152344 23.945312 15.996094 L 23.933594 10.535156 C 23.933594 10.460938 23.964844 10.386719 24.019531 10.332031 C 24.070312 10.277344 24.144531 10.25 24.21875 10.25 L 28.75 10.25 C 28.910156 10.25 29.039062 10.378906 29.042969 10.535156 L 29.054688 16.003906 C 29.054688 16.082031 29.027344 16.15625 28.972656 16.207031 C 28.921875 16.257812 28.851562 16.289062 28.777344 16.289062 " fill-opacity="1" fill-rule="nonzero"/><path fill="#ffffff" d="M 28.5625 10.808594 C 28.5625 10.757812 28.523438 10.710938 28.476562 10.710938 L 24.472656 10.710938 C 24.453125 10.710938 24.433594 10.730469 24.433594 10.757812 L 24.425781 13.542969 C 24.425781 13.570312 24.445312 13.597656 24.472656 13.597656 L 28.511719 13.597656 C 28.535156 13.597656 28.554688 13.578125 28.554688 13.550781 L 28.5625 10.808594 " fill-opacity="1" fill-rule="nonzero"/><path fill="#8875a4" d="M 24.511719 10.757812 Z M 24.5 13.523438 L 28.476562 13.523438 L 28.488281 10.808594 C 28.488281 10.796875 28.480469 10.789062 28.476562 10.785156 L 24.507812 10.785156 Z M 28.476562 13.550781 Z M 28.511719 13.671875 L 24.472656 13.671875 C 24.441406 13.671875 24.410156 13.660156 24.386719 13.636719 C 24.363281 13.613281 24.347656 13.578125 24.351562 13.542969 L 24.359375 10.757812 C 24.359375 10.726562 24.371094 10.695312 24.390625 10.675781 C 24.410156 10.648438 24.441406 10.636719 24.472656 10.636719 L 28.476562 10.636719 C 28.5625 10.636719 28.636719 10.714844 28.636719 10.808594 L 28.628906 13.550781 C 28.628906 13.617188 28.578125 13.671875 28.511719 13.671875 " fill-opacity="1" fill-rule="nonzero"/><path fill="#8875a4" d="M 24.425781 12.601562 L 25.058594 11.933594 C 25.167969 11.820312 25.355469 11.816406 25.492188 11.925781 L 26.046875 12.363281 L 26.515625 12.09375 C 26.570312 12.074219 26.636719 12.078125 26.695312 12.105469 L 28.554688 12.976562 L 28.554688 13.597656 L 24.476562 13.597656 C 24.457031 13.597656 24.4375 13.578125 24.4375 13.558594 L 24.425781 12.601562 " fill-opacity="1" fill-rule="nonzero"/><path fill="#cbacf9" d="M 27.816406 11.421875 C 27.828125 11.574219 27.707031 11.707031 27.550781 11.714844 C 27.398438 11.726562 27.265625 11.605469 27.257812 11.453125 C 27.246094 11.296875 27.367188 11.164062 27.519531 11.15625 C 27.675781 11.144531 27.808594 11.265625 27.816406 11.421875 " fill-opacity="1" fill-rule="nonzero"/><path fill="#cbacf9" d="M 25.753906 14.359375 L 24.535156 14.359375 C 24.476562 14.359375 24.425781 14.308594 24.425781 14.25 C 24.425781 14.1875 24.476562 14.140625 24.535156 14.140625 L 25.753906 14.140625 C 25.816406 14.140625 25.863281 14.1875 25.863281 14.25 C 25.863281 14.308594 25.816406 14.359375 25.753906 14.359375 " fill-opacity="1" fill-rule="nonzero"/><path fill="#cbacf9" d="M 25.550781 14.820312 L 24.535156 14.820312 C 24.476562 14.820312 24.425781 14.773438 24.425781 14.710938 C 24.425781 14.652344 24.476562 14.601562 24.535156 14.601562 L 25.550781 14.601562 C 25.609375 14.601562 25.660156 14.652344 25.660156 14.710938 C 25.660156 14.773438 25.609375 14.820312 25.550781 14.820312 " fill-opacity="1" fill-rule="nonzero"/><path fill="#cbacf9" d="M 25.195312 15.285156 L 24.535156 15.285156 C 24.476562 15.285156 24.425781 15.234375 24.425781 15.175781 C 24.425781 15.113281 24.476562 15.066406 24.535156 15.066406 L 25.195312 15.066406 C 25.257812 15.066406 25.304688 15.113281 25.304688 15.175781 C 25.304688 15.234375 25.257812 15.285156 25.195312 15.285156 " fill-opacity="1" fill-rule="nonzero"/><path fill="#cbacf9" d="M 25.753906 15.746094 L 24.535156 15.746094 C 24.476562 15.746094 24.425781 15.699219 24.425781 15.636719 C 24.425781 15.578125 24.476562 15.527344 24.535156 15.527344 L 25.753906 15.527344 C 25.816406 15.527344 25.863281 15.578125 25.863281 15.636719 C 25.863281 15.699219 25.816406 15.746094 25.753906 15.746094 " fill-opacity="1" fill-rule="nonzero"/><path fill="#cbacf9" d="M 28.347656 14.359375 L 27.128906 14.359375 C 27.070312 14.359375 27.019531 14.308594 27.019531 14.25 C 27.019531 14.1875 27.070312 14.140625 27.128906 14.140625 L 28.347656 14.140625 C 28.40625 14.140625 28.457031 14.1875 28.457031 14.25 C 28.457031 14.308594 28.40625 14.359375 28.347656 14.359375 " fill-opacity="1" fill-rule="nonzero"/><path fill="#cbacf9" d="M 27.84375 14.820312 L 27.128906 14.820312 C 27.070312 14.820312 27.019531 14.773438 27.019531 14.710938 C 27.019531 14.652344 27.070312 14.601562 27.128906 14.601562 L 27.84375 14.601562 C 27.902344 14.601562 27.953125 14.652344 27.953125 14.710938 C 27.953125 14.773438 27.902344 14.820312 27.84375 14.820312 " fill-opacity="1" fill-rule="nonzero"/><path fill="#cbacf9" d="M 28.339844 15.285156 L 27.128906 15.285156 C 27.070312 15.285156 27.019531 15.234375 27.019531 15.175781 C 27.019531 15.113281 27.070312 15.066406 27.128906 15.066406 L 28.339844 15.066406 C 28.402344 15.066406 28.453125 15.113281 28.453125 15.175781 C 28.453125 15.234375 28.402344 15.285156 28.339844 15.285156 " fill-opacity="1" fill-rule="nonzero"/><path fill="#cbacf9" d="M 27.796875 15.746094 L 27.128906 15.746094 C 27.070312 15.746094 27.019531 15.699219 27.019531 15.636719 C 27.019531 15.578125 27.070312 15.527344 27.128906 15.527344 L 27.796875 15.527344 C 27.855469 15.527344 27.90625 15.578125 27.90625 15.636719 C 27.90625 15.699219 27.855469 15.746094 27.796875 15.746094 " fill-opacity="1" fill-rule="nonzero"/><path fill="#ffffff" d="M 35.542969 7.570312 C 35.542969 7.457031 35.445312 7.359375 35.328125 7.359375 L 30.765625 7.359375 C 30.648438 7.359375 30.550781 7.457031 30.554688 7.570312 L 30.566406 9.519531 C 30.566406 9.636719 30.660156 9.734375 30.777344 9.734375 L 35.371094 9.734375 C 35.488281 9.734375 35.582031 9.632812 35.582031 9.515625 L 35.542969 7.570312 " fill-opacity="1" fill-rule="nonzero"/><path fill="#8875a4" d="M 30.765625 7.433594 C 30.726562 7.433594 30.695312 7.449219 30.667969 7.476562 C 30.640625 7.5 30.628906 7.535156 30.628906 7.570312 L 30.644531 9.519531 C 30.644531 9.597656 30.703125 9.660156 30.777344 9.660156 L 35.371094 9.660156 C 35.40625 9.660156 35.4375 9.644531 35.464844 9.617188 C 35.492188 9.589844 35.507812 9.554688 35.503906 9.515625 L 35.46875 7.570312 C 35.46875 7.496094 35.402344 7.433594 35.328125 7.433594 Z M 35.371094 9.808594 L 30.777344 9.808594 C 30.621094 9.808594 30.492188 9.679688 30.492188 9.523438 L 30.476562 7.570312 C 30.476562 7.496094 30.507812 7.421875 30.5625 7.367188 C 30.617188 7.316406 30.6875 7.285156 30.765625 7.285156 L 35.328125 7.285156 C 35.484375 7.285156 35.617188 7.410156 35.617188 7.570312 L 35.65625 9.515625 C 35.65625 9.59375 35.625 9.667969 35.570312 9.726562 C 35.519531 9.78125 35.445312 9.808594 35.371094 9.808594 " fill-opacity="1" fill-rule="nonzero"/><path fill="#8875a4" d="M 33.445312 7.945312 C 33.445312 7.992188 33.40625 8.027344 33.363281 8.027344 L 31.082031 8.027344 C 31.035156 8.027344 31 7.992188 31 7.945312 C 31 7.902344 31.035156 7.863281 31.082031 7.863281 L 33.359375 7.863281 C 33.40625 7.863281 33.445312 7.902344 33.445312 7.945312 " fill-opacity="1" fill-rule="nonzero"/><path fill="#8875a4" d="M 34.273438 7.953125 C 34.273438 7.996094 34.238281 8.027344 34.191406 8.027344 L 33.648438 8.027344 C 33.601562 8.027344 33.566406 7.996094 33.566406 7.953125 C 33.566406 7.90625 33.601562 7.875 33.648438 7.875 L 34.191406 7.875 C 34.238281 7.875 34.273438 7.90625 34.273438 7.953125 " fill-opacity="1" fill-rule="nonzero"/><path fill="#8875a4" d="M 35.105469 7.953125 C 35.105469 7.996094 35.066406 8.027344 35.023438 8.027344 L 34.476562 8.027344 C 34.433594 8.027344 34.394531 7.996094 34.394531 7.953125 C 34.394531 7.90625 34.433594 7.875 34.476562 7.875 L 35.019531 7.875 C 35.066406 7.875 35.105469 7.90625 35.105469 7.953125 " fill-opacity="1" fill-rule="nonzero"/><path fill="#8875a4" d="M 33.460938 8.582031 C 33.460938 8.628906 33.425781 8.664062 33.378906 8.664062 L 31.089844 8.664062 C 31.042969 8.664062 31.007812 8.628906 31.007812 8.582031 C 31.007812 8.539062 31.042969 8.5 31.089844 8.5 L 33.375 8.5 C 33.421875 8.5 33.460938 8.539062 33.460938 8.582031 " fill-opacity="1" fill-rule="nonzero"/><path fill="#ffffff" d="M 35.542969 10.539062 C 35.542969 10.425781 35.445312 10.328125 35.328125 10.328125 L 30.765625 10.328125 C 30.648438 10.328125 30.550781 10.425781 30.554688 10.539062 L 30.566406 15.953125 C 30.566406 16.070312 30.660156 16.167969 30.777344 16.167969 L 35.371094 16.167969 C 35.488281 16.167969 35.582031 16.066406 35.582031 15.949219 L 35.542969 10.539062 " fill-opacity="1" fill-rule="nonzero"/><path fill="#ffffff" d="M 35.335938 10.320312 L 30.773438 10.320312 C 30.65625 10.320312 30.5625 10.417969 30.5625 10.53125 L 30.570312 15.941406 C 30.570312 16.058594 30.667969 16.160156 30.785156 16.160156 L 35.363281 16.160156 C 35.480469 16.160156 35.566406 16.066406 35.5625 15.949219 L 35.550781 10.535156 C 35.550781 10.417969 35.453125 10.320312 35.335938 10.320312 " fill-opacity="1" fill-rule="nonzero"/><path fill="#8875a4" d="M 30.773438 10.394531 C 30.734375 10.394531 30.703125 10.410156 30.675781 10.4375 C 30.652344 10.460938 30.636719 10.496094 30.636719 10.53125 L 30.644531 15.941406 C 30.644531 16.015625 30.710938 16.082031 30.785156 16.082031 L 35.363281 16.082031 C 35.398438 16.082031 35.429688 16.070312 35.453125 16.046875 C 35.476562 16.023438 35.488281 15.988281 35.488281 15.953125 L 35.476562 10.535156 C 35.476562 10.460938 35.410156 10.394531 35.335938 10.394531 Z M 35.363281 16.234375 L 30.785156 16.234375 C 30.628906 16.234375 30.496094 16.101562 30.496094 15.941406 L 30.484375 10.53125 C 30.484375 10.457031 30.515625 10.382812 30.570312 10.328125 C 30.625 10.273438 30.695312 10.246094 30.773438 10.246094 L 35.335938 10.246094 C 35.496094 10.246094 35.625 10.375 35.628906 10.53125 L 35.640625 15.949219 C 35.640625 16.027344 35.613281 16.101562 35.558594 16.152344 C 35.507812 16.207031 35.4375 16.234375 35.363281 16.234375 " fill-opacity="1" fill-rule="nonzero"/><path fill="#8875a4" d="M 33.445312 14.378906 C 33.445312 14.421875 33.40625 14.460938 33.363281 14.460938 L 31.082031 14.460938 C 31.035156 14.460938 31 14.421875 31 14.378906 C 31 14.332031 31.035156 14.296875 31.082031 14.296875 L 33.359375 14.296875 C 33.40625 14.296875 33.445312 14.332031 33.445312 14.378906 " fill-opacity="1" fill-rule="nonzero"/><path fill="#8875a4" d="M 34.273438 14.382812 C 34.273438 14.429688 34.238281 14.457031 34.191406 14.457031 L 33.648438 14.457031 C 33.601562 14.457031 33.566406 14.429688 33.566406 14.382812 C 33.566406 14.339844 33.601562 14.308594 33.648438 14.308594 L 34.191406 14.308594 C 34.238281 14.308594 34.273438 14.339844 34.273438 14.382812 " fill-opacity="1" fill-rule="nonzero"/><path fill="#8875a4" d="M 35.105469 14.382812 C 35.105469 14.429688 35.066406 14.457031 35.023438 14.457031 L 34.476562 14.457031 C 34.433594 14.457031 34.394531 14.429688 34.394531 14.382812 C 34.394531 14.339844 34.433594 14.308594 34.476562 14.308594 L 35.019531 14.308594 C 35.066406 14.308594 35.105469 14.339844 35.105469 14.382812 " fill-opacity="1" fill-rule="nonzero"/><path fill="#8875a4" d="M 33.460938 15.117188 C 33.460938 15.160156 33.425781 15.199219 33.378906 15.199219 L 31.089844 15.199219 C 31.042969 15.199219 31.007812 15.160156 31.007812 15.117188 C 31.007812 15.070312 31.042969 15.035156 31.089844 15.035156 L 33.375 15.035156 C 33.421875 15.035156 33.460938 15.070312 33.460938 15.117188 " fill-opacity="1" fill-rule="nonzero"/><path fill="#8875a4" d="M 32.433594 13.046875 C 32.035156 12.695312 31.996094 12.089844 32.34375 11.691406 C 32.691406 11.289062 33.292969 11.25 33.691406 11.597656 C 34.089844 11.949219 34.128906 12.558594 33.78125 12.957031 C 33.433594 13.355469 32.828125 13.398438 32.433594 13.046875 " fill-opacity="1" fill-rule="nonzero"/><path fill="#ffffff" d="M 32.78125 12.628906 L 32.78125 12.027344 C 32.78125 11.996094 32.8125 11.976562 32.84375 11.992188 L 33.445312 12.289062 C 33.472656 12.304688 33.476562 12.347656 33.445312 12.363281 L 32.84375 12.667969 C 32.816406 12.679688 32.78125 12.660156 32.78125 12.628906 " fill-opacity="1" fill-rule="nonzero"/><path fill="#ffffff" d="M 42.890625 7.566406 C 42.890625 7.453125 42.777344 7.355469 42.644531 7.355469 L 37.367188 7.355469 C 37.230469 7.355469 37.121094 7.453125 37.125 7.566406 L 37.140625 10.121094 C 37.140625 10.234375 37.246094 10.332031 37.382812 10.332031 L 42.691406 10.332031 C 42.828125 10.332031 42.9375 10.230469 42.933594 10.113281 L 42.890625 7.566406 " fill-opacity="1" fill-rule="nonzero"/><path fill="#ffffff" d="M 42.652344 7.347656 L 37.378906 7.347656 C 37.242188 7.347656 37.132812 7.441406 37.132812 7.558594 L 37.144531 10.105469 C 37.144531 10.222656 37.253906 10.324219 37.390625 10.324219 L 42.683594 10.324219 C 42.820312 10.324219 42.917969 10.234375 42.914062 10.117188 L 42.902344 7.5625 C 42.898438 7.445312 42.789062 7.347656 42.652344 7.347656 " fill-opacity="1" fill-rule="nonzero"/><path fill="#8875a4" d="M 37.378906 7.421875 C 37.324219 7.421875 37.277344 7.441406 37.246094 7.476562 C 37.226562 7.492188 37.207031 7.519531 37.207031 7.558594 L 37.21875 10.105469 C 37.21875 10.183594 37.300781 10.25 37.390625 10.25 L 42.683594 10.25 C 42.734375 10.25 42.777344 10.234375 42.804688 10.203125 C 42.828125 10.179688 42.839844 10.148438 42.839844 10.117188 L 42.828125 7.5625 C 42.824219 7.488281 42.746094 7.421875 42.652344 7.421875 Z M 42.683594 10.398438 L 37.390625 10.398438 C 37.214844 10.398438 37.070312 10.265625 37.066406 10.105469 L 37.058594 7.558594 C 37.058594 7.488281 37.085938 7.421875 37.136719 7.367188 C 37.199219 7.308594 37.285156 7.273438 37.378906 7.273438 L 42.652344 7.273438 C 42.828125 7.273438 42.976562 7.402344 42.976562 7.558594 L 42.992188 10.117188 C 42.992188 10.1875 42.964844 10.257812 42.914062 10.308594 C 42.855469 10.367188 42.773438 10.398438 42.683594 10.398438 " fill-opacity="1" fill-rule="nonzero"/><path fill="#8875a4" d="M 40.96875 7.941406 C 40.96875 7.984375 40.925781 8.023438 40.871094 8.023438 L 38.238281 8.023438 C 38.183594 8.023438 38.140625 7.984375 38.140625 7.941406 C 38.140625 7.898438 38.183594 7.859375 38.238281 7.859375 L 40.871094 7.859375 C 40.921875 7.859375 40.964844 7.898438 40.96875 7.941406 " fill-opacity="1" fill-rule="nonzero"/><path fill="#8875a4" d="M 41.925781 7.945312 C 41.929688 7.992188 41.882812 8.023438 41.832031 8.023438 L 41.203125 8.023438 C 41.152344 8.023438 41.109375 7.992188 41.105469 7.945312 C 41.105469 7.902344 41.148438 7.871094 41.203125 7.871094 L 41.832031 7.871094 C 41.882812 7.871094 41.925781 7.902344 41.925781 7.945312 " fill-opacity="1" fill-rule="nonzero"/><path fill="#8875a4" d="M 40.464844 9.132812 C 40.464844 9.175781 40.421875 9.210938 40.371094 9.210938 L 37.734375 9.210938 C 37.683594 9.210938 37.640625 9.175781 37.640625 9.132812 C 37.640625 9.085938 37.683594 9.050781 37.734375 9.050781 L 40.367188 9.050781 C 40.421875 9.050781 40.464844 9.085938 40.464844 9.132812 " fill-opacity="1" fill-rule="nonzero"/><path fill="#8875a4" d="M 41.425781 9.136719 C 41.425781 9.183594 41.382812 9.210938 41.328125 9.210938 L 40.703125 9.210938 C 40.648438 9.210938 40.605469 9.183594 40.605469 9.136719 C 40.605469 9.09375 40.648438 9.0625 40.699219 9.0625 L 41.328125 9.0625 C 41.382812 9.0625 41.425781 9.09375 41.425781 9.136719 " fill-opacity="1" fill-rule="nonzero"/><path fill="#8875a4" d="M 42.382812 9.136719 C 42.386719 9.183594 42.34375 9.210938 42.289062 9.210938 L 41.660156 9.210938 C 41.609375 9.210938 41.566406 9.183594 41.566406 9.136719 C 41.5625 9.09375 41.609375 9.0625 41.660156 9.0625 L 42.289062 9.0625 C 42.339844 9.0625 42.382812 9.09375 42.382812 9.136719 " fill-opacity="1" fill-rule="nonzero"/><path fill="#8875a4" d="M 38.609375 8.535156 C 38.609375 8.582031 38.652344 8.617188 38.703125 8.617188 L 41.34375 8.617188 C 41.394531 8.617188 41.4375 8.582031 41.4375 8.535156 C 41.4375 8.492188 41.390625 8.453125 41.339844 8.453125 L 38.703125 8.453125 C 38.648438 8.453125 38.609375 8.492188 38.609375 8.535156 " fill-opacity="1" fill-rule="nonzero"/><path fill="#8875a4" d="M 39.324219 9.726562 C 39.324219 9.769531 39.28125 9.808594 39.230469 9.808594 L 37.746094 9.808594 C 37.691406 9.808594 37.648438 9.769531 37.648438 9.726562 C 37.648438 9.679688 37.691406 9.644531 37.742188 9.644531 L 39.226562 9.644531 C 39.28125 9.644531 39.324219 9.679688 39.324219 9.726562 " fill-opacity="1" fill-rule="nonzero"/><path fill="#8875a4" d="M 40.792969 9.726562 C 40.792969 9.769531 40.75 9.808594 40.695312 9.808594 L 39.5625 9.808594 C 39.507812 9.808594 39.464844 9.769531 39.464844 9.726562 C 39.464844 9.679688 39.507812 9.644531 39.558594 9.644531 L 40.695312 9.644531 C 40.75 9.644531 40.792969 9.679688 40.792969 9.726562 " fill-opacity="1" fill-rule="nonzero"/><path fill="#8875a4" d="M 42.886719 11.074219 C 42.886719 10.960938 42.773438 10.863281 42.636719 10.863281 L 37.363281 10.863281 C 37.226562 10.863281 37.117188 10.960938 37.117188 11.074219 L 37.132812 19.550781 C 37.136719 19.667969 37.238281 19.765625 37.375 19.765625 L 42.6875 19.765625 C 42.824219 19.765625 42.933594 19.664062 42.929688 19.546875 L 42.886719 11.074219 " fill-opacity="1" fill-rule="nonzero"/><path fill="#8875a4" d="M 37.363281 10.941406 C 37.3125 10.941406 37.261719 10.957031 37.230469 10.992188 C 37.214844 11.007812 37.191406 11.035156 37.195312 11.074219 L 37.210938 19.550781 C 37.210938 19.628906 37.285156 19.6875 37.375 19.6875 L 42.6875 19.6875 C 42.738281 19.6875 42.785156 19.671875 42.816406 19.636719 C 42.839844 19.613281 42.855469 19.578125 42.855469 19.546875 L 42.8125 11.074219 C 42.808594 11 42.730469 10.941406 42.636719 10.941406 Z M 42.6875 19.839844 L 37.375 19.839844 C 37.203125 19.839844 37.058594 19.710938 37.058594 19.550781 L 37.042969 11.074219 C 37.042969 11.003906 37.070312 10.9375 37.125 10.886719 C 37.183594 10.824219 37.269531 10.789062 37.363281 10.789062 L 42.636719 10.789062 C 42.8125 10.789062 42.960938 10.917969 42.960938 11.074219 L 43.003906 19.546875 C 43.007812 19.617188 42.976562 19.6875 42.921875 19.742188 C 42.863281 19.804688 42.777344 19.839844 42.6875 19.839844 " fill-opacity="1" fill-rule="nonzero"/><path fill="#ffffff" d="M 38.71875 16.222656 L 37.613281 16.222656 L 37.613281 15.117188 L 38.71875 15.117188 L 38.71875 16.222656 " fill-opacity="1" fill-rule="nonzero"/><path fill="#ffffff" d="M 39.953125 16.222656 L 38.847656 16.222656 L 38.847656 15.117188 L 39.953125 15.117188 L 39.953125 16.222656 " fill-opacity="1" fill-rule="nonzero"/><path fill="#ffffff" d="M 41.1875 16.222656 L 40.082031 16.222656 L 40.082031 15.117188 L 41.1875 15.117188 L 41.1875 16.222656 " fill-opacity="1" fill-rule="nonzero"/><path fill="#ffffff" d="M 42.421875 16.222656 L 41.316406 16.222656 L 41.316406 15.117188 L 42.421875 15.117188 L 42.421875 16.222656 " fill-opacity="1" fill-rule="nonzero"/><path fill="#ffffff" d="M 38.71875 17.472656 L 37.613281 17.472656 L 37.613281 16.363281 L 38.71875 16.363281 L 38.71875 17.472656 " fill-opacity="1" fill-rule="nonzero"/><path fill="#ffffff" d="M 39.953125 17.472656 L 38.847656 17.472656 L 38.847656 16.363281 L 39.953125 16.363281 L 39.953125 17.472656 " fill-opacity="1" fill-rule="nonzero"/><path fill="#ffffff" d="M 41.1875 17.472656 L 40.082031 17.472656 L 40.082031 16.363281 L 41.1875 16.363281 L 41.1875 17.472656 " fill-opacity="1" fill-rule="nonzero"/><path fill="#ffffff" d="M 42.421875 17.472656 L 41.316406 17.472656 L 41.316406 16.363281 L 42.421875 16.363281 L 42.421875 17.472656 " fill-opacity="1" fill-rule="nonzero"/><path fill="#ffffff" d="M 38.71875 18.695312 L 37.613281 18.695312 L 37.613281 17.585938 L 38.71875 17.585938 L 38.71875 18.695312 " fill-opacity="1" fill-rule="nonzero"/><path fill="#ffffff" d="M 39.953125 18.695312 L 38.847656 18.695312 L 38.847656 17.585938 L 39.953125 17.585938 L 39.953125 18.695312 " fill-opacity="1" fill-rule="nonzero"/><path fill="#ffffff" d="M 41.1875 18.695312 L 40.082031 18.695312 L 40.082031 17.585938 L 41.1875 17.585938 L 41.1875 18.695312 " fill-opacity="1" fill-rule="nonzero"/><path fill="#ffffff" d="M 42.421875 18.695312 L 41.316406 18.695312 L 41.316406 17.585938 L 42.421875 17.585938 L 42.421875 18.695312 " fill-opacity="1" fill-rule="nonzero"/><path fill="#ffffff" d="M 41.816406 11.8125 L 38.03125 11.8125 L 38.03125 11.40625 L 41.816406 11.40625 L 41.816406 11.8125 " fill-opacity="1" fill-rule="nonzero"/><path fill="#cbacf9" d="M 42.390625 12.589844 L 37.648438 12.589844 L 37.648438 12.304688 L 42.390625 12.304688 L 42.390625 12.589844 " fill-opacity="1" fill-rule="nonzero"/><path fill="#cbacf9" d="M 40.738281 13.191406 L 37.648438 13.191406 L 37.648438 12.90625 L 40.738281 12.90625 L 40.738281 13.191406 " fill-opacity="1" fill-rule="nonzero"/><path fill="#cbacf9" d="M 40.753906 14.453125 L 37.660156 14.453125 L 37.660156 14.167969 L 40.753906 14.167969 L 40.753906 14.453125 " fill-opacity="1" fill-rule="nonzero"/><path fill="#cbacf9" d="M 42.390625 13.792969 L 37.648438 13.792969 L 37.648438 13.511719 L 42.390625 13.511719 L 42.390625 13.792969 " fill-opacity="1" fill-rule="nonzero"/><path fill="#8875a4" d="M 16.3125 16.558594 L 16.3125 19.355469 C 16.3125 22.085938 18.46875 24.300781 21.132812 24.300781 C 23.792969 24.300781 25.953125 26.515625 25.953125 29.25 C 25.953125 29.492188 25.753906 29.6875 25.511719 29.6875 L 12.75 29.6875 C 8.757812 29.6875 5.523438 26.367188 5.523438 22.273438 L 5.523438 16.3125 C 5.523438 14.683594 6.8125 13.363281 8.398438 13.363281 L 13.195312 13.363281 C 14.914062 13.363281 16.3125 14.792969 16.3125 16.558594 " fill-opacity="1" fill-rule="nonzero"/><path fill="#8875a4" d="M 14.839844 41.722656 L 15.996094 41.722656 L 15.996094 28.261719 L 14.839844 28.261719 L 14.839844 41.722656 " fill-opacity="1" fill-rule="nonzero"/><path fill="#8875a4" d="M 20.835938 41.738281 L 15.71875 41.289062 L 15.25 41.289062 L 10.027344 41.738281 L 10.027344 42.09375 L 20.835938 42.09375 L 20.835938 41.738281 " fill-opacity="1" fill-rule="nonzero"/><path fill="#000000" d="M 29.460938 24.335938 L 19.667969 24.335938 C 19.457031 24.335938 19.285156 24.164062 19.285156 23.953125 L 19.285156 23.769531 L 29.839844 23.769531 L 29.839844 23.953125 C 29.839844 24.164062 29.671875 24.335938 29.460938 24.335938 " fill-opacity="1" fill-rule="nonzero"/><path fill="#000000" d="M 29.839844 23.777344 L 23.800781 23.777344 L 25.71875 18.132812 C 25.835938 17.957031 26.035156 17.847656 26.25 17.847656 L 31.355469 17.847656 C 31.585938 17.847656 31.738281 18.074219 31.660156 18.273438 C 31.632812 18.351562 31.597656 18.429688 31.570312 18.507812 L 29.839844 23.777344 " fill-opacity="1" fill-rule="nonzero"/><path fill="#ffffff" d="M 27.597656 20.738281 C 27.527344 20.976562 27.636719 21.222656 27.84375 21.285156 C 28.054688 21.347656 28.28125 21.203125 28.351562 20.964844 C 28.421875 20.726562 28.3125 20.480469 28.105469 20.417969 C 27.898438 20.355469 27.671875 20.5 27.597656 20.738281 " fill-opacity="1" fill-rule="nonzero"/><path fill="#8875a4" d="M 29.890625 23.804688 L 29.40625 23.804688 C 29.363281 23.804688 29.328125 23.769531 29.328125 23.730469 C 29.328125 23.6875 29.363281 23.652344 29.40625 23.652344 L 29.890625 23.652344 C 29.929688 23.652344 29.964844 23.6875 29.964844 23.730469 C 29.964844 23.769531 29.929688 23.804688 29.890625 23.804688 " fill-opacity="1" fill-rule="nonzero"/><path fill="#ffffff" d="M 12.101562 29.203125 L 10.902344 30.332031 L 11.722656 31.027344 L 13.148438 30.003906 L 12.101562 29.203125 " fill-opacity="1" fill-rule="nonzero"/><path fill="#000000" d="M 11.015625 30.328125 L 11.726562 30.929688 L 13.023438 30.003906 L 12.105469 29.300781 Z M 11.722656 31.101562 C 11.707031 31.101562 11.6875 31.09375 11.675781 31.082031 L 10.855469 30.390625 C 10.835938 30.375 10.828125 30.355469 10.828125 30.335938 C 10.828125 30.3125 10.835938 30.292969 10.851562 30.277344 L 12.050781 29.148438 C 12.078125 29.121094 12.117188 29.121094 12.148438 29.144531 L 13.195312 29.945312 C 13.214844 29.960938 13.226562 29.984375 13.226562 30.007812 C 13.226562 30.03125 13.214844 30.054688 13.195312 30.066406 L 11.765625 31.085938 C 11.753906 31.097656 11.738281 31.101562 11.722656 31.101562 " fill-opacity="1" fill-rule="nonzero"/><path fill="#8875a4" d="M 11.066406 29.886719 C 10.882812 30.046875 10.550781 30.347656 10.285156 30.644531 C 10.121094 30.832031 10.125 31.117188 10.289062 31.300781 C 10.761719 31.832031 11.902344 32.949219 13.007812 33.746094 C 13.085938 33.800781 13.253906 33.855469 13.4375 33.710938 C 14.078125 33.210938 13.125 32.144531 12.363281 30.699219 L 11.996094 30.71875 C 11.800781 30.730469 11.617188 30.621094 11.53125 30.445312 L 11.277344 29.929688 C 11.238281 29.847656 11.132812 29.828125 11.066406 29.886719 " fill-opacity="1" fill-rule="nonzero"/><path fill="#000000" d="M 11.066406 29.886719 Z M 11.15625 29.929688 C 11.140625 29.929688 11.128906 29.933594 11.117188 29.945312 C 10.941406 30.097656 10.605469 30.398438 10.34375 30.695312 C 10.203125 30.851562 10.203125 31.09375 10.347656 31.253906 C 10.835938 31.796875 11.957031 32.894531 13.050781 33.683594 C 13.078125 33.703125 13.214844 33.789062 13.394531 33.652344 C 13.820312 33.316406 13.425781 32.660156 12.878906 31.75 C 12.703125 31.457031 12.507812 31.125 12.320312 30.777344 L 12 30.796875 C 11.773438 30.808594 11.5625 30.683594 11.460938 30.480469 L 11.210938 29.964844 C 11.203125 29.945312 11.1875 29.933594 11.167969 29.929688 C 11.164062 29.929688 11.160156 29.929688 11.15625 29.929688 Z M 13.195312 33.878906 C 13.101562 33.878906 13.023438 33.847656 12.964844 33.804688 C 11.859375 33.011719 10.726562 31.902344 10.234375 31.351562 C 10.039062 31.136719 10.039062 30.808594 10.230469 30.59375 C 10.5 30.292969 10.839844 29.984375 11.015625 29.828125 C 11.066406 29.785156 11.132812 29.769531 11.199219 29.78125 C 11.261719 29.796875 11.316406 29.835938 11.347656 29.898438 L 11.597656 30.414062 C 11.671875 30.5625 11.824219 30.652344 11.992188 30.644531 L 12.410156 30.621094 L 12.433594 30.664062 C 12.621094 31.023438 12.828125 31.367188 13.007812 31.671875 C 13.574219 32.613281 14.019531 33.355469 13.484375 33.769531 C 13.386719 33.847656 13.285156 33.878906 13.195312 33.878906 " fill-opacity="1" fill-rule="nonzero"/><path fill="#ffffff" d="M 10.324219 30.601562 C 10.324219 30.601562 10.300781 30.628906 10.285156 30.644531 C 10.121094 30.832031 10.125 31.117188 10.289062 31.300781 C 10.761719 31.832031 11.902344 32.949219 13.007812 33.746094 C 13.085938 33.800781 13.253906 33.855469 13.4375 33.710938 C 13.496094 33.664062 13.574219 33.5625 13.574219 33.5625 L 13.496094 33.503906 C 12.417969 32.65625 11.398438 31.730469 10.453125 30.734375 L 10.324219 30.601562 " fill-opacity="1" fill-rule="nonzero"/><path fill="#000000" d="M 10.328125 30.710938 C 10.203125 30.871094 10.210938 31.097656 10.347656 31.253906 C 10.835938 31.796875 11.957031 32.894531 13.050781 33.683594 C 13.078125 33.703125 13.214844 33.789062 13.394531 33.652344 C 13.414062 33.632812 13.441406 33.601562 13.46875 33.574219 L 13.453125 33.5625 C 12.371094 32.714844 11.34375 31.78125 10.398438 30.789062 Z M 13.195312 33.878906 C 13.101562 33.878906 13.023438 33.847656 12.964844 33.804688 C 11.859375 33.011719 10.726562 31.902344 10.234375 31.351562 C 10.039062 31.136719 10.039062 30.808594 10.230469 30.59375 C 10.242188 30.582031 10.269531 30.550781 10.269531 30.550781 C 10.285156 30.535156 10.304688 30.523438 10.324219 30.523438 C 10.347656 30.523438 10.367188 30.535156 10.378906 30.546875 L 10.507812 30.683594 C 11.449219 31.671875 12.46875 32.601562 13.542969 33.445312 L 13.621094 33.503906 C 13.652344 33.527344 13.660156 33.574219 13.632812 33.609375 C 13.625 33.621094 13.546875 33.71875 13.484375 33.769531 C 13.386719 33.847656 13.285156 33.878906 13.195312 33.878906 " fill-opacity="1" fill-rule="nonzero"/><path fill="#000000" d="M 12.0625 31.671875 C 12.023438 31.671875 11.992188 31.644531 11.988281 31.605469 C 11.984375 31.5625 12.015625 31.527344 12.054688 31.523438 L 12.75 31.460938 C 12.792969 31.457031 12.828125 31.488281 12.832031 31.53125 C 12.835938 31.570312 12.804688 31.609375 12.765625 31.613281 L 12.070312 31.671875 C 12.066406 31.671875 12.066406 31.671875 12.0625 31.671875 " fill-opacity="1" fill-rule="nonzero"/><path fill="#000000" d="M 12.398438 32.160156 C 12.363281 32.160156 12.332031 32.132812 12.324219 32.097656 C 12.316406 32.054688 12.347656 32.019531 12.386719 32.011719 L 13.058594 31.894531 C 13.097656 31.890625 13.136719 31.917969 13.144531 31.957031 C 13.152344 32 13.125 32.039062 13.082031 32.042969 L 12.414062 32.160156 C 12.40625 32.160156 12.402344 32.160156 12.398438 32.160156 " fill-opacity="1" fill-rule="nonzero"/><path fill="#000000" d="M 25.367188 22.996094 C 25.929688 22.996094 26.464844 23.257812 26.789062 23.71875 C 27.019531 24.042969 27.160156 24.484375 26.988281 25.050781 C 26.730469 25.898438 26.402344 26.488281 21.554688 27.433594 C 17.304688 28.257812 14.140625 29.867188 13.429688 30.25 C 13.324219 30.308594 13.203125 30.320312 13.089844 30.285156 C 12.734375 30.175781 11.980469 29.871094 11.886719 29.226562 C 11.867188 29.082031 11.929688 28.9375 12.046875 28.855469 L 12.925781 28.21875 L 12.09375 27.773438 C 11.144531 27.269531 10.394531 26.433594 10.050781 25.414062 C 9.746094 24.5 9.59375 22.933594 9.59375 22.933594 L 25.367188 22.996094 " fill-opacity="1" fill-rule="nonzero"/><path fill="#ffffff" d="M 31.695312 42.132812 L 28.089844 27.175781 L 24.484375 42.132812 L 23.621094 42.132812 L 27.582031 25.578125 L 28.597656 25.578125 L 32.558594 42.132812 L 31.695312 42.132812 " fill-opacity="1" fill-rule="nonzero"/><path fill="#000000" d="M 31.753906 42.054688 L 32.464844 42.054688 L 28.539062 25.652344 L 27.640625 25.652344 L 23.714844 42.054688 L 24.425781 42.054688 L 28.089844 26.855469 Z M 32.65625 42.207031 L 31.636719 42.207031 L 31.621094 42.148438 L 28.089844 27.5 L 24.542969 42.207031 L 23.523438 42.207031 L 27.523438 25.503906 L 28.65625 25.5 L 28.671875 25.558594 L 32.65625 42.207031 " fill-opacity="1" fill-rule="nonzero"/><path fill="#ffffff" d="M 22.660156 38.859375 C 22.714844 39.382812 22.667969 39.914062 22.519531 40.421875 L 24.59375 40.398438 C 24.121094 40.132812 23.804688 39.664062 23.730469 39.125 L 23.675781 38.71875 L 22.660156 38.859375 " fill-opacity="1" fill-rule="nonzero"/><path fill="#000000" d="M 22.742188 38.921875 C 22.785156 39.402344 22.742188 39.878906 22.617188 40.34375 L 24.347656 40.324219 C 23.972656 40.039062 23.71875 39.609375 23.65625 39.136719 L 23.613281 38.804688 Z M 22.519531 40.496094 C 22.496094 40.496094 22.472656 40.484375 22.457031 40.464844 C 22.445312 40.445312 22.441406 40.421875 22.445312 40.398438 C 22.59375 39.898438 22.640625 39.382812 22.585938 38.867188 C 22.578125 38.824219 22.609375 38.789062 22.648438 38.785156 L 23.667969 38.644531 C 23.6875 38.640625 23.707031 38.644531 23.722656 38.65625 C 23.738281 38.671875 23.75 38.6875 23.75 38.707031 L 23.804688 39.117188 C 23.875 39.625 24.183594 40.082031 24.628906 40.332031 C 24.660156 40.347656 24.675781 40.382812 24.667969 40.417969 C 24.660156 40.449219 24.628906 40.472656 24.59375 40.472656 L 22.519531 40.496094 " fill-opacity="1" fill-rule="nonzero"/><path fill="#8875a4" d="M 22.5 39.875 C 22.433594 40.128906 22.296875 40.84375 22.242188 41.277344 C 22.210938 41.546875 22.386719 41.796875 22.648438 41.859375 C 23.394531 42.046875 25.167969 42 26.648438 42.035156 C 26.75 42.035156 26.933594 41.984375 27.011719 41.738281 C 27.28125 40.902344 25.683594 40.683594 24.117188 39.855469 C 24.117188 39.855469 24.027344 39.929688 23.890625 40.003906 C 23.667969 40.125 23.296875 40.113281 23.074219 39.988281 L 22.714844 39.785156 C 22.632812 39.734375 22.523438 39.78125 22.5 39.875 " fill-opacity="1" fill-rule="nonzero"/><path fill="#000000" d="M 22.5 39.875 Z M 22.644531 39.839844 C 22.632812 39.839844 22.625 39.84375 22.613281 39.847656 C 22.59375 39.855469 22.578125 39.871094 22.570312 39.894531 C 22.503906 40.152344 22.371094 40.871094 22.316406 41.285156 C 22.289062 41.515625 22.441406 41.730469 22.667969 41.789062 C 23.214844 41.921875 24.363281 41.933594 25.476562 41.941406 C 25.867188 41.945312 26.269531 41.949219 26.648438 41.957031 C 26.683594 41.960938 26.867188 41.953125 26.941406 41.714844 C 27.097656 41.230469 26.523438 40.96875 25.5 40.554688 C 25.078125 40.386719 24.601562 40.191406 24.125 39.941406 C 24.082031 39.972656 24.015625 40.023438 23.925781 40.070312 C 23.683594 40.199219 23.285156 40.195312 23.035156 40.050781 L 22.679688 39.851562 C 22.667969 39.84375 22.65625 39.839844 22.644531 39.839844 Z M 26.65625 42.109375 C 26.652344 42.109375 26.648438 42.109375 26.644531 42.109375 C 26.269531 42.101562 25.863281 42.097656 25.476562 42.09375 C 24.304688 42.082031 23.195312 42.074219 22.632812 41.933594 C 22.328125 41.859375 22.128906 41.574219 22.167969 41.265625 C 22.222656 40.835938 22.359375 40.121094 22.425781 39.855469 C 22.445312 39.789062 22.492188 39.734375 22.554688 39.707031 C 22.621094 39.679688 22.691406 39.683594 22.753906 39.71875 L 23.109375 39.921875 C 23.316406 40.039062 23.65625 40.042969 23.855469 39.9375 C 23.980469 39.867188 24.066406 39.796875 24.066406 39.796875 L 24.105469 39.761719 L 24.152344 39.785156 C 24.636719 40.042969 25.125 40.242188 25.558594 40.417969 C 26.527344 40.808594 27.289062 41.117188 27.085938 41.761719 C 27.003906 42.019531 26.804688 42.109375 26.65625 42.109375 " fill-opacity="1" fill-rule="nonzero"/><path fill="#ffffff" d="M 22.203125 41.46875 C 22.203125 41.476562 22.199219 41.484375 22.199219 41.484375 C 22.167969 41.753906 22.425781 41.914062 22.675781 42.023438 C 23.429688 42.355469 26.480469 42.085938 26.480469 42.085938 C 26.480469 42.085938 26.890625 42.089844 26.996094 41.84375 C 27.011719 41.808594 27.019531 41.753906 27.023438 41.707031 C 27.027344 41.660156 27.023438 41.613281 27.011719 41.566406 L 26.984375 41.457031 C 26.570312 41.621094 24.699219 41.746094 23.34375 41.578125 C 22.777344 41.507812 22.445312 41.261719 22.257812 41.167969 C 22.257812 41.167969 22.230469 41.316406 22.203125 41.46875 " fill-opacity="1" fill-rule="nonzero"/><path fill="#000000" d="M 22.277344 41.484375 L 22.273438 41.496094 C 22.253906 41.671875 22.386719 41.816406 22.707031 41.957031 C 23.433594 42.277344 26.441406 42.011719 26.472656 42.007812 C 26.476562 42.007812 26.476562 42.007812 26.480469 42.007812 C 26.582031 42.011719 26.855469 41.976562 26.929688 41.8125 C 26.9375 41.792969 26.945312 41.75 26.949219 41.703125 C 26.953125 41.664062 26.949219 41.625 26.9375 41.585938 L 26.929688 41.554688 C 26.386719 41.707031 24.625 41.8125 23.335938 41.652344 C 22.859375 41.59375 22.550781 41.417969 22.34375 41.300781 C 22.332031 41.296875 22.324219 41.289062 22.3125 41.285156 C 22.300781 41.339844 22.289062 41.410156 22.277344 41.484375 Z M 24.238281 42.265625 C 23.574219 42.265625 22.941406 42.226562 22.644531 42.09375 C 22.402344 41.988281 22.082031 41.804688 22.125 41.476562 C 22.125 41.472656 22.125 41.46875 22.128906 41.457031 C 22.15625 41.304688 22.183594 41.15625 22.183594 41.15625 C 22.1875 41.132812 22.199219 41.113281 22.222656 41.101562 C 22.242188 41.089844 22.269531 41.089844 22.289062 41.101562 C 22.328125 41.121094 22.371094 41.144531 22.417969 41.171875 C 22.613281 41.28125 22.90625 41.449219 23.355469 41.503906 C 24.695312 41.671875 26.550781 41.546875 26.957031 41.386719 C 26.976562 41.378906 27 41.378906 27.019531 41.390625 C 27.039062 41.398438 27.054688 41.417969 27.058594 41.4375 L 27.085938 41.546875 C 27.097656 41.605469 27.105469 41.660156 27.101562 41.714844 C 27.09375 41.78125 27.082031 41.835938 27.066406 41.875 C 26.945312 42.148438 26.53125 42.160156 26.484375 42.160156 C 26.382812 42.167969 25.265625 42.265625 24.238281 42.265625 " fill-opacity="1" fill-rule="nonzero"/><path fill="#000000" d="M 24.285156 40.621094 C 24.265625 40.621094 24.242188 40.609375 24.226562 40.589844 C 24.203125 40.558594 24.207031 40.511719 24.238281 40.484375 L 24.679688 40.136719 C 24.714844 40.113281 24.761719 40.117188 24.785156 40.148438 C 24.8125 40.183594 24.808594 40.230469 24.773438 40.257812 L 24.332031 40.601562 C 24.320312 40.613281 24.304688 40.621094 24.285156 40.621094 " fill-opacity="1" fill-rule="nonzero"/><path fill="#000000" d="M 24.886719 40.847656 C 24.863281 40.847656 24.84375 40.839844 24.828125 40.820312 C 24.800781 40.785156 24.808594 40.738281 24.839844 40.714844 L 25.226562 40.414062 C 25.257812 40.390625 25.308594 40.394531 25.332031 40.429688 C 25.359375 40.460938 25.351562 40.507812 25.320312 40.535156 L 24.933594 40.832031 C 24.917969 40.84375 24.902344 40.847656 24.886719 40.847656 " fill-opacity="1" fill-rule="nonzero"/><path fill="#000000" d="M 19.894531 26.765625 C 19.894531 26.765625 21.59375 27.125 22.492188 28.257812 C 23.371094 29.367188 23.691406 30.929688 24.097656 38.585938 C 24.113281 38.898438 23.910156 39.171875 23.617188 39.238281 C 23.199219 39.328125 22.625 39.390625 22.273438 39.179688 C 21.671875 38.820312 21.394531 32.222656 20.046875 31.089844 C 18.695312 29.957031 12.054688 28.3125 10.953125 26.867188 C 9.855469 25.425781 12.554688 25.425781 12.554688 25.425781 L 19.894531 26.765625 " fill-opacity="1" fill-rule="nonzero"/><path fill="#cbacf9" d="M 14.375 29.941406 C 14.347656 29.941406 14.320312 29.925781 14.308594 29.902344 C 14.289062 29.863281 14.304688 29.816406 14.339844 29.800781 C 14.660156 29.640625 14.96875 29.476562 15.269531 29.320312 C 16.585938 28.625 17.832031 27.964844 20.136719 27.5625 C 20.179688 27.558594 20.21875 27.585938 20.226562 27.625 C 20.234375 27.667969 20.207031 27.707031 20.164062 27.710938 C 17.878906 28.109375 16.648438 28.761719 15.339844 29.453125 C 15.039062 29.613281 14.730469 29.773438 14.410156 29.933594 C 14.398438 29.941406 14.386719 29.941406 14.375 29.941406 " fill-opacity="1" fill-rule="nonzero"/><path fill="#8875a4" d="M 21.929688 17.351562 L 22.921875 17.351562 L 22.433594 20.722656 L 21.46875 20.722656 L 20.976562 17.351562 L 21.929688 17.351562 " fill-opacity="1" fill-rule="nonzero"/><path fill="#ffffff" d="M 7.324219 16.253906 C 7.589844 15.671875 8.289062 15.296875 8.835938 15.085938 C 9.214844 14.9375 9.613281 14.859375 10.015625 14.84375 L 11.449219 14.785156 C 11.988281 14.746094 12.625 14.773438 13.320312 14.894531 C 14.242188 15.058594 15.070312 15.5625 15.660156 16.292969 C 15.925781 16.621094 16.160156 16.90625 16.179688 16.914062 C 16.953125 18 17.109375 18.542969 17.667969 18.945312 C 18.601562 19.621094 20.234375 19.070312 20.234375 19.070312 C 20.777344 18.988281 20.976562 19.394531 21.074219 19.621094 C 21.195312 19.894531 21.078125 20.222656 20.972656 20.4375 C 20.90625 20.574219 20.792969 20.679688 20.652344 20.734375 C 19.953125 21.019531 17.570312 21.910156 16.476562 21.292969 C 15.566406 20.777344 14.953125 19.699219 14.464844 19.171875 C 14.417969 19.117188 14.328125 19.15625 14.335938 19.230469 C 14.4375 20.417969 15.417969 21.828125 15.714844 22.234375 C 15.769531 22.304688 15.851562 22.351562 15.9375 22.363281 L 18.09375 22.609375 C 18.125 22.609375 18.15625 22.621094 18.191406 22.640625 C 18.332031 22.714844 18.421875 22.859375 18.445312 23.015625 C 18.476562 23.269531 18.457031 23.746094 18.378906 23.898438 L 18.304688 24.046875 C 18.246094 24.164062 18.125 24.238281 17.992188 24.238281 C 16.847656 24.257812 12.007812 24.285156 10.632812 24.203125 C 9.351562 24.125 8.484375 23.613281 7.796875 21.824219 C 7.527344 21.113281 6.621094 17.800781 7.324219 16.253906 " fill-opacity="1" fill-rule="nonzero"/><path fill="#000000" d="M 11.921875 14.84375 C 11.761719 14.84375 11.605469 14.851562 11.453125 14.859375 L 10.019531 14.917969 C 9.617188 14.933594 9.226562 15.011719 8.863281 15.15625 C 8.332031 15.363281 7.648438 15.726562 7.394531 16.285156 C 6.71875 17.769531 7.570312 21.011719 7.867188 21.796875 C 8.574219 23.640625 9.453125 24.054688 10.636719 24.125 C 12.039062 24.210938 16.945312 24.179688 17.992188 24.164062 C 18.097656 24.164062 18.191406 24.105469 18.238281 24.011719 L 18.3125 23.867188 C 18.378906 23.730469 18.402344 23.273438 18.371094 23.027344 C 18.351562 22.886719 18.269531 22.769531 18.152344 22.707031 C 18.121094 22.6875 18.101562 22.683594 18.089844 22.683594 L 15.929688 22.4375 C 15.820312 22.425781 15.71875 22.367188 15.65625 22.277344 C 15.355469 21.867188 14.363281 20.441406 14.257812 19.234375 C 14.253906 19.167969 14.289062 19.109375 14.347656 19.082031 C 14.410156 19.054688 14.476562 19.070312 14.519531 19.117188 C 14.664062 19.273438 14.820312 19.476562 14.980469 19.691406 C 15.382812 20.214844 15.878906 20.867188 16.511719 21.226562 C 17.574219 21.828125 19.925781 20.949219 20.625 20.664062 C 20.746094 20.617188 20.847656 20.523438 20.90625 20.402344 C 21.011719 20.191406 21.113281 19.890625 21.007812 19.652344 C 20.878906 19.367188 20.691406 19.082031 20.253906 19.144531 C 20.121094 19.1875 18.554688 19.683594 17.621094 19.007812 C 17.257812 18.742188 17.0625 18.425781 16.769531 17.949219 C 16.605469 17.6875 16.402344 17.359375 16.125 16.964844 C 16.078125 16.921875 15.964844 16.792969 15.601562 16.339844 C 15.015625 15.613281 14.199219 15.128906 13.304688 14.96875 C 12.839844 14.886719 12.371094 14.84375 11.921875 14.84375 Z M 14.648438 24.335938 C 13.050781 24.335938 11.363281 24.320312 10.628906 24.277344 C 9.417969 24.203125 8.460938 23.765625 7.726562 21.851562 C 7.511719 21.289062 6.511719 17.863281 7.257812 16.222656 L 7.324219 16.253906 L 7.257812 16.222656 C 7.53125 15.617188 8.25 15.234375 8.808594 15.015625 C 9.1875 14.867188 9.59375 14.78125 10.015625 14.765625 L 11.445312 14.710938 C 12.03125 14.667969 12.6875 14.707031 13.332031 14.820312 C 14.261719 14.988281 15.109375 15.492188 15.71875 16.246094 C 16.085938 16.703125 16.1875 16.816406 16.214844 16.847656 L 16.226562 16.847656 L 16.242188 16.871094 C 16.527344 17.269531 16.730469 17.601562 16.898438 17.871094 C 17.183594 18.332031 17.371094 18.636719 17.710938 18.886719 C 18.601562 19.53125 20.195312 19.003906 20.210938 19 L 20.222656 18.996094 C 20.84375 18.902344 21.0625 19.402344 21.144531 19.589844 C 21.273438 19.886719 21.160156 20.230469 21.042969 20.46875 C 20.964844 20.621094 20.839844 20.742188 20.679688 20.804688 C 19.96875 21.09375 17.558594 21.992188 16.4375 21.355469 C 15.777344 20.980469 15.269531 20.316406 14.863281 19.78125 C 14.699219 19.570312 14.546875 19.371094 14.410156 19.222656 C 14.511719 20.390625 15.480469 21.789062 15.777344 22.1875 C 15.816406 22.242188 15.878906 22.28125 15.949219 22.285156 L 18.105469 22.53125 C 18.140625 22.535156 18.179688 22.546875 18.226562 22.574219 C 18.382812 22.65625 18.492188 22.820312 18.519531 23.007812 C 18.550781 23.257812 18.535156 23.757812 18.445312 23.933594 L 18.371094 24.078125 C 18.300781 24.222656 18.15625 24.3125 17.996094 24.316406 C 17.496094 24.324219 16.109375 24.335938 14.648438 24.335938 " fill-opacity="1" fill-rule="nonzero"/><path fill="#8875a4" d="M 18.9375 24.1875 L 21.441406 24.1875 C 21.441406 23.761719 21.097656 23.417969 20.671875 23.417969 L 19.707031 23.417969 C 19.28125 23.417969 18.9375 23.761719 18.9375 24.1875 " fill-opacity="1" fill-rule="nonzero"/><path fill="#ffffff" d="M 17.855469 23.117188 C 17.898438 23.03125 17.972656 22.960938 18.066406 22.929688 C 18.128906 22.90625 18.195312 22.875 18.257812 22.84375 L 19.109375 22.390625 C 19.265625 22.3125 19.496094 22.496094 19.660156 22.550781 C 20.160156 22.714844 21.195312 23.097656 21.109375 23.460938 C 21.019531 23.851562 20.128906 23.667969 19.8125 23.589844 C 19.742188 23.570312 19.089844 23.808594 18.882812 23.824219 C 18.597656 23.84375 18.53125 23.773438 18.390625 23.699219 C 18.328125 23.664062 18.257812 23.652344 18.179688 23.648438 C 18.0625 23.648438 17.949219 23.601562 17.875 23.507812 C 17.792969 23.40625 17.777344 23.265625 17.839844 23.148438 L 17.855469 23.117188 " fill-opacity="1" fill-rule="nonzero"/><path fill="#000000" d="M 17.921875 23.152344 L 17.90625 23.183594 C 17.859375 23.273438 17.871094 23.382812 17.933594 23.460938 C 17.992188 23.53125 18.082031 23.574219 18.179688 23.574219 C 18.269531 23.574219 18.355469 23.59375 18.425781 23.632812 C 18.449219 23.644531 18.46875 23.65625 18.488281 23.667969 C 18.585938 23.722656 18.660156 23.765625 18.875 23.746094 C 18.976562 23.742188 19.210938 23.671875 19.398438 23.613281 C 19.699219 23.523438 19.785156 23.503906 19.832031 23.515625 C 20.359375 23.648438 20.777344 23.664062 20.949219 23.558594 C 20.996094 23.527344 21.027344 23.492188 21.035156 23.445312 C 21.085938 23.238281 20.535156 22.914062 19.636719 22.621094 C 19.582031 22.601562 19.527344 22.574219 19.464844 22.542969 C 19.351562 22.488281 19.21875 22.421875 19.140625 22.460938 L 18.292969 22.910156 C 18.214844 22.949219 18.152344 22.980469 18.089844 23 C 18.019531 23.027344 17.957031 23.082031 17.921875 23.152344 Z M 18.789062 23.902344 C 18.597656 23.902344 18.507812 23.851562 18.414062 23.800781 C 18.394531 23.789062 18.375 23.777344 18.355469 23.765625 C 18.304688 23.738281 18.246094 23.726562 18.179688 23.726562 C 18.035156 23.726562 17.902344 23.664062 17.816406 23.554688 C 17.714844 23.429688 17.699219 23.257812 17.769531 23.117188 L 17.789062 23.082031 C 17.84375 22.976562 17.929688 22.898438 18.039062 22.859375 C 18.09375 22.839844 18.152344 22.8125 18.222656 22.777344 L 19.074219 22.324219 C 19.21875 22.253906 19.386719 22.335938 19.535156 22.410156 C 19.589844 22.4375 19.640625 22.464844 19.683594 22.476562 C 20.417969 22.71875 21.277344 23.089844 21.183594 23.480469 C 21.164062 23.566406 21.109375 23.636719 21.027344 23.6875 C 20.742188 23.859375 20.140625 23.746094 19.800781 23.664062 C 19.757812 23.664062 19.582031 23.71875 19.441406 23.757812 C 19.226562 23.824219 19.003906 23.890625 18.886719 23.898438 C 18.851562 23.902344 18.816406 23.902344 18.789062 23.902344 " fill-opacity="1" fill-rule="nonzero"/><path fill="#ffffff" d="M 22.679688 18.5 C 22.304688 18.503906 22.171875 18.25 21.933594 18.347656 C 21.726562 18.433594 21.125 19.097656 20.488281 19.230469 C 20.292969 19.269531 20.148438 19.429688 20.125 19.621094 C 20.109375 19.734375 20.109375 19.855469 20.144531 19.953125 C 20.230469 20.210938 20.257812 20.570312 21.328125 19.960938 C 21.328125 19.960938 21.519531 19.816406 22.046875 19.511719 C 22.046875 19.511719 22.113281 21.136719 23.160156 19.699219 C 23.351562 19.441406 23.414062 18.492188 22.679688 18.5 " fill-opacity="1" fill-rule="nonzero"/><path fill="#000000" d="M 22.042969 18.402344 C 22.015625 18.402344 21.992188 18.40625 21.960938 18.417969 C 21.90625 18.441406 21.800781 18.527344 21.675781 18.628906 C 21.386719 18.859375 20.953125 19.207031 20.503906 19.304688 C 20.34375 19.335938 20.21875 19.46875 20.199219 19.632812 C 20.183594 19.753906 20.1875 19.855469 20.214844 19.925781 C 20.21875 19.945312 20.226562 19.960938 20.230469 19.980469 C 20.269531 20.097656 20.300781 20.175781 20.378906 20.203125 C 20.523438 20.261719 20.828125 20.160156 21.289062 19.898438 C 21.320312 19.875 21.519531 19.726562 22.007812 19.445312 C 22.03125 19.433594 22.058594 19.433594 22.082031 19.445312 C 22.105469 19.460938 22.121094 19.484375 22.121094 19.507812 C 22.128906 19.671875 22.191406 20.148438 22.398438 20.210938 C 22.488281 20.238281 22.699219 20.203125 23.101562 19.65625 C 23.210938 19.507812 23.269531 19.097656 23.132812 18.828125 C 23.042969 18.660156 22.894531 18.574219 22.683594 18.578125 C 22.679688 18.578125 22.675781 18.578125 22.671875 18.578125 C 22.480469 18.578125 22.34375 18.515625 22.238281 18.464844 C 22.15625 18.425781 22.097656 18.402344 22.042969 18.402344 Z M 20.46875 20.371094 C 20.414062 20.371094 20.367188 20.363281 20.324219 20.34375 C 20.171875 20.285156 20.125 20.140625 20.089844 20.027344 C 20.082031 20.011719 20.078125 19.992188 20.070312 19.976562 C 20.039062 19.882812 20.03125 19.757812 20.050781 19.613281 C 20.078125 19.386719 20.25 19.203125 20.472656 19.15625 C 20.886719 19.066406 21.304688 18.734375 21.582031 18.511719 C 21.726562 18.394531 21.828125 18.308594 21.90625 18.277344 C 22.058594 18.214844 22.183594 18.273438 22.300781 18.328125 C 22.40625 18.375 22.515625 18.429688 22.679688 18.425781 C 23.023438 18.421875 23.1875 18.605469 23.265625 18.757812 C 23.4375 19.09375 23.355469 19.566406 23.222656 19.746094 C 22.871094 20.226562 22.585938 20.425781 22.355469 20.355469 C 22.085938 20.273438 22.003906 19.855469 21.980469 19.636719 C 21.542969 19.890625 21.378906 20.019531 21.375 20.023438 C 21.375 20.023438 21.371094 20.027344 21.367188 20.027344 C 20.957031 20.261719 20.671875 20.371094 20.46875 20.371094 " fill-opacity="1" fill-rule="nonzero"/><path fill="#000000" d="M 15.019531 22.359375 C 15.015625 22.359375 15.015625 22.359375 15.011719 22.359375 C 14.882812 22.339844 14.734375 22.328125 14.5625 22.308594 C 13.070312 22.160156 10.292969 21.882812 9.324219 18.9375 C 9.3125 18.898438 9.335938 18.855469 9.375 18.84375 C 9.414062 18.832031 9.457031 18.851562 9.46875 18.890625 C 10.402344 21.742188 13.121094 22.011719 14.578125 22.160156 C 14.75 22.175781 14.902344 22.191406 15.03125 22.210938 C 15.070312 22.214844 15.101562 22.253906 15.09375 22.292969 C 15.089844 22.332031 15.058594 22.359375 15.019531 22.359375 " fill-opacity="1" fill-rule="nonzero"/><path fill="#8875a4" d="M 21.523438 17.410156 C 21.488281 17.410156 21.460938 17.390625 21.449219 17.355469 L 20.972656 15.695312 L 20.132812 15.265625 C 20.097656 15.246094 20.082031 15.199219 20.101562 15.164062 C 20.121094 15.125 20.164062 15.109375 20.203125 15.128906 L 21.070312 15.574219 C 21.089844 15.585938 21.101562 15.601562 21.109375 15.621094 L 21.59375 17.3125 C 21.605469 17.355469 21.582031 17.394531 21.542969 17.40625 C 21.535156 17.410156 21.527344 17.410156 21.523438 17.410156 " fill-opacity="1" fill-rule="nonzero"/><path fill="#8875a4" d="M 22.921875 17.351562 L 22.703125 18.871094 C 22.699219 18.875 22.699219 18.878906 22.695312 18.882812 C 22.667969 18.980469 22.550781 19.058594 22.480469 19.128906 C 22.386719 19.21875 22.292969 19.3125 22.207031 19.410156 C 22.125 19.5 22.03125 19.609375 21.992188 19.726562 C 21.957031 19.804688 21.957031 19.890625 21.988281 19.964844 C 21.996094 20.011719 22.015625 20.054688 22.046875 20.097656 C 22.121094 20.265625 22.296875 20.390625 22.476562 20.40625 L 22.433594 20.722656 L 21.46875 20.722656 L 20.976562 17.351562 L 22.921875 17.351562 " fill-opacity="1" fill-rule="nonzero"/><path fill="#ffffff" d="M 20.441406 19.246094 C 20.441406 19.246094 21.140625 19.066406 21.328125 18.628906 C 21.546875 18.105469 22.027344 18.371094 21.972656 18.738281 C 21.914062 19.117188 21.78125 19.210938 21.558594 19.367188 C 21.335938 19.519531 21.246094 19.511719 21.246094 19.511719 L 20.441406 19.246094 " fill-opacity="1" fill-rule="nonzero"/><path fill="#000000" d="M 21.160156 19.640625 C 21.128906 19.640625 21.097656 19.617188 21.089844 19.585938 C 21.078125 19.546875 21.101562 19.503906 21.144531 19.492188 C 21.144531 19.492188 21.308594 19.449219 21.515625 19.304688 C 21.734375 19.152344 21.84375 19.074219 21.894531 18.726562 C 21.917969 18.570312 21.824219 18.449219 21.71875 18.417969 C 21.59375 18.382812 21.472656 18.472656 21.394531 18.65625 C 21.199219 19.125 20.488281 19.3125 20.457031 19.320312 C 20.417969 19.332031 20.378906 19.304688 20.367188 19.265625 C 20.355469 19.226562 20.378906 19.183594 20.421875 19.175781 C 20.425781 19.171875 21.089844 19 21.257812 18.597656 C 21.386719 18.289062 21.601562 18.230469 21.757812 18.273438 C 21.957031 18.328125 22.078125 18.53125 22.046875 18.75 C 21.980469 19.160156 21.828125 19.265625 21.601562 19.429688 C 21.371094 19.589844 21.1875 19.636719 21.179688 19.640625 C 21.175781 19.640625 21.167969 19.640625 21.160156 19.640625 " fill-opacity="1" fill-rule="nonzero"/><path fill="#000000" d="M 22.066406 19.828125 C 22.03125 19.828125 22 19.800781 21.992188 19.765625 C 21.914062 19.347656 22.449219 19.035156 22.46875 19.019531 C 22.507812 19 22.550781 19.011719 22.574219 19.046875 C 22.59375 19.085938 22.582031 19.128906 22.546875 19.152344 C 22.542969 19.152344 22.082031 19.425781 22.140625 19.738281 C 22.148438 19.777344 22.121094 19.816406 22.082031 19.824219 C 22.078125 19.828125 22.074219 19.828125 22.066406 19.828125 " fill-opacity="1" fill-rule="nonzero"/><path fill="#ffffff" d="M 10.066406 15.21875 L 9.867188 13.300781 L 11.523438 13.851562 L 11.667969 14.976562 C 11.699219 15.277344 11.472656 15.484375 11.472656 15.484375 C 11.191406 15.765625 10.746094 15.789062 10.390625 15.613281 L 10.308594 15.574219 C 10.171875 15.507812 10.082031 15.371094 10.066406 15.21875 " fill-opacity="1" fill-rule="nonzero"/><path fill="#000000" d="M 9.953125 13.410156 L 10.140625 15.210938 C 10.152344 15.339844 10.230469 15.449219 10.34375 15.507812 L 10.425781 15.546875 C 10.773438 15.71875 11.179688 15.671875 11.417969 15.429688 C 11.421875 15.425781 11.621094 15.242188 11.589844 14.984375 L 11.453125 13.910156 Z M 10.863281 15.800781 C 10.695312 15.800781 10.523438 15.761719 10.359375 15.683594 L 10.277344 15.640625 C 10.117188 15.5625 10.007812 15.40625 9.988281 15.226562 L 9.792969 13.308594 C 9.789062 13.285156 9.800781 13.257812 9.820312 13.242188 C 9.839844 13.226562 9.867188 13.222656 9.890625 13.230469 L 11.546875 13.78125 C 11.574219 13.789062 11.59375 13.8125 11.597656 13.84375 L 11.742188 14.964844 C 11.777344 15.304688 11.53125 15.53125 11.523438 15.539062 C 11.351562 15.710938 11.113281 15.800781 10.863281 15.800781 " fill-opacity="1" fill-rule="nonzero"/><path fill="#000000" d="M 11.675781 10.539062 C 11.261719 10.578125 11.84375 10.921875 10.257812 10.710938 C 9.628906 10.625 10.039062 11.285156 9.875 11.265625 C 9.269531 11.1875 9.292969 11.1875 9.019531 11.304688 C 8.839844 11.382812 8.769531 11.746094 8.84375 12 C 8.941406 12.332031 9.238281 12.378906 9.59375 13.0625 C 9.84375 13.539062 9.847656 13.851562 10.0625 13.894531 C 10.277344 13.941406 10.386719 13.640625 10.625 13.671875 C 10.9375 13.710938 10.953125 14.234375 11.277344 14.402344 C 11.480469 14.511719 11.914062 14.507812 12.542969 14.074219 C 12.644531 14 12.683594 13.867188 12.632812 13.753906 C 12.570312 13.609375 12.484375 13.425781 12.390625 13.253906 C 11.945312 12.449219 11.613281 12.304688 11.691406 12.066406 C 11.808594 11.699219 12.476562 11.796875 12.542969 11.503906 C 12.609375 11.195312 12.242188 10.488281 11.675781 10.539062 " fill-opacity="1" fill-rule="nonzero"/><path fill="#ffffff" d="M 10.464844 12.230469 L 10.617188 12.429688 C 10.6875 12.527344 10.75 12.625 10.808594 12.730469 C 10.914062 12.925781 11.101562 13.257812 11.222656 13.4375 C 11.394531 13.699219 12.246094 13.214844 12.246094 13.214844 L 12.273438 13.035156 L 12.371094 12.972656 C 12.390625 12.964844 12.40625 12.949219 12.417969 12.929688 C 12.445312 12.878906 12.4375 12.824219 12.402344 12.785156 C 12.210938 12.578125 11.804688 12.109375 11.617188 11.660156 C 11.617188 11.660156 10.921875 11.589844 10.464844 12.230469 " fill-opacity="1" fill-rule="nonzero"/><path fill="#000000" d="M 10.558594 12.230469 L 10.675781 12.386719 C 10.75 12.484375 10.816406 12.585938 10.875 12.691406 C 10.976562 12.878906 11.167969 13.214844 11.285156 13.394531 C 11.375 13.527344 11.855469 13.34375 12.175781 13.167969 L 12.199219 13.023438 C 12.203125 13 12.214844 12.980469 12.234375 12.96875 L 12.332031 12.910156 C 12.339844 12.90625 12.347656 12.898438 12.351562 12.890625 C 12.363281 12.875 12.359375 12.851562 12.347656 12.835938 C 12.136719 12.609375 11.761719 12.167969 11.566406 11.730469 C 11.417969 11.730469 10.925781 11.757812 10.558594 12.230469 Z M 11.414062 13.589844 C 11.304688 13.589844 11.210938 13.558594 11.160156 13.476562 C 11.039062 13.296875 10.847656 12.953125 10.742188 12.765625 C 10.6875 12.664062 10.625 12.566406 10.554688 12.476562 L 10.40625 12.273438 C 10.386719 12.25 10.386719 12.210938 10.40625 12.1875 C 10.882812 11.515625 11.59375 11.582031 11.625 11.585938 C 11.652344 11.585938 11.675781 11.605469 11.6875 11.628906 C 11.875 12.074219 12.289062 12.550781 12.457031 12.734375 C 12.515625 12.796875 12.527344 12.890625 12.484375 12.964844 C 12.46875 12.996094 12.441406 13.019531 12.410156 13.039062 L 12.339844 13.078125 L 12.320312 13.226562 C 12.316406 13.25 12.300781 13.269531 12.28125 13.28125 C 12.167969 13.34375 11.722656 13.589844 11.414062 13.589844 " fill-opacity="1" fill-rule="nonzero"/><path fill="#ffffff" d="M 10.746094 12.96875 C 10.746094 12.96875 10.386719 12.484375 10.203125 12.699219 C 10.015625 12.910156 10.429688 13.433594 10.746094 12.96875 " fill-opacity="1" fill-rule="nonzero"/><path fill="#ffffff" d="M 12.292969 42.03125 L 8.6875 27.074219 L 5.082031 42.03125 L 4.21875 42.03125 L 8.179688 25.476562 L 9.195312 25.476562 L 13.15625 42.03125 L 12.292969 42.03125 " fill-opacity="1" fill-rule="nonzero"/><path fill="#000000" d="M 12.351562 41.957031 L 13.0625 41.957031 L 9.136719 25.550781 L 8.238281 25.550781 L 4.316406 41.957031 L 5.023438 41.957031 L 8.6875 26.753906 Z M 13.253906 42.105469 L 12.234375 42.105469 L 8.6875 27.394531 L 5.140625 42.105469 L 4.125 42.105469 L 8.121094 25.402344 L 9.257812 25.398438 L 13.253906 42.105469 " fill-opacity="1" fill-rule="nonzero"/><path fill="#ffffff" d="M 4.199219 25.6875 L 32.636719 25.6875 L 32.636719 24.335938 L 4.199219 24.335938 L 4.199219 25.6875 " fill-opacity="1" fill-rule="nonzero"/><path fill="#000000" d="M 4.277344 25.613281 L 32.5625 25.613281 L 32.5625 24.410156 L 4.277344 24.410156 Z M 32.714844 25.761719 L 4.125 25.761719 L 4.125 24.257812 L 32.714844 24.257812 L 32.714844 25.761719 " fill-opacity="1" fill-rule="nonzero"/><path fill="#000000" d="M 37.835938 22.226562 C 37.742188 22.226562 37.652344 22.28125 37.609375 22.371094 C 37.578125 22.429688 37.574219 22.5 37.597656 22.5625 C 37.621094 22.628906 37.664062 22.679688 37.726562 22.707031 C 37.851562 22.769531 38.003906 22.714844 38.066406 22.589844 C 38.09375 22.527344 38.097656 22.460938 38.074219 22.394531 C 38.054688 22.332031 38.007812 22.28125 37.945312 22.25 C 37.910156 22.234375 37.875 22.226562 37.835938 22.226562 Z M 37.835938 22.882812 C 37.777344 22.882812 37.71875 22.871094 37.660156 22.84375 C 37.5625 22.796875 37.492188 22.714844 37.453125 22.613281 C 37.417969 22.511719 37.425781 22.402344 37.472656 22.304688 C 37.570312 22.105469 37.8125 22.019531 38.011719 22.117188 C 38.109375 22.164062 38.183594 22.246094 38.21875 22.347656 C 38.253906 22.449219 38.246094 22.558594 38.199219 22.65625 C 38.132812 22.800781 37.988281 22.882812 37.835938 22.882812 " fill-opacity="1" fill-rule="nonzero"/><path fill="#000000" d="M 36.6875 20.949219 C 36.65625 20.949219 36.628906 20.929688 36.617188 20.898438 C 36.601562 20.859375 36.621094 20.816406 36.660156 20.800781 C 36.726562 20.78125 36.777344 20.734375 36.804688 20.671875 C 36.832031 20.613281 36.835938 20.546875 36.8125 20.480469 C 36.765625 20.351562 36.625 20.285156 36.492188 20.332031 C 36.429688 20.355469 36.378906 20.398438 36.351562 20.460938 C 36.324219 20.519531 36.320312 20.589844 36.34375 20.652344 C 36.355469 20.691406 36.335938 20.734375 36.296875 20.746094 C 36.257812 20.761719 36.214844 20.742188 36.199219 20.703125 C 36.164062 20.601562 36.167969 20.492188 36.214844 20.394531 C 36.261719 20.296875 36.339844 20.226562 36.441406 20.191406 C 36.652344 20.113281 36.878906 20.222656 36.957031 20.429688 C 36.992188 20.53125 36.984375 20.640625 36.941406 20.738281 C 36.894531 20.835938 36.8125 20.90625 36.714844 20.945312 C 36.703125 20.949219 36.695312 20.949219 36.6875 20.949219 " fill-opacity="1" fill-rule="nonzero"/><path fill="#000000" d="M 33.925781 21.605469 C 33.90625 21.605469 33.886719 21.597656 33.871094 21.582031 C 33.84375 21.550781 33.84375 21.503906 33.871094 21.476562 L 34.035156 21.316406 C 34.066406 21.285156 34.113281 21.285156 34.140625 21.316406 C 34.171875 21.34375 34.171875 21.394531 34.140625 21.421875 L 33.976562 21.582031 C 33.964844 21.597656 33.945312 21.605469 33.925781 21.605469 " fill-opacity="1" fill-rule="nonzero"/><path fill="#000000" d="M 33.140625 22.375 C 33.121094 22.375 33.101562 22.367188 33.089844 22.351562 C 33.058594 22.320312 33.058594 22.273438 33.089844 22.246094 L 33.253906 22.085938 C 33.28125 22.054688 33.332031 22.054688 33.359375 22.085938 C 33.386719 22.113281 33.386719 22.164062 33.359375 22.191406 L 33.195312 22.351562 C 33.179688 22.367188 33.160156 22.375 33.140625 22.375 " fill-opacity="1" fill-rule="nonzero"/><path fill="#000000" d="M 33.3125 21.597656 C 33.292969 21.597656 33.273438 21.589844 33.257812 21.574219 L 33.097656 21.410156 C 33.066406 21.378906 33.066406 21.332031 33.097656 21.300781 C 33.128906 21.273438 33.175781 21.273438 33.203125 21.304688 L 33.363281 21.46875 C 33.394531 21.5 33.394531 21.546875 33.363281 21.574219 C 33.347656 21.589844 33.332031 21.597656 33.3125 21.597656 " fill-opacity="1" fill-rule="nonzero"/><path fill="#000000" d="M 34.082031 22.386719 C 34.0625 22.386719 34.042969 22.378906 34.027344 22.363281 L 33.867188 22.199219 C 33.835938 22.167969 33.835938 22.121094 33.867188 22.09375 C 33.898438 22.0625 33.945312 22.0625 33.972656 22.09375 L 34.132812 22.257812 C 34.164062 22.289062 34.164062 22.335938 34.132812 22.363281 C 34.117188 22.378906 34.097656 22.386719 34.082031 22.386719 " fill-opacity="1" fill-rule="nonzero"/><path fill="#000000" d="M 8.039062 4.632812 C 7.980469 4.632812 7.925781 4.652344 7.875 4.6875 C 7.816406 4.730469 7.773438 4.792969 7.761719 4.867188 C 7.75 4.941406 7.765625 5.015625 7.808594 5.074219 C 7.898438 5.203125 8.074219 5.230469 8.199219 5.140625 C 8.261719 5.097656 8.300781 5.035156 8.3125 4.960938 C 8.328125 4.886719 8.308594 4.8125 8.265625 4.753906 C 8.210938 4.675781 8.125 4.632812 8.039062 4.632812 Z M 8.242188 5.203125 L 8.246094 5.203125 Z M 8.039062 5.34375 C 7.902344 5.34375 7.769531 5.28125 7.6875 5.164062 C 7.621094 5.070312 7.59375 4.957031 7.613281 4.84375 C 7.632812 4.730469 7.695312 4.628906 7.789062 4.5625 C 7.980469 4.425781 8.25 4.472656 8.390625 4.664062 C 8.457031 4.757812 8.480469 4.871094 8.460938 4.984375 C 8.445312 5.097656 8.382812 5.199219 8.289062 5.265625 C 8.210938 5.320312 8.125 5.34375 8.039062 5.34375 " fill-opacity="1" fill-rule="nonzero"/><path fill="#000000" d="M 4.382812 9.585938 C 4.371094 9.585938 4.363281 9.582031 4.351562 9.578125 C 4.3125 9.5625 4.296875 9.515625 4.3125 9.480469 C 4.996094 7.953125 5.988281 6.625 7.261719 5.539062 C 7.296875 5.511719 7.34375 5.515625 7.371094 5.546875 C 7.398438 5.578125 7.394531 5.628906 7.363281 5.652344 C 6.105469 6.726562 5.125 8.035156 4.453125 9.539062 C 4.4375 9.570312 4.410156 9.585938 4.382812 9.585938 " fill-opacity="1" fill-rule="nonzero"/><path fill="#000000" d="M 5.394531 9.566406 C 5.382812 9.566406 5.371094 9.5625 5.363281 9.558594 C 5.324219 9.539062 5.308594 9.496094 5.324219 9.457031 C 7.003906 5.933594 11.203125 3.449219 11.242188 3.421875 C 11.28125 3.402344 11.324219 3.414062 11.347656 3.449219 C 11.367188 3.484375 11.355469 3.53125 11.320312 3.554688 C 11.277344 3.578125 7.117188 6.042969 5.460938 9.519531 C 5.449219 9.546875 5.421875 9.566406 5.394531 9.566406 " fill-opacity="1" fill-rule="nonzero"/><path fill="#000000" d="M 9.5 2.523438 C 9.480469 2.523438 9.460938 2.519531 9.445312 2.503906 C 9.417969 2.472656 9.417969 2.425781 9.445312 2.394531 L 9.609375 2.234375 C 9.640625 2.207031 9.6875 2.207031 9.71875 2.238281 C 9.746094 2.265625 9.746094 2.3125 9.714844 2.34375 L 9.554688 2.503906 C 9.539062 2.519531 9.519531 2.523438 9.5 2.523438 " fill-opacity="1" fill-rule="nonzero"/><path fill="#000000" d="M 8.71875 3.292969 C 8.699219 3.292969 8.679688 3.289062 8.664062 3.273438 C 8.632812 3.242188 8.632812 3.195312 8.664062 3.164062 L 8.828125 3.003906 C 8.859375 2.976562 8.90625 2.976562 8.933594 3.003906 C 8.964844 3.035156 8.964844 3.082031 8.933594 3.113281 L 8.769531 3.273438 C 8.753906 3.289062 8.734375 3.292969 8.71875 3.292969 " fill-opacity="1" fill-rule="nonzero"/><path fill="#000000" d="M 8.886719 2.515625 C 8.867188 2.515625 8.847656 2.511719 8.832031 2.496094 L 8.671875 2.328125 C 8.640625 2.300781 8.644531 2.253906 8.671875 2.222656 C 8.703125 2.195312 8.75 2.195312 8.78125 2.222656 L 8.941406 2.390625 C 8.96875 2.417969 8.96875 2.46875 8.9375 2.496094 C 8.925781 2.511719 8.90625 2.515625 8.886719 2.515625 " fill-opacity="1" fill-rule="nonzero"/><path fill="#000000" d="M 9.65625 3.308594 C 9.636719 3.308594 9.617188 3.300781 9.601562 3.285156 L 9.441406 3.121094 C 9.410156 3.089844 9.410156 3.042969 9.441406 3.011719 C 9.472656 2.984375 9.519531 2.984375 9.546875 3.015625 L 9.710938 3.179688 C 9.738281 3.207031 9.738281 3.257812 9.707031 3.285156 C 9.691406 3.300781 9.675781 3.308594 9.65625 3.308594 " fill-opacity="1" fill-rule="nonzero"/><path fill="#8875a4" d="M 40.476562 36.957031 C 40.089844 36.269531 40.136719 35.945312 40.246094 35.777344 C 40.445312 35.476562 40.882812 35.601562 41.078125 35.277344 C 41.277344 34.945312 40.914062 34.640625 41.050781 34.214844 C 41.210938 33.707031 42 33.230469 42.507812 33.515625 C 42.941406 33.761719 43.058594 34.503906 42.800781 34.886719 C 42.511719 35.308594 41.878906 35.125 41.703125 35.519531 C 41.539062 35.882812 41.988281 36.226562 41.84375 36.5625 C 41.761719 36.757812 41.472656 36.972656 40.476562 36.957031 " fill-opacity="1" fill-rule="nonzero"/><path fill="#ffffff" d="M 40.402344 37.316406 C 40.394531 37.316406 40.386719 37.3125 40.378906 37.3125 C 40.339844 37.296875 40.316406 37.253906 40.332031 37.214844 C 41.042969 35.160156 41.976562 34.492188 42.015625 34.464844 C 42.050781 34.441406 42.097656 34.453125 42.121094 34.484375 C 42.144531 34.519531 42.136719 34.566406 42.101562 34.589844 C 42.09375 34.597656 41.167969 35.261719 40.472656 37.265625 C 40.464844 37.296875 40.433594 37.316406 40.402344 37.316406 " fill-opacity="1" fill-rule="nonzero"/><path fill="#8875a4" d="M 39.875 36.71875 C 39.871094 36.074219 40.058594 35.683594 40.226562 35.441406 C 40.535156 35.007812 40.878906 34.960938 40.996094 34.539062 C 41.109375 34.140625 40.847656 34.019531 40.933594 33.570312 C 41.039062 33.039062 41.449219 33 41.554688 32.558594 C 41.683594 32.023438 41.152344 31.753906 40.886719 31 C 40.542969 30.027344 41.113281 29.589844 40.984375 28.679688 C 40.773438 27.207031 38.910156 25.847656 38.113281 26.21875 C 37.359375 26.566406 37.304688 28.570312 37.914062 30.027344 C 38.558594 31.578125 39.5625 31.554688 39.707031 32.851562 C 39.808594 33.75 39.386719 34.273438 39.605469 35.652344 C 39.679688 36.117188 39.792969 36.488281 39.875 36.71875 " fill-opacity="1" fill-rule="nonzero"/><path fill="#8875a4" d="M 40.074219 37.34375 C 40.046875 37.34375 40.019531 37.328125 40.003906 37.300781 C 39.613281 36.449219 39.773438 35.519531 39.972656 34.339844 C 40.078125 33.726562 40.195312 33.027344 40.242188 32.257812 C 40.367188 30.125 38.582031 27.539062 38.5625 27.511719 C 38.539062 27.480469 38.546875 27.433594 38.582031 27.40625 C 38.617188 27.382812 38.664062 27.394531 38.6875 27.425781 C 38.761719 27.535156 40.523438 30.082031 40.390625 32.269531 C 40.34375 33.042969 40.226562 33.746094 40.121094 34.367188 C 39.925781 35.519531 39.769531 36.425781 40.140625 37.238281 C 40.160156 37.277344 40.144531 37.320312 40.105469 37.339844 C 40.09375 37.34375 40.085938 37.34375 40.074219 37.34375 " fill-opacity="1" fill-rule="nonzero"/><path fill="#8875a4" d="M 39.402344 36.878906 C 39.3125 36.46875 39.222656 35.863281 39.253906 35.132812 C 39.300781 33.945312 39.632812 33.4375 39.300781 32.996094 C 38.933594 32.507812 38.320312 32.832031 37.882812 32.25 C 37.585938 31.855469 37.734375 31.519531 37.328125 31.144531 C 37.25 31.074219 36.996094 30.847656 36.640625 30.820312 C 36.308594 30.796875 36.191406 30.964844 35.769531 31.109375 C 35 31.378906 34.660156 31.078125 34.378906 31.359375 C 34.128906 31.609375 34.078125 32.160156 34.316406 32.464844 C 34.765625 33.035156 35.949219 32.371094 36.394531 32.914062 C 36.773438 33.375 36.121094 34.117188 36.535156 34.636719 C 36.910156 35.101562 37.660156 34.769531 37.96875 35.257812 C 38.203125 35.632812 37.871094 35.996094 38.089844 36.386719 C 38.316406 36.792969 38.941406 36.871094 39.402344 36.878906 " fill-opacity="1" fill-rule="nonzero"/><path fill="#ffffff" d="M 39.6875 37.328125 C 39.667969 37.328125 39.652344 37.320312 39.640625 37.3125 C 39.242188 37.003906 39.109375 36.5 38.902344 35.738281 C 38.75 35.167969 38.558594 34.457031 38.1875 33.585938 C 37.367188 31.652344 35.121094 31.871094 35.097656 31.875 C 35.058594 31.878906 35.019531 31.851562 35.015625 31.808594 C 35.011719 31.765625 35.042969 31.730469 35.082031 31.726562 C 35.105469 31.722656 37.460938 31.488281 38.328125 33.527344 C 38.699219 34.40625 38.894531 35.125 39.046875 35.699219 C 39.246094 36.433594 39.375 36.917969 39.730469 37.191406 C 39.765625 37.21875 39.769531 37.265625 39.746094 37.296875 C 39.730469 37.316406 39.707031 37.328125 39.6875 37.328125 " fill-opacity="1" fill-rule="nonzero"/><path fill="#8875a4" d="M 38.257812 37.238281 C 38.320312 37.269531 41.625 37.238281 41.625 37.238281 L 41.214844 40.609375 C 41.203125 40.703125 41.183594 40.792969 41.148438 40.878906 C 40.988281 41.292969 40.585938 41.574219 40.128906 41.574219 C 39.617188 41.574219 39.171875 41.21875 39.058594 40.722656 L 38.257812 37.238281 " fill-opacity="1" fill-rule="nonzero"/></svg>