<svg xmlns="http://www.w3.org/2000/svg" xmlns:xlink="http://www.w3.org/1999/xlink" width="64" zoomAndPan="magnify" viewBox="0 0 48 44.249999" height="59" preserveAspectRatio="xMidYMid meet" version="1.0"><defs><clipPath id="56c1ee7333"><path d="M 37 29 L 47.597656 29 L 47.597656 37 L 37 37 Z M 37 29 " clip-rule="nonzero"/></clipPath><clipPath id="b42f801420"><path d="M 41 35 L 43 35 L 43 37.597656 L 41 37.597656 Z M 41 35 " clip-rule="nonzero"/></clipPath><clipPath id="6c15c96d6a"><path d="M 39 35 L 41 35 L 41 37.597656 L 39 37.597656 Z M 39 35 " clip-rule="nonzero"/></clipPath><clipPath id="95ff39c0f1"><path d="M 36 35 L 39 35 L 39 37.597656 L 36 37.597656 Z M 36 35 " clip-rule="nonzero"/></clipPath><clipPath id="b65093d7bd"><path d="M 15 24 L 47.597656 24 L 47.597656 27 L 15 27 Z M 15 24 " clip-rule="nonzero"/></clipPath><clipPath id="c9a9c08ebe"><path d="M 15 5.886719 L 47.597656 5.886719 L 47.597656 26 L 15 26 Z M 15 5.886719 " clip-rule="nonzero"/></clipPath><clipPath id="b71f3c8820"><path d="M 15 25 L 47.597656 25 L 47.597656 27 L 15 27 Z M 15 25 " clip-rule="nonzero"/></clipPath><clipPath id="62ef45788d"><path d="M 29 19.777344 L 30.851562 19.777344 L 30.851562 21.667969 L 29 21.667969 Z M 29 19.777344 " clip-rule="nonzero"/></clipPath><clipPath id="fb0d1fd639"><path d="M 28.957031 20.71875 C 28.957031 20.09375 29.273438 19.78125 29.902344 19.78125 C 30.527344 19.78125 30.84375 20.09375 30.84375 20.71875 C 30.84375 21.34375 30.527344 21.652344 29.902344 21.652344 C 29.273438 21.652344 28.957031 21.34375 28.957031 20.71875 Z M 28.957031 20.71875 " clip-rule="nonzero"/></clipPath><clipPath id="6b3aaa2545"><path d="M 28.957031 21 L 30.851562 21 L 30.851562 21.667969 L 28.957031 21.667969 Z M 28.957031 21 " clip-rule="nonzero"/></clipPath><clipPath id="a179d0be5c"><path d="M 28.957031 20.71875 C 28.957031 20.09375 29.273438 19.78125 29.902344 19.78125 C 30.527344 19.78125 30.84375 20.09375 30.84375 20.71875 C 30.84375 21.34375 30.527344 21.652344 29.902344 21.652344 C 29.273438 21.652344 28.957031 21.34375 28.957031 20.71875 Z M 28.957031 20.71875 " clip-rule="nonzero"/></clipPath><clipPath id="481650bf1f"><path d="M 29 20 L 30.851562 20 L 30.851562 21.667969 L 29 21.667969 Z M 29 20 " clip-rule="nonzero"/></clipPath><clipPath id="7a86f9ff27"><path d="M 28.957031 20.71875 C 28.957031 20.09375 29.273438 19.78125 29.902344 19.78125 C 30.527344 19.78125 30.84375 20.09375 30.84375 20.71875 C 30.84375 21.34375 30.527344 21.652344 29.902344 21.652344 C 29.273438 21.652344 28.957031 21.34375 28.957031 20.71875 Z M 28.957031 20.71875 " clip-rule="nonzero"/></clipPath><clipPath id="927321206e"><path d="M 29 20 L 30.851562 20 L 30.851562 21 L 29 21 Z M 29 20 " clip-rule="nonzero"/></clipPath><clipPath id="e179a5ef8f"><path d="M 28.957031 20.71875 C 28.957031 20.09375 29.273438 19.78125 29.902344 19.78125 C 30.527344 19.78125 30.84375 20.09375 30.84375 20.71875 C 30.84375 21.34375 30.527344 21.652344 29.902344 21.652344 C 29.273438 21.652344 28.957031 21.34375 28.957031 20.71875 Z M 28.957031 20.71875 " clip-rule="nonzero"/></clipPath><clipPath id="5a1cdeb0bf"><path d="M 31.675781 21 L 33.566406 21 L 33.566406 21.667969 L 31.675781 21.667969 Z M 31.675781 21 " clip-rule="nonzero"/></clipPath><clipPath id="508a3e1f93"><path d="M 31.683594 20.71875 C 31.683594 20.09375 31.996094 19.78125 32.625 19.78125 C 33.253906 19.78125 33.566406 20.09375 33.566406 20.71875 C 33.566406 21.34375 33.253906 21.652344 32.625 21.652344 C 31.996094 21.652344 31.683594 21.34375 31.683594 20.71875 Z M 31.683594 20.71875 " clip-rule="nonzero"/></clipPath><clipPath id="3b32733fa9"><path d="M 32 20 L 33 20 L 33 21.667969 L 32 21.667969 Z M 32 20 " clip-rule="nonzero"/></clipPath><clipPath id="0107410d98"><path d="M 31.683594 20.71875 C 31.683594 20.09375 31.996094 19.78125 32.625 19.78125 C 33.253906 19.78125 33.566406 20.09375 33.566406 20.71875 C 33.566406 21.34375 33.253906 21.652344 32.625 21.652344 C 31.996094 21.652344 31.683594 21.34375 31.683594 20.71875 Z M 31.683594 20.71875 " clip-rule="nonzero"/></clipPath><clipPath id="64a9040945"><path d="M 32 20 L 33.566406 20 L 33.566406 21 L 32 21 Z M 32 20 " clip-rule="nonzero"/></clipPath><clipPath id="de6f1435e7"><path d="M 31.683594 20.71875 C 31.683594 20.09375 31.996094 19.78125 32.625 19.78125 C 33.253906 19.78125 33.566406 20.09375 33.566406 20.71875 C 33.566406 21.34375 33.253906 21.652344 32.625 21.652344 C 31.996094 21.652344 31.683594 21.34375 31.683594 20.71875 Z M 31.683594 20.71875 " clip-rule="nonzero"/></clipPath><clipPath id="876f1ca348"><path d="M 32 20 L 33 20 L 33 21 L 32 21 Z M 32 20 " clip-rule="nonzero"/></clipPath><clipPath id="516bfea7de"><path d="M 31.683594 20.71875 C 31.683594 20.09375 31.996094 19.78125 32.625 19.78125 C 33.253906 19.78125 33.566406 20.09375 33.566406 20.71875 C 33.566406 21.34375 33.253906 21.652344 32.625 21.652344 C 31.996094 21.652344 31.683594 21.34375 31.683594 20.71875 Z M 31.683594 20.71875 " clip-rule="nonzero"/></clipPath><clipPath id="36e5e38e5d"><path d="M 32 19.777344 L 33.566406 19.777344 L 33.566406 21 L 32 21 Z M 32 19.777344 " clip-rule="nonzero"/></clipPath><clipPath id="5d836eda3a"><path d="M 31.683594 20.71875 C 31.683594 20.09375 31.996094 19.78125 32.625 19.78125 C 33.253906 19.78125 33.566406 20.09375 33.566406 20.71875 C 33.566406 21.34375 33.253906 21.652344 32.625 21.652344 C 31.996094 21.652344 31.683594 21.34375 31.683594 20.71875 Z M 31.683594 20.71875 " clip-rule="nonzero"/></clipPath><clipPath id="e967519a43"><path d="M 27 34 L 34 34 L 34 37.597656 L 27 37.597656 Z M 27 34 " clip-rule="nonzero"/></clipPath><clipPath id="697ab9d450"><path d="M 0.398438 22 L 27 22 L 27 37.597656 L 0.398438 37.597656 Z M 0.398438 22 " clip-rule="nonzero"/></clipPath></defs><g clip-path="url(#56c1ee7333)"><path fill="#000000" d="M 47.558594 36.628906 L 43.847656 36.628906 C 43.828125 36.628906 43.8125 36.609375 43.8125 36.589844 C 43.8125 36.570312 43.828125 36.550781 43.847656 36.550781 L 47.519531 36.550781 L 47.519531 29.570312 L 37.175781 29.570312 C 37.15625 29.570312 37.140625 29.554688 37.140625 29.53125 C 37.140625 29.511719 37.15625 29.496094 37.175781 29.496094 L 47.558594 29.496094 C 47.582031 29.496094 47.597656 29.511719 47.597656 29.53125 L 47.597656 36.589844 C 47.601562 36.609375 47.582031 36.628906 47.558594 36.628906 Z M 47.558594 36.628906 " fill-opacity="1" fill-rule="nonzero"/></g><g clip-path="url(#b42f801420)"><path fill="#8875a4" d="M 42.683594 36.292969 C 42.761719 36.480469 42.761719 36.667969 42.683594 36.859375 C 42.605469 37.046875 42.472656 37.179688 42.285156 37.257812 C 42.09375 37.335938 41.90625 37.335938 41.71875 37.257812 C 41.53125 37.179688 41.398438 37.046875 41.320312 36.859375 C 41.242188 36.667969 41.242188 36.480469 41.320312 36.292969 C 41.398438 36.105469 41.53125 35.972656 41.71875 35.894531 C 41.90625 35.816406 42.09375 35.816406 42.285156 35.894531 C 42.472656 35.972656 42.605469 36.105469 42.683594 36.292969 Z M 42.683594 36.292969 " fill-opacity="1" fill-rule="nonzero"/></g><g clip-path="url(#6c15c96d6a)"><path fill="#8875a4" d="M 40.273438 36.054688 C 40.417969 36.199219 40.488281 36.375 40.488281 36.578125 C 40.488281 36.78125 40.417969 36.953125 40.273438 37.097656 C 40.128906 37.242188 39.957031 37.316406 39.753906 37.316406 C 39.546875 37.316406 39.375 37.242188 39.230469 37.097656 C 39.085938 36.953125 39.015625 36.78125 39.015625 36.578125 C 39.015625 36.375 39.085938 36.199219 39.230469 36.054688 C 39.375 35.910156 39.546875 35.839844 39.753906 35.839844 C 39.957031 35.839844 40.128906 35.910156 40.273438 36.054688 Z M 40.273438 36.054688 " fill-opacity="1" fill-rule="nonzero"/></g><g clip-path="url(#95ff39c0f1)"><path fill="#8875a4" d="M 37.511719 35.863281 C 37.707031 35.910156 37.859375 36.019531 37.96875 36.191406 C 38.074219 36.367188 38.105469 36.550781 38.058594 36.75 C 38.011719 36.949219 37.902344 37.101562 37.726562 37.207031 C 37.554688 37.316406 37.371094 37.34375 37.171875 37.296875 C 36.972656 37.25 36.820312 37.140625 36.714844 36.96875 C 36.605469 36.796875 36.574219 36.609375 36.621094 36.410156 C 36.667969 36.214844 36.78125 36.058594 36.953125 35.953125 C 37.125 35.847656 37.3125 35.816406 37.511719 35.863281 Z M 37.511719 35.863281 " fill-opacity="1" fill-rule="nonzero"/></g><g clip-path="url(#b65093d7bd)"><path fill="#ffffff" d="M 47.121094 24.792969 L 16.792969 24.792969 L 15.542969 24.96875 L 15.542969 25.425781 C 15.542969 25.972656 16 26.414062 16.5625 26.414062 L 46.539062 26.414062 C 47.101562 26.414062 47.558594 25.96875 47.558594 25.425781 L 47.558594 25.0625 Z M 47.121094 24.792969 " fill-opacity="1" fill-rule="nonzero"/></g><g clip-path="url(#c9a9c08ebe)"><path fill="#ffffff" d="M 47.558594 25.019531 L 15.542969 25.019531 L 15.542969 6.9375 C 15.542969 6.378906 15.996094 5.921875 16.558594 5.921875 L 46.546875 5.921875 C 47.105469 5.921875 47.558594 6.378906 47.558594 6.9375 Z M 47.558594 25.019531 " fill-opacity="1" fill-rule="nonzero"/><path fill="#000000" d="M 47.558594 25.058594 L 15.542969 25.058594 C 15.523438 25.058594 15.503906 25.039062 15.503906 25.019531 L 15.503906 6.9375 C 15.503906 6.359375 15.976562 5.886719 16.558594 5.886719 L 46.546875 5.886719 C 47.125 5.886719 47.597656 6.359375 47.597656 6.9375 L 47.597656 25.019531 C 47.597656 25.039062 47.582031 25.058594 47.558594 25.058594 Z M 15.582031 24.984375 L 47.523438 24.984375 L 47.523438 6.9375 C 47.523438 6.398438 47.085938 5.960938 46.546875 5.960938 L 16.558594 5.960938 C 16.019531 5.960938 15.582031 6.398438 15.582031 6.9375 Z M 15.582031 24.984375 " fill-opacity="1" fill-rule="nonzero"/></g><path fill="#ffffff" d="M 46.191406 7.292969 L 46.191406 23.652344 L 16.914062 23.652344 L 16.914062 7.292969 Z M 46.191406 7.292969 " fill-opacity="1" fill-rule="nonzero"/><path fill="#000000" d="M 46.191406 23.691406 L 16.910156 23.691406 C 16.890625 23.691406 16.875 23.671875 16.875 23.652344 L 16.875 7.292969 C 16.875 7.273438 16.890625 7.253906 16.910156 7.253906 L 46.191406 7.253906 C 46.210938 7.253906 46.226562 7.273438 46.226562 7.292969 L 46.226562 23.648438 C 46.230469 23.671875 46.210938 23.691406 46.191406 23.691406 Z M 16.949219 23.613281 L 46.152344 23.613281 L 46.152344 7.328125 L 16.949219 7.328125 Z M 16.949219 23.613281 " fill-opacity="1" fill-rule="nonzero"/><g clip-path="url(#b71f3c8820)"><path fill="#000000" d="M 46.539062 26.449219 L 16.5625 26.449219 C 15.980469 26.449219 15.503906 25.976562 15.503906 25.394531 C 15.503906 25.371094 15.523438 25.355469 15.542969 25.355469 C 15.5625 25.355469 15.582031 25.371094 15.582031 25.394531 C 15.582031 25.933594 16.019531 26.375 16.5625 26.375 L 46.539062 26.375 C 47.082031 26.375 47.523438 25.933594 47.523438 25.394531 C 47.523438 25.371094 47.539062 25.355469 47.558594 25.355469 C 47.582031 25.355469 47.597656 25.371094 47.597656 25.394531 C 47.597656 25.976562 47.125 26.449219 46.539062 26.449219 Z M 46.539062 26.449219 " fill-opacity="1" fill-rule="nonzero"/></g><path fill="#ffffff" d="M 36.535156 29.507812 L 26.566406 29.507812 C 26.089844 29.507812 25.707031 29.121094 25.707031 28.648438 L 25.707031 26.414062 L 37.394531 26.414062 L 37.394531 28.648438 C 37.394531 29.121094 37.011719 29.507812 36.535156 29.507812 Z M 36.535156 29.507812 " fill-opacity="1" fill-rule="nonzero"/><path fill="#000000" d="M 36.535156 29.546875 L 26.566406 29.546875 C 26.070312 29.546875 25.667969 29.144531 25.667969 28.648438 L 25.667969 26.414062 C 25.667969 26.390625 25.6875 26.375 25.707031 26.375 L 37.394531 26.375 C 37.414062 26.375 37.433594 26.390625 37.433594 26.414062 L 37.433594 28.648438 C 37.433594 29.140625 37.03125 29.546875 36.535156 29.546875 Z M 25.742188 26.449219 L 25.742188 28.648438 C 25.742188 29.101562 26.113281 29.46875 26.566406 29.46875 L 36.535156 29.46875 C 36.988281 29.46875 37.355469 29.101562 37.355469 28.648438 L 37.355469 26.449219 Z M 25.742188 26.449219 " fill-opacity="1" fill-rule="nonzero"/><path fill="#000000" d="M 36.960938 27.179688 L 26.144531 27.179688 C 26.121094 27.179688 26.105469 27.160156 26.105469 27.140625 C 26.105469 27.121094 26.121094 27.101562 26.144531 27.101562 L 36.960938 27.101562 C 36.980469 27.101562 36.996094 27.121094 36.996094 27.140625 C 36.996094 27.160156 36.980469 27.179688 36.960938 27.179688 Z M 36.960938 27.179688 " fill-opacity="1" fill-rule="nonzero"/><path fill="#cbacf9" d="M 44.121094 14.894531 L 35.0625 14.894531 C 34.660156 14.894531 34.332031 14.566406 34.332031 14.164062 L 34.332031 13.015625 C 34.332031 12.613281 34.660156 12.285156 35.0625 12.285156 L 44.121094 12.285156 C 44.523438 12.285156 44.851562 12.613281 44.851562 13.015625 L 44.851562 14.164062 C 44.851562 14.566406 44.523438 14.894531 44.121094 14.894531 Z M 44.121094 14.894531 " fill-opacity="1" fill-rule="nonzero"/><path fill="#ffffff" d="M 39.59375 14.257812 C 39.570312 14.257812 39.554688 14.238281 39.554688 14.21875 L 39.554688 12.9375 C 39.554688 12.917969 39.570312 12.898438 39.59375 12.898438 C 39.613281 12.898438 39.628906 12.917969 39.628906 12.9375 L 39.628906 14.21875 C 39.628906 14.238281 39.613281 14.257812 39.59375 14.257812 Z M 39.59375 14.257812 " fill-opacity="1" fill-rule="nonzero"/><path fill="#ffffff" d="M 39.867188 13.242188 C 39.859375 13.242188 39.851562 13.238281 39.839844 13.230469 L 39.59375 12.984375 L 39.34375 13.230469 C 39.328125 13.246094 39.304688 13.246094 39.289062 13.230469 C 39.273438 13.214844 39.273438 13.191406 39.289062 13.179688 L 39.566406 12.898438 C 39.574219 12.894531 39.582031 12.890625 39.59375 12.890625 C 39.605469 12.890625 39.613281 12.894531 39.621094 12.898438 L 39.898438 13.175781 C 39.914062 13.191406 39.914062 13.214844 39.898438 13.230469 C 39.886719 13.238281 39.878906 13.242188 39.867188 13.242188 Z M 39.867188 13.242188 " fill-opacity="1" fill-rule="nonzero"/><path fill="#ffffff" d="M 39.886719 14.277344 L 39.296875 14.277344 C 39.277344 14.277344 39.257812 14.257812 39.257812 14.238281 C 39.257812 14.21875 39.277344 14.199219 39.296875 14.199219 L 39.886719 14.199219 C 39.910156 14.199219 39.925781 14.21875 39.925781 14.238281 C 39.925781 14.257812 39.910156 14.277344 39.886719 14.277344 Z M 39.886719 14.277344 " fill-opacity="1" fill-rule="nonzero"/><path fill="#000000" d="M 32.199219 15.996094 L 28.945312 15.996094 C 28.921875 15.996094 28.90625 15.976562 28.90625 15.957031 C 28.90625 15.9375 28.921875 15.917969 28.945312 15.917969 L 32.199219 15.917969 C 32.21875 15.917969 32.238281 15.9375 32.238281 15.957031 C 32.238281 15.976562 32.21875 15.996094 32.199219 15.996094 Z M 32.199219 15.996094 " fill-opacity="1" fill-rule="nonzero"/><path fill="#000000" d="M 38.679688 15.996094 L 35.425781 15.996094 C 35.402344 15.996094 35.386719 15.976562 35.386719 15.957031 C 35.386719 15.9375 35.402344 15.917969 35.425781 15.917969 L 38.679688 15.917969 C 38.703125 15.917969 38.71875 15.9375 38.71875 15.957031 C 38.71875 15.976562 38.703125 15.996094 38.679688 15.996094 Z M 38.679688 15.996094 " fill-opacity="1" fill-rule="nonzero"/><path fill="#000000" d="M 44.851562 15.996094 L 41.59375 15.996094 C 41.574219 15.996094 41.558594 15.976562 41.558594 15.957031 C 41.558594 15.9375 41.574219 15.917969 41.59375 15.917969 L 44.851562 15.917969 C 44.871094 15.917969 44.890625 15.9375 44.890625 15.957031 C 44.890625 15.976562 44.875 15.996094 44.851562 15.996094 Z M 44.851562 15.996094 " fill-opacity="1" fill-rule="nonzero"/><path fill="#cbacf9" d="M 30.976562 20.71875 C 30.976562 20.859375 30.949219 20.996094 30.894531 21.128906 C 30.839844 21.257812 30.761719 21.375 30.660156 21.472656 C 30.5625 21.574219 30.445312 21.652344 30.3125 21.707031 C 30.179688 21.761719 30.042969 21.789062 29.902344 21.789062 C 29.757812 21.789062 29.621094 21.761719 29.488281 21.707031 C 29.355469 21.652344 29.242188 21.574219 29.140625 21.472656 C 29.039062 21.375 28.960938 21.257812 28.90625 21.128906 C 28.851562 20.996094 28.824219 20.859375 28.824219 20.71875 C 28.824219 20.574219 28.851562 20.4375 28.90625 20.308594 C 28.960938 20.175781 29.039062 20.058594 29.140625 19.960938 C 29.242188 19.859375 29.355469 19.78125 29.488281 19.726562 C 29.621094 19.671875 29.757812 19.644531 29.902344 19.644531 C 30.042969 19.644531 30.179688 19.671875 30.3125 19.726562 C 30.445312 19.78125 30.5625 19.859375 30.660156 19.960938 C 30.761719 20.058594 30.839844 20.175781 30.894531 20.308594 C 30.949219 20.4375 30.976562 20.574219 30.976562 20.71875 Z M 30.976562 20.71875 " fill-opacity="1" fill-rule="nonzero"/><g clip-path="url(#62ef45788d)"><g clip-path="url(#fb0d1fd639)"><path fill="#ffffff" d="M 30.492188 21.769531 L 29.3125 21.769531 C 29.304688 21.769531 29.292969 21.765625 29.285156 21.757812 C 29.277344 21.75 29.273438 21.738281 29.273438 21.730469 L 29.332031 20.5625 C 29.351562 20.179688 29.601562 19.878906 29.902344 19.878906 C 30.203125 19.878906 30.453125 20.179688 30.472656 20.5625 L 30.53125 21.730469 C 30.53125 21.738281 30.527344 21.75 30.519531 21.757812 C 30.507812 21.765625 30.5 21.769531 30.492188 21.769531 Z M 29.351562 21.695312 L 30.453125 21.695312 L 30.394531 20.566406 C 30.378906 20.226562 30.160156 19.957031 29.902344 19.957031 C 29.644531 19.957031 29.429688 20.222656 29.410156 20.566406 Z M 29.351562 21.695312 " fill-opacity="1" fill-rule="nonzero"/></g></g><g clip-path="url(#6b3aaa2545)"><g clip-path="url(#a179d0be5c)"><path fill="#ffffff" d="M 30.433594 21.167969 L 29.902344 21.046875 L 29.367188 21.167969 C 29.226562 21.203125 29.109375 21.308594 29.070312 21.449219 L 28.953125 22.058594 L 30.847656 22.058594 L 30.734375 21.449219 C 30.691406 21.308594 30.578125 21.203125 30.433594 21.167969 Z M 30.433594 21.167969 " fill-opacity="1" fill-rule="nonzero"/></g></g><g clip-path="url(#481650bf1f)"><g clip-path="url(#7a86f9ff27)"><path fill="#ffffff" d="M 29.949219 21.375 L 29.851562 21.375 C 29.753906 21.375 29.671875 21.292969 29.671875 21.195312 L 29.671875 20.71875 L 30.128906 20.71875 L 30.128906 21.195312 C 30.132812 21.292969 30.050781 21.375 29.949219 21.375 Z M 29.949219 21.375 " fill-opacity="1" fill-rule="nonzero"/></g></g><g clip-path="url(#927321206e)"><g clip-path="url(#e179a5ef8f)"><path fill="#ffffff" d="M 30.285156 20.421875 C 30.269531 20.417969 30.25 20.421875 30.234375 20.425781 C 30.222656 20.214844 30.078125 20.070312 29.902344 20.070312 C 29.722656 20.070312 29.578125 20.214844 29.566406 20.425781 C 29.550781 20.421875 29.53125 20.417969 29.515625 20.421875 C 29.464844 20.433594 29.4375 20.492188 29.453125 20.550781 C 29.464844 20.609375 29.519531 20.648438 29.570312 20.632812 C 29.578125 20.632812 29.585938 20.628906 29.589844 20.625 C 29.644531 20.78125 29.761719 20.898438 29.902344 20.898438 C 30.039062 20.898438 30.160156 20.777344 30.210938 20.625 C 30.21875 20.628906 30.222656 20.632812 30.234375 20.632812 C 30.28125 20.644531 30.335938 20.605469 30.351562 20.550781 C 30.367188 20.492188 30.335938 20.433594 30.285156 20.421875 Z M 30.285156 20.421875 " fill-opacity="1" fill-rule="nonzero"/><path fill="#cbacf9" d="M 29.902344 20.9375 C 29.761719 20.9375 29.632812 20.835938 29.570312 20.671875 C 29.503906 20.683594 29.433594 20.632812 29.417969 20.558594 C 29.40625 20.519531 29.410156 20.476562 29.433594 20.441406 C 29.449219 20.414062 29.476562 20.390625 29.507812 20.386719 C 29.515625 20.382812 29.523438 20.382812 29.53125 20.382812 C 29.5625 20.175781 29.710938 20.03125 29.902344 20.03125 C 30.089844 20.03125 30.238281 20.175781 30.269531 20.382812 C 30.277344 20.382812 30.289062 20.382812 30.292969 20.386719 C 30.324219 20.394531 30.351562 20.414062 30.371094 20.441406 C 30.390625 20.476562 30.394531 20.519531 30.386719 20.558594 C 30.367188 20.632812 30.300781 20.683594 30.234375 20.671875 C 30.167969 20.832031 30.039062 20.9375 29.902344 20.9375 Z M 29.589844 20.585938 C 29.597656 20.585938 29.601562 20.585938 29.605469 20.589844 C 29.617188 20.589844 29.625 20.601562 29.628906 20.613281 C 29.675781 20.761719 29.785156 20.863281 29.902344 20.863281 C 30.015625 20.863281 30.125 20.761719 30.175781 20.613281 C 30.179688 20.601562 30.1875 20.59375 30.195312 20.589844 C 30.207031 20.585938 30.21875 20.585938 30.230469 20.589844 C 30.234375 20.59375 30.238281 20.59375 30.242188 20.597656 C 30.269531 20.605469 30.304688 20.578125 30.3125 20.542969 C 30.316406 20.519531 30.316406 20.5 30.304688 20.480469 C 30.300781 20.472656 30.292969 20.460938 30.277344 20.460938 C 30.265625 20.457031 30.257812 20.457031 30.25 20.460938 C 30.234375 20.464844 30.222656 20.464844 30.214844 20.457031 C 30.203125 20.449219 30.195312 20.441406 30.195312 20.429688 C 30.183594 20.242188 30.058594 20.109375 29.898438 20.109375 C 29.738281 20.109375 29.613281 20.242188 29.601562 20.429688 C 29.601562 20.441406 29.59375 20.449219 29.585938 20.457031 C 29.574219 20.464844 29.5625 20.464844 29.550781 20.460938 C 29.542969 20.457031 29.53125 20.457031 29.523438 20.460938 C 29.507812 20.460938 29.5 20.472656 29.492188 20.480469 C 29.484375 20.5 29.480469 20.519531 29.488281 20.542969 C 29.496094 20.578125 29.527344 20.605469 29.558594 20.597656 C 29.5625 20.59375 29.566406 20.59375 29.570312 20.589844 C 29.578125 20.589844 29.585938 20.585938 29.589844 20.585938 Z M 29.589844 20.585938 " fill-opacity="1" fill-rule="nonzero"/><path fill="#cbacf9" d="M 29.5625 20.480469 C 29.730469 20.449219 29.902344 20.300781 30.007812 20.164062 C 30.027344 20.285156 30.136719 20.421875 30.246094 20.472656 C 30.246094 20.472656 30.296875 20 29.902344 20.011719 C 29.503906 20.03125 29.5625 20.480469 29.5625 20.480469 Z M 29.5625 20.480469 " fill-opacity="1" fill-rule="nonzero"/></g></g><path fill="#ffffff" d="M 33.699219 20.71875 C 33.699219 20.859375 33.671875 20.996094 33.617188 21.128906 C 33.5625 21.257812 33.484375 21.375 33.386719 21.472656 C 33.285156 21.574219 33.167969 21.652344 33.035156 21.707031 C 32.902344 21.761719 32.765625 21.789062 32.625 21.789062 C 32.480469 21.789062 32.34375 21.761719 32.210938 21.707031 C 32.082031 21.652344 31.964844 21.574219 31.863281 21.472656 C 31.761719 21.375 31.683594 21.257812 31.628906 21.128906 C 31.574219 20.996094 31.546875 20.859375 31.546875 20.71875 C 31.546875 20.574219 31.574219 20.4375 31.628906 20.308594 C 31.683594 20.175781 31.761719 20.058594 31.863281 19.960938 C 31.964844 19.859375 32.082031 19.78125 32.210938 19.726562 C 32.34375 19.671875 32.480469 19.644531 32.625 19.644531 C 32.765625 19.644531 32.902344 19.671875 33.035156 19.726562 C 33.167969 19.78125 33.285156 19.859375 33.386719 19.960938 C 33.484375 20.058594 33.5625 20.175781 33.617188 20.308594 C 33.671875 20.4375 33.699219 20.574219 33.699219 20.71875 Z M 33.699219 20.71875 " fill-opacity="1" fill-rule="nonzero"/><path fill="#000000" d="M 32.625 21.824219 C 32.011719 21.824219 31.511719 21.328125 31.511719 20.71875 C 31.511719 20.105469 32.011719 19.609375 32.625 19.609375 C 33.238281 19.609375 33.738281 20.105469 33.738281 20.71875 C 33.738281 21.328125 33.238281 21.824219 32.625 21.824219 Z M 32.625 19.6875 C 32.050781 19.6875 31.585938 20.148438 31.585938 20.71875 C 31.585938 21.289062 32.050781 21.753906 32.625 21.753906 C 33.195312 21.753906 33.664062 21.289062 33.664062 20.71875 C 33.660156 20.148438 33.195312 19.6875 32.625 19.6875 Z M 32.625 19.6875 " fill-opacity="1" fill-rule="nonzero"/><g clip-path="url(#5a1cdeb0bf)"><g clip-path="url(#508a3e1f93)"><path fill="#000000" d="M 33.15625 21.167969 L 32.625 21.046875 L 32.089844 21.167969 C 31.949219 21.203125 31.832031 21.308594 31.792969 21.449219 L 31.675781 22.058594 L 33.570312 22.058594 L 33.457031 21.449219 C 33.414062 21.308594 33.300781 21.203125 33.15625 21.167969 Z M 33.15625 21.167969 " fill-opacity="1" fill-rule="nonzero"/></g></g><g clip-path="url(#3b32733fa9)"><g clip-path="url(#0107410d98)"><path fill="#ffffff" d="M 32.671875 21.375 L 32.574219 21.375 C 32.476562 21.375 32.394531 21.292969 32.394531 21.195312 L 32.394531 20.71875 L 32.851562 20.71875 L 32.851562 21.195312 C 32.851562 21.292969 32.773438 21.375 32.671875 21.375 Z M 32.671875 21.375 " fill-opacity="1" fill-rule="nonzero"/></g></g><g clip-path="url(#64a9040945)"><g clip-path="url(#de6f1435e7)"><path fill="#ffffff" d="M 33.007812 20.421875 C 32.992188 20.417969 32.976562 20.421875 32.960938 20.425781 C 32.945312 20.214844 32.800781 20.070312 32.625 20.070312 C 32.445312 20.070312 32.304688 20.214844 32.289062 20.425781 C 32.273438 20.421875 32.257812 20.417969 32.238281 20.421875 C 32.1875 20.433594 32.160156 20.492188 32.175781 20.550781 C 32.1875 20.609375 32.242188 20.648438 32.292969 20.632812 C 32.300781 20.632812 32.308594 20.628906 32.316406 20.625 C 32.367188 20.78125 32.484375 20.898438 32.625 20.898438 C 32.761719 20.898438 32.882812 20.777344 32.933594 20.625 C 32.941406 20.628906 32.949219 20.632812 32.957031 20.632812 C 33.007812 20.644531 33.058594 20.605469 33.074219 20.550781 C 33.085938 20.492188 33.058594 20.433594 33.007812 20.421875 Z M 33.007812 20.421875 " fill-opacity="1" fill-rule="nonzero"/><path fill="#000000" d="M 32.625 20.9375 C 32.488281 20.9375 32.355469 20.835938 32.292969 20.671875 C 32.226562 20.683594 32.160156 20.632812 32.140625 20.558594 C 32.128906 20.519531 32.132812 20.476562 32.15625 20.441406 C 32.171875 20.414062 32.199219 20.390625 32.230469 20.386719 C 32.238281 20.382812 32.246094 20.382812 32.253906 20.382812 C 32.285156 20.175781 32.433594 20.03125 32.625 20.03125 C 32.8125 20.03125 32.964844 20.175781 32.992188 20.382812 C 33.003906 20.382812 33.011719 20.382812 33.019531 20.386719 C 33.050781 20.394531 33.078125 20.414062 33.09375 20.441406 C 33.113281 20.476562 33.121094 20.519531 33.109375 20.558594 C 33.089844 20.632812 33.023438 20.683594 32.957031 20.671875 C 32.890625 20.832031 32.761719 20.9375 32.625 20.9375 Z M 32.316406 20.585938 C 32.320312 20.585938 32.324219 20.585938 32.328125 20.589844 C 32.339844 20.589844 32.347656 20.601562 32.351562 20.613281 C 32.398438 20.761719 32.507812 20.863281 32.625 20.863281 C 32.738281 20.863281 32.847656 20.761719 32.898438 20.613281 C 32.902344 20.601562 32.910156 20.59375 32.921875 20.589844 C 32.929688 20.585938 32.941406 20.585938 32.953125 20.589844 C 32.957031 20.59375 32.960938 20.59375 32.964844 20.597656 C 32.992188 20.605469 33.027344 20.578125 33.035156 20.542969 C 33.039062 20.519531 33.039062 20.5 33.027344 20.480469 C 33.023438 20.472656 33.015625 20.460938 33 20.460938 C 32.992188 20.457031 32.980469 20.457031 32.972656 20.460938 C 32.960938 20.464844 32.949219 20.464844 32.9375 20.457031 C 32.925781 20.449219 32.921875 20.441406 32.921875 20.429688 C 32.90625 20.242188 32.78125 20.109375 32.621094 20.109375 C 32.460938 20.109375 32.335938 20.242188 32.324219 20.429688 C 32.324219 20.441406 32.316406 20.449219 32.308594 20.457031 C 32.296875 20.464844 32.285156 20.464844 32.273438 20.460938 C 32.265625 20.457031 32.253906 20.457031 32.246094 20.460938 C 32.230469 20.460938 32.222656 20.472656 32.21875 20.480469 C 32.207031 20.5 32.203125 20.519531 32.210938 20.542969 C 32.21875 20.578125 32.25 20.605469 32.28125 20.597656 C 32.285156 20.59375 32.289062 20.59375 32.292969 20.589844 C 32.300781 20.589844 32.308594 20.585938 32.316406 20.585938 Z M 32.316406 20.585938 " fill-opacity="1" fill-rule="nonzero"/></g></g><g clip-path="url(#876f1ca348)"><g clip-path="url(#516bfea7de)"><path fill="#ffffff" d="M 32.28125 20.480469 C 32.449219 20.449219 32.625 20.300781 32.730469 20.164062 C 32.75 20.285156 32.855469 20.421875 32.964844 20.472656 C 32.964844 20.472656 33.019531 20 32.621094 20.011719 C 32.226562 20.03125 32.28125 20.480469 32.28125 20.480469 Z M 32.28125 20.480469 " fill-opacity="1" fill-rule="nonzero"/></g></g><g clip-path="url(#36e5e38e5d)"><g clip-path="url(#5d836eda3a)"><path fill="#000000" d="M 32.28125 20.519531 C 32.273438 20.519531 32.265625 20.515625 32.261719 20.511719 C 32.25 20.503906 32.246094 20.496094 32.246094 20.484375 C 32.242188 20.476562 32.21875 20.25 32.34375 20.101562 C 32.410156 20.023438 32.503906 19.980469 32.621094 19.976562 C 32.738281 19.972656 32.832031 20.003906 32.898438 20.078125 C 33.03125 20.222656 33.007812 20.464844 33.007812 20.476562 C 33.003906 20.488281 32.996094 20.5 32.988281 20.503906 C 32.976562 20.511719 32.964844 20.511719 32.953125 20.507812 C 32.851562 20.460938 32.757812 20.355469 32.714844 20.246094 C 32.605469 20.363281 32.449219 20.488281 32.289062 20.519531 C 32.289062 20.519531 32.285156 20.519531 32.28125 20.519531 Z M 32.640625 20.050781 C 32.636719 20.050781 32.632812 20.050781 32.625 20.050781 C 32.527344 20.054688 32.453125 20.089844 32.402344 20.148438 C 32.324219 20.238281 32.316406 20.363281 32.316406 20.433594 C 32.464844 20.386719 32.613281 20.25 32.699219 20.140625 C 32.707031 20.128906 32.722656 20.125 32.738281 20.128906 C 32.75 20.132812 32.761719 20.144531 32.765625 20.160156 C 32.78125 20.246094 32.851562 20.347656 32.929688 20.40625 C 32.925781 20.332031 32.914062 20.207031 32.839844 20.128906 C 32.792969 20.078125 32.726562 20.050781 32.640625 20.050781 Z M 32.640625 20.050781 " fill-opacity="1" fill-rule="nonzero"/></g></g><path fill="#000000" d="M 35.703125 20.753906 L 34.324219 20.753906 C 34.304688 20.753906 34.285156 20.738281 34.285156 20.71875 C 34.285156 20.695312 34.304688 20.679688 34.324219 20.679688 L 35.703125 20.679688 C 35.722656 20.679688 35.738281 20.695312 35.738281 20.71875 C 35.738281 20.738281 35.722656 20.753906 35.703125 20.753906 Z M 35.703125 20.753906 " fill-opacity="1" fill-rule="nonzero"/><path fill="#000000" d="M 35.015625 21.445312 C 34.992188 21.445312 34.976562 21.425781 34.976562 21.40625 L 34.976562 20.03125 C 34.976562 20.007812 34.992188 19.992188 35.015625 19.992188 C 35.035156 19.992188 35.050781 20.007812 35.050781 20.03125 L 35.050781 21.40625 C 35.050781 21.425781 35.035156 21.445312 35.015625 21.445312 Z M 35.015625 21.445312 " fill-opacity="1" fill-rule="nonzero"/><path fill="#8875a4" d="M 44.660156 10.328125 L 18.511719 10.328125 C 18.414062 10.328125 18.335938 10.25 18.335938 10.152344 L 18.335938 8.921875 C 18.335938 8.824219 18.410156 8.746094 18.511719 8.746094 L 44.660156 8.746094 C 44.757812 8.746094 44.835938 8.824219 44.835938 8.921875 L 44.835938 10.152344 C 44.835938 10.25 44.757812 10.328125 44.660156 10.328125 Z M 44.660156 10.328125 " fill-opacity="1" fill-rule="nonzero"/><path fill="#ffffff" d="M 25.101562 10.171875 C 25.082031 10.171875 25.0625 10.15625 25.0625 10.132812 L 25.0625 9.078125 C 25.0625 9.058594 25.082031 9.039062 25.101562 9.039062 C 25.121094 9.039062 25.140625 9.058594 25.140625 9.078125 L 25.140625 10.132812 C 25.140625 10.15625 25.121094 10.171875 25.101562 10.171875 Z M 25.101562 10.171875 " fill-opacity="1" fill-rule="nonzero"/><path fill="#ffffff" d="M 32.257812 10.171875 C 32.234375 10.171875 32.21875 10.15625 32.21875 10.132812 L 32.21875 9.078125 C 32.21875 9.058594 32.234375 9.039062 32.257812 9.039062 C 32.277344 9.039062 32.292969 9.058594 32.292969 9.078125 L 32.292969 10.132812 C 32.292969 10.15625 32.277344 10.171875 32.257812 10.171875 Z M 32.257812 10.171875 " fill-opacity="1" fill-rule="nonzero"/><path fill="#8875a4" d="M 27.035156 21.769531 L 18.511719 21.769531 C 18.414062 21.769531 18.335938 21.691406 18.335938 21.59375 L 18.335938 11.429688 C 18.335938 11.332031 18.414062 11.253906 18.511719 11.253906 L 27.035156 11.253906 C 27.128906 11.253906 27.207031 11.332031 27.207031 11.429688 L 27.207031 21.59375 C 27.207031 21.691406 27.128906 21.769531 27.035156 21.769531 Z M 27.035156 21.769531 " fill-opacity="1" fill-rule="nonzero"/><path fill="#ffffff" d="M 26.804688 13.730469 L 18.996094 13.730469 C 18.984375 13.730469 18.976562 13.722656 18.976562 13.710938 L 18.976562 11.933594 C 18.976562 11.921875 18.984375 11.914062 18.996094 11.914062 L 26.804688 11.914062 C 26.816406 11.914062 26.824219 11.921875 26.824219 11.933594 L 26.824219 13.710938 C 26.824219 13.71875 26.816406 13.730469 26.804688 13.730469 Z M 26.804688 13.730469 " fill-opacity="1" fill-rule="nonzero"/><path fill="#ffffff" d="M 26.804688 16.226562 L 18.996094 16.226562 C 18.984375 16.226562 18.976562 16.21875 18.976562 16.207031 L 18.976562 14.433594 C 18.976562 14.417969 18.984375 14.410156 18.996094 14.410156 L 26.804688 14.410156 C 26.816406 14.410156 26.824219 14.417969 26.824219 14.433594 L 26.824219 16.207031 C 26.824219 16.21875 26.816406 16.226562 26.804688 16.226562 Z M 26.804688 16.226562 " fill-opacity="1" fill-rule="nonzero"/><path fill="#ffffff" d="M 26.804688 18.726562 L 18.996094 18.726562 C 18.984375 18.726562 18.976562 18.71875 18.976562 18.707031 L 18.976562 16.929688 C 18.976562 16.917969 18.984375 16.910156 18.996094 16.910156 L 26.804688 16.910156 C 26.816406 16.910156 26.824219 16.917969 26.824219 16.929688 L 26.824219 18.707031 C 26.824219 18.71875 26.816406 18.726562 26.804688 18.726562 Z M 26.804688 18.726562 " fill-opacity="1" fill-rule="nonzero"/><path fill="#ffffff" d="M 26.804688 21.222656 L 18.996094 21.222656 C 18.984375 21.222656 18.976562 21.214844 18.976562 21.203125 L 18.976562 19.429688 C 18.976562 19.414062 18.984375 19.40625 18.996094 19.40625 L 26.804688 19.40625 C 26.816406 19.40625 26.824219 19.414062 26.824219 19.429688 L 26.824219 21.203125 C 26.824219 21.214844 26.816406 21.222656 26.804688 21.222656 Z M 26.804688 21.222656 " fill-opacity="1" fill-rule="nonzero"/><path fill="#cbacf9" d="M 18.671875 13.695312 C 18.652344 13.695312 18.636719 13.675781 18.636719 13.65625 L 18.636719 11.941406 C 18.636719 11.921875 18.652344 11.90625 18.671875 11.90625 C 18.695312 11.90625 18.710938 11.921875 18.710938 11.941406 L 18.710938 13.65625 C 18.710938 13.675781 18.695312 13.695312 18.671875 13.695312 Z M 18.671875 13.695312 " fill-opacity="1" fill-rule="nonzero"/><path fill="#ffffff" d="M 42.140625 17.808594 L 40.789062 16.8125 L 39.855469 17.746094 L 40.914062 19.082031 Z M 42.140625 17.808594 " fill-opacity="1" fill-rule="nonzero"/><path fill="#000000" d="M 40.914062 19.117188 C 40.914062 19.117188 40.910156 19.117188 40.910156 19.117188 C 40.898438 19.117188 40.890625 19.113281 40.882812 19.105469 L 39.824219 17.769531 C 39.8125 17.753906 39.816406 17.734375 39.828125 17.71875 L 40.761719 16.785156 C 40.777344 16.773438 40.796875 16.769531 40.8125 16.78125 L 42.164062 17.777344 C 42.175781 17.785156 42.179688 17.792969 42.179688 17.804688 C 42.183594 17.816406 42.175781 17.828125 42.171875 17.835938 L 40.941406 19.109375 C 40.933594 19.113281 40.921875 19.117188 40.914062 19.117188 Z M 39.90625 17.75 L 40.914062 19.023438 L 42.082031 17.8125 L 40.792969 16.859375 Z M 39.90625 17.75 " fill-opacity="1" fill-rule="nonzero"/><path fill="#ffffff" d="M 44.191406 21.851562 L 39.855469 21.851562 L 39.855469 17.746094 L 40.757812 17.71875 L 40.789062 16.8125 L 44.191406 16.8125 Z M 44.191406 21.851562 " fill-opacity="1" fill-rule="nonzero"/><path fill="#000000" d="M 44.191406 21.886719 L 39.855469 21.886719 C 39.835938 21.886719 39.816406 21.871094 39.816406 21.851562 L 39.816406 17.746094 C 39.816406 17.726562 39.832031 17.707031 39.851562 17.707031 L 40.71875 17.683594 L 40.75 16.8125 C 40.75 16.789062 40.769531 16.773438 40.789062 16.773438 L 44.191406 16.773438 C 44.214844 16.773438 44.230469 16.792969 44.230469 16.8125 L 44.230469 21.851562 C 44.230469 21.871094 44.214844 21.886719 44.191406 21.886719 Z M 39.894531 21.8125 L 44.15625 21.8125 L 44.15625 16.847656 L 40.824219 16.847656 L 40.792969 17.71875 C 40.792969 17.742188 40.773438 17.757812 40.757812 17.757812 L 39.890625 17.78125 L 39.890625 21.8125 Z M 39.894531 21.8125 " fill-opacity="1" fill-rule="nonzero"/><path fill="#000000" d="M 43.121094 17.582031 L 41.222656 17.582031 C 41.203125 17.582031 41.183594 17.566406 41.183594 17.546875 C 41.183594 17.523438 41.203125 17.507812 41.222656 17.507812 L 43.121094 17.507812 C 43.140625 17.507812 43.15625 17.523438 43.15625 17.546875 C 43.15625 17.566406 43.140625 17.582031 43.121094 17.582031 Z M 43.121094 17.582031 " fill-opacity="1" fill-rule="nonzero"/><path fill="#000000" d="M 43.410156 18.71875 L 40.46875 18.71875 C 40.445312 18.71875 40.429688 18.699219 40.429688 18.679688 C 40.429688 18.660156 40.445312 18.640625 40.46875 18.640625 L 43.410156 18.640625 C 43.429688 18.640625 43.449219 18.660156 43.449219 18.679688 C 43.449219 18.699219 43.429688 18.71875 43.410156 18.71875 Z M 43.410156 18.71875 " fill-opacity="1" fill-rule="nonzero"/><path fill="#000000" d="M 43.410156 19.855469 L 40.46875 19.855469 C 40.445312 19.855469 40.429688 19.835938 40.429688 19.816406 C 40.429688 19.796875 40.445312 19.777344 40.46875 19.777344 L 43.410156 19.777344 C 43.429688 19.777344 43.449219 19.796875 43.449219 19.816406 C 43.449219 19.835938 43.429688 19.855469 43.410156 19.855469 Z M 43.410156 19.855469 " fill-opacity="1" fill-rule="nonzero"/><path fill="#000000" d="M 41.746094 20.992188 L 40.46875 20.992188 C 40.445312 20.992188 40.429688 20.972656 40.429688 20.953125 C 40.429688 20.933594 40.445312 20.914062 40.46875 20.914062 L 41.746094 20.914062 C 41.765625 20.914062 41.78125 20.933594 41.78125 20.953125 C 41.78125 20.972656 41.765625 20.992188 41.746094 20.992188 Z M 41.746094 20.992188 " fill-opacity="1" fill-rule="nonzero"/><path fill="#8875a4" d="M 44.191406 20.027344 C 44.324219 20.085938 44.441406 20.164062 44.542969 20.265625 C 44.644531 20.367188 44.722656 20.484375 44.777344 20.617188 C 44.832031 20.75 44.859375 20.886719 44.859375 21.03125 C 44.859375 21.175781 44.832031 21.3125 44.777344 21.445312 C 44.722656 21.578125 44.644531 21.695312 44.542969 21.796875 C 44.441406 21.898438 44.324219 21.976562 44.191406 22.035156 C 44.058594 22.089844 43.917969 22.117188 43.773438 22.117188 C 43.632812 22.117188 43.492188 22.089844 43.359375 22.035156 C 43.226562 21.976562 43.109375 21.898438 43.007812 21.796875 C 42.90625 21.695312 42.828125 21.578125 42.773438 21.445312 C 42.71875 21.3125 42.691406 21.175781 42.691406 21.03125 C 42.691406 20.886719 42.71875 20.75 42.773438 20.617188 C 42.828125 20.484375 42.90625 20.367188 43.007812 20.265625 C 43.109375 20.164062 43.226562 20.085938 43.359375 20.027344 C 43.492188 19.972656 43.632812 19.945312 43.773438 19.945312 C 43.917969 19.945312 44.058594 19.972656 44.191406 20.027344 Z M 44.191406 20.027344 " fill-opacity="1" fill-rule="nonzero"/><path fill="#000000" d="M 43.773438 21.636719 C 43.753906 21.636719 43.738281 21.621094 43.738281 21.597656 L 43.738281 20.464844 C 43.738281 20.445312 43.753906 20.425781 43.773438 20.425781 C 43.796875 20.425781 43.8125 20.445312 43.8125 20.464844 L 43.8125 21.597656 C 43.8125 21.621094 43.796875 21.636719 43.773438 21.636719 Z M 43.773438 21.636719 " fill-opacity="1" fill-rule="nonzero"/><path fill="#000000" d="M 44.34375 21.070312 L 43.207031 21.070312 C 43.1875 21.070312 43.167969 21.050781 43.167969 21.03125 C 43.167969 21.011719 43.1875 20.992188 43.207031 20.992188 L 44.34375 20.992188 C 44.363281 20.992188 44.378906 21.011719 44.378906 21.03125 C 44.378906 21.050781 44.363281 21.070312 44.34375 21.070312 Z M 44.34375 21.070312 " fill-opacity="1" fill-rule="nonzero"/><g clip-path="url(#e967519a43)"><path fill="#000000" d="M 27.410156 36.039062 C 27.410156 36.039062 26.710938 37.347656 27.582031 37.347656 C 28.453125 37.347656 32.695312 37.347656 32.695312 37.347656 C 32.695312 37.347656 33.683594 37.375 33.449219 36.417969 C 33.21875 35.457031 32.722656 34.46875 30.953125 34.152344 C 29.179688 33.832031 27.929688 34.992188 27.410156 36.039062 Z M 27.410156 36.039062 " fill-opacity="1" fill-rule="nonzero"/></g><path fill="#cbacf9" d="M 28.113281 36.484375 C 28.957031 36.019531 30.640625 35.8125 31.894531 35.925781 C 33.148438 36.039062 32.910156 36.972656 32.453125 36.972656 C 28.167969 36.972656 26.964844 37.125 28.113281 36.484375 Z M 28.113281 36.484375 " fill-opacity="1" fill-rule="nonzero"/><path fill="#000000" d="M 14.460938 18.394531 C 14.460938 18.394531 15.527344 17.253906 15.859375 15.820312 C 16.1875 14.386719 14.609375 14.277344 14.167969 14.277344 C 13.726562 14.277344 12.402344 12.953125 10.417969 13.171875 C 8.433594 13.394531 8.105469 14.902344 8.105469 14.902344 C 8.105469 14.902344 6.742188 15.820312 6.707031 17.546875 C 6.671875 19.273438 9.316406 21.847656 9.316406 21.847656 C 9.316406 21.847656 9.28125 23.429688 10.859375 23.097656 C 12.441406 22.769531 14.460938 18.394531 14.460938 18.394531 Z M 14.460938 18.394531 " fill-opacity="1" fill-rule="nonzero"/><path fill="#ffffff" d="M 14.476562 16.960938 C 14.476562 16.960938 14.859375 18.304688 14.972656 19.996094 C 15.136719 22.394531 13.5 22.738281 13.5 22.738281 L 12.683594 26.222656 L 7.535156 26.492188 L 9.394531 21.859375 C 9.394531 21.859375 9.90625 23.023438 11.082031 21.589844 C 12.117188 20.023438 13.082031 19.628906 13.726562 18.796875 C 14.160156 18.242188 14.476562 16.960938 14.476562 16.960938 Z M 14.476562 16.960938 " fill-opacity="1" fill-rule="nonzero"/><path fill="#000000" d="M 7.535156 26.53125 C 7.523438 26.53125 7.511719 26.527344 7.503906 26.515625 C 7.496094 26.503906 7.496094 26.492188 7.5 26.480469 L 9.355469 21.847656 C 9.363281 21.835938 9.375 21.824219 9.390625 21.824219 C 9.40625 21.824219 9.421875 21.832031 9.425781 21.847656 C 9.429688 21.851562 9.59375 22.214844 9.941406 22.261719 C 10.261719 22.304688 10.632812 22.070312 11.046875 21.566406 C 11.683594 20.609375 12.28125 20.09375 12.8125 19.640625 C 13.152344 19.347656 13.445312 19.097656 13.695312 18.773438 C 14.117188 18.230469 14.433594 16.960938 14.4375 16.949219 C 14.441406 16.933594 14.457031 16.921875 14.472656 16.921875 C 14.488281 16.921875 14.503906 16.929688 14.511719 16.949219 C 14.515625 16.960938 14.894531 18.316406 15.007812 19.996094 C 15.09375 21.25 14.683594 21.9375 14.320312 22.296875 C 13.976562 22.636719 13.621094 22.746094 13.527344 22.773438 L 12.71875 26.230469 C 12.714844 26.25 12.699219 26.261719 12.683594 26.261719 Z M 9.398438 21.953125 L 7.589844 26.453125 L 12.652344 26.1875 L 13.460938 22.730469 C 13.464844 22.714844 13.476562 22.703125 13.488281 22.699219 C 13.492188 22.699219 13.894531 22.613281 14.273438 22.238281 C 14.621094 21.890625 15.019531 21.222656 14.933594 20 C 14.839844 18.640625 14.574219 17.492188 14.472656 17.109375 C 14.378906 17.457031 14.105469 18.367188 13.753906 18.820312 C 13.5 19.148438 13.203125 19.402344 12.859375 19.699219 C 12.335938 20.148438 11.738281 20.664062 11.109375 21.609375 C 11.109375 21.613281 11.105469 21.613281 11.105469 21.613281 C 10.671875 22.140625 10.277344 22.386719 9.925781 22.339844 C 9.640625 22.300781 9.46875 22.070312 9.398438 21.953125 Z M 11.082031 21.589844 Z M 11.082031 21.589844 " fill-opacity="1" fill-rule="nonzero"/><path fill="#ffffff" d="M 13.5 22.738281 L 13.734375 21.921875 Z M 13.5 22.738281 " fill-opacity="1" fill-rule="nonzero"/><path fill="#000000" d="M 13.5 22.777344 C 13.496094 22.777344 13.492188 22.777344 13.488281 22.773438 C 13.46875 22.769531 13.457031 22.746094 13.460938 22.730469 L 13.699219 21.910156 C 13.703125 21.890625 13.726562 21.882812 13.746094 21.886719 C 13.765625 21.890625 13.773438 21.914062 13.769531 21.933594 L 13.535156 22.75 C 13.53125 22.765625 13.515625 22.777344 13.5 22.777344 Z M 13.5 22.777344 " fill-opacity="1" fill-rule="nonzero"/><path fill="#ffffff" d="M 13.902344 19.582031 C 13.902344 19.433594 13.59375 18.070312 12.65625 18.1875 C 11.617188 18.320312 11.660156 20.429688 12.804688 21.125 C 13.949219 21.824219 13.902344 19.582031 13.902344 19.582031 Z M 13.902344 19.582031 " fill-opacity="1" fill-rule="nonzero"/><path fill="#000000" d="M 12.804688 21.164062 C 12.796875 21.164062 12.792969 21.164062 12.785156 21.160156 C 12.03125 20.699219 11.75 19.628906 11.921875 18.902344 C 12.027344 18.453125 12.292969 18.179688 12.652344 18.152344 C 13.375 18.089844 13.601562 18.585938 13.765625 18.949219 L 13.773438 18.960938 C 13.78125 18.980469 13.773438 19 13.753906 19.011719 C 13.734375 19.019531 13.710938 19.011719 13.703125 18.992188 L 13.699219 18.980469 C 13.53125 18.617188 13.328125 18.167969 12.660156 18.222656 C 12.214844 18.261719 12.050781 18.675781 11.992188 18.921875 C 11.828125 19.621094 12.101562 20.652344 12.828125 21.09375 C 12.84375 21.105469 12.851562 21.128906 12.839844 21.144531 C 12.832031 21.15625 12.820312 21.164062 12.804688 21.164062 Z M 12.804688 21.164062 " fill-opacity="1" fill-rule="nonzero"/><path fill="#000000" d="M 13.257812 19.777344 C 13.242188 19.777344 13.226562 19.765625 13.222656 19.75 C 13.035156 19.042969 12.609375 19.117188 12.589844 19.121094 C 12.570312 19.125 12.550781 19.113281 12.546875 19.089844 C 12.542969 19.070312 12.554688 19.050781 12.574219 19.046875 C 12.582031 19.042969 13.089844 18.949219 13.296875 19.730469 C 13.300781 19.75 13.289062 19.773438 13.269531 19.777344 C 13.265625 19.777344 13.261719 19.777344 13.257812 19.777344 Z M 13.257812 19.777344 " fill-opacity="1" fill-rule="nonzero"/><path fill="#ffffff" d="M 25.5 33.636719 C 25.554688 33.621094 27.710938 32.648438 29.089844 32.433594 C 30.472656 32.21875 31.351562 32.792969 31.820312 33.546875 C 31.820312 33.546875 32.195312 33.699219 32.246094 33.960938 C 32.296875 34.226562 32.144531 34.4375 31.550781 34.425781 C 30.90625 34.417969 30.179688 34.363281 29.714844 34.597656 C 29.246094 34.828125 27.890625 36.707031 26.023438 36.886719 C 24.15625 37.066406 25.5 33.636719 25.5 33.636719 Z M 25.5 33.636719 " fill-opacity="1" fill-rule="nonzero"/><path fill="#000000" d="M 25.886719 36.929688 C 25.589844 36.929688 25.367188 36.828125 25.214844 36.628906 C 24.609375 35.828125 25.429688 33.710938 25.46875 33.625 C 25.472656 33.613281 25.480469 33.605469 25.488281 33.601562 C 25.496094 33.597656 25.527344 33.585938 25.570312 33.566406 C 27.054688 32.925781 28.269531 32.523438 29.085938 32.394531 C 30.714844 32.140625 31.511719 32.984375 31.84375 33.515625 C 31.910156 33.542969 32.230469 33.699219 32.28125 33.953125 C 32.304688 34.082031 32.28125 34.191406 32.210938 34.273438 C 32.101562 34.40625 31.878906 34.46875 31.546875 34.460938 C 31.460938 34.460938 31.375 34.457031 31.289062 34.457031 C 30.714844 34.441406 30.121094 34.429688 29.726562 34.628906 C 29.605469 34.6875 29.417969 34.867188 29.179688 35.09375 C 28.515625 35.726562 27.40625 36.789062 26.023438 36.921875 C 25.976562 36.925781 25.929688 36.929688 25.886719 36.929688 Z M 25.53125 33.667969 C 25.457031 33.859375 24.722656 35.851562 25.273438 36.585938 C 25.429688 36.792969 25.679688 36.882812 26.015625 36.847656 C 27.371094 36.71875 28.472656 35.667969 29.128906 35.042969 C 29.378906 34.800781 29.5625 34.628906 29.691406 34.5625 C 30.105469 34.355469 30.710938 34.371094 31.292969 34.382812 C 31.378906 34.382812 31.464844 34.386719 31.546875 34.386719 C 31.855469 34.390625 32.058594 34.339844 32.152344 34.226562 C 32.207031 34.160156 32.226562 34.074219 32.203125 33.96875 C 32.160156 33.730469 31.804688 33.582031 31.800781 33.582031 C 31.792969 33.578125 31.785156 33.574219 31.785156 33.566406 C 31.464844 33.050781 30.691406 32.222656 29.09375 32.472656 C 28.289062 32.597656 27.078125 33 25.597656 33.636719 C 25.566406 33.652344 25.542969 33.660156 25.53125 33.667969 Z M 25.53125 33.667969 " fill-opacity="1" fill-rule="nonzero"/><path fill="#000000" d="M 31.804688 33.582031 C 31.800781 33.582031 31.800781 33.582031 31.800781 33.582031 C 31.785156 33.582031 30.410156 33.394531 29.792969 33.515625 C 29.773438 33.519531 29.753906 33.507812 29.75 33.488281 C 29.746094 33.464844 29.757812 33.445312 29.777344 33.441406 C 30.410156 33.320312 31.75 33.5 31.808594 33.507812 C 31.828125 33.511719 31.84375 33.53125 31.839844 33.550781 C 31.839844 33.570312 31.820312 33.582031 31.804688 33.582031 Z M 31.804688 33.582031 " fill-opacity="1" fill-rule="nonzero"/><g clip-path="url(#697ab9d450)"><path fill="#cbacf9" d="M 25.886719 32.882812 C 25.886719 32.882812 26.285156 32.675781 26.566406 34.527344 C 26.945312 37.027344 26.449219 37.320312 26.449219 37.320312 L 7.777344 37.320312 C 3.703125 37.320312 0.398438 34.015625 0.398438 29.941406 C 0.398438 29.941406 1.019531 25.46875 4.503906 24.769531 C 4.503906 24.769531 4.328125 22.96875 6.070312 22.675781 C 7.816406 22.386719 11.476562 22.734375 13.160156 24.011719 C 14.84375 25.289062 14.769531 26.371094 14.769531 26.371094 C 14.769531 26.371094 15.890625 26.742188 16.703125 27.90625 C 17.519531 29.066406 18.699219 33 18.699219 33 Z M 25.886719 32.882812 " fill-opacity="1" fill-rule="nonzero"/></g><path fill="#000000" d="M 8.066406 29.652344 C 7.925781 29.652344 7.78125 29.644531 7.636719 29.628906 C 6.539062 29.511719 5.695312 28.976562 5.121094 28.039062 C 4.339844 26.757812 4.328125 25.125 4.417969 24.894531 C 4.425781 24.875 4.445312 24.863281 4.46875 24.871094 C 4.488281 24.878906 4.496094 24.898438 4.488281 24.921875 C 4.414062 25.121094 4.417969 26.742188 5.1875 27.996094 C 5.746094 28.914062 6.574219 29.4375 7.644531 29.554688 C 7.789062 29.570312 7.925781 29.574219 8.0625 29.574219 C 9.738281 29.574219 11.015625 28.488281 12.054688 27.605469 C 12.875 26.90625 13.585938 26.300781 14.277344 26.390625 C 14.296875 26.390625 14.3125 26.410156 14.308594 26.433594 C 14.304688 26.453125 14.289062 26.464844 14.265625 26.464844 C 13.605469 26.382812 12.910156 26.976562 12.105469 27.664062 C 11.054688 28.554688 9.765625 29.652344 8.066406 29.652344 Z M 8.066406 29.652344 " fill-opacity="1" fill-rule="nonzero"/><path fill="#000000" d="M 19.164062 34.605469 C 19.148438 34.605469 19.132812 34.597656 19.128906 34.578125 L 18.644531 33 C 18.636719 32.980469 18.648438 32.960938 18.667969 32.953125 C 18.691406 32.945312 18.710938 32.957031 18.71875 32.976562 L 19.203125 34.554688 C 19.210938 34.578125 19.199219 34.597656 19.175781 34.605469 C 19.171875 34.605469 19.167969 34.605469 19.164062 34.605469 Z M 19.164062 34.605469 " fill-opacity="1" fill-rule="nonzero"/></svg>