<svg xmlns="http://www.w3.org/2000/svg" xmlns:xlink="http://www.w3.org/1999/xlink" width="64" zoomAndPan="magnify" viewBox="0 0 48 44.249999" height="59" preserveAspectRatio="xMidYMid meet" version="1.0"><defs><clipPath id="f2adb1da6f"><path d="M 1 18 L 47.597656 18 L 47.597656 37.332031 L 1 37.332031 Z M 1 18 " clip-rule="nonzero"/></clipPath><clipPath id="948208312e"><path d="M 37 30 L 38 30 L 38 37.332031 L 37 37.332031 Z M 37 30 " clip-rule="nonzero"/></clipPath><clipPath id="67613e853b"><path d="M 16 27 L 17 27 L 17 37.332031 L 16 37.332031 Z M 16 27 " clip-rule="nonzero"/></clipPath><clipPath id="281113bc3a"><path d="M 19 26 L 21 26 L 21 37.332031 L 19 37.332031 Z M 19 26 " clip-rule="nonzero"/></clipPath><clipPath id="1f64db06bb"><path d="M 34 26 L 35 26 L 35 37.332031 L 34 37.332031 Z M 34 26 " clip-rule="nonzero"/></clipPath><clipPath id="f3b9df427e"><path d="M 17 6.355469 L 32 6.355469 L 32 15 L 17 15 Z M 17 6.355469 " clip-rule="nonzero"/></clipPath><clipPath id="8e9b57446f"><path d="M 25 6.355469 L 30 6.355469 L 30 15 L 25 15 Z M 25 6.355469 " clip-rule="nonzero"/></clipPath><clipPath id="8bcb1d4de7"><path d="M 39 6.355469 L 46 6.355469 L 46 10 L 39 10 Z M 39 6.355469 " clip-rule="nonzero"/></clipPath><clipPath id="9de6b01828"><path d="M 43 9 L 47.597656 9 L 47.597656 14 L 43 14 Z M 43 9 " clip-rule="nonzero"/></clipPath><clipPath id="58e0bb0906"><path d="M 3 6.355469 L 9 6.355469 L 9 14 L 3 14 Z M 3 6.355469 " clip-rule="nonzero"/></clipPath></defs><g clip-path="url(#f2adb1da6f)"><path fill="#cbacf9" d="M 23.503906 26.003906 L 18.179688 27.011719 L 13.59375 28.246094 L 14.890625 23.304688 L 9.054688 20.628906 L 2.371094 30.421875 C 0.414062 33.285156 2.492188 37.148438 5.992188 37.148438 L 38.746094 37.148438 C 43.628906 37.148438 47.585938 33.238281 47.585938 28.410156 C 47.585938 27.273438 47.078125 26.195312 46.203125 25.460938 L 37.992188 18.554688 L 32.816406 21.726562 L 34.496094 25.351562 L 31.890625 25.21875 Z M 23.503906 26.003906 " fill-opacity="1" fill-rule="nonzero"/></g><path fill="#000000" d="M 39.65625 35.058594 C 39.640625 35.058594 39.628906 35.050781 39.621094 35.035156 L 34.464844 25.367188 C 34.457031 25.347656 34.464844 25.328125 34.480469 25.316406 C 34.5 25.304688 34.523438 25.3125 34.53125 25.332031 L 39.6875 35 C 39.699219 35.019531 39.691406 35.042969 39.671875 35.050781 C 39.667969 35.054688 39.660156 35.058594 39.65625 35.058594 Z M 39.65625 35.058594 " fill-opacity="1" fill-rule="nonzero"/><path fill="#000000" d="M 9.847656 29.234375 C 9.832031 29.234375 9.816406 29.222656 9.8125 29.203125 C 9.808594 29.183594 9.820312 29.164062 9.839844 29.160156 L 13.585938 28.207031 C 13.605469 28.203125 13.625 28.214844 13.632812 28.234375 C 13.636719 28.253906 13.625 28.277344 13.605469 28.28125 L 9.859375 29.230469 C 9.855469 29.234375 9.851562 29.234375 9.847656 29.234375 Z M 9.847656 29.234375 " fill-opacity="1" fill-rule="nonzero"/><g clip-path="url(#948208312e)"><path fill="#ffffff" d="M 37.386719 37.070312 C 37.367188 37.070312 37.351562 37.058594 37.351562 37.035156 L 37.066406 30.316406 C 37.066406 30.296875 37.082031 30.277344 37.101562 30.277344 C 37.121094 30.277344 37.140625 30.292969 37.140625 30.3125 L 37.421875 37.035156 C 37.425781 37.054688 37.410156 37.070312 37.386719 37.070312 Z M 37.386719 37.070312 " fill-opacity="1" fill-rule="nonzero"/></g><g clip-path="url(#67613e853b)"><path fill="#ffffff" d="M 16.875 37.015625 C 16.855469 37.015625 16.839844 37 16.839844 36.980469 L 16.898438 27.515625 C 16.898438 27.496094 16.914062 27.476562 16.933594 27.476562 C 16.953125 27.476562 16.96875 27.496094 16.96875 27.515625 L 16.914062 36.980469 C 16.910156 37 16.898438 37.015625 16.875 37.015625 Z M 16.875 37.015625 " fill-opacity="1" fill-rule="nonzero"/></g><path fill="#ffffff" d="M 27.472656 34.777344 C 27.460938 34.777344 27.449219 34.773438 27.441406 34.761719 L 21.320312 26.472656 C 21.308594 26.457031 21.3125 26.433594 21.328125 26.421875 C 21.347656 26.410156 21.371094 26.414062 21.382812 26.429688 L 27.46875 34.671875 L 32.859375 25.339844 C 32.871094 25.320312 32.890625 25.316406 32.910156 25.328125 C 32.925781 25.335938 32.933594 25.359375 32.921875 25.378906 L 27.503906 34.757812 C 27.496094 34.769531 27.488281 34.777344 27.472656 34.777344 Z M 27.472656 34.777344 " fill-opacity="1" fill-rule="nonzero"/><g clip-path="url(#281113bc3a)"><path fill="#ffffff" d="M 20.367188 37.035156 C 20.347656 37.035156 20.332031 37.019531 20.332031 37 L 19.285156 26.765625 C 19.28125 26.746094 19.296875 26.726562 19.316406 26.722656 C 19.335938 26.722656 19.355469 26.738281 19.359375 26.757812 L 20.402344 36.992188 C 20.40625 37.011719 20.390625 37.03125 20.371094 37.035156 C 20.371094 37.035156 20.367188 37.035156 20.367188 37.035156 Z M 20.367188 37.035156 " fill-opacity="1" fill-rule="nonzero"/></g><g clip-path="url(#1f64db06bb)"><path fill="#ffffff" d="M 34.050781 37.070312 C 34.027344 37.070312 34.015625 37.050781 34.015625 37.03125 L 34.726562 26.132812 C 34.726562 26.113281 34.742188 26.097656 34.765625 26.097656 C 34.785156 26.101562 34.800781 26.117188 34.796875 26.136719 L 34.085938 37.035156 C 34.085938 37.054688 34.070312 37.070312 34.050781 37.070312 Z M 34.050781 37.070312 " fill-opacity="1" fill-rule="nonzero"/></g><path fill="#ffffff" d="M 20.421875 17.402344 C 20.421875 17.402344 20.417969 17.40625 20.417969 17.40625 C 20.125 17.617188 19.808594 17.8125 19.480469 17.96875 C 19.15625 18.125 18.816406 18.246094 18.460938 18.3125 C 18.289062 18.347656 18.109375 18.367188 17.929688 18.378906 C 17.773438 18.382812 17.617188 18.378906 17.46875 18.328125 C 17.355469 18.292969 17.246094 18.230469 17.167969 18.136719 C 17.089844 18.042969 17.050781 17.929688 17.042969 17.808594 C 17.03125 17.660156 17.066406 17.503906 17.125 17.363281 C 17.195312 17.191406 17.304688 17.035156 17.429688 16.898438 C 17.492188 16.824219 17.558594 16.753906 17.628906 16.6875 C 17.699219 16.621094 17.765625 16.554688 17.835938 16.488281 C 17.988281 16.355469 18.15625 16.242188 18.328125 16.140625 C 18.5 16.035156 18.679688 15.941406 18.859375 15.84375 C 19.039062 15.746094 19.21875 15.648438 19.402344 15.554688 C 19.671875 15.417969 19.953125 15.285156 20.242188 15.203125 L 20.109375 13.527344 L 19.347656 12.699219 L 18.566406 12.742188 C 18.566406 12.742188 18.386719 11.941406 17.527344 12.203125 C 16.671875 12.46875 15.660156 13.113281 15.660156 13.113281 C 15.660156 13.113281 15.382812 12.765625 14.460938 13.25 C 13.539062 13.734375 13.074219 14.148438 12.84375 14.472656 C 12.613281 14.796875 12.199219 15.578125 12.199219 15.578125 C 12.199219 15.578125 11.414062 15.808594 10.863281 16.847656 C 10.308594 17.886719 9.339844 20.027344 9.339844 20.027344 L 7.855469 21.480469 L 14.8125 24.589844 L 15.058594 22.886719 L 19.417969 20.050781 L 19.324219 19.496094 L 20.429688 17.539062 Z M 20.421875 17.402344 " fill-opacity="1" fill-rule="nonzero"/><path fill="#000000" d="M 14.8125 24.625 C 14.808594 24.625 14.804688 24.625 14.796875 24.625 L 14.535156 24.503906 C 14.519531 24.496094 14.507812 24.476562 14.519531 24.457031 C 14.527344 24.4375 14.546875 24.429688 14.566406 24.4375 L 14.785156 24.535156 L 15.023438 22.878906 C 15.023438 22.871094 15.027344 22.859375 15.039062 22.855469 L 19.375 20.03125 L 19.289062 19.503906 C 19.289062 19.492188 19.289062 19.484375 19.292969 19.480469 L 20.394531 17.527344 L 20.390625 17.472656 C 20.085938 17.6875 19.789062 17.863281 19.492188 18.003906 C 19.152344 18.167969 18.804688 18.28125 18.46875 18.347656 C 18.292969 18.382812 18.109375 18.40625 17.933594 18.414062 C 17.789062 18.417969 17.621094 18.417969 17.457031 18.363281 C 17.324219 18.320312 17.214844 18.25 17.140625 18.160156 C 17.0625 18.0625 17.015625 17.941406 17.007812 17.808594 C 16.996094 17.667969 17.023438 17.511719 17.089844 17.347656 C 17.15625 17.1875 17.257812 17.03125 17.402344 16.871094 C 17.457031 16.804688 17.523438 16.738281 17.601562 16.660156 L 17.625 16.636719 C 17.6875 16.578125 17.75 16.515625 17.8125 16.460938 C 17.949219 16.339844 18.109375 16.222656 18.308594 16.105469 C 18.472656 16.003906 18.644531 15.914062 18.8125 15.824219 L 18.839844 15.808594 C 18.90625 15.777344 18.96875 15.742188 19.03125 15.707031 C 19.148438 15.644531 19.269531 15.578125 19.386719 15.519531 C 19.621094 15.398438 19.902344 15.261719 20.203125 15.175781 L 20.074219 13.539062 L 19.332031 12.734375 L 18.566406 12.773438 C 18.546875 12.777344 18.535156 12.761719 18.527344 12.746094 C 18.527344 12.742188 18.453125 12.425781 18.183594 12.269531 C 18.011719 12.167969 17.796875 12.160156 17.539062 12.238281 C 16.699219 12.496094 15.6875 13.136719 15.679688 13.140625 C 15.664062 13.148438 15.640625 13.148438 15.628906 13.132812 C 15.628906 13.128906 15.355469 12.820312 14.476562 13.28125 C 13.695312 13.691406 13.15625 14.097656 12.875 14.492188 C 12.648438 14.808594 12.238281 15.585938 12.234375 15.59375 C 12.226562 15.601562 12.21875 15.609375 12.210938 15.613281 C 12.203125 15.613281 11.4375 15.851562 10.894531 16.863281 C 10.347656 17.886719 9.386719 20.019531 9.375 20.039062 C 9.375 20.046875 9.371094 20.050781 9.367188 20.050781 L 7.921875 21.464844 L 8.222656 21.601562 C 8.242188 21.609375 8.25 21.632812 8.242188 21.652344 C 8.234375 21.667969 8.210938 21.675781 8.195312 21.667969 L 7.839844 21.511719 C 7.828125 21.507812 7.824219 21.496094 7.820312 21.484375 C 7.816406 21.472656 7.820312 21.460938 7.828125 21.449219 L 9.308594 20.003906 C 9.367188 19.875 10.296875 17.824219 10.828125 16.824219 C 11.347656 15.855469 12.058594 15.582031 12.171875 15.542969 C 12.226562 15.441406 12.601562 14.746094 12.8125 14.449219 C 13.101562 14.046875 13.648438 13.628906 14.441406 13.214844 C 15.246094 12.792969 15.574219 12.988281 15.660156 13.0625 C 15.824219 12.960938 16.738281 12.402344 17.515625 12.164062 C 17.792969 12.082031 18.027344 12.09375 18.21875 12.203125 C 18.46875 12.347656 18.5625 12.609375 18.589844 12.699219 L 19.34375 12.65625 C 19.355469 12.65625 19.363281 12.660156 19.371094 12.667969 L 20.132812 13.496094 C 20.136719 13.503906 20.140625 13.511719 20.140625 13.519531 L 20.277344 15.195312 C 20.277344 15.210938 20.265625 15.226562 20.25 15.234375 C 19.945312 15.320312 19.65625 15.457031 19.417969 15.582031 C 19.300781 15.640625 19.179688 15.707031 19.066406 15.769531 C 19 15.804688 18.9375 15.839844 18.875 15.875 L 18.84375 15.890625 C 18.679688 15.976562 18.507812 16.070312 18.34375 16.167969 C 18.152344 16.28125 17.992188 16.394531 17.859375 16.511719 C 17.796875 16.570312 17.734375 16.628906 17.671875 16.6875 L 17.648438 16.710938 C 17.570312 16.789062 17.507812 16.851562 17.453125 16.914062 C 17.3125 17.070312 17.21875 17.222656 17.15625 17.371094 C 17.09375 17.527344 17.066406 17.671875 17.074219 17.804688 C 17.082031 17.921875 17.125 18.027344 17.191406 18.109375 C 17.257812 18.191406 17.359375 18.253906 17.476562 18.292969 C 17.628906 18.34375 17.789062 18.34375 17.925781 18.335938 C 18.097656 18.328125 18.277344 18.308594 18.449219 18.273438 C 18.78125 18.207031 19.117188 18.09375 19.457031 17.933594 C 19.765625 17.785156 20.078125 17.597656 20.390625 17.371094 C 20.402344 17.363281 20.414062 17.359375 20.429688 17.367188 C 20.441406 17.371094 20.453125 17.382812 20.453125 17.394531 L 20.460938 17.527344 C 20.460938 17.535156 20.460938 17.542969 20.457031 17.550781 L 19.355469 19.5 L 19.445312 20.039062 C 19.449219 20.054688 19.445312 20.066406 19.429688 20.078125 L 15.085938 22.902344 L 14.84375 24.589844 C 14.84375 24.601562 14.835938 24.613281 14.824219 24.617188 C 14.824219 24.625 14.820312 24.625 14.8125 24.625 Z M 14.8125 24.625 " fill-opacity="1" fill-rule="nonzero"/><path fill="#000000" d="M 15.058594 22.921875 C 15.054688 22.921875 15.050781 22.921875 15.042969 22.917969 L 9.65625 20.339844 C 9.636719 20.332031 9.628906 20.308594 9.640625 20.292969 C 9.648438 20.273438 9.667969 20.265625 9.6875 20.273438 L 15.078125 22.855469 C 15.09375 22.863281 15.101562 22.882812 15.09375 22.902344 C 15.085938 22.914062 15.074219 22.921875 15.058594 22.921875 Z M 15.058594 22.921875 " fill-opacity="1" fill-rule="nonzero"/><path fill="#000000" d="M 15.832031 15.820312 C 15.824219 15.820312 15.8125 15.816406 15.804688 15.808594 C 15.792969 15.796875 15.789062 15.773438 15.804688 15.757812 C 15.808594 15.753906 16.207031 15.320312 16.59375 14.871094 C 16.789062 14.652344 17.03125 14.527344 17.292969 14.394531 C 17.585938 14.246094 17.890625 14.089844 18.179688 13.777344 C 18.710938 13.203125 18.53125 12.757812 18.53125 12.753906 C 18.523438 12.734375 18.53125 12.710938 18.550781 12.703125 C 18.570312 12.695312 18.589844 12.707031 18.597656 12.726562 C 18.609375 12.746094 18.796875 13.21875 18.234375 13.828125 C 17.941406 14.148438 17.613281 14.316406 17.328125 14.460938 C 17.074219 14.589844 16.835938 14.710938 16.652344 14.921875 C 16.261719 15.371094 15.863281 15.804688 15.859375 15.804688 C 15.851562 15.816406 15.84375 15.820312 15.832031 15.820312 Z M 15.832031 15.820312 " fill-opacity="1" fill-rule="nonzero"/><path fill="#000000" d="M 12.515625 18.847656 C 12.507812 18.847656 12.503906 18.84375 12.496094 18.839844 C 12.480469 18.832031 12.472656 18.808594 12.484375 18.789062 C 12.6875 18.464844 12.710938 18.152344 12.730469 17.878906 C 12.761719 17.449219 12.789062 17.082031 13.480469 16.878906 C 14.1875 16.671875 14.652344 16.363281 14.789062 16.011719 C 14.859375 15.832031 14.839844 15.644531 14.726562 15.457031 C 14.402344 14.910156 12.234375 15.605469 12.210938 15.613281 C 12.191406 15.617188 12.171875 15.605469 12.164062 15.585938 C 12.15625 15.566406 12.167969 15.546875 12.1875 15.539062 C 12.277344 15.511719 14.433594 14.824219 14.789062 15.417969 C 14.914062 15.625 14.9375 15.832031 14.855469 16.039062 C 14.710938 16.414062 14.230469 16.738281 13.5 16.949219 C 12.855469 17.136719 12.832031 17.449219 12.800781 17.882812 C 12.78125 18.164062 12.757812 18.488281 12.542969 18.828125 C 12.539062 18.839844 12.527344 18.847656 12.515625 18.847656 Z M 12.515625 18.847656 " fill-opacity="1" fill-rule="nonzero"/><path fill="#000000" d="M 14.757812 15.425781 C 14.75 15.425781 14.742188 15.421875 14.734375 15.417969 C 14.71875 15.40625 14.714844 15.382812 14.726562 15.367188 C 14.824219 15.230469 14.957031 15.097656 15.101562 14.957031 C 15.382812 14.6875 15.695312 14.378906 15.816406 13.960938 C 15.988281 13.351562 15.644531 13.144531 15.640625 13.140625 C 15.625 13.132812 15.617188 13.109375 15.625 13.089844 C 15.636719 13.074219 15.660156 13.066406 15.675781 13.078125 C 15.695312 13.089844 16.078125 13.316406 15.886719 13.984375 C 15.761719 14.417969 15.441406 14.734375 15.15625 15.007812 C 15.015625 15.148438 14.882812 15.277344 14.789062 15.40625 C 14.78125 15.417969 14.769531 15.425781 14.757812 15.425781 Z M 14.757812 15.425781 " fill-opacity="1" fill-rule="nonzero"/><path fill="#cbacf9" d="M 23.980469 16.214844 C 23.980469 16.710938 23.898438 17.183594 23.734375 17.640625 C 23.574219 18.097656 23.339844 18.5 23.039062 18.851562 C 22.738281 19.199219 22.390625 19.46875 21.996094 19.65625 C 21.601562 19.847656 21.195312 19.941406 20.765625 19.941406 C 20.339844 19.941406 19.929688 19.847656 19.539062 19.65625 C 19.144531 19.46875 18.796875 19.199219 18.496094 18.851562 C 18.195312 18.5 17.960938 18.097656 17.800781 17.640625 C 17.636719 17.183594 17.554688 16.710938 17.554688 16.214844 C 17.554688 15.722656 17.636719 15.246094 17.800781 14.789062 C 17.960938 14.332031 18.195312 13.929688 18.496094 13.582031 C 18.796875 13.230469 19.144531 12.960938 19.539062 12.773438 C 19.929688 12.582031 20.339844 12.488281 20.765625 12.488281 C 21.195312 12.488281 21.601562 12.582031 21.996094 12.773438 C 22.390625 12.960938 22.738281 13.230469 23.039062 13.582031 C 23.339844 13.929688 23.574219 14.332031 23.734375 14.789062 C 23.898438 15.246094 23.980469 15.722656 23.980469 16.214844 Z M 23.980469 16.214844 " fill-opacity="1" fill-rule="nonzero"/><path fill="#000000" d="M 30.105469 11.359375 L 31.382812 13.167969 C 31.382812 13.167969 31.710938 13.945312 31.152344 15.695312 C 30.59375 17.441406 26.746094 18.351562 26.746094 18.351562 L 21.78125 13.734375 L 20.523438 12.128906 Z M 30.105469 11.359375 " fill-opacity="1" fill-rule="nonzero"/><path fill="#000000" d="M 26.746094 18.390625 C 26.738281 18.390625 26.726562 18.386719 26.722656 18.378906 L 21.753906 13.765625 C 21.753906 13.761719 21.75 13.761719 21.75 13.757812 L 20.492188 12.152344 C 20.484375 12.140625 20.484375 12.125 20.488281 12.113281 C 20.492188 12.101562 20.503906 12.09375 20.519531 12.09375 L 30.101562 11.324219 C 30.113281 11.324219 30.125 11.328125 30.132812 11.339844 L 31.414062 13.148438 C 31.417969 13.148438 31.417969 13.152344 31.417969 13.15625 C 31.429688 13.1875 31.746094 13.964844 31.1875 15.707031 C 30.953125 16.441406 30.132812 17.117188 28.753906 17.714844 C 27.730469 18.15625 26.761719 18.386719 26.753906 18.390625 C 26.753906 18.390625 26.75 18.390625 26.746094 18.390625 Z M 21.808594 13.710938 L 26.757812 18.3125 C 27.050781 18.242188 30.59375 17.332031 31.117188 15.683594 C 31.648438 14.03125 31.375 13.246094 31.351562 13.1875 L 30.085938 11.398438 L 20.59375 12.160156 Z M 21.808594 13.710938 " fill-opacity="1" fill-rule="nonzero"/><path fill="#ffffff" d="M 29.410156 18.367188 L 31.023438 24.4375 L 31.84375 25.097656 C 31.84375 25.097656 28.164062 28.71875 23.46875 25.890625 L 24.316406 25.328125 L 23.863281 20.914062 Z M 29.410156 18.367188 " fill-opacity="1" fill-rule="nonzero"/><path fill="#000000" d="M 23.46875 25.925781 C 23.457031 25.925781 23.445312 25.921875 23.4375 25.910156 C 23.425781 25.894531 23.433594 25.871094 23.449219 25.859375 L 24.277344 25.304688 L 23.828125 20.914062 C 23.824219 20.902344 23.835938 20.886719 23.847656 20.878906 L 29.390625 18.332031 C 29.402344 18.328125 29.414062 18.328125 29.425781 18.332031 C 29.433594 18.339844 29.441406 18.347656 29.445312 18.355469 L 31.054688 24.414062 L 31.863281 25.070312 C 31.878906 25.082031 31.882812 25.105469 31.867188 25.121094 C 31.855469 25.136719 31.832031 25.140625 31.816406 25.125 L 30.996094 24.464844 C 30.992188 24.457031 30.988281 24.453125 30.984375 24.445312 L 29.382812 18.417969 L 23.90625 20.933594 L 24.355469 25.320312 C 24.355469 25.332031 24.347656 25.347656 24.335938 25.351562 L 23.488281 25.917969 C 23.484375 25.925781 23.476562 25.925781 23.46875 25.925781 Z M 23.46875 25.925781 " fill-opacity="1" fill-rule="nonzero"/><path fill="#ffffff" d="M 19.335938 19.472656 C 19.441406 20.359375 19.578125 21.132812 19.753906 21.640625 C 20.523438 23.878906 26.957031 22.199219 27.9375 21.222656 C 28.914062 20.242188 28.984375 18.285156 28.984375 18.285156 C 28.984375 18.285156 30.328125 18.730469 31.125 16.898438 C 31.925781 15.066406 30.386719 14.296875 29.125 15.136719 C 27.867188 15.976562 28.007812 16.117188 27.449219 16.117188 C 26.886719 16.117188 25.558594 13.808594 24.089844 13.179688 C 22.621094 12.550781 18.984375 12.128906 18.984375 12.128906 C 18.984375 12.128906 18.984375 13.015625 19.015625 14.261719 Z M 19.335938 19.472656 " fill-opacity="1" fill-rule="nonzero"/><path fill="#000000" d="M 22.308594 22.785156 C 21.847656 22.785156 21.433594 22.746094 21.082031 22.664062 C 20.351562 22.496094 19.890625 22.15625 19.71875 21.652344 C 19.554688 21.179688 19.414062 20.449219 19.300781 19.476562 C 19.300781 19.457031 19.3125 19.4375 19.332031 19.4375 C 19.351562 19.433594 19.371094 19.449219 19.371094 19.46875 C 19.488281 20.4375 19.625 21.160156 19.785156 21.628906 C 19.953125 22.105469 20.390625 22.429688 21.097656 22.59375 C 23.242188 23.089844 27.167969 21.933594 27.910156 21.195312 C 28.867188 20.238281 28.945312 18.300781 28.945312 18.28125 C 28.945312 18.269531 28.953125 18.257812 28.960938 18.253906 C 28.972656 18.246094 28.984375 18.246094 28.992188 18.246094 C 28.996094 18.25 29.328125 18.355469 29.746094 18.238281 C 30.304688 18.085938 30.769531 17.617188 31.089844 16.882812 C 31.425781 16.109375 31.367188 15.457031 30.933594 15.089844 C 30.484375 14.71875 29.769531 14.75 29.140625 15.164062 C 28.6875 15.46875 28.410156 15.683594 28.226562 15.828125 C 27.890625 16.089844 27.8125 16.152344 27.441406 16.152344 C 27.179688 16.152344 26.785156 15.707031 26.285156 15.140625 C 25.664062 14.4375 24.886719 13.5625 24.070312 13.210938 C 22.707031 12.628906 19.421875 12.21875 19.015625 12.167969 C 19.015625 12.359375 19.019531 13.175781 19.046875 14.261719 C 19.046875 14.28125 19.03125 14.296875 19.011719 14.300781 C 18.992188 14.300781 18.972656 14.285156 18.972656 14.265625 C 18.941406 13.027344 18.941406 12.136719 18.941406 12.128906 C 18.941406 12.117188 18.949219 12.109375 18.953125 12.101562 C 18.960938 12.09375 18.972656 12.09375 18.984375 12.09375 C 19.019531 12.097656 22.640625 12.519531 24.097656 13.144531 C 24.929688 13.5 25.710938 14.386719 26.339844 15.09375 C 26.808594 15.621094 27.210938 16.078125 27.441406 16.078125 C 27.785156 16.078125 27.851562 16.027344 28.179688 15.773438 C 28.359375 15.628906 28.640625 15.414062 29.101562 15.105469 C 29.753906 14.671875 30.507812 14.644531 30.980469 15.035156 C 31.441406 15.421875 31.503906 16.109375 31.15625 16.910156 C 30.738281 17.871094 30.167969 18.203125 29.761719 18.3125 C 29.410156 18.410156 29.125 18.359375 29.015625 18.332031 C 28.996094 18.636719 28.851562 20.355469 27.957031 21.246094 C 27.574219 21.628906 26.402344 22.105469 25.046875 22.429688 C 24.054688 22.664062 23.109375 22.785156 22.308594 22.785156 Z M 22.308594 22.785156 " fill-opacity="1" fill-rule="nonzero"/><g clip-path="url(#f3b9df427e)"><path fill="#ffffff" d="M 17.382812 13.167969 L 17.226562 13.707031 C 17.109375 14.097656 17.40625 14.496094 17.816406 14.496094 L 24.726562 14.496094 C 24.96875 14.496094 25.1875 14.351562 25.289062 14.132812 L 25.71875 13.171875 L 31.382812 13.171875 C 31.382812 13.171875 31.453125 6.617188 25.195312 6.617188 C 18.941406 6.617188 18.414062 13.171875 18.414062 13.171875 L 17.382812 13.171875 Z M 17.382812 13.167969 " fill-opacity="1" fill-rule="nonzero"/><path fill="#000000" d="M 24.726562 14.53125 L 17.816406 14.53125 C 17.609375 14.53125 17.417969 14.433594 17.296875 14.269531 C 17.171875 14.105469 17.132812 13.894531 17.191406 13.695312 L 17.347656 13.160156 C 17.351562 13.144531 17.367188 13.132812 17.382812 13.132812 L 18.382812 13.132812 C 18.40625 12.890625 18.59375 11.375 19.429688 9.875 C 19.960938 8.917969 20.652344 8.15625 21.480469 7.609375 C 22.511719 6.925781 23.761719 6.582031 25.199219 6.582031 C 27.003906 6.582031 28.457031 7.125 29.523438 8.203125 C 31.433594 10.132812 31.421875 13.140625 31.421875 13.171875 C 31.421875 13.191406 31.40625 13.210938 31.386719 13.210938 L 25.742188 13.210938 L 25.324219 14.148438 C 25.21875 14.378906 24.984375 14.53125 24.726562 14.53125 Z M 17.410156 13.207031 L 17.261719 13.714844 C 17.210938 13.890625 17.246094 14.078125 17.355469 14.226562 C 17.464844 14.371094 17.632812 14.457031 17.816406 14.457031 L 24.726562 14.457031 C 24.953125 14.457031 25.160156 14.324219 25.253906 14.117188 L 25.683594 13.15625 C 25.691406 13.140625 25.703125 13.132812 25.71875 13.132812 L 31.347656 13.132812 C 31.34375 12.785156 31.242188 10.042969 29.46875 8.253906 C 28.421875 7.191406 26.980469 6.652344 25.195312 6.652344 C 21.984375 6.652344 20.320312 8.421875 19.492188 9.910156 C 18.59375 11.523438 18.453125 13.15625 18.449219 13.171875 C 18.449219 13.191406 18.433594 13.207031 18.414062 13.207031 Z M 17.410156 13.207031 " fill-opacity="1" fill-rule="nonzero"/></g><path fill="#000000" d="M 25.035156 13.207031 L 18.414062 13.207031 C 18.394531 13.207031 18.378906 13.1875 18.378906 13.167969 C 18.378906 13.148438 18.394531 13.132812 18.414062 13.132812 L 25.035156 13.132812 C 25.054688 13.132812 25.070312 13.148438 25.070312 13.167969 C 25.070312 13.191406 25.054688 13.207031 25.035156 13.207031 Z M 25.035156 13.207031 " fill-opacity="1" fill-rule="nonzero"/><path fill="#000000" d="M 23.390625 13.179688 C 23.371094 13.179688 23.351562 13.160156 23.351562 13.140625 C 23.351562 13.128906 23.339844 11.925781 23.632812 10.613281 C 24.027344 8.867188 24.78125 7.722656 25.824219 7.300781 C 25.84375 7.296875 25.863281 7.304688 25.875 7.324219 C 25.882812 7.339844 25.871094 7.363281 25.851562 7.371094 C 24.566406 7.890625 23.976562 9.425781 23.707031 10.625 C 23.414062 11.933594 23.429688 13.128906 23.429688 13.140625 C 23.425781 13.160156 23.410156 13.179688 23.390625 13.179688 Z M 23.390625 13.179688 " fill-opacity="1" fill-rule="nonzero"/><path fill="#000000" d="M 20.3125 13.144531 C 20.289062 13.144531 20.273438 13.125 20.273438 13.105469 C 20.273438 13.09375 20.3125 12.089844 20.597656 10.910156 C 20.863281 9.820312 21.402344 8.351562 22.457031 7.550781 C 22.476562 7.539062 22.496094 7.542969 22.511719 7.558594 C 22.523438 7.574219 22.519531 7.59375 22.503906 7.609375 C 20.511719 9.121094 20.351562 13.070312 20.347656 13.109375 C 20.347656 13.128906 20.332031 13.144531 20.3125 13.144531 Z M 20.3125 13.144531 " fill-opacity="1" fill-rule="nonzero"/><path fill="#cbacf9" d="M 32.03125 16.214844 C 32.03125 16.710938 31.949219 17.183594 31.785156 17.640625 C 31.621094 18.097656 31.390625 18.5 31.089844 18.851562 C 30.789062 19.199219 30.441406 19.46875 30.046875 19.65625 C 29.652344 19.847656 29.242188 19.941406 28.816406 19.941406 C 28.390625 19.941406 27.980469 19.847656 27.585938 19.65625 C 27.195312 19.46875 26.847656 19.199219 26.546875 18.851562 C 26.242188 18.5 26.011719 18.097656 25.847656 17.640625 C 25.6875 17.183594 25.605469 16.710938 25.605469 16.214844 C 25.605469 15.722656 25.6875 15.246094 25.847656 14.789062 C 26.011719 14.332031 26.242188 13.929688 26.546875 13.582031 C 26.847656 13.230469 27.195312 12.960938 27.585938 12.773438 C 27.980469 12.582031 28.390625 12.488281 28.816406 12.488281 C 29.242188 12.488281 29.652344 12.582031 30.046875 12.773438 C 30.441406 12.960938 30.789062 13.230469 31.089844 13.582031 C 31.390625 13.929688 31.621094 14.332031 31.785156 14.789062 C 31.949219 15.246094 32.03125 15.722656 32.03125 16.214844 Z M 32.03125 16.214844 " fill-opacity="1" fill-rule="nonzero"/><path fill="#000000" d="M 30.570312 16.222656 L 27.0625 16.222656 C 27.039062 16.222656 27.023438 16.207031 27.023438 16.1875 C 27.023438 15.019531 27.828125 14.070312 28.816406 14.070312 C 29.804688 14.070312 30.605469 15.019531 30.605469 16.1875 C 30.609375 16.207031 30.59375 16.222656 30.570312 16.222656 Z M 27.097656 16.152344 L 30.535156 16.152344 C 30.519531 15.042969 29.753906 14.144531 28.816406 14.144531 C 27.878906 14.144531 27.113281 15.042969 27.097656 16.152344 Z M 27.097656 16.152344 " fill-opacity="1" fill-rule="nonzero"/><g clip-path="url(#8e9b57446f)"><path fill="#cbacf9" d="M 25.398438 6.539062 C 29.234375 6.972656 28.816406 14.109375 28.816406 14.109375 L 29.863281 14.109375 C 29.863281 14.109375 29.886719 10.703125 28.804688 8.714844 C 27.535156 6.378906 25.398438 6.539062 25.398438 6.539062 Z M 25.398438 6.539062 " fill-opacity="1" fill-rule="nonzero"/><path fill="#cbacf9" d="M 29.863281 14.144531 L 28.816406 14.144531 C 28.808594 14.144531 28.796875 14.140625 28.789062 14.132812 C 28.785156 14.125 28.78125 14.117188 28.78125 14.105469 C 28.78125 14.085938 28.878906 12.304688 28.507812 10.492188 C 28.167969 8.824219 27.355469 6.792969 25.394531 6.574219 C 25.375 6.574219 25.359375 6.554688 25.363281 6.539062 C 25.363281 6.519531 25.375 6.5 25.394531 6.5 C 25.417969 6.5 25.945312 6.464844 26.636719 6.714844 C 27.277344 6.949219 28.175781 7.480469 28.835938 8.695312 C 29.910156 10.671875 29.898438 14.074219 29.898438 14.109375 C 29.898438 14.128906 29.882812 14.144531 29.863281 14.144531 Z M 28.855469 14.070312 L 29.824219 14.070312 C 29.824219 13.695312 29.777344 10.578125 28.773438 8.730469 C 28.125 7.535156 27.242188 7.011719 26.617188 6.785156 C 26.359375 6.691406 26.125 6.636719 25.929688 6.609375 C 26.582031 6.804688 27.136719 7.230469 27.582031 7.882812 C 28.027344 8.53125 28.363281 9.402344 28.582031 10.476562 C 28.921875 12.152344 28.867188 13.796875 28.855469 14.070312 Z M 28.855469 14.070312 " fill-opacity="1" fill-rule="nonzero"/></g><path fill="#ffffff" d="M 31.566406 16.917969 C 30.664062 16.519531 30.019531 16.644531 29.5 16.167969 C 29.148438 15.839844 29.515625 15.273438 29.515625 15.273438 C 29.515625 15.273438 28.632812 15.273438 28.410156 14.859375 C 28.191406 14.445312 28.4375 14.03125 28.964844 13.835938 C 28.964844 13.835938 29.320312 13.160156 29.929688 12.898438 C 30.980469 12.441406 31.917969 12.402344 31.917969 12.402344 C 31.917969 12.402344 30.660156 11.867188 30.550781 11.371094 C 30.441406 10.875 30.855469 10.515625 32.035156 10.949219 C 33.21875 11.378906 34.765625 11.984375 35.34375 12.539062 C 35.925781 13.089844 38.050781 18.28125 38.050781 18.28125 L 39.847656 19.304688 L 33.105469 23.609375 L 32.59375 21.71875 L 30.945312 19.03125 C 30.945312 19.03125 31.464844 18.453125 31.691406 17.332031 C 31.695312 17.207031 31.699219 16.976562 31.566406 16.917969 Z M 31.566406 16.917969 " fill-opacity="1" fill-rule="nonzero"/><path fill="#000000" d="M 39.449219 19.59375 C 39.4375 19.59375 39.425781 19.585938 39.417969 19.578125 C 39.40625 19.558594 39.414062 19.535156 39.429688 19.527344 L 39.777344 19.304688 L 38.035156 18.316406 C 38.027344 18.3125 38.019531 18.304688 38.019531 18.296875 C 37.996094 18.246094 35.890625 13.105469 35.320312 12.566406 C 34.742188 12.011719 33.164062 11.398438 32.027344 10.980469 C 31.167969 10.667969 30.828125 10.808594 30.703125 10.921875 C 30.558594 11.046875 30.5625 11.230469 30.59375 11.363281 C 30.695312 11.835938 31.925781 12.359375 31.9375 12.367188 C 31.953125 12.375 31.964844 12.390625 31.960938 12.40625 C 31.957031 12.421875 31.941406 12.4375 31.925781 12.4375 C 31.914062 12.4375 31.085938 12.476562 30.128906 12.859375 C 30.109375 12.863281 30.085938 12.855469 30.082031 12.835938 C 30.074219 12.820312 30.082031 12.796875 30.101562 12.789062 C 30.835938 12.496094 31.496094 12.402344 31.777344 12.375 C 31.449219 12.21875 30.613281 11.792969 30.519531 11.378906 C 30.472656 11.164062 30.519531 10.980469 30.652344 10.867188 C 30.894531 10.652344 31.390625 10.671875 32.050781 10.914062 C 33.195312 11.328125 34.78125 11.949219 35.371094 12.511719 C 35.941406 13.054688 37.941406 17.917969 38.082031 18.257812 L 39.863281 19.273438 C 39.875 19.277344 39.882812 19.289062 39.882812 19.304688 C 39.882812 19.316406 39.875 19.328125 39.867188 19.335938 L 39.472656 19.589844 C 39.464844 19.589844 39.457031 19.59375 39.449219 19.59375 Z M 39.449219 19.59375 " fill-opacity="1" fill-rule="nonzero"/><path fill="#000000" d="M 33.105469 23.644531 C 33.097656 23.644531 33.09375 23.644531 33.089844 23.644531 C 33.078125 23.636719 33.070312 23.628906 33.066406 23.617188 L 32.558594 21.730469 L 30.914062 19.046875 C 30.902344 19.03125 30.910156 19.007812 30.925781 18.996094 C 30.941406 18.988281 30.964844 18.992188 30.976562 19.007812 L 32.621094 21.699219 C 32.625 21.703125 32.625 21.703125 32.625 21.707031 L 33.125 23.550781 L 33.5 23.308594 C 33.515625 23.296875 33.539062 23.304688 33.550781 23.320312 C 33.5625 23.339844 33.558594 23.363281 33.539062 23.371094 L 33.121094 23.640625 C 33.117188 23.644531 33.109375 23.644531 33.105469 23.644531 Z M 33.105469 23.644531 " fill-opacity="1" fill-rule="nonzero"/><path fill="#000000" d="M 32.183594 17.929688 C 32.164062 17.929688 32.148438 17.917969 32.144531 17.902344 C 31.996094 17.316406 31.625 16.984375 31.621094 16.980469 C 31.605469 16.96875 31.601562 16.945312 31.617188 16.929688 C 31.628906 16.914062 31.652344 16.910156 31.667969 16.925781 C 31.683594 16.9375 32.0625 17.273438 32.21875 17.882812 C 32.222656 17.902344 32.210938 17.921875 32.191406 17.929688 C 32.1875 17.929688 32.183594 17.929688 32.183594 17.929688 Z M 32.183594 17.929688 " fill-opacity="1" fill-rule="nonzero"/><path fill="#000000" d="M 33.140625 16.445312 C 33.125 16.445312 33.113281 16.4375 33.105469 16.425781 C 33.105469 16.417969 32.757812 15.8125 32.304688 15.515625 C 31.847656 15.21875 30.648438 15.148438 30.167969 15.160156 C 29.722656 15.175781 29.542969 15.300781 29.539062 15.304688 C 29.523438 15.316406 29.5 15.3125 29.488281 15.296875 C 29.476562 15.277344 29.480469 15.257812 29.496094 15.242188 C 29.503906 15.238281 29.691406 15.101562 30.167969 15.085938 C 30.671875 15.074219 31.867188 15.144531 32.34375 15.453125 C 32.8125 15.761719 33.15625 16.363281 33.171875 16.386719 C 33.179688 16.40625 33.175781 16.429688 33.15625 16.4375 C 33.152344 16.441406 33.144531 16.445312 33.140625 16.445312 Z M 33.140625 16.445312 " fill-opacity="1" fill-rule="nonzero"/><path fill="#000000" d="M 33.808594 14.222656 C 33.796875 14.222656 33.78125 14.214844 33.773438 14.203125 C 33.773438 14.199219 33.648438 13.964844 33.160156 13.683594 C 32.71875 13.425781 31.75 13.488281 31.042969 13.527344 C 30.953125 13.535156 30.863281 13.539062 30.78125 13.542969 C 30.058594 13.582031 28.984375 13.867188 28.976562 13.871094 C 28.957031 13.875 28.933594 13.863281 28.929688 13.84375 C 28.925781 13.824219 28.9375 13.804688 28.957031 13.796875 C 28.96875 13.792969 30.046875 13.507812 30.777344 13.46875 C 30.859375 13.464844 30.949219 13.460938 31.042969 13.453125 C 31.757812 13.410156 32.738281 13.351562 33.199219 13.617188 C 33.710938 13.914062 33.835938 14.15625 33.84375 14.167969 C 33.851562 14.183594 33.84375 14.207031 33.828125 14.214844 C 33.820312 14.21875 33.816406 14.222656 33.808594 14.222656 Z M 33.808594 14.222656 " fill-opacity="1" fill-rule="nonzero"/><path fill="#000000" d="M 34.0625 12.964844 C 34.054688 12.964844 34.042969 12.960938 34.039062 12.953125 C 34.035156 12.953125 33.796875 12.726562 33.339844 12.53125 C 32.886719 12.335938 31.933594 12.433594 31.925781 12.4375 C 31.902344 12.4375 31.886719 12.425781 31.882812 12.402344 C 31.882812 12.382812 31.894531 12.363281 31.917969 12.363281 C 31.957031 12.359375 32.898438 12.265625 33.371094 12.464844 C 33.839844 12.664062 34.078125 12.890625 34.089844 12.902344 C 34.105469 12.914062 34.105469 12.9375 34.089844 12.953125 C 34.082031 12.960938 34.074219 12.964844 34.0625 12.964844 Z M 34.0625 12.964844 " fill-opacity="1" fill-rule="nonzero"/><path fill="#000000" d="M 33.011719 21.578125 C 33 21.578125 32.988281 21.570312 32.980469 21.558594 C 32.96875 21.542969 32.972656 21.519531 32.992188 21.507812 L 38.03125 18.25 C 38.050781 18.238281 38.074219 18.246094 38.082031 18.261719 C 38.09375 18.28125 38.089844 18.304688 38.070312 18.3125 L 33.03125 21.570312 C 33.023438 21.574219 33.019531 21.578125 33.011719 21.578125 Z M 33.011719 21.578125 " fill-opacity="1" fill-rule="nonzero"/><path fill="#ffffff" d="M 41.484375 11.621094 C 41.484375 11.914062 41.441406 12.195312 41.351562 12.464844 C 41.265625 12.734375 41.140625 12.972656 40.980469 13.175781 C 40.816406 13.382812 40.628906 13.542969 40.417969 13.652344 C 40.207031 13.765625 39.984375 13.820312 39.757812 13.820312 C 39.527344 13.820312 39.308594 13.765625 39.097656 13.652344 C 38.882812 13.542969 38.699219 13.382812 38.535156 13.175781 C 38.375 12.972656 38.25 12.734375 38.160156 12.464844 C 38.074219 12.195312 38.03125 11.914062 38.03125 11.621094 C 38.03125 11.332031 38.074219 11.050781 38.160156 10.78125 C 38.25 10.511719 38.375 10.273438 38.535156 10.066406 C 38.699219 9.863281 38.882812 9.703125 39.097656 9.589844 C 39.308594 9.480469 39.527344 9.425781 39.757812 9.425781 C 39.984375 9.425781 40.207031 9.480469 40.417969 9.589844 C 40.628906 9.703125 40.816406 9.863281 40.980469 10.066406 C 41.140625 10.273438 41.265625 10.511719 41.351562 10.78125 C 41.441406 11.050781 41.484375 11.332031 41.484375 11.621094 Z M 41.484375 11.621094 " fill-opacity="1" fill-rule="nonzero"/><path fill="#000000" d="M 39.757812 13.859375 C 38.785156 13.859375 37.992188 12.855469 37.992188 11.621094 C 37.992188 10.390625 38.785156 9.386719 39.757812 9.386719 C 40.730469 9.386719 41.523438 10.390625 41.523438 11.621094 C 41.523438 12.855469 40.730469 13.859375 39.757812 13.859375 Z M 39.757812 9.460938 C 38.824219 9.460938 38.066406 10.429688 38.066406 11.621094 C 38.066406 12.8125 38.824219 13.78125 39.757812 13.78125 C 40.6875 13.78125 41.449219 12.8125 41.449219 11.621094 C 41.449219 10.429688 40.691406 9.460938 39.757812 9.460938 Z M 39.757812 9.460938 " fill-opacity="1" fill-rule="nonzero"/><path fill="#ffffff" d="M 38.367188 11.59375 C 38.367188 10.617188 38.988281 9.824219 39.757812 9.824219 C 40.527344 9.824219 41.148438 10.617188 41.148438 11.59375 Z M 38.367188 11.59375 " fill-opacity="1" fill-rule="nonzero"/><path fill="#000000" d="M 41.148438 11.632812 L 38.367188 11.632812 C 38.34375 11.632812 38.328125 11.613281 38.328125 11.59375 C 38.328125 10.597656 38.96875 9.789062 39.757812 9.789062 C 40.542969 9.789062 41.183594 10.597656 41.183594 11.59375 C 41.183594 11.613281 41.171875 11.632812 41.148438 11.632812 Z M 38.40625 11.558594 L 41.113281 11.558594 C 41.097656 10.617188 40.496094 9.859375 39.757812 9.859375 C 39.023438 9.859375 38.417969 10.617188 38.40625 11.558594 Z M 38.40625 11.558594 " fill-opacity="1" fill-rule="nonzero"/><g clip-path="url(#8bcb1d4de7)"><path fill="#000000" d="M 45.902344 9.8125 C 45.878906 9.8125 45.863281 9.796875 45.863281 9.777344 C 45.863281 8.019531 44.503906 6.59375 42.832031 6.59375 C 41.160156 6.59375 39.796875 8.019531 39.796875 9.777344 C 39.796875 9.796875 39.78125 9.8125 39.761719 9.8125 C 39.738281 9.8125 39.722656 9.796875 39.722656 9.777344 C 39.722656 7.980469 41.117188 6.519531 42.832031 6.519531 C 44.542969 6.519531 45.9375 7.980469 45.9375 9.777344 C 45.9375 9.796875 45.921875 9.8125 45.902344 9.8125 Z M 45.902344 9.8125 " fill-opacity="1" fill-rule="nonzero"/></g><g clip-path="url(#9de6b01828)"><path fill="#ffffff" d="M 47.449219 11.621094 C 47.449219 11.914062 47.40625 12.195312 47.316406 12.464844 C 47.230469 12.734375 47.105469 12.972656 46.941406 13.175781 C 46.78125 13.382812 46.59375 13.542969 46.382812 13.652344 C 46.171875 13.765625 45.949219 13.820312 45.71875 13.820312 C 45.492188 13.820312 45.269531 13.765625 45.058594 13.652344 C 44.847656 13.542969 44.660156 13.382812 44.5 13.175781 C 44.335938 12.972656 44.210938 12.734375 44.125 12.464844 C 44.035156 12.195312 43.992188 11.914062 43.992188 11.621094 C 43.992188 11.332031 44.035156 11.050781 44.125 10.78125 C 44.210938 10.511719 44.335938 10.273438 44.5 10.066406 C 44.660156 9.863281 44.847656 9.703125 45.058594 9.589844 C 45.269531 9.480469 45.492188 9.425781 45.71875 9.425781 C 45.949219 9.425781 46.171875 9.480469 46.382812 9.589844 C 46.59375 9.703125 46.78125 9.863281 46.941406 10.066406 C 47.105469 10.273438 47.230469 10.511719 47.316406 10.78125 C 47.40625 11.050781 47.449219 11.332031 47.449219 11.621094 Z M 47.449219 11.621094 " fill-opacity="1" fill-rule="nonzero"/><path fill="#000000" d="M 45.71875 13.859375 C 44.75 13.859375 43.957031 12.855469 43.957031 11.621094 C 43.957031 10.390625 44.75 9.386719 45.71875 9.386719 C 46.691406 9.386719 47.484375 10.390625 47.484375 11.621094 C 47.484375 12.855469 46.691406 13.859375 45.71875 13.859375 Z M 45.71875 9.460938 C 44.789062 9.460938 44.03125 10.429688 44.03125 11.621094 C 44.03125 12.8125 44.789062 13.78125 45.71875 13.78125 C 46.652344 13.78125 47.410156 12.8125 47.410156 11.621094 C 47.410156 10.429688 46.652344 9.460938 45.71875 9.460938 Z M 45.71875 9.460938 " fill-opacity="1" fill-rule="nonzero"/></g><path fill="#ffffff" d="M 46.5625 11.609375 C 46.5625 11.78125 46.539062 11.945312 46.496094 12.105469 C 46.453125 12.265625 46.390625 12.402344 46.308594 12.527344 C 46.230469 12.648438 46.136719 12.742188 46.03125 12.808594 C 45.925781 12.875 45.816406 12.90625 45.703125 12.90625 C 45.589844 12.90625 45.476562 12.875 45.375 12.808594 C 45.269531 12.742188 45.175781 12.648438 45.09375 12.527344 C 45.015625 12.402344 44.953125 12.265625 44.90625 12.105469 C 44.863281 11.945312 44.84375 11.78125 44.84375 11.609375 C 44.84375 11.433594 44.863281 11.269531 44.90625 11.109375 C 44.953125 10.953125 45.015625 10.8125 45.09375 10.6875 C 45.175781 10.566406 45.269531 10.472656 45.375 10.40625 C 45.476562 10.34375 45.589844 10.308594 45.703125 10.308594 C 45.816406 10.308594 45.925781 10.34375 46.03125 10.40625 C 46.136719 10.472656 46.230469 10.566406 46.308594 10.6875 C 46.390625 10.8125 46.453125 10.953125 46.496094 11.109375 C 46.539062 11.269531 46.5625 11.433594 46.5625 11.609375 Z M 46.5625 11.609375 " fill-opacity="1" fill-rule="nonzero"/><path fill="#000000" d="M 45.703125 12.941406 C 45.207031 12.941406 44.804688 12.34375 44.804688 11.609375 C 44.804688 10.871094 45.207031 10.273438 45.703125 10.273438 C 46.195312 10.273438 46.597656 10.871094 46.597656 11.609375 C 46.601562 12.34375 46.195312 12.941406 45.703125 12.941406 Z M 45.703125 10.347656 C 45.246094 10.347656 44.878906 10.914062 44.878906 11.609375 C 44.878906 12.304688 45.25 12.871094 45.703125 12.871094 C 46.15625 12.871094 46.523438 12.300781 46.523438 11.609375 C 46.527344 10.910156 46.15625 10.347656 45.703125 10.347656 Z M 45.703125 10.347656 " fill-opacity="1" fill-rule="nonzero"/><path fill="#cbacf9" d="M 37.984375 8.390625 L 37.542969 8.390625 C 37.519531 8.390625 37.503906 8.375 37.503906 8.355469 C 37.503906 8.332031 37.519531 8.316406 37.542969 8.316406 L 37.984375 8.316406 C 38.003906 8.316406 38.019531 8.332031 38.019531 8.355469 C 38.023438 8.375 38.003906 8.390625 37.984375 8.390625 Z M 37.097656 8.390625 L 36.65625 8.390625 C 36.636719 8.390625 36.621094 8.375 36.621094 8.355469 C 36.621094 8.332031 36.636719 8.316406 36.65625 8.316406 L 37.097656 8.316406 C 37.121094 8.316406 37.136719 8.332031 37.136719 8.355469 C 37.136719 8.375 37.121094 8.390625 37.097656 8.390625 Z M 36.210938 8.390625 L 35.769531 8.390625 C 35.75 8.390625 35.734375 8.375 35.734375 8.355469 C 35.734375 8.332031 35.75 8.316406 35.769531 8.316406 L 36.210938 8.316406 C 36.234375 8.316406 36.25 8.332031 36.25 8.355469 C 36.25 8.375 36.234375 8.390625 36.210938 8.390625 Z M 35.324219 8.390625 L 34.882812 8.390625 C 34.863281 8.390625 34.847656 8.375 34.847656 8.355469 C 34.847656 8.332031 34.863281 8.316406 34.882812 8.316406 L 35.324219 8.316406 C 35.347656 8.316406 35.363281 8.332031 35.363281 8.355469 C 35.363281 8.375 35.347656 8.390625 35.324219 8.390625 Z M 34.4375 8.390625 L 33.996094 8.390625 C 33.976562 8.390625 33.960938 8.375 33.960938 8.355469 C 33.960938 8.332031 33.976562 8.316406 33.996094 8.316406 L 34.4375 8.316406 C 34.460938 8.316406 34.476562 8.332031 34.476562 8.355469 C 34.476562 8.375 34.460938 8.390625 34.4375 8.390625 Z M 33.554688 8.390625 L 33.109375 8.390625 C 33.089844 8.390625 33.074219 8.375 33.074219 8.355469 C 33.074219 8.332031 33.089844 8.316406 33.109375 8.316406 L 33.554688 8.316406 C 33.574219 8.316406 33.589844 8.332031 33.589844 8.355469 C 33.589844 8.375 33.574219 8.390625 33.554688 8.390625 Z M 32.667969 8.390625 L 32.226562 8.390625 C 32.207031 8.390625 32.1875 8.375 32.1875 8.355469 C 32.1875 8.332031 32.207031 8.316406 32.226562 8.316406 L 32.667969 8.316406 C 32.6875 8.316406 32.703125 8.332031 32.703125 8.355469 C 32.703125 8.375 32.6875 8.390625 32.667969 8.390625 Z M 31.78125 8.390625 L 31.339844 8.390625 C 31.320312 8.390625 31.300781 8.375 31.300781 8.355469 C 31.300781 8.332031 31.320312 8.316406 31.339844 8.316406 L 31.78125 8.316406 C 31.800781 8.316406 31.820312 8.332031 31.820312 8.355469 C 31.820312 8.375 31.800781 8.390625 31.78125 8.390625 Z M 31.78125 8.390625 " fill-opacity="1" fill-rule="nonzero"/><path fill="#cbacf9" d="M 38.523438 8.351562 C 38.523438 8.429688 38.496094 8.5 38.4375 8.554688 C 38.382812 8.613281 38.3125 8.640625 38.234375 8.640625 C 38.152344 8.640625 38.082031 8.613281 38.027344 8.554688 C 37.96875 8.5 37.941406 8.429688 37.941406 8.351562 C 37.941406 8.269531 37.96875 8.203125 38.027344 8.144531 C 38.082031 8.089844 38.152344 8.058594 38.234375 8.058594 C 38.3125 8.058594 38.382812 8.089844 38.4375 8.144531 C 38.496094 8.203125 38.523438 8.269531 38.523438 8.351562 Z M 38.523438 8.351562 " fill-opacity="1" fill-rule="nonzero"/><path fill="#ffffff" d="M 1.644531 9.164062 L 8.523438 9.164062 L 8.523438 16.042969 L 1.644531 16.042969 Z M 1.644531 9.164062 " fill-opacity="1" fill-rule="nonzero"/><path fill="#000000" d="M 8.523438 16.082031 L 1.644531 16.082031 C 1.625 16.082031 1.605469 16.0625 1.605469 16.042969 L 1.605469 9.164062 C 1.605469 9.144531 1.625 9.128906 1.644531 9.128906 L 5.992188 9.128906 C 6.011719 9.128906 6.027344 9.144531 6.027344 9.164062 C 6.027344 9.183594 6.011719 9.203125 5.992188 9.203125 L 1.679688 9.203125 L 1.679688 16.007812 L 8.484375 16.007812 L 8.484375 9.203125 L 7.96875 9.203125 C 7.949219 9.203125 7.933594 9.183594 7.933594 9.164062 C 7.933594 9.144531 7.949219 9.128906 7.96875 9.128906 L 8.523438 9.128906 C 8.542969 9.128906 8.558594 9.144531 8.558594 9.164062 L 8.558594 16.042969 C 8.558594 16.0625 8.542969 16.082031 8.523438 16.082031 Z M 8.523438 16.082031 " fill-opacity="1" fill-rule="nonzero"/><g clip-path="url(#58e0bb0906)"><path fill="#cbacf9" d="M 5.152344 13.855469 C 5.140625 13.855469 5.128906 13.851562 5.121094 13.839844 L 3.164062 11.140625 C 3.152344 11.125 3.15625 11.101562 3.171875 11.089844 C 3.191406 11.078125 3.214844 11.082031 3.226562 11.097656 L 5.140625 13.742188 L 8.488281 6.382812 C 8.496094 6.367188 8.519531 6.355469 8.539062 6.367188 C 8.554688 6.375 8.5625 6.394531 8.554688 6.414062 L 5.183594 13.832031 C 5.179688 13.84375 5.167969 13.851562 5.15625 13.855469 C 5.152344 13.855469 5.152344 13.855469 5.152344 13.855469 Z M 5.152344 13.855469 " fill-opacity="1" fill-rule="nonzero"/></g></svg>