<svg xmlns="http://www.w3.org/2000/svg" xmlns:xlink="http://www.w3.org/1999/xlink" width="64" zoomAndPan="magnify" viewBox="0 0 48 44.249999" height="59" preserveAspectRatio="xMidYMid meet" version="1.0"><defs><clipPath id="1f27d4fef3"><path d="M 0.398438 22 L 47.597656 22 L 47.597656 37 L 0.398438 37 Z M 0.398438 22 " clip-rule="nonzero"/></clipPath><clipPath id="0fcf2792f3"><path d="M 0.398438 22 L 47.597656 22 L 47.597656 26 L 0.398438 26 Z M 0.398438 22 " clip-rule="nonzero"/></clipPath><clipPath id="c90f23f290"><path d="M 0.398438 28 L 47.597656 28 L 47.597656 36 L 0.398438 36 Z M 0.398438 28 " clip-rule="nonzero"/></clipPath><clipPath id="e85012436b"><path d="M 0.398438 29 L 47.597656 29 L 47.597656 37 L 0.398438 37 Z M 0.398438 29 " clip-rule="nonzero"/></clipPath><clipPath id="6ef55c79b3"><path d="M 0.398438 23 L 15 23 L 15 26 L 0.398438 26 Z M 0.398438 23 " clip-rule="nonzero"/></clipPath><clipPath id="9d106d2357"><path d="M 4 20 L 38 20 L 38 37.6875 L 4 37.6875 Z M 4 20 " clip-rule="nonzero"/></clipPath><clipPath id="0f83485d12"><path d="M 5 22 L 22 22 L 22 37.6875 L 5 37.6875 Z M 5 22 " clip-rule="nonzero"/></clipPath><clipPath id="35572457f3"><path d="M 7 32 L 9 32 L 9 37.6875 L 7 37.6875 Z M 7 32 " clip-rule="nonzero"/></clipPath><clipPath id="ffda48cdc4"><path d="M 7 23 L 20 23 L 20 37.6875 L 7 37.6875 Z M 7 23 " clip-rule="nonzero"/></clipPath></defs><g clip-path="url(#1f27d4fef3)"><path fill="#ffffff" d="M 47.527344 32.652344 L 44.011719 36.09375 L 0.476562 29.640625 L 0.46875 22.554688 L 47.539062 25.867188 Z M 47.527344 32.652344 " fill-opacity="1" fill-rule="nonzero"/></g><g clip-path="url(#0fcf2792f3)"><path fill="#000000" d="M 47.539062 25.898438 C 47.539062 25.898438 47.539062 25.898438 47.535156 25.898438 L 0.5 22.59375 C 0.476562 22.589844 0.460938 22.574219 0.464844 22.550781 C 0.464844 22.53125 0.484375 22.515625 0.503906 22.515625 L 47.542969 25.824219 C 47.5625 25.824219 47.578125 25.839844 47.578125 25.863281 C 47.574219 25.882812 47.558594 25.898438 47.539062 25.898438 Z M 47.539062 25.898438 " fill-opacity="1" fill-rule="nonzero"/></g><g clip-path="url(#c90f23f290)"><path fill="#000000" d="M 43.878906 35.132812 C 43.875 35.132812 43.875 35.132812 43.871094 35.132812 L 0.496094 29.050781 C 0.476562 29.046875 0.460938 29.027344 0.464844 29.007812 C 0.46875 28.984375 0.488281 28.972656 0.507812 28.972656 L 43.863281 35.054688 L 47.5 31.464844 C 47.515625 31.449219 47.542969 31.453125 47.554688 31.464844 C 47.570312 31.480469 47.570312 31.503906 47.554688 31.519531 L 43.902344 35.121094 C 43.898438 35.128906 43.886719 35.132812 43.878906 35.132812 Z M 43.878906 35.132812 " fill-opacity="1" fill-rule="nonzero"/></g><g clip-path="url(#e85012436b)"><path fill="#000000" d="M 44.011719 36.128906 C 44.007812 36.128906 44.007812 36.128906 44.003906 36.128906 L 0.46875 29.679688 C 0.449219 29.675781 0.433594 29.65625 0.4375 29.636719 C 0.441406 29.613281 0.457031 29.601562 0.480469 29.601562 L 43.996094 36.050781 L 47.5 32.625 C 47.515625 32.609375 47.539062 32.609375 47.554688 32.625 C 47.566406 32.636719 47.566406 32.664062 47.554688 32.675781 L 44.035156 36.117188 C 44.03125 36.125 44.019531 36.128906 44.011719 36.128906 Z M 44.011719 36.128906 " fill-opacity="1" fill-rule="nonzero"/></g><path fill="#ffffff" d="M 30.101562 21.480469 L 31.261719 24.820312 C 31.398438 25.203125 31.195312 25.605469 30.804688 25.730469 L 27.324219 26.804688 C 27.113281 26.867188 27.152344 27.171875 27.371094 27.183594 L 33.070312 27.519531 C 33.171875 27.527344 33.273438 27.515625 33.371094 27.488281 C 33.9375 27.335938 35.953125 26.792969 36.046875 26.765625 C 36.554688 26.632812 36.867188 26.125 36.679688 25.605469 L 35.246094 21.621094 Z M 30.101562 21.480469 " fill-opacity="1" fill-rule="nonzero"/><path fill="#000000" d="M 33.125 27.5625 C 33.105469 27.5625 33.085938 27.5625 33.066406 27.558594 L 27.367188 27.222656 C 27.230469 27.214844 27.160156 27.113281 27.148438 27.019531 C 27.136719 26.921875 27.183594 26.808594 27.3125 26.769531 L 30.792969 25.695312 C 30.972656 25.636719 31.117188 25.515625 31.199219 25.355469 C 31.277344 25.191406 31.285156 25.007812 31.226562 24.832031 L 30.0625 21.492188 C 30.058594 21.472656 30.066406 21.453125 30.089844 21.445312 C 30.109375 21.4375 30.128906 21.449219 30.136719 21.46875 L 31.296875 24.808594 C 31.367188 25.003906 31.355469 25.210938 31.265625 25.386719 C 31.175781 25.570312 31.015625 25.703125 30.816406 25.769531 L 27.332031 26.84375 C 27.242188 26.871094 27.214844 26.949219 27.222656 27.011719 C 27.230469 27.070312 27.273438 27.144531 27.371094 27.148438 L 33.070312 27.488281 C 33.167969 27.492188 33.261719 27.484375 33.359375 27.457031 C 35.492188 26.878906 35.992188 26.746094 36.035156 26.734375 C 36.28125 26.667969 36.488281 26.507812 36.601562 26.292969 C 36.710938 26.089844 36.722656 25.851562 36.640625 25.625 L 35.207031 21.640625 C 35.199219 21.621094 35.210938 21.597656 35.230469 21.589844 C 35.25 21.585938 35.269531 21.59375 35.277344 21.613281 L 36.710938 25.597656 C 36.800781 25.84375 36.785156 26.105469 36.667969 26.328125 C 36.546875 26.5625 36.320312 26.738281 36.050781 26.808594 C 36.007812 26.820312 35.511719 26.953125 33.375 27.53125 C 33.296875 27.550781 33.210938 27.5625 33.125 27.5625 Z M 33.125 27.5625 " fill-opacity="1" fill-rule="nonzero"/><path fill="#000000" d="M 35.773438 26.742188 C 35.757812 26.742188 35.746094 26.734375 35.738281 26.71875 C 35.730469 26.699219 35.742188 26.679688 35.761719 26.667969 C 36.195312 26.492188 36.402344 26.03125 36.246094 25.597656 L 34.820312 21.625 C 34.8125 21.605469 34.824219 21.585938 34.84375 21.578125 C 34.863281 21.570312 34.882812 21.582031 34.890625 21.601562 L 36.320312 25.570312 C 36.488281 26.042969 36.261719 26.546875 35.789062 26.738281 C 35.785156 26.742188 35.777344 26.742188 35.773438 26.742188 Z M 35.773438 26.742188 " fill-opacity="1" fill-rule="nonzero"/><path fill="#ffffff" d="M 23.308594 21.277344 L 44.214844 21.878906 C 44.546875 21.890625 44.824219 21.675781 44.855469 21.386719 L 46.484375 6.734375 C 46.523438 6.398438 46.21875 6.125 45.835938 6.148438 L 24.570312 7.410156 C 24.308594 7.425781 24.089844 7.632812 24.066406 7.890625 L 22.816406 20.722656 C 22.789062 21.011719 23.015625 21.273438 23.308594 21.277344 Z M 23.308594 21.277344 " fill-opacity="1" fill-rule="nonzero"/><path fill="#000000" d="M 44.238281 21.917969 C 44.230469 21.917969 44.222656 21.917969 44.214844 21.917969 L 23.308594 21.316406 C 23.160156 21.3125 23.015625 21.246094 22.914062 21.128906 C 22.8125 21.015625 22.761719 20.867188 22.777344 20.71875 L 24.027344 7.886719 C 24.054688 7.613281 24.285156 7.390625 24.566406 7.375 L 45.832031 6.113281 C 46.046875 6.101562 46.242188 6.175781 46.375 6.316406 C 46.488281 6.433594 46.539062 6.585938 46.523438 6.742188 L 44.894531 21.398438 C 44.859375 21.695312 44.582031 21.917969 44.238281 21.917969 Z M 45.878906 6.1875 C 45.863281 6.1875 45.847656 6.1875 45.835938 6.1875 L 24.570312 7.449219 C 24.328125 7.460938 24.125 7.65625 24.101562 7.894531 L 22.851562 20.726562 C 22.839844 20.855469 22.882812 20.984375 22.96875 21.082031 C 23.058594 21.179688 23.179688 21.238281 23.3125 21.242188 L 44.21875 21.84375 C 44.53125 21.851562 44.789062 21.65625 44.820312 21.386719 L 46.445312 6.730469 C 46.460938 6.59375 46.417969 6.464844 46.320312 6.363281 C 46.210938 6.25 46.050781 6.1875 45.878906 6.1875 Z M 45.878906 6.1875 " fill-opacity="1" fill-rule="nonzero"/><path fill="#8875a4" d="M 23.75 20.019531 L 43.742188 20.421875 L 45.214844 7.6875 L 24.90625 8.726562 Z M 23.75 20.019531 " fill-opacity="1" fill-rule="nonzero"/><path fill="#000000" d="M 29.605469 11.859375 C 29.5625 11.859375 29.53125 11.828125 29.527344 11.785156 C 29.519531 11.414062 29.601562 11.175781 29.667969 10.980469 C 29.703125 10.878906 29.730469 10.792969 29.742188 10.707031 C 29.75 10.632812 29.738281 10.546875 29.726562 10.449219 C 29.703125 10.257812 29.675781 10.019531 29.777344 9.726562 C 29.792969 9.6875 29.835938 9.667969 29.875 9.679688 C 29.914062 9.695312 29.933594 9.738281 29.921875 9.777344 C 29.832031 10.035156 29.855469 10.246094 29.878906 10.429688 C 29.890625 10.53125 29.902344 10.628906 29.890625 10.722656 C 29.878906 10.828125 29.847656 10.925781 29.8125 11.03125 C 29.746094 11.222656 29.671875 11.441406 29.679688 11.785156 C 29.683594 11.828125 29.648438 11.863281 29.605469 11.863281 C 29.605469 11.859375 29.605469 11.859375 29.605469 11.859375 Z M 29.605469 11.859375 " fill-opacity="1" fill-rule="nonzero"/><path fill="#000000" d="M 30.652344 11.566406 C 30.628906 11.566406 30.605469 11.554688 30.589844 11.535156 C 30.574219 11.511719 30.515625 11.460938 30.457031 11.410156 C 30.242188 11.230469 29.945312 10.976562 29.972656 10.734375 C 30.007812 10.4375 30.882812 9.820312 31.054688 9.699219 C 31.089844 9.675781 31.136719 9.683594 31.160156 9.71875 C 31.183594 9.753906 31.175781 9.800781 31.140625 9.824219 C 30.730469 10.105469 30.140625 10.582031 30.121094 10.75 C 30.101562 10.914062 30.394531 11.160156 30.550781 11.292969 C 30.628906 11.359375 30.683594 11.40625 30.710938 11.445312 C 30.734375 11.480469 30.726562 11.527344 30.695312 11.550781 C 30.683594 11.558594 30.667969 11.566406 30.652344 11.566406 Z M 30.652344 11.566406 " fill-opacity="1" fill-rule="nonzero"/><path fill="#000000" d="M 27.929688 11.695312 C 27.921875 11.695312 27.917969 11.695312 27.910156 11.695312 C 27.867188 11.683594 27.84375 11.644531 27.855469 11.601562 C 28.164062 10.375 27.855469 9.480469 27.855469 9.46875 C 27.839844 9.429688 27.859375 9.386719 27.898438 9.375 C 27.941406 9.359375 27.984375 9.382812 27.996094 9.421875 C 28.011719 9.457031 28.324219 10.363281 28.003906 11.640625 C 27.996094 11.671875 27.964844 11.695312 27.929688 11.695312 Z M 27.929688 11.695312 " fill-opacity="1" fill-rule="nonzero"/><path fill="#000000" d="M 26.921875 11.621094 C 26.902344 11.621094 26.878906 11.613281 26.863281 11.59375 C 26.839844 11.558594 26.84375 11.511719 26.875 11.488281 C 27.273438 11.167969 27.53125 10.8125 27.527344 10.578125 C 27.527344 10.371094 27.242188 9.792969 27.132812 9.585938 C 27.113281 9.550781 27.128906 9.503906 27.164062 9.480469 C 27.199219 9.464844 27.246094 9.476562 27.265625 9.511719 C 27.308594 9.59375 27.675781 10.292969 27.679688 10.574219 C 27.683594 10.859375 27.414062 11.253906 26.972656 11.601562 C 26.957031 11.617188 26.9375 11.621094 26.921875 11.621094 Z M 26.921875 11.621094 " fill-opacity="1" fill-rule="nonzero"/><path fill="#000000" d="M 32.132812 11.425781 C 32.125 11.425781 32.121094 11.421875 32.113281 11.421875 C 32.074219 11.410156 32.050781 11.367188 32.0625 11.328125 C 32.125 11.101562 32.136719 10.910156 32.148438 10.621094 C 32.15625 10.476562 32.164062 10.316406 32.179688 10.109375 C 32.226562 9.464844 32.453125 9.246094 32.464844 9.238281 C 32.496094 9.207031 32.542969 9.210938 32.570312 9.238281 C 32.601562 9.269531 32.597656 9.316406 32.566406 9.347656 C 32.5625 9.351562 32.371094 9.546875 32.328125 10.121094 C 32.3125 10.324219 32.304688 10.488281 32.296875 10.628906 C 32.285156 10.925781 32.277344 11.125 32.207031 11.371094 C 32.195312 11.402344 32.164062 11.425781 32.132812 11.425781 Z M 32.132812 11.425781 " fill-opacity="1" fill-rule="nonzero"/><path fill="#000000" d="M 33.214844 11.332031 C 33.191406 11.332031 33.171875 11.324219 33.15625 11.304688 C 33.132812 11.28125 32.625 10.675781 32.523438 10.355469 C 32.453125 10.121094 32.640625 9.863281 32.835938 9.585938 C 32.941406 9.445312 33.046875 9.296875 33.109375 9.15625 C 33.125 9.121094 33.171875 9.101562 33.207031 9.121094 C 33.246094 9.136719 33.261719 9.183594 33.246094 9.21875 C 33.175781 9.371094 33.066406 9.523438 32.960938 9.675781 C 32.792969 9.90625 32.621094 10.148438 32.667969 10.308594 C 32.761719 10.601562 33.265625 11.203125 33.273438 11.210938 C 33.300781 11.242188 33.292969 11.289062 33.261719 11.316406 C 33.25 11.328125 33.230469 11.332031 33.214844 11.332031 Z M 33.214844 11.332031 " fill-opacity="1" fill-rule="nonzero"/><path fill="#000000" d="M 41.027344 11.480469 C 41.011719 11.480469 40.996094 11.472656 40.980469 11.460938 C 40.960938 11.445312 40.789062 11.292969 40.738281 10.761719 C 40.6875 10.234375 41.199219 9.113281 41.222656 9.066406 C 41.238281 9.027344 41.28125 9.011719 41.320312 9.027344 C 41.359375 9.042969 41.375 9.089844 41.359375 9.125 C 41.355469 9.140625 40.84375 10.257812 40.890625 10.746094 C 40.933594 11.210938 41.074219 11.34375 41.074219 11.34375 C 41.109375 11.371094 41.113281 11.417969 41.085938 11.449219 C 41.074219 11.46875 41.050781 11.480469 41.027344 11.480469 Z M 41.027344 11.480469 " fill-opacity="1" fill-rule="nonzero"/><path fill="#000000" d="M 39.730469 11.417969 C 39.703125 11.417969 39.675781 11.398438 39.660156 11.371094 C 39.648438 11.332031 39.664062 11.289062 39.703125 11.273438 C 39.855469 11.210938 40.394531 10.308594 40.46875 9.933594 C 40.527344 9.644531 39.96875 9.488281 39.960938 9.488281 C 39.917969 9.476562 39.894531 9.4375 39.90625 9.394531 C 39.917969 9.351562 39.960938 9.332031 40 9.339844 C 40.03125 9.347656 40.703125 9.535156 40.617188 9.964844 C 40.542969 10.320312 40.011719 11.316406 39.761719 11.414062 C 39.75 11.414062 39.742188 11.417969 39.730469 11.417969 Z M 39.730469 11.417969 " fill-opacity="1" fill-rule="nonzero"/><path fill="#000000" d="M 43.421875 11.042969 C 43.390625 11.042969 43.359375 11.019531 43.351562 10.988281 C 43.285156 10.75 43.351562 10.15625 43.421875 9.617188 L 43.429688 9.535156 C 43.480469 9.164062 43.851562 8.816406 43.867188 8.800781 C 43.898438 8.773438 43.945312 8.773438 43.972656 8.804688 C 44.003906 8.835938 44 8.882812 43.972656 8.910156 C 43.96875 8.914062 43.621094 9.238281 43.582031 9.554688 L 43.574219 9.636719 C 43.527344 9.988281 43.429688 10.71875 43.496094 10.945312 C 43.507812 10.984375 43.484375 11.027344 43.445312 11.035156 C 43.4375 11.039062 43.429688 11.042969 43.421875 11.042969 Z M 43.421875 11.042969 " fill-opacity="1" fill-rule="nonzero"/><path fill="#000000" d="M 42.605469 11.117188 C 42.585938 11.117188 42.570312 11.109375 42.554688 11.09375 C 42.523438 11.066406 42.519531 11.019531 42.546875 10.988281 C 42.550781 10.984375 42.972656 10.519531 43.054688 9.96875 C 43.128906 9.457031 42.433594 9.25 42.425781 9.25 C 42.386719 9.238281 42.363281 9.195312 42.375 9.152344 C 42.386719 9.113281 42.425781 9.089844 42.464844 9.101562 C 42.753906 9.183594 43.277344 9.476562 43.203125 9.988281 C 43.117188 10.585938 42.675781 11.070312 42.660156 11.089844 C 42.644531 11.105469 42.625 11.117188 42.605469 11.117188 Z M 42.605469 11.117188 " fill-opacity="1" fill-rule="nonzero"/><path fill="#000000" d="M 26.476562 14.417969 L 26.328125 14.402344 C 26.328125 14.402344 26.390625 13.878906 26.441406 13.496094 C 26.496094 13.082031 26.894531 12.796875 26.910156 12.78125 C 26.945312 12.757812 26.992188 12.765625 27.015625 12.800781 C 27.039062 12.835938 27.03125 12.878906 27 12.90625 C 26.996094 12.910156 26.636719 13.167969 26.59375 13.511719 C 26.542969 13.898438 26.476562 14.417969 26.476562 14.417969 Z M 26.476562 14.417969 " fill-opacity="1" fill-rule="nonzero"/><path fill="#000000" d="M 27.15625 14.53125 C 27.113281 14.53125 27.078125 14.496094 27.078125 14.453125 C 27.078125 14.445312 27.082031 14.242188 27.148438 13.964844 C 27.179688 13.832031 27.171875 13.757812 27.164062 13.671875 C 27.15625 13.59375 27.144531 13.5 27.164062 13.363281 C 27.175781 13.289062 27.214844 13.226562 27.273438 13.1875 C 27.460938 13.0625 27.820312 13.148438 27.863281 13.160156 C 27.902344 13.167969 27.925781 13.210938 27.917969 13.25 C 27.90625 13.292969 27.867188 13.316406 27.824219 13.308594 C 27.695312 13.273438 27.457031 13.246094 27.355469 13.3125 C 27.332031 13.332031 27.316406 13.351562 27.3125 13.382812 C 27.296875 13.507812 27.304688 13.582031 27.3125 13.65625 C 27.324219 13.75 27.335938 13.847656 27.296875 14.003906 C 27.230469 14.265625 27.230469 14.457031 27.230469 14.457031 C 27.230469 14.496094 27.195312 14.53125 27.15625 14.53125 Z M 27.15625 14.53125 " fill-opacity="1" fill-rule="nonzero"/><path fill="#000000" d="M 28.90625 14.355469 C 28.886719 14.355469 28.863281 14.34375 28.847656 14.328125 C 28.820312 14.292969 28.824219 14.246094 28.855469 14.21875 C 28.859375 14.21875 29.140625 13.976562 29.261719 13.796875 C 29.339844 13.675781 29.347656 13.613281 29.363281 13.484375 C 29.371094 13.425781 29.378906 13.351562 29.394531 13.261719 C 29.402344 13.226562 29.394531 13.195312 29.375 13.164062 C 29.292969 13.042969 29.019531 12.964844 28.925781 12.949219 C 28.882812 12.9375 28.855469 12.898438 28.863281 12.859375 C 28.875 12.820312 28.910156 12.792969 28.953125 12.800781 C 28.992188 12.808594 29.363281 12.882812 29.5 13.082031 C 29.546875 13.148438 29.558594 13.21875 29.546875 13.292969 C 29.527344 13.378906 29.519531 13.445312 29.511719 13.503906 C 29.496094 13.640625 29.484375 13.730469 29.386719 13.878906 C 29.253906 14.082031 28.96875 14.324219 28.957031 14.335938 C 28.941406 14.347656 28.921875 14.355469 28.90625 14.355469 Z M 28.90625 14.355469 " fill-opacity="1" fill-rule="nonzero"/><path fill="#000000" d="M 29.648438 14.203125 C 29.613281 14.203125 29.585938 14.179688 29.574219 14.148438 C 29.5625 14.109375 29.582031 14.066406 29.621094 14.054688 C 29.800781 13.996094 30.097656 13.855469 30.144531 13.730469 C 30.203125 13.570312 30.195312 12.925781 30.1875 12.691406 C 30.183594 12.652344 30.214844 12.613281 30.257812 12.613281 C 30.300781 12.609375 30.335938 12.644531 30.335938 12.683594 C 30.339844 12.773438 30.367188 13.5625 30.289062 13.78125 C 30.199219 14.015625 29.726562 14.179688 29.671875 14.195312 C 29.664062 14.199219 29.65625 14.203125 29.648438 14.203125 Z M 29.648438 14.203125 " fill-opacity="1" fill-rule="nonzero"/><path fill="#000000" d="M 31.933594 14.316406 C 31.902344 14.316406 31.875 14.296875 31.863281 14.269531 C 31.847656 14.230469 31.867188 14.1875 31.90625 14.171875 C 31.96875 14.144531 32.140625 14.054688 32.164062 13.945312 C 32.191406 13.824219 32.171875 13.207031 32.152344 12.824219 C 32.152344 12.785156 32.183594 12.75 32.226562 12.746094 C 32.269531 12.746094 32.304688 12.777344 32.304688 12.820312 C 32.308594 12.917969 32.351562 13.800781 32.3125 13.980469 C 32.265625 14.1875 31.992188 14.300781 31.960938 14.3125 C 31.953125 14.316406 31.941406 14.316406 31.933594 14.316406 Z M 31.933594 14.316406 " fill-opacity="1" fill-rule="nonzero"/><path fill="#000000" d="M 32.351562 14.332031 C 32.316406 14.332031 32.285156 14.3125 32.277344 14.273438 C 32.265625 14.234375 32.292969 14.195312 32.332031 14.183594 C 32.414062 14.164062 32.515625 14.113281 32.523438 14.070312 C 32.535156 14.023438 32.519531 13.917969 32.511719 13.820312 C 32.5 13.707031 32.488281 13.59375 32.5 13.507812 C 32.519531 13.351562 32.589844 12.878906 32.59375 12.859375 C 32.601562 12.816406 32.636719 12.789062 32.679688 12.796875 C 32.71875 12.800781 32.75 12.839844 32.742188 12.878906 C 32.742188 12.886719 32.667969 13.367188 32.648438 13.523438 C 32.640625 13.59375 32.652344 13.703125 32.664062 13.804688 C 32.675781 13.925781 32.6875 14.03125 32.671875 14.105469 C 32.636719 14.257812 32.414062 14.320312 32.367188 14.332031 C 32.363281 14.332031 32.355469 14.332031 32.351562 14.332031 Z M 32.351562 14.332031 " fill-opacity="1" fill-rule="nonzero"/><path fill="#000000" d="M 33.96875 14.351562 C 33.9375 14.351562 33.910156 14.332031 33.898438 14.304688 C 33.882812 14.269531 33.898438 14.222656 33.9375 14.207031 C 33.941406 14.203125 34.058594 14.144531 34.097656 13.933594 C 34.144531 13.679688 34.203125 12.828125 34.203125 12.820312 C 34.207031 12.78125 34.242188 12.746094 34.285156 12.75 C 34.328125 12.753906 34.359375 12.789062 34.355469 12.832031 C 34.355469 12.867188 34.292969 13.695312 34.246094 13.957031 C 34.195312 14.253906 34.007812 14.339844 34 14.34375 C 33.988281 14.347656 33.976562 14.351562 33.96875 14.351562 Z M 33.96875 14.351562 " fill-opacity="1" fill-rule="nonzero"/><path fill="#000000" d="M 34.839844 14.226562 C 34.8125 14.226562 34.78125 14.207031 34.769531 14.179688 L 34.507812 13.535156 C 34.46875 13.449219 34.496094 13.34375 34.578125 13.269531 L 35.085938 12.8125 C 35.117188 12.785156 35.167969 12.789062 35.195312 12.820312 C 35.222656 12.851562 35.21875 12.898438 35.1875 12.925781 L 34.679688 13.382812 C 34.648438 13.410156 34.636719 13.449219 34.648438 13.476562 L 34.910156 14.121094 C 34.925781 14.160156 34.910156 14.203125 34.871094 14.21875 C 34.859375 14.222656 34.851562 14.226562 34.839844 14.226562 Z M 34.839844 14.226562 " fill-opacity="1" fill-rule="nonzero"/><path fill="#000000" d="M 36.449219 14.125 C 36.429688 14.125 36.414062 14.117188 36.398438 14.105469 C 36.367188 14.078125 36.363281 14.03125 36.390625 14 C 36.539062 13.835938 36.765625 13.523438 36.75 13.375 C 36.726562 13.121094 36.753906 12.839844 36.785156 12.578125 C 36.789062 12.535156 36.828125 12.507812 36.871094 12.511719 C 36.910156 12.515625 36.941406 12.554688 36.933594 12.597656 C 36.902344 12.851562 36.878906 13.121094 36.902344 13.359375 C 36.925781 13.628906 36.546875 14.054688 36.503906 14.101562 C 36.488281 14.117188 36.46875 14.125 36.449219 14.125 Z M 36.449219 14.125 " fill-opacity="1" fill-rule="nonzero"/><path fill="#000000" d="M 37.445312 14.113281 C 37.417969 14.113281 37.390625 14.097656 37.378906 14.070312 C 37.332031 13.96875 37.105469 13.460938 37.140625 13.257812 C 37.175781 13.050781 37.574219 12.675781 37.652344 12.601562 C 37.683594 12.574219 37.730469 12.578125 37.757812 12.609375 C 37.785156 12.640625 37.785156 12.6875 37.753906 12.714844 C 37.585938 12.871094 37.308594 13.164062 37.289062 13.28125 C 37.269531 13.40625 37.414062 13.792969 37.515625 14.007812 C 37.53125 14.046875 37.515625 14.089844 37.476562 14.105469 C 37.46875 14.109375 37.457031 14.113281 37.445312 14.113281 Z M 37.445312 14.113281 " fill-opacity="1" fill-rule="nonzero"/><path fill="#000000" d="M 39.207031 14.046875 C 39.183594 14.046875 39.164062 14.035156 39.148438 14.019531 C 39.121094 13.988281 39.121094 13.941406 39.152344 13.914062 C 39.15625 13.910156 39.335938 13.746094 39.398438 13.578125 C 39.4375 13.46875 39.429688 13.363281 39.417969 13.214844 C 39.414062 13.144531 39.40625 13.0625 39.40625 12.96875 C 39.40625 12.652344 39.785156 12.390625 39.800781 12.382812 C 39.832031 12.355469 39.882812 12.367188 39.902344 12.398438 C 39.929688 12.433594 39.917969 12.480469 39.886719 12.503906 C 39.792969 12.566406 39.558594 12.773438 39.558594 12.96875 C 39.558594 13.054688 39.566406 13.136719 39.570312 13.203125 C 39.582031 13.355469 39.589844 13.488281 39.539062 13.632812 C 39.464844 13.832031 39.261719 14.019531 39.253906 14.023438 C 39.242188 14.039062 39.222656 14.046875 39.207031 14.046875 Z M 39.207031 14.046875 " fill-opacity="1" fill-rule="nonzero"/><path fill="#000000" d="M 40.035156 14.015625 C 40.015625 14.015625 40 14.011719 39.988281 14 C 39.953125 13.972656 39.949219 13.925781 39.976562 13.890625 C 40.050781 13.800781 40.109375 13.496094 40.027344 13.210938 C 39.933594 12.886719 40.203125 12.480469 40.214844 12.460938 C 40.242188 12.425781 40.285156 12.417969 40.320312 12.441406 C 40.355469 12.464844 40.367188 12.511719 40.34375 12.546875 C 40.339844 12.550781 40.101562 12.914062 40.171875 13.167969 C 40.265625 13.492188 40.207031 13.851562 40.09375 13.988281 C 40.078125 14.003906 40.058594 14.015625 40.035156 14.015625 Z M 40.035156 14.015625 " fill-opacity="1" fill-rule="nonzero"/><path fill="#000000" d="M 42.691406 14.089844 C 42.675781 14.089844 42.664062 14.085938 42.652344 14.078125 C 42.617188 14.058594 42.605469 14.011719 42.625 13.976562 C 42.722656 13.816406 42.882812 13.535156 42.902344 13.453125 C 42.925781 13.339844 42.945312 13.234375 42.839844 13.042969 C 42.730469 12.847656 42.460938 12.609375 42.460938 12.605469 C 42.429688 12.578125 42.425781 12.53125 42.453125 12.5 C 42.480469 12.46875 42.527344 12.464844 42.558594 12.492188 C 42.570312 12.503906 42.847656 12.75 42.972656 12.96875 C 43.105469 13.207031 43.074219 13.363281 43.046875 13.484375 C 43.023438 13.613281 42.800781 13.980469 42.753906 14.054688 C 42.742188 14.078125 42.71875 14.089844 42.691406 14.089844 Z M 42.691406 14.089844 " fill-opacity="1" fill-rule="nonzero"/><path fill="#000000" d="M 43.695312 13.976562 C 43.675781 13.976562 43.65625 13.96875 43.640625 13.953125 C 43.601562 13.910156 43.273438 13.546875 43.273438 13.308594 C 43.273438 13.078125 43.605469 12.453125 43.644531 12.382812 C 43.664062 12.347656 43.707031 12.332031 43.746094 12.351562 C 43.78125 12.371094 43.796875 12.417969 43.777344 12.453125 C 43.640625 12.710938 43.425781 13.164062 43.425781 13.308594 C 43.425781 13.445312 43.625 13.714844 43.753906 13.851562 C 43.78125 13.882812 43.777344 13.929688 43.746094 13.957031 C 43.730469 13.96875 43.714844 13.976562 43.695312 13.976562 Z M 43.695312 13.976562 " fill-opacity="1" fill-rule="nonzero"/><path fill="#000000" d="M 26.390625 16.554688 C 26.375 16.554688 26.355469 16.550781 26.339844 16.535156 C 26.308594 16.507812 26.308594 16.457031 26.339844 16.429688 C 26.453125 16.308594 26.457031 16.214844 26.460938 16.074219 C 26.464844 16.03125 26.464844 15.980469 26.472656 15.925781 C 26.496094 15.703125 26.550781 15.402344 26.554688 15.390625 C 26.558594 15.351562 26.601562 15.324219 26.640625 15.328125 C 26.683594 15.335938 26.710938 15.375 26.703125 15.417969 C 26.703125 15.421875 26.648438 15.726562 26.625 15.9375 C 26.617188 15.988281 26.617188 16.035156 26.617188 16.078125 C 26.609375 16.226562 26.605469 16.367188 26.449219 16.53125 C 26.433594 16.546875 26.414062 16.554688 26.390625 16.554688 Z M 26.390625 16.554688 " fill-opacity="1" fill-rule="nonzero"/><path fill="#000000" d="M 26.695312 16.644531 C 26.660156 16.644531 26.628906 16.617188 26.621094 16.578125 C 26.617188 16.542969 26.640625 16.507812 26.675781 16.496094 C 26.683594 16.492188 26.730469 16.449219 26.769531 16.277344 C 26.824219 16.023438 26.859375 15.46875 26.859375 15.464844 C 26.859375 15.421875 26.898438 15.390625 26.941406 15.394531 C 26.980469 15.394531 27.015625 15.429688 27.011719 15.472656 C 27.007812 15.496094 26.976562 16.046875 26.917969 16.308594 C 26.855469 16.59375 26.75 16.636719 26.710938 16.644531 C 26.703125 16.644531 26.699219 16.644531 26.695312 16.644531 Z M 26.671875 16.496094 Z M 26.683594 16.492188 Z M 26.683594 16.492188 Z M 26.683594 16.492188 Z M 26.683594 16.492188 " fill-opacity="1" fill-rule="nonzero"/><path fill="#000000" d="M 28.980469 16.464844 C 28.964844 16.464844 28.949219 16.457031 28.9375 16.449219 C 28.902344 16.421875 28.894531 16.375 28.921875 16.339844 C 29.054688 16.164062 29.050781 15.589844 29.035156 15.386719 C 29.035156 15.34375 29.066406 15.308594 29.105469 15.304688 C 29.148438 15.304688 29.183594 15.335938 29.1875 15.375 C 29.191406 15.457031 29.234375 16.175781 29.042969 16.429688 C 29.027344 16.453125 29.003906 16.464844 28.980469 16.464844 Z M 28.980469 16.464844 " fill-opacity="1" fill-rule="nonzero"/><path fill="#000000" d="M 29.308594 16.511719 C 29.277344 16.511719 29.25 16.492188 29.234375 16.460938 C 29.097656 16.058594 29.410156 15.335938 29.425781 15.304688 C 29.441406 15.265625 29.488281 15.25 29.523438 15.265625 C 29.5625 15.28125 29.578125 15.328125 29.5625 15.363281 C 29.5625 15.371094 29.261719 16.0625 29.378906 16.410156 C 29.394531 16.449219 29.375 16.492188 29.335938 16.507812 C 29.324219 16.507812 29.316406 16.511719 29.308594 16.511719 Z M 29.308594 16.511719 " fill-opacity="1" fill-rule="nonzero"/><path fill="#000000" d="M 31.640625 16.394531 C 31.609375 16.394531 31.578125 16.375 31.566406 16.34375 C 31.554688 16.304688 31.578125 16.261719 31.617188 16.246094 C 31.710938 16.214844 31.753906 16.089844 31.789062 15.890625 C 31.820312 15.730469 31.730469 15.445312 31.695312 15.347656 C 31.679688 15.308594 31.699219 15.265625 31.738281 15.25 C 31.777344 15.234375 31.820312 15.257812 31.835938 15.292969 C 31.839844 15.308594 31.980469 15.683594 31.9375 15.917969 C 31.898438 16.125 31.84375 16.328125 31.664062 16.390625 C 31.65625 16.394531 31.648438 16.394531 31.640625 16.394531 Z M 31.640625 16.394531 " fill-opacity="1" fill-rule="nonzero"/><path fill="#000000" d="M 32.1875 16.421875 C 32.15625 16.421875 32.125 16.402344 32.117188 16.371094 L 32.113281 16.367188 C 32.0625 16.230469 32 16.0625 32.027344 15.824219 C 32.054688 15.582031 32.261719 15.304688 32.269531 15.292969 C 32.292969 15.257812 32.339844 15.253906 32.375 15.277344 C 32.410156 15.300781 32.417969 15.351562 32.390625 15.382812 C 32.390625 15.386719 32.203125 15.640625 32.179688 15.84375 C 32.15625 16.046875 32.207031 16.1875 32.257812 16.316406 L 32.257812 16.324219 C 32.273438 16.363281 32.253906 16.40625 32.214844 16.421875 C 32.207031 16.421875 32.195312 16.421875 32.1875 16.421875 Z M 32.1875 16.421875 " fill-opacity="1" fill-rule="nonzero"/><path fill="#000000" d="M 36.984375 16.367188 C 36.964844 16.367188 36.945312 16.359375 36.929688 16.34375 C 36.894531 16.304688 36.710938 16.097656 36.714844 15.945312 C 36.71875 15.800781 36.960938 15.480469 37.039062 15.386719 C 37.0625 15.355469 37.113281 15.347656 37.144531 15.375 C 37.175781 15.398438 37.183594 15.449219 37.15625 15.480469 C 37.015625 15.65625 36.867188 15.886719 36.867188 15.953125 C 36.863281 16.019531 36.96875 16.167969 37.042969 16.242188 C 37.070312 16.273438 37.066406 16.324219 37.035156 16.351562 C 37.019531 16.363281 37 16.367188 36.984375 16.367188 Z M 36.984375 16.367188 " fill-opacity="1" fill-rule="nonzero"/><path fill="#000000" d="M 36.234375 16.378906 C 36.214844 16.378906 36.191406 16.371094 36.179688 16.355469 C 36.148438 16.324219 36.148438 16.277344 36.179688 16.25 C 36.292969 16.132812 36.457031 15.929688 36.449219 15.835938 C 36.445312 15.757812 36.28125 15.683594 36.171875 15.660156 C 36.132812 15.648438 36.105469 15.609375 36.117188 15.570312 C 36.125 15.527344 36.164062 15.503906 36.207031 15.511719 C 36.246094 15.519531 36.582031 15.605469 36.597656 15.824219 C 36.613281 16.019531 36.339844 16.300781 36.285156 16.355469 C 36.269531 16.371094 36.25 16.378906 36.234375 16.378906 Z M 36.234375 16.378906 " fill-opacity="1" fill-rule="nonzero"/><path fill="#000000" d="M 39.96875 16.210938 C 39.9375 16.210938 39.914062 16.195312 39.898438 16.167969 C 39.882812 16.132812 39.746094 15.835938 39.785156 15.640625 C 39.824219 15.445312 39.972656 15.296875 39.976562 15.289062 C 40.003906 15.261719 40.054688 15.261719 40.082031 15.289062 C 40.113281 15.320312 40.113281 15.367188 40.082031 15.398438 C 40.082031 15.398438 39.960938 15.519531 39.929688 15.667969 C 39.90625 15.792969 39.996094 16.023438 40.03125 16.101562 C 40.050781 16.136719 40.035156 16.183594 39.996094 16.203125 C 39.988281 16.207031 39.976562 16.210938 39.96875 16.210938 Z M 39.96875 16.210938 " fill-opacity="1" fill-rule="nonzero"/><path fill="#000000" d="M 39.339844 16.257812 C 39.316406 16.257812 39.292969 16.25 39.277344 16.226562 C 39.253906 16.195312 39.261719 16.148438 39.292969 16.121094 C 39.398438 16.042969 39.417969 15.96875 39.429688 15.777344 C 39.4375 15.605469 39.347656 15.394531 39.34375 15.394531 C 39.328125 15.355469 39.34375 15.3125 39.382812 15.292969 C 39.417969 15.277344 39.464844 15.292969 39.480469 15.332031 C 39.488281 15.339844 39.589844 15.578125 39.582031 15.785156 C 39.570312 15.976562 39.550781 16.121094 39.382812 16.246094 C 39.371094 16.253906 39.355469 16.257812 39.339844 16.257812 Z M 39.339844 16.257812 " fill-opacity="1" fill-rule="nonzero"/><path fill="#000000" d="M 43.15625 16.191406 C 43.128906 16.191406 43.101562 16.171875 43.085938 16.144531 C 43.082031 16.132812 43.03125 16.015625 43.070312 15.714844 C 43.109375 15.402344 43.316406 15.210938 43.324219 15.199219 C 43.355469 15.171875 43.402344 15.175781 43.429688 15.207031 C 43.457031 15.238281 43.457031 15.285156 43.425781 15.3125 C 43.421875 15.316406 43.253906 15.476562 43.21875 15.734375 C 43.1875 15.988281 43.222656 16.085938 43.222656 16.085938 C 43.242188 16.125 43.222656 16.167969 43.1875 16.183594 C 43.175781 16.1875 43.167969 16.191406 43.15625 16.191406 Z M 43.15625 16.191406 " fill-opacity="1" fill-rule="nonzero"/><path fill="#000000" d="M 42.582031 16.246094 C 42.554688 16.246094 42.527344 16.230469 42.515625 16.203125 C 42.496094 16.167969 42.511719 16.121094 42.546875 16.101562 C 42.550781 16.101562 42.707031 16.023438 42.742188 15.863281 C 42.777344 15.710938 42.734375 15.332031 42.714844 15.199219 C 42.707031 15.15625 42.734375 15.117188 42.777344 15.113281 C 42.820312 15.105469 42.859375 15.132812 42.863281 15.175781 C 42.867188 15.195312 42.941406 15.6875 42.890625 15.898438 C 42.835938 16.128906 42.625 16.234375 42.617188 16.238281 C 42.605469 16.246094 42.59375 16.246094 42.582031 16.246094 Z M 42.582031 16.246094 " fill-opacity="1" fill-rule="nonzero"/><path fill="#000000" d="M 26.019531 18.652344 C 26.015625 18.652344 26.007812 18.652344 26.003906 18.652344 C 25.960938 18.640625 25.9375 18.597656 25.949219 18.558594 C 25.984375 18.421875 25.964844 18.351562 25.9375 18.253906 C 25.925781 18.207031 25.910156 18.152344 25.902344 18.085938 C 25.871094 17.867188 26.097656 17.589844 26.125 17.558594 C 26.152344 17.523438 26.199219 17.519531 26.230469 17.546875 C 26.261719 17.574219 26.265625 17.625 26.238281 17.65625 C 26.15625 17.753906 26.035156 17.949219 26.050781 18.066406 C 26.058594 18.121094 26.070312 18.167969 26.082031 18.214844 C 26.113281 18.320312 26.140625 18.421875 26.09375 18.597656 C 26.085938 18.628906 26.054688 18.652344 26.019531 18.652344 Z M 26.019531 18.652344 " fill-opacity="1" fill-rule="nonzero"/><path fill="#000000" d="M 26.574219 18.695312 C 26.542969 18.695312 26.515625 18.675781 26.503906 18.648438 C 26.5 18.640625 26.386719 18.386719 26.402344 18.15625 C 26.421875 17.921875 26.660156 17.625 26.667969 17.613281 C 26.691406 17.582031 26.742188 17.574219 26.773438 17.601562 C 26.804688 17.628906 26.8125 17.675781 26.785156 17.707031 C 26.726562 17.785156 26.566406 18.011719 26.554688 18.167969 C 26.539062 18.355469 26.640625 18.585938 26.640625 18.585938 C 26.660156 18.625 26.640625 18.671875 26.601562 18.6875 C 26.59375 18.691406 26.582031 18.695312 26.574219 18.695312 Z M 26.574219 18.695312 " fill-opacity="1" fill-rule="nonzero"/><path fill="#000000" d="M 28.550781 18.75 C 28.546875 18.75 28.542969 18.75 28.539062 18.75 C 28.496094 18.742188 28.46875 18.703125 28.476562 18.664062 L 28.609375 17.765625 C 28.613281 17.722656 28.652344 17.695312 28.695312 17.703125 C 28.734375 17.707031 28.765625 17.746094 28.757812 17.789062 L 28.625 18.683594 C 28.617188 18.722656 28.585938 18.75 28.550781 18.75 Z M 28.550781 18.75 " fill-opacity="1" fill-rule="nonzero"/><path fill="#000000" d="M 29.257812 18.554688 C 29.242188 18.554688 29.226562 18.554688 29.207031 18.550781 C 29.082031 18.535156 28.996094 18.457031 28.972656 18.351562 C 28.929688 18.132812 29.160156 17.835938 29.1875 17.804688 C 29.210938 17.773438 29.261719 17.765625 29.292969 17.792969 C 29.324219 17.816406 29.332031 17.867188 29.304688 17.898438 C 29.222656 18 29.101562 18.207031 29.121094 18.320312 C 29.136719 18.382812 29.195312 18.398438 29.230469 18.402344 C 29.304688 18.414062 29.375 18.382812 29.390625 18.351562 C 29.410156 18.3125 29.457031 18.296875 29.492188 18.316406 C 29.53125 18.335938 29.546875 18.378906 29.527344 18.417969 C 29.480469 18.511719 29.363281 18.554688 29.257812 18.554688 Z M 29.257812 18.554688 " fill-opacity="1" fill-rule="nonzero"/><path fill="#000000" d="M 33.792969 18.75 C 33.785156 18.75 33.78125 18.75 33.777344 18.746094 C 33.734375 18.738281 33.710938 18.699219 33.714844 18.65625 C 33.753906 18.472656 33.78125 18.246094 33.769531 18.1875 C 33.742188 18.171875 33.664062 18.167969 33.601562 18.171875 C 33.558594 18.179688 33.523438 18.148438 33.515625 18.105469 C 33.511719 18.066406 33.542969 18.027344 33.585938 18.023438 C 33.636719 18.015625 33.8125 18.003906 33.886719 18.085938 C 33.90625 18.109375 33.964844 18.175781 33.863281 18.6875 C 33.859375 18.726562 33.828125 18.75 33.792969 18.75 Z M 33.769531 18.179688 Z M 33.769531 18.179688 " fill-opacity="1" fill-rule="nonzero"/><path fill="#000000" d="M 34.226562 18.753906 C 34.1875 18.753906 34.15625 18.722656 34.152344 18.683594 C 34.136719 18.214844 34.296875 17.925781 34.304688 17.914062 C 34.324219 17.875 34.371094 17.863281 34.40625 17.886719 C 34.441406 17.90625 34.453125 17.953125 34.433594 17.988281 C 34.433594 17.992188 34.285156 18.257812 34.300781 18.679688 C 34.304688 18.722656 34.269531 18.757812 34.230469 18.757812 C 34.230469 18.753906 34.226562 18.753906 34.226562 18.753906 Z M 34.226562 18.753906 " fill-opacity="1" fill-rule="nonzero"/><path fill="#000000" d="M 36.71875 18.765625 C 36.710938 18.765625 36.699219 18.765625 36.691406 18.761719 C 36.652344 18.746094 36.632812 18.699219 36.648438 18.664062 C 36.859375 18.140625 36.675781 17.828125 36.671875 17.8125 C 36.648438 17.777344 36.660156 17.730469 36.695312 17.710938 C 36.730469 17.6875 36.777344 17.699219 36.800781 17.734375 C 36.808594 17.75 37.027344 18.121094 36.789062 18.71875 C 36.777344 18.746094 36.75 18.765625 36.71875 18.765625 Z M 36.71875 18.765625 " fill-opacity="1" fill-rule="nonzero"/><path fill="#000000" d="M 36.113281 18.738281 C 36.101562 18.738281 36.089844 18.738281 36.078125 18.730469 C 36.042969 18.714844 36.027344 18.667969 36.042969 18.628906 C 36.269531 18.15625 36.046875 17.835938 36.046875 17.832031 C 36.023438 17.796875 36.03125 17.75 36.066406 17.726562 C 36.101562 17.703125 36.148438 17.710938 36.171875 17.746094 C 36.183594 17.761719 36.445312 18.144531 36.179688 18.699219 C 36.167969 18.722656 36.140625 18.738281 36.113281 18.738281 Z M 36.113281 18.738281 " fill-opacity="1" fill-rule="nonzero"/><path fill="#cbacf9" d="M 38.957031 18.96875 C 38.949219 18.96875 38.945312 18.96875 38.9375 18.96875 C 38.894531 18.953125 38.871094 18.910156 38.882812 18.871094 C 38.984375 18.53125 39.007812 18.15625 38.9375 17.859375 C 38.867188 17.574219 38.574219 17.105469 38.570312 17.101562 C 38.550781 17.0625 38.558594 17.019531 38.59375 16.996094 C 38.632812 16.972656 38.679688 16.984375 38.699219 17.019531 C 38.710938 17.039062 39.011719 17.515625 39.082031 17.824219 C 39.160156 18.144531 39.136719 18.550781 39.027344 18.914062 C 39.019531 18.949219 38.992188 18.96875 38.957031 18.96875 Z M 38.957031 18.96875 " fill-opacity="1" fill-rule="nonzero"/><path fill="#cbacf9" d="M 39.78125 18.546875 L 40.011719 18.175781 L 40.164062 18.175781 L 39.859375 18.65625 L 40.171875 19.144531 L 40.019531 19.144531 L 39.78125 18.765625 L 39.542969 19.144531 L 39.390625 19.144531 L 39.703125 18.65625 L 39.398438 18.175781 L 39.546875 18.175781 Z M 39.78125 18.546875 " fill-opacity="1" fill-rule="nonzero"/><path fill="#cbacf9" d="M 41.117188 18.683594 C 41.078125 18.683594 41.042969 18.65625 41.039062 18.617188 C 41.039062 18.605469 41.011719 18.34375 41.027344 18.136719 C 41.042969 17.90625 41.285156 17.703125 41.296875 17.695312 C 41.328125 17.671875 41.375 17.675781 41.402344 17.707031 C 41.425781 17.738281 41.425781 17.789062 41.390625 17.8125 C 41.335938 17.859375 41.1875 18.011719 41.179688 18.144531 C 41.167969 18.339844 41.191406 18.597656 41.191406 18.601562 C 41.195312 18.640625 41.167969 18.679688 41.125 18.683594 C 41.121094 18.683594 41.121094 18.683594 41.117188 18.683594 Z M 41.117188 18.683594 " fill-opacity="1" fill-rule="nonzero"/><path fill="#cbacf9" d="M 42.011719 18.652344 L 42.265625 18.164062 L 42.410156 18.164062 L 42.078125 18.769531 L 42.078125 19.132812 L 41.949219 19.132812 L 41.949219 18.769531 L 41.617188 18.164062 L 41.761719 18.164062 Z M 42.011719 18.652344 " fill-opacity="1" fill-rule="nonzero"/><path fill="#ffffff" d="M 8.222656 12.816406 C 8.601562 13.332031 9.179688 13.707031 9.878906 13.832031 C 10.574219 13.957031 11.261719 13.804688 11.808594 13.460938 Z M 8.222656 12.816406 " fill-opacity="1" fill-rule="nonzero"/><path fill="#000000" d="M 10.367188 13.914062 C 10.203125 13.914062 10.035156 13.898438 9.875 13.867188 C 9.191406 13.746094 8.59375 13.378906 8.191406 12.839844 C 8.183594 12.824219 8.183594 12.808594 8.191406 12.796875 C 8.199219 12.78125 8.214844 12.773438 8.230469 12.777344 L 11.816406 13.421875 C 11.832031 13.421875 11.84375 13.433594 11.847656 13.449219 C 11.851562 13.464844 11.84375 13.480469 11.832031 13.488281 C 11.390625 13.769531 10.882812 13.914062 10.367188 13.914062 Z M 8.3125 12.871094 C 8.699219 13.355469 9.257812 13.683594 9.886719 13.796875 C 10.515625 13.910156 11.160156 13.796875 11.707031 13.480469 Z M 8.3125 12.871094 " fill-opacity="1" fill-rule="nonzero"/><path fill="#ffffff" d="M 12.082031 13.605469 L 7.914062 12.855469 L 8.144531 11.667969 L 12.316406 12.414062 Z M 12.082031 13.605469 " fill-opacity="1" fill-rule="nonzero"/><path fill="#000000" d="M 12.082031 13.640625 C 12.082031 13.640625 12.078125 13.640625 12.078125 13.640625 L 7.90625 12.894531 C 7.894531 12.890625 7.886719 12.886719 7.882812 12.878906 C 7.875 12.867188 7.871094 12.859375 7.875 12.847656 L 8.109375 11.65625 C 8.113281 11.636719 8.132812 11.625 8.152344 11.628906 L 12.324219 12.375 C 12.335938 12.378906 12.34375 12.382812 12.347656 12.390625 C 12.351562 12.398438 12.355469 12.410156 12.351562 12.421875 L 12.121094 13.609375 C 12.117188 13.628906 12.101562 13.640625 12.082031 13.640625 Z M 7.957031 12.824219 L 12.050781 13.558594 L 12.269531 12.445312 L 8.175781 11.710938 Z M 7.957031 12.824219 " fill-opacity="1" fill-rule="nonzero"/><path fill="#ffffff" d="M 10.019531 14.707031 L 9.417969 14.597656 L 9.613281 13.589844 L 10.21875 13.699219 Z M 10.019531 14.707031 " fill-opacity="1" fill-rule="nonzero"/><path fill="#000000" d="M 10.019531 14.742188 C 10.019531 14.742188 10.015625 14.742188 10.015625 14.742188 L 9.410156 14.636719 C 9.398438 14.632812 9.390625 14.628906 9.386719 14.621094 C 9.378906 14.613281 9.378906 14.601562 9.378906 14.589844 L 9.578125 13.582031 C 9.582031 13.5625 9.601562 13.550781 9.621094 13.554688 L 10.226562 13.664062 C 10.234375 13.664062 10.246094 13.667969 10.25 13.675781 C 10.253906 13.6875 10.257812 13.695312 10.253906 13.707031 L 10.058594 14.714844 C 10.054688 14.730469 10.039062 14.742188 10.019531 14.742188 Z M 9.460938 14.566406 L 9.992188 14.660156 L 10.175781 13.726562 L 9.644531 13.632812 Z M 9.460938 14.566406 " fill-opacity="1" fill-rule="nonzero"/><path fill="#ffffff" d="M 11.355469 14.636719 L 10.75 14.75 L 10.542969 13.730469 L 11.148438 13.621094 Z M 11.355469 14.636719 " fill-opacity="1" fill-rule="nonzero"/><path fill="#000000" d="M 10.75 14.785156 C 10.734375 14.785156 10.71875 14.773438 10.714844 14.757812 L 10.507812 13.738281 C 10.503906 13.726562 10.507812 13.71875 10.511719 13.707031 C 10.515625 13.699219 10.527344 13.695312 10.535156 13.691406 L 11.140625 13.582031 C 11.160156 13.578125 11.179688 13.589844 11.183594 13.609375 L 11.390625 14.628906 C 11.394531 14.640625 11.390625 14.648438 11.386719 14.660156 C 11.382812 14.667969 11.371094 14.671875 11.363281 14.671875 L 10.757812 14.785156 C 10.757812 14.785156 10.753906 14.785156 10.75 14.785156 Z M 10.589844 13.761719 L 10.78125 14.707031 L 11.308594 14.609375 L 11.117188 13.664062 Z M 10.589844 13.761719 " fill-opacity="1" fill-rule="nonzero"/><path fill="#ffffff" d="M 8.1875 14.089844 L 8.707031 14.402344 L 9.296875 13.507812 L 8.777344 13.195312 Z M 8.1875 14.089844 " fill-opacity="1" fill-rule="nonzero"/><path fill="#000000" d="M 8.707031 14.441406 C 8.699219 14.441406 8.695312 14.441406 8.6875 14.4375 L 8.167969 14.125 C 8.160156 14.117188 8.152344 14.109375 8.152344 14.101562 C 8.148438 14.089844 8.152344 14.078125 8.15625 14.070312 L 8.746094 13.175781 C 8.757812 13.15625 8.78125 13.152344 8.796875 13.164062 L 9.320312 13.476562 C 9.328125 13.480469 9.335938 13.488281 9.335938 13.5 C 9.335938 13.507812 9.335938 13.519531 9.332031 13.527344 L 8.738281 14.425781 C 8.734375 14.4375 8.722656 14.441406 8.707031 14.441406 Z M 8.238281 14.078125 L 8.695312 14.355469 L 9.246094 13.519531 L 8.789062 13.246094 Z M 8.238281 14.078125 " fill-opacity="1" fill-rule="nonzero"/><path fill="#ffffff" d="M 7.648438 19.464844 L 12.816406 19.464844 L 12.816406 22.933594 L 7.648438 22.933594 Z M 7.648438 19.464844 " fill-opacity="1" fill-rule="nonzero"/><path fill="#000000" d="M 12.8125 22.972656 L 7.648438 22.972656 C 7.628906 22.972656 7.609375 22.953125 7.609375 22.933594 L 7.609375 19.464844 C 7.609375 19.441406 7.628906 19.425781 7.648438 19.425781 L 12.816406 19.425781 C 12.835938 19.425781 12.851562 19.441406 12.851562 19.464844 L 12.851562 22.933594 C 12.851562 22.953125 12.835938 22.972656 12.8125 22.972656 Z M 7.683594 22.894531 L 12.777344 22.894531 L 12.777344 19.5 L 7.683594 19.5 Z M 7.683594 22.894531 " fill-opacity="1" fill-rule="nonzero"/><path fill="#ffffff" d="M 12.710938 12.792969 L 7.648438 11.933594 L 6.71875 9.714844 L 11.980469 8.015625 L 13.3125 11.199219 Z M 12.710938 12.792969 " fill-opacity="1" fill-rule="nonzero"/><path fill="#000000" d="M 12.710938 12.828125 C 12.707031 12.828125 12.707031 12.828125 12.703125 12.828125 L 7.640625 11.96875 C 7.628906 11.96875 7.617188 11.960938 7.613281 11.949219 L 6.683594 9.730469 C 6.679688 9.722656 6.679688 9.710938 6.683594 9.699219 C 6.6875 9.691406 6.695312 9.683594 6.703125 9.679688 L 11.964844 7.980469 C 11.984375 7.972656 12.007812 7.984375 12.011719 8 L 13.347656 11.183594 C 13.347656 11.191406 13.347656 11.203125 13.347656 11.210938 L 12.746094 12.804688 C 12.742188 12.820312 12.726562 12.828125 12.710938 12.828125 Z M 7.675781 11.898438 L 12.6875 12.75 L 13.273438 11.203125 L 11.960938 8.066406 L 6.773438 9.738281 Z M 7.675781 11.898438 " fill-opacity="1" fill-rule="nonzero"/><path fill="#ffffff" d="M 11.050781 9.714844 L 6.71875 9.714844 L 7.652344 8.015625 L 11.980469 8.015625 Z M 11.050781 9.714844 " fill-opacity="1" fill-rule="nonzero"/><path fill="#000000" d="M 11.050781 9.753906 L 6.71875 9.753906 C 6.703125 9.753906 6.691406 9.746094 6.6875 9.734375 C 6.679688 9.722656 6.679688 9.707031 6.6875 9.695312 L 7.617188 8 C 7.625 7.988281 7.636719 7.980469 7.648438 7.980469 L 11.980469 7.980469 C 11.992188 7.980469 12.003906 7.988281 12.011719 8 C 12.019531 8.011719 12.019531 8.023438 12.011719 8.035156 L 11.082031 9.734375 C 11.074219 9.746094 11.0625 9.753906 11.050781 9.753906 Z M 6.78125 9.679688 L 11.027344 9.679688 L 11.914062 8.054688 L 7.671875 8.054688 Z M 6.78125 9.679688 " fill-opacity="1" fill-rule="nonzero"/><path fill="#000000" d="M 11.496094 10.851562 C 11.480469 10.851562 11.46875 10.84375 11.460938 10.832031 L 11.054688 9.953125 C 11.046875 9.9375 11.054688 9.914062 11.074219 9.90625 C 11.09375 9.894531 11.113281 9.90625 11.125 9.921875 L 11.527344 10.800781 C 11.539062 10.816406 11.527344 10.839844 11.511719 10.847656 C 11.503906 10.851562 11.5 10.851562 11.496094 10.851562 Z M 11.496094 10.851562 " fill-opacity="1" fill-rule="nonzero"/><path fill="#ffffff" d="M 7.273438 8.699219 L 7.632812 9.285156 C 7.769531 9.511719 8.28125 9.46875 8.777344 9.195312 C 9.269531 8.917969 9.554688 8.511719 9.414062 8.285156 L 9.054688 7.699219 Z M 7.273438 8.699219 " fill-opacity="1" fill-rule="nonzero"/><path fill="#000000" d="M 7.996094 9.46875 C 7.8125 9.46875 7.671875 9.414062 7.601562 9.304688 L 7.242188 8.722656 C 7.238281 8.710938 7.234375 8.703125 7.238281 8.691406 C 7.242188 8.683594 7.246094 8.671875 7.257812 8.667969 L 9.039062 7.667969 C 9.054688 7.65625 9.078125 7.664062 9.089844 7.679688 L 9.449219 8.265625 C 9.492188 8.332031 9.5 8.421875 9.476562 8.515625 C 9.414062 8.753906 9.152344 9.027344 8.796875 9.226562 C 8.507812 9.386719 8.222656 9.46875 7.996094 9.46875 Z M 7.328125 8.714844 L 7.664062 9.265625 C 7.792969 9.472656 8.292969 9.425781 8.757812 9.164062 C 9.09375 8.976562 9.34375 8.714844 9.402344 8.5 C 9.417969 8.421875 9.414062 8.355469 9.382812 8.304688 L 9.042969 7.753906 Z M 7.328125 8.714844 " fill-opacity="1" fill-rule="nonzero"/><path fill="#ffffff" d="M 9.0625 7.707031 C 9.125 7.824219 9.089844 7.972656 8.960938 8.148438 C 8.832031 8.328125 8.640625 8.484375 8.394531 8.621094 C 8.148438 8.753906 7.914062 8.832031 7.695312 8.84375 C 7.472656 8.855469 7.332031 8.804688 7.269531 8.6875 C 7.203125 8.570312 7.238281 8.425781 7.367188 8.246094 C 7.496094 8.070312 7.6875 7.910156 7.933594 7.777344 C 8.179688 7.640625 8.414062 7.566406 8.636719 7.554688 C 8.855469 7.539062 8.996094 7.59375 9.0625 7.707031 Z M 9.0625 7.707031 " fill-opacity="1" fill-rule="nonzero"/><path fill="#000000" d="M 7.636719 8.882812 C 7.453125 8.882812 7.308594 8.828125 7.242188 8.71875 C 7.199219 8.652344 7.1875 8.5625 7.214844 8.46875 C 7.273438 8.230469 7.535156 7.957031 7.894531 7.757812 C 8.410156 7.46875 8.9375 7.433594 9.085938 7.679688 C 9.128906 7.75 9.136719 7.835938 9.113281 7.929688 C 9.050781 8.171875 8.792969 8.441406 8.433594 8.640625 C 8.148438 8.804688 7.863281 8.882812 7.636719 8.882812 Z M 8.695312 7.589844 C 8.484375 7.589844 8.199219 7.671875 7.929688 7.824219 C 7.597656 8.011719 7.34375 8.273438 7.285156 8.488281 C 7.269531 8.5625 7.273438 8.628906 7.304688 8.679688 C 7.433594 8.886719 7.933594 8.839844 8.398438 8.578125 C 8.734375 8.386719 8.984375 8.128906 9.042969 7.914062 C 9.0625 7.835938 9.054688 7.773438 9.023438 7.71875 C 8.96875 7.632812 8.851562 7.589844 8.695312 7.589844 Z M 8.695312 7.589844 " fill-opacity="1" fill-rule="nonzero"/><path fill="#ffffff" d="M 6.589844 6.898438 L 7.53125 8.433594 C 7.621094 8.578125 7.953125 8.554688 8.269531 8.375 C 8.589844 8.195312 8.773438 7.933594 8.683594 7.789062 L 7.738281 6.253906 Z M 6.589844 6.898438 " fill-opacity="1" fill-rule="nonzero"/><path fill="#000000" d="M 7.769531 8.5625 C 7.644531 8.5625 7.546875 8.527344 7.5 8.453125 L 6.554688 6.917969 C 6.550781 6.90625 6.546875 6.898438 6.550781 6.886719 C 6.554688 6.878906 6.558594 6.867188 6.570312 6.863281 L 7.71875 6.21875 C 7.738281 6.207031 7.757812 6.214844 7.769531 6.230469 L 8.714844 7.765625 C 8.746094 7.816406 8.75 7.875 8.734375 7.941406 C 8.695312 8.097656 8.523438 8.277344 8.289062 8.410156 C 8.105469 8.511719 7.914062 8.5625 7.769531 8.5625 Z M 6.640625 6.910156 L 7.566406 8.414062 C 7.632812 8.527344 7.925781 8.523438 8.253906 8.339844 C 8.46875 8.21875 8.628906 8.054688 8.664062 7.917969 C 8.675781 7.875 8.671875 7.835938 8.652344 7.804688 L 7.726562 6.300781 Z M 6.640625 6.910156 " fill-opacity="1" fill-rule="nonzero"/><path fill="#ffffff" d="M 7.742188 6.257812 C 7.785156 6.332031 7.765625 6.429688 7.679688 6.542969 C 7.59375 6.65625 7.472656 6.757812 7.3125 6.847656 C 7.152344 6.933594 7 6.984375 6.859375 6.992188 C 6.714844 7 6.625 6.964844 6.582031 6.890625 C 6.542969 6.816406 6.5625 6.722656 6.648438 6.605469 C 6.730469 6.492188 6.855469 6.390625 7.015625 6.300781 C 7.175781 6.214844 7.328125 6.164062 7.46875 6.15625 C 7.609375 6.148438 7.703125 6.183594 7.742188 6.257812 Z M 7.742188 6.257812 " fill-opacity="1" fill-rule="nonzero"/><path fill="#000000" d="M 6.824219 7.03125 C 6.699219 7.03125 6.601562 6.992188 6.554688 6.917969 C 6.527344 6.871094 6.519531 6.808594 6.535156 6.746094 C 6.578125 6.585938 6.746094 6.410156 6.980469 6.277344 C 7.320312 6.085938 7.667969 6.066406 7.769531 6.230469 C 7.800781 6.28125 7.808594 6.339844 7.789062 6.40625 C 7.75 6.5625 7.578125 6.742188 7.34375 6.875 C 7.160156 6.976562 6.972656 7.03125 6.824219 7.03125 Z M 7.503906 6.195312 C 7.375 6.195312 7.199219 6.238281 7.019531 6.339844 C 6.804688 6.460938 6.644531 6.625 6.609375 6.761719 C 6.597656 6.808594 6.601562 6.847656 6.621094 6.875 C 6.6875 6.988281 6.984375 6.988281 7.308594 6.804688 C 7.523438 6.683594 7.683594 6.519531 7.71875 6.382812 C 7.730469 6.335938 7.726562 6.296875 7.707031 6.269531 C 7.675781 6.222656 7.605469 6.195312 7.503906 6.195312 Z M 7.503906 6.195312 " fill-opacity="1" fill-rule="nonzero"/><path fill="#ffffff" d="M 8.96875 8.691406 L 9.328125 9.273438 C 9.464844 9.5 9.976562 9.460938 10.472656 9.183594 C 10.964844 8.90625 11.25 8.5 11.109375 8.273438 L 10.75 7.6875 Z M 8.96875 8.691406 " fill-opacity="1" fill-rule="nonzero"/><path fill="#000000" d="M 9.691406 9.460938 C 9.507812 9.460938 9.363281 9.40625 9.296875 9.296875 L 8.9375 8.710938 C 8.933594 8.703125 8.929688 8.695312 8.933594 8.683594 C 8.9375 8.671875 8.941406 8.664062 8.949219 8.660156 L 10.734375 7.660156 C 10.75 7.648438 10.773438 7.65625 10.785156 7.671875 L 11.144531 8.257812 C 11.1875 8.324219 11.195312 8.414062 11.171875 8.507812 C 11.109375 8.746094 10.847656 9.019531 10.492188 9.21875 C 10.203125 9.378906 9.917969 9.460938 9.691406 9.460938 Z M 9.023438 8.703125 L 9.359375 9.253906 C 9.488281 9.460938 9.988281 9.414062 10.453125 9.152344 C 10.785156 8.964844 11.039062 8.703125 11.097656 8.488281 C 11.113281 8.414062 11.109375 8.347656 11.078125 8.296875 L 10.738281 7.742188 Z M 9.023438 8.703125 " fill-opacity="1" fill-rule="nonzero"/><path fill="#ffffff" d="M 10.757812 7.699219 C 10.820312 7.816406 10.785156 7.964844 10.65625 8.140625 C 10.527344 8.320312 10.335938 8.476562 10.089844 8.613281 C 9.84375 8.746094 9.609375 8.820312 9.386719 8.835938 C 9.167969 8.847656 9.027344 8.796875 8.964844 8.679688 C 8.898438 8.5625 8.933594 8.417969 9.0625 8.238281 C 9.191406 8.058594 9.382812 7.902344 9.628906 7.769531 C 9.875 7.632812 10.109375 7.558594 10.332031 7.546875 C 10.550781 7.53125 10.691406 7.582031 10.757812 7.699219 Z M 10.757812 7.699219 " fill-opacity="1" fill-rule="nonzero"/><path fill="#000000" d="M 9.332031 8.875 C 9.148438 8.875 9.003906 8.820312 8.9375 8.710938 C 8.894531 8.640625 8.882812 8.554688 8.90625 8.460938 C 8.96875 8.222656 9.230469 7.949219 9.589844 7.75 C 10.105469 7.460938 10.628906 7.425781 10.78125 7.671875 C 10.824219 7.742188 10.832031 7.828125 10.808594 7.921875 C 10.746094 8.160156 10.488281 8.433594 10.128906 8.632812 C 9.84375 8.792969 9.558594 8.875 9.332031 8.875 Z M 10.390625 7.582031 C 10.179688 7.582031 9.894531 7.660156 9.625 7.816406 C 9.292969 8.003906 9.039062 8.261719 8.980469 8.480469 C 8.964844 8.554688 8.96875 8.621094 9 8.671875 C 9.128906 8.878906 9.628906 8.828125 10.09375 8.570312 C 10.429688 8.378906 10.679688 8.121094 10.738281 7.902344 C 10.757812 7.828125 10.75 7.761719 10.71875 7.710938 C 10.664062 7.625 10.546875 7.582031 10.390625 7.582031 Z M 10.390625 7.582031 " fill-opacity="1" fill-rule="nonzero"/><path fill="#ffffff" d="M 8.28125 6.886719 L 9.226562 8.421875 C 9.316406 8.570312 9.648438 8.542969 9.964844 8.363281 C 10.285156 8.1875 10.46875 7.921875 10.378906 7.777344 L 9.433594 6.242188 Z M 8.28125 6.886719 " fill-opacity="1" fill-rule="nonzero"/><path fill="#000000" d="M 9.460938 8.554688 C 9.339844 8.554688 9.242188 8.515625 9.195312 8.441406 L 8.25 6.90625 C 8.246094 6.898438 8.242188 6.890625 8.246094 6.878906 C 8.25 6.867188 8.253906 6.859375 8.265625 6.855469 L 9.414062 6.210938 C 9.433594 6.199219 9.453125 6.207031 9.464844 6.222656 L 10.410156 7.757812 C 10.441406 7.804688 10.445312 7.867188 10.429688 7.929688 C 10.386719 8.089844 10.21875 8.269531 9.984375 8.398438 C 9.800781 8.5 9.613281 8.554688 9.460938 8.554688 Z M 8.335938 6.902344 L 9.261719 8.402344 C 9.328125 8.515625 9.621094 8.511719 9.949219 8.328125 C 10.160156 8.210938 10.324219 8.042969 10.359375 7.910156 C 10.371094 7.863281 10.367188 7.824219 10.347656 7.796875 L 9.421875 6.292969 Z M 8.335938 6.902344 " fill-opacity="1" fill-rule="nonzero"/><path fill="#ffffff" d="M 9.441406 6.246094 C 9.480469 6.320312 9.460938 6.417969 9.375 6.53125 C 9.292969 6.648438 9.167969 6.75 9.007812 6.835938 C 8.847656 6.921875 8.699219 6.972656 8.554688 6.980469 C 8.414062 6.988281 8.320312 6.957031 8.28125 6.878906 C 8.238281 6.804688 8.261719 6.710938 8.34375 6.59375 C 8.429688 6.480469 8.550781 6.378906 8.710938 6.289062 C 8.871094 6.203125 9.023438 6.15625 9.164062 6.144531 C 9.308594 6.136719 9.398438 6.171875 9.441406 6.246094 Z M 9.441406 6.246094 " fill-opacity="1" fill-rule="nonzero"/><path fill="#000000" d="M 8.519531 7.019531 C 8.394531 7.019531 8.296875 6.980469 8.25 6.90625 C 8.222656 6.859375 8.214844 6.800781 8.230469 6.734375 C 8.273438 6.578125 8.441406 6.398438 8.675781 6.265625 C 9.015625 6.074219 9.363281 6.054688 9.464844 6.222656 C 9.496094 6.269531 9.503906 6.328125 9.484375 6.394531 C 9.445312 6.550781 9.273438 6.730469 9.039062 6.863281 C 8.855469 6.964844 8.667969 7.019531 8.519531 7.019531 Z M 9.199219 6.183594 C 9.070312 6.183594 8.898438 6.230469 8.714844 6.332031 C 8.503906 6.453125 8.339844 6.617188 8.308594 6.753906 C 8.296875 6.796875 8.296875 6.835938 8.316406 6.867188 C 8.386719 6.980469 8.679688 6.976562 9.007812 6.792969 C 9.21875 6.675781 9.378906 6.507812 9.414062 6.375 C 9.425781 6.328125 9.421875 6.289062 9.40625 6.261719 C 9.371094 6.210938 9.300781 6.183594 9.199219 6.183594 Z M 9.199219 6.183594 " fill-opacity="1" fill-rule="nonzero"/><path fill="#ffffff" d="M 13.257812 23.449219 L 8.070312 23.449219 C 4.476562 23.449219 1.550781 20.652344 1.550781 17.214844 C 1.550781 13.777344 4.476562 10.984375 8.070312 10.984375 L 13.253906 10.984375 C 13.453125 10.984375 13.617188 11.140625 13.617188 11.332031 C 13.617188 11.519531 13.453125 11.675781 13.253906 11.675781 L 9.347656 11.675781 C 6.148438 11.675781 4.039062 14.160156 4.039062 17.21875 C 4.039062 20.273438 6.574219 22.757812 9.773438 22.757812 L 13.257812 22.757812 C 13.457031 22.757812 13.617188 22.914062 13.617188 23.105469 C 13.617188 23.292969 13.457031 23.449219 13.257812 23.449219 Z M 13.257812 23.449219 " fill-opacity="1" fill-rule="nonzero"/><path fill="#000000" d="M 13.257812 23.488281 L 8.070312 23.488281 C 4.457031 23.488281 1.511719 20.675781 1.511719 17.21875 C 1.511719 13.761719 4.457031 10.945312 8.070312 10.945312 L 13.253906 10.945312 C 13.472656 10.945312 13.652344 11.117188 13.652344 11.332031 C 13.652344 11.542969 13.472656 11.714844 13.253906 11.714844 L 9.347656 11.714844 C 6.292969 11.714844 4.074219 14.027344 4.074219 17.21875 C 4.074219 20.25 6.632812 22.722656 9.773438 22.722656 L 13.257812 22.722656 C 13.476562 22.722656 13.65625 22.894531 13.65625 23.105469 C 13.65625 23.316406 13.476562 23.488281 13.257812 23.488281 Z M 8.070312 11.023438 C 4.496094 11.023438 1.585938 13.800781 1.585938 17.21875 C 1.585938 20.632812 4.496094 23.410156 8.070312 23.410156 L 13.253906 23.410156 C 13.433594 23.410156 13.578125 23.273438 13.578125 23.105469 C 13.578125 22.933594 13.433594 22.796875 13.253906 22.796875 L 9.773438 22.796875 C 8.222656 22.796875 6.765625 22.214844 5.679688 21.160156 C 4.597656 20.109375 4 18.710938 4 17.21875 C 4 15.699219 4.519531 14.300781 5.464844 13.277344 C 6.441406 12.222656 7.820312 11.640625 9.347656 11.640625 L 13.257812 11.640625 C 13.4375 11.640625 13.582031 11.503906 13.582031 11.332031 C 13.582031 11.164062 13.4375 11.027344 13.257812 11.027344 L 8.070312 11.027344 Z M 8.070312 11.023438 " fill-opacity="1" fill-rule="nonzero"/><path fill="#ffffff" d="M 13.257812 23.449219 L 10.199219 23.449219 C 6.601562 23.449219 3.675781 20.652344 3.675781 17.214844 C 3.675781 13.777344 6.601562 10.984375 10.199219 10.984375 L 13.257812 10.984375 C 13.457031 10.984375 13.617188 11.136719 13.617188 11.328125 C 13.617188 11.519531 13.457031 11.671875 13.257812 11.671875 L 10.199219 11.671875 C 7 11.671875 4.398438 14.160156 4.398438 17.214844 C 4.398438 20.273438 7 22.757812 10.199219 22.757812 L 13.257812 22.757812 C 13.457031 22.757812 13.617188 22.910156 13.617188 23.101562 C 13.617188 23.292969 13.457031 23.449219 13.257812 23.449219 Z M 13.257812 23.449219 " fill-opacity="1" fill-rule="nonzero"/><path fill="#000000" d="M 13.257812 23.488281 L 10.199219 23.488281 C 6.582031 23.488281 3.636719 20.675781 3.636719 17.21875 C 3.636719 13.761719 6.582031 10.945312 10.199219 10.945312 L 13.257812 10.945312 C 13.476562 10.945312 13.65625 11.117188 13.65625 11.332031 C 13.65625 11.542969 13.476562 11.714844 13.257812 11.714844 L 10.199219 11.714844 C 7.019531 11.714844 4.4375 14.183594 4.4375 17.21875 C 4.4375 20.25 7.019531 22.722656 10.199219 22.722656 L 13.257812 22.722656 C 13.476562 22.722656 13.65625 22.894531 13.65625 23.105469 C 13.65625 23.316406 13.476562 23.488281 13.257812 23.488281 Z M 10.199219 11.023438 C 6.621094 11.023438 3.714844 13.800781 3.714844 17.21875 C 3.714844 20.632812 6.621094 23.410156 10.199219 23.410156 L 13.257812 23.410156 C 13.433594 23.410156 13.578125 23.273438 13.578125 23.105469 C 13.578125 22.933594 13.433594 22.796875 13.257812 22.796875 L 10.199219 22.796875 C 6.980469 22.796875 4.359375 20.292969 4.359375 17.21875 C 4.359375 14.140625 6.980469 11.636719 10.199219 11.636719 L 13.257812 11.636719 C 13.433594 11.636719 13.578125 11.5 13.578125 11.332031 C 13.578125 11.160156 13.433594 11.023438 13.257812 11.023438 Z M 10.199219 11.023438 " fill-opacity="1" fill-rule="nonzero"/><path fill="#ffffff" d="M 7.164062 18.964844 L 13.3125 18.964844 L 13.3125 19.734375 L 7.164062 19.734375 Z M 7.164062 18.964844 " fill-opacity="1" fill-rule="nonzero"/><path fill="#000000" d="M 13.3125 19.769531 L 7.164062 19.769531 C 7.144531 19.769531 7.128906 19.753906 7.128906 19.734375 L 7.128906 18.964844 C 7.128906 18.945312 7.144531 18.925781 7.164062 18.925781 L 13.3125 18.925781 C 13.332031 18.925781 13.351562 18.945312 13.351562 18.964844 L 13.351562 19.734375 C 13.351562 19.753906 13.332031 19.769531 13.3125 19.769531 Z M 7.199219 19.695312 L 13.273438 19.695312 L 13.273438 19.003906 L 7.199219 19.003906 Z M 7.199219 19.695312 " fill-opacity="1" fill-rule="nonzero"/><g clip-path="url(#6ef55c79b3)"><path fill="#ffffff" d="M 14.035156 23.449219 L 3.261719 23.449219 C 2.066406 23.449219 0.980469 24.097656 0.460938 25.125 L 14.035156 25.125 Z M 14.035156 23.449219 " fill-opacity="1" fill-rule="nonzero"/><path fill="#000000" d="M 14.035156 25.164062 L 0.460938 25.164062 C 0.445312 25.164062 0.433594 25.15625 0.429688 25.144531 C 0.421875 25.132812 0.421875 25.117188 0.425781 25.109375 C 0.949219 24.074219 2.0625 23.410156 3.261719 23.410156 L 14.035156 23.410156 C 14.054688 23.410156 14.070312 23.425781 14.070312 23.449219 L 14.070312 25.125 C 14.070312 25.144531 14.054688 25.164062 14.035156 25.164062 Z M 0.523438 25.085938 L 13.996094 25.085938 L 13.996094 23.484375 L 3.261719 23.484375 C 2.109375 23.488281 1.042969 24.113281 0.523438 25.085938 Z M 0.523438 25.085938 " fill-opacity="1" fill-rule="nonzero"/></g><path fill="#ffffff" d="M 23.414062 13 C 23.414062 13 25.039062 18.183594 23.601562 19.621094 C 22.164062 21.058594 18.851562 19.058594 18.851562 19.058594 L 17.542969 15.875 Z M 23.414062 13 " fill-opacity="1" fill-rule="nonzero"/><path fill="#000000" d="M 22.160156 20.175781 C 21.722656 20.175781 21.226562 20.089844 20.679688 19.914062 C 19.679688 19.597656 18.84375 19.097656 18.835938 19.089844 C 18.828125 19.085938 18.824219 19.082031 18.820312 19.074219 L 17.507812 15.886719 C 17.5 15.867188 17.507812 15.847656 17.527344 15.839844 L 23.398438 12.964844 C 23.410156 12.960938 23.421875 12.960938 23.429688 12.964844 C 23.441406 12.972656 23.445312 12.980469 23.449219 12.992188 C 23.453125 13.003906 23.859375 14.304688 24.085938 15.769531 C 24.386719 17.738281 24.234375 19.042969 23.628906 19.648438 C 23.277344 20 22.78125 20.175781 22.160156 20.175781 Z M 18.882812 19.03125 C 19.09375 19.152344 22.214844 20.953125 23.574219 19.59375 C 24.910156 18.257812 23.542969 13.550781 23.390625 13.050781 L 17.589844 15.890625 Z M 18.882812 19.03125 " fill-opacity="1" fill-rule="nonzero"/><path fill="#ffffff" d="M 22.089844 18.941406 L 19.65625 26.492188 L 16.132812 25.355469 L 18.808594 17.054688 Z M 22.089844 18.941406 " fill-opacity="1" fill-rule="nonzero"/><path fill="#000000" d="M 19.65625 26.53125 C 19.652344 26.53125 19.648438 26.53125 19.644531 26.527344 L 16.121094 25.394531 C 16.109375 25.390625 16.101562 25.382812 16.097656 25.375 C 16.089844 25.367188 16.089844 25.355469 16.09375 25.34375 L 18.773438 17.042969 C 18.78125 17.019531 18.800781 17.011719 18.820312 17.019531 C 18.839844 17.023438 18.851562 17.046875 18.84375 17.066406 L 16.179688 25.332031 L 19.632812 26.445312 L 22.054688 18.929688 C 22.0625 18.910156 22.082031 18.898438 22.101562 18.90625 C 22.121094 18.910156 22.132812 18.933594 22.125 18.953125 L 19.691406 26.507812 C 19.6875 26.519531 19.671875 26.53125 19.65625 26.53125 Z M 19.65625 26.53125 " fill-opacity="1" fill-rule="nonzero"/><path fill="#000000" d="M 23.167969 15.601562 C 23.167969 15.601562 22.386719 14.800781 21.867188 15.679688 C 21.496094 16.304688 21.851562 17.003906 22.285156 17.285156 C 21.445312 18.355469 20.5625 19.429688 18.917969 19.121094 C 17.136719 18.789062 16.769531 16.136719 17.347656 14.570312 C 18.265625 12.082031 21.75 11.316406 23.433594 12.695312 C 25.382812 14.285156 23.167969 15.601562 23.167969 15.601562 Z M 23.167969 15.601562 " fill-opacity="1" fill-rule="nonzero"/><path fill="#000000" d="M 22.839844 17.5625 C 22.671875 17.5625 22.46875 17.488281 22.234375 17.335938 C 22.222656 17.332031 21.328125 16.6875 21.777344 15.734375 C 21.933594 15.402344 22.152344 15.222656 22.417969 15.203125 C 22.773438 15.175781 23.105469 15.441406 23.1875 15.554688 C 23.199219 15.574219 23.191406 15.597656 23.175781 15.609375 C 23.160156 15.621094 23.132812 15.617188 23.121094 15.597656 C 23.054688 15.496094 22.746094 15.253906 22.421875 15.277344 C 22.183594 15.296875 21.992188 15.460938 21.847656 15.769531 C 21.425781 16.664062 22.242188 17.25 22.277344 17.277344 C 22.621094 17.496094 22.828125 17.507812 22.941406 17.476562 C 23.054688 17.445312 23.09375 17.371094 23.09375 17.371094 C 23.105469 17.351562 23.128906 17.347656 23.148438 17.355469 C 23.164062 17.363281 23.171875 17.386719 23.164062 17.40625 C 23.160156 17.410156 23.109375 17.511719 22.964844 17.550781 C 22.925781 17.558594 22.882812 17.5625 22.839844 17.5625 Z M 22.839844 17.5625 " fill-opacity="1" fill-rule="nonzero"/><path fill="#000000" d="M 19.457031 10.902344 C 19.457031 10.902344 18.050781 9.253906 15.945312 12.117188 C 13.460938 15.5 13.996094 19.566406 13.996094 19.566406 L 15.484375 19.566406 L 16.109375 18.515625 L 16.039062 19.566406 L 17.152344 19.566406 C 17.152344 19.566406 21.53125 14.375 21.296875 12.042969 C 21.132812 10.398438 19.457031 10.902344 19.457031 10.902344 Z M 19.457031 10.902344 " fill-opacity="1" fill-rule="nonzero"/><path fill="#ffffff" d="M 20.222656 14.136719 C 20.203125 14.136719 20.1875 14.125 20.1875 14.105469 C 20.179688 14.085938 20.191406 14.066406 20.214844 14.0625 C 20.871094 13.894531 21.480469 13.195312 21.261719 12.050781 C 21.257812 12.03125 21.269531 12.011719 21.289062 12.007812 C 21.3125 12.003906 21.328125 12.015625 21.335938 12.035156 C 21.4375 12.566406 21.367188 13.050781 21.140625 13.441406 C 20.933594 13.789062 20.613281 14.035156 20.230469 14.132812 C 20.230469 14.136719 20.226562 14.136719 20.222656 14.136719 Z M 20.222656 14.136719 " fill-opacity="1" fill-rule="nonzero"/><path fill="#ffffff" d="M 44.261719 30.867188 L 39.996094 32.875 L 38.726562 30.964844 L 39.40625 30.109375 C 40.808594 29.179688 42.578125 29.003906 44.140625 29.636719 C 44.660156 29.847656 44.730469 30.554688 44.261719 30.867188 Z M 44.261719 30.867188 " fill-opacity="1" fill-rule="nonzero"/><path fill="#000000" d="M 39.996094 32.914062 C 39.984375 32.914062 39.972656 32.90625 39.964844 32.894531 L 38.695312 30.988281 C 38.6875 30.972656 38.6875 30.957031 38.699219 30.941406 L 39.375 30.085938 C 39.375 30.082031 39.378906 30.082031 39.382812 30.078125 C 40.800781 29.140625 42.582031 28.960938 44.15625 29.597656 C 44.410156 29.703125 44.582031 29.933594 44.609375 30.207031 C 44.640625 30.484375 44.515625 30.742188 44.285156 30.898438 C 44.285156 30.898438 44.28125 30.898438 44.28125 30.902344 L 40.011719 32.910156 C 40.003906 32.910156 40 32.914062 39.996094 32.914062 Z M 38.773438 30.96875 L 40.007812 32.828125 L 44.242188 30.832031 C 44.453125 30.695312 44.558594 30.464844 44.535156 30.21875 C 44.507812 29.96875 44.355469 29.765625 44.125 29.671875 C 42.578125 29.042969 40.824219 29.21875 39.429688 30.140625 Z M 44.261719 30.867188 Z M 44.261719 30.867188 " fill-opacity="1" fill-rule="nonzero"/><path fill="#ffffff" d="M 34.441406 30.671875 L 35.273438 29.476562 C 35.273438 29.476562 42.210938 28.328125 42.773438 29.089844 C 43.335938 29.851562 41.117188 29.992188 40.707031 30.058594 C 40.707031 30.058594 41.496094 30.433594 40.8125 30.921875 C 40.8125 30.921875 41.402344 31.257812 40.886719 31.769531 C 40.886719 31.769531 41.488281 32.105469 40.574219 32.734375 C 39.660156 33.359375 39.617188 32.714844 39.617188 32.714844 L 35.683594 33.71875 Z M 34.441406 30.671875 " fill-opacity="1" fill-rule="nonzero"/><path fill="#000000" d="M 35.6875 33.761719 C 35.671875 33.761719 35.660156 33.75 35.652344 33.734375 L 34.40625 30.6875 C 34.402344 30.675781 34.402344 30.660156 34.410156 30.648438 L 35.242188 29.453125 C 35.25 29.445312 35.257812 29.441406 35.265625 29.4375 C 35.550781 29.394531 42.234375 28.296875 42.804688 29.070312 C 42.902344 29.203125 42.925781 29.328125 42.875 29.441406 C 42.691406 29.863281 41.507812 30 40.9375 30.066406 C 40.894531 30.074219 40.855469 30.078125 40.820312 30.082031 C 40.9375 30.15625 41.113281 30.300781 41.128906 30.492188 C 41.140625 30.640625 41.058594 30.785156 40.882812 30.921875 C 40.957031 30.980469 41.109375 31.109375 41.132812 31.300781 C 41.15625 31.453125 41.089844 31.609375 40.945312 31.765625 C 41.007812 31.808594 41.113281 31.914062 41.121094 32.070312 C 41.128906 32.289062 40.953125 32.519531 40.597656 32.765625 C 40.230469 33.015625 39.949219 33.097656 39.765625 33.007812 C 39.644531 32.949219 39.601562 32.828125 39.585938 32.761719 L 35.695312 33.757812 C 35.691406 33.757812 35.691406 33.761719 35.6875 33.761719 Z M 34.484375 30.675781 L 35.710938 33.675781 L 39.609375 32.675781 C 39.621094 32.671875 39.632812 32.675781 39.640625 32.683594 C 39.648438 32.691406 39.65625 32.699219 39.65625 32.710938 C 39.65625 32.710938 39.671875 32.878906 39.800781 32.941406 C 39.90625 32.992188 40.125 32.992188 40.554688 32.699219 C 40.882812 32.476562 41.050781 32.257812 41.042969 32.074219 C 41.039062 31.898438 40.871094 31.804688 40.871094 31.800781 C 40.859375 31.796875 40.851562 31.785156 40.851562 31.773438 C 40.847656 31.761719 40.851562 31.75 40.859375 31.742188 C 41.011719 31.59375 41.074219 31.449219 41.058594 31.308594 C 41.027344 31.089844 40.800781 30.957031 40.796875 30.957031 C 40.785156 30.949219 40.777344 30.9375 40.777344 30.925781 C 40.777344 30.914062 40.785156 30.898438 40.792969 30.890625 C 40.976562 30.761719 41.066406 30.628906 41.054688 30.496094 C 41.035156 30.257812 40.695312 30.09375 40.691406 30.09375 C 40.675781 30.085938 40.667969 30.066406 40.671875 30.050781 C 40.671875 30.035156 40.683594 30.023438 40.699219 30.019531 C 40.753906 30.011719 40.832031 30.003906 40.929688 29.992188 C 41.441406 29.929688 42.640625 29.792969 42.804688 29.410156 C 42.847656 29.320312 42.824219 29.222656 42.742188 29.109375 C 42.308594 28.523438 37.691406 29.113281 35.292969 29.507812 Z M 34.484375 30.675781 " fill-opacity="1" fill-rule="nonzero"/><path fill="#000000" d="M 40.53125 30.039062 C 40.527344 30.039062 40.523438 30.039062 40.515625 30.039062 C 40.140625 29.894531 39.71875 29.875 39.328125 29.976562 C 39.308594 29.984375 39.289062 29.972656 39.28125 29.949219 C 39.277344 29.929688 39.289062 29.910156 39.308594 29.90625 C 39.714844 29.796875 40.152344 29.820312 40.542969 29.96875 C 40.5625 29.976562 40.574219 29.996094 40.566406 30.015625 C 40.558594 30.03125 40.546875 30.039062 40.53125 30.039062 Z M 40.53125 30.039062 " fill-opacity="1" fill-rule="nonzero"/><path fill="#000000" d="M 39.492188 31.097656 C 39.476562 31.097656 39.464844 31.089844 39.460938 31.074219 C 39.449219 31.054688 39.460938 31.03125 39.480469 31.023438 C 39.847656 30.878906 40.257812 30.835938 40.648438 30.90625 C 40.667969 30.910156 40.683594 30.929688 40.679688 30.949219 C 40.675781 30.972656 40.65625 30.984375 40.632812 30.980469 C 40.257812 30.914062 39.859375 30.953125 39.507812 31.097656 C 39.503906 31.097656 39.5 31.097656 39.492188 31.097656 Z M 39.492188 31.097656 " fill-opacity="1" fill-rule="nonzero"/><path fill="#000000" d="M 39.746094 31.796875 C 39.730469 31.796875 39.714844 31.785156 39.707031 31.769531 C 39.703125 31.75 39.714844 31.726562 39.734375 31.722656 C 40.054688 31.625 40.394531 31.605469 40.722656 31.671875 C 40.742188 31.671875 40.757812 31.695312 40.75 31.714844 C 40.746094 31.734375 40.726562 31.75 40.707031 31.742188 C 40.390625 31.683594 40.0625 31.699219 39.753906 31.792969 C 39.75 31.796875 39.746094 31.796875 39.746094 31.796875 Z M 39.746094 31.796875 " fill-opacity="1" fill-rule="nonzero"/><path fill="#000000" d="M 39.589844 32.738281 C 39.574219 32.738281 39.558594 32.726562 39.550781 32.710938 C 39.546875 32.691406 39.554688 32.667969 39.574219 32.664062 L 40.214844 32.433594 C 40.234375 32.425781 40.253906 32.4375 40.261719 32.457031 C 40.269531 32.476562 40.257812 32.496094 40.238281 32.503906 L 39.601562 32.734375 C 39.597656 32.734375 39.59375 32.738281 39.589844 32.738281 Z M 39.589844 32.738281 " fill-opacity="1" fill-rule="nonzero"/><g clip-path="url(#9d106d2357)"><path fill="#cbacf9" d="M 36.585938 29.171875 C 36.585938 29.171875 37.511719 31.578125 37.636719 33.765625 C 37.636719 33.765625 31.207031 36.554688 27.683594 35.828125 C 24.835938 35.242188 23.910156 32.804688 23.910156 32.804688 L 24.972656 37.507812 L 19.058594 37.460938 C 19.058594 37.460938 17.609375 35.453125 17.136719 35.296875 C 13.261719 34.054688 8.695312 32.679688 6.46875 32.351562 C 6.46875 32.351562 3.246094 32.085938 4.699219 27.960938 C 6.15625 23.835938 11.464844 20.945312 16.390625 20.828125 C 21.316406 20.707031 24.761719 22.042969 26.292969 23.410156 C 28.09375 25.015625 30.066406 29.136719 30.066406 29.136719 Z M 36.585938 29.171875 " fill-opacity="1" fill-rule="nonzero"/></g><path fill="#000000" d="M 30.59375 30.886719 C 30.574219 30.886719 30.558594 30.871094 30.558594 30.851562 C 30.484375 30.390625 30.210938 29.640625 30.046875 29.191406 L 30.03125 29.148438 C 30.023438 29.128906 30.035156 29.109375 30.054688 29.101562 C 30.074219 29.09375 30.09375 29.105469 30.101562 29.125 L 30.117188 29.164062 C 30.28125 29.617188 30.558594 30.375 30.628906 30.839844 C 30.632812 30.859375 30.621094 30.878906 30.601562 30.882812 C 30.597656 30.882812 30.597656 30.886719 30.59375 30.886719 Z M 30.59375 30.886719 " fill-opacity="1" fill-rule="nonzero"/><path fill="#000000" d="M 12.941406 31.609375 C 12.9375 31.609375 12.933594 31.609375 12.933594 31.609375 C 12.910156 31.601562 12.898438 31.585938 12.902344 31.5625 C 12.96875 31.257812 12.9375 28.957031 12.914062 27.277344 C 12.902344 26.226562 12.890625 25.394531 12.902344 25.207031 C 12.902344 25.183594 12.917969 25.171875 12.941406 25.171875 C 12.960938 25.171875 12.976562 25.1875 12.976562 25.210938 C 12.964844 25.394531 12.976562 26.265625 12.992188 27.277344 C 13.015625 29.050781 13.046875 31.261719 12.976562 31.578125 C 12.972656 31.597656 12.957031 31.609375 12.941406 31.609375 Z M 12.941406 31.609375 " fill-opacity="1" fill-rule="nonzero"/><path fill="#000000" d="M 7.648438 28.71875 C 7.628906 28.71875 7.613281 28.707031 7.609375 28.6875 C 7.605469 28.667969 7.617188 28.648438 7.640625 28.644531 C 9.664062 28.238281 10.976562 28.070312 12.960938 28.214844 C 12.980469 28.214844 12.996094 28.230469 12.992188 28.253906 C 12.992188 28.273438 12.976562 28.289062 12.953125 28.289062 C 10.96875 28.144531 9.710938 28.304688 7.652344 28.71875 C 7.652344 28.71875 7.652344 28.71875 7.648438 28.71875 Z M 7.648438 28.71875 " fill-opacity="1" fill-rule="nonzero"/><path fill="#000000" d="M 23.996094 33.152344 C 23.980469 33.152344 23.964844 33.140625 23.960938 33.125 C 23.773438 32.378906 23.597656 31.789062 23.179688 30.433594 L 22.945312 30.457031 C 22.925781 30.457031 22.90625 30.441406 22.90625 30.421875 C 22.902344 30.402344 22.917969 30.382812 22.9375 30.378906 L 23.203125 30.351562 C 23.222656 30.351562 23.238281 30.363281 23.246094 30.378906 C 23.667969 31.757812 23.84375 32.351562 24.035156 33.105469 C 24.039062 33.125 24.027344 33.144531 24.007812 33.152344 C 24.003906 33.152344 24 33.152344 23.996094 33.152344 Z M 23.996094 33.152344 " fill-opacity="1" fill-rule="nonzero"/><path fill="#8875a4" d="M 22.125 21.386719 C 22.125 21.386719 20.96875 20.378906 19.476562 20.09375 C 18.011719 19.8125 16.792969 19.589844 16.640625 20.789062 C 16.644531 20.789062 18.375 21.847656 22.125 21.386719 Z M 22.125 21.386719 " fill-opacity="1" fill-rule="nonzero"/><path fill="#8875a4" d="M 35.496094 34.546875 C 35.472656 34.546875 35.449219 34.53125 35.441406 34.511719 L 35.355469 34.257812 C 35.347656 34.230469 35.355469 34.207031 35.375 34.191406 L 36.136719 33.648438 L 35.214844 33.625 C 35.1875 33.625 35.167969 33.609375 35.160156 33.585938 C 34.816406 32.316406 34.097656 29.5 34.09375 29.472656 C 34.085938 29.441406 34.101562 29.410156 34.132812 29.402344 C 34.164062 29.394531 34.195312 29.414062 34.203125 29.445312 C 34.210938 29.472656 34.910156 32.230469 35.261719 33.515625 L 36.3125 33.539062 C 36.335938 33.539062 36.359375 33.558594 36.367188 33.578125 C 36.375 33.605469 36.363281 33.628906 36.347656 33.644531 L 35.480469 34.261719 L 35.550781 34.472656 C 35.5625 34.5 35.546875 34.535156 35.515625 34.542969 C 35.507812 34.546875 35.5 34.546875 35.496094 34.546875 Z M 35.496094 34.546875 " fill-opacity="1" fill-rule="nonzero"/><g clip-path="url(#0f83485d12)"><path fill="#ffffff" d="M 8.003906 37.5 L 21.148438 37.5 L 19.054688 23.550781 C 18.964844 22.945312 18.441406 22.492188 17.824219 22.492188 L 7.199219 22.492188 C 6.4375 22.492188 5.855469 23.167969 5.96875 23.921875 Z M 8.003906 37.5 " fill-opacity="1" fill-rule="nonzero"/></g><g clip-path="url(#35572457f3)"><path fill="#000000" d="M 8.003906 37.535156 C 7.984375 37.535156 7.96875 37.523438 7.96875 37.503906 L 7.25 32.613281 C 7.246094 32.59375 7.261719 32.574219 7.28125 32.570312 C 7.300781 32.566406 7.320312 32.582031 7.324219 32.601562 L 8.042969 37.492188 C 8.046875 37.515625 8.03125 37.53125 8.011719 37.535156 C 8.007812 37.535156 8.007812 37.535156 8.003906 37.535156 Z M 8.003906 37.535156 " fill-opacity="1" fill-rule="nonzero"/></g><g clip-path="url(#ffda48cdc4)"><path fill="#000000" d="M 19.496094 37.332031 C 19.476562 37.332031 19.460938 37.320312 19.460938 37.300781 L 17.53125 24.480469 C 17.441406 23.886719 16.9375 23.453125 16.335938 23.453125 L 7.492188 23.4375 C 7.472656 23.4375 7.453125 23.421875 7.453125 23.398438 C 7.453125 23.378906 7.472656 23.363281 7.492188 23.363281 L 16.335938 23.378906 C 16.976562 23.378906 17.507812 23.835938 17.605469 24.46875 L 19.535156 37.289062 C 19.535156 37.308594 19.523438 37.328125 19.5 37.332031 C 19.503906 37.332031 19.5 37.332031 19.496094 37.332031 Z M 19.496094 37.332031 " fill-opacity="1" fill-rule="nonzero"/></g><path fill="#000000" d="M 6.183594 25.480469 C 6.164062 25.480469 6.148438 25.46875 6.144531 25.449219 L 5.914062 23.859375 C 5.863281 23.503906 5.96875 23.148438 6.203125 22.878906 C 6.433594 22.609375 6.773438 22.453125 7.132812 22.453125 L 10.0625 22.453125 C 10.085938 22.453125 10.101562 22.46875 10.101562 22.488281 C 10.101562 22.511719 10.085938 22.527344 10.0625 22.527344 L 7.132812 22.527344 C 6.796875 22.527344 6.476562 22.671875 6.257812 22.925781 C 6.039062 23.179688 5.941406 23.515625 5.988281 23.847656 L 6.21875 25.4375 C 6.222656 25.457031 6.207031 25.476562 6.1875 25.480469 C 6.1875 25.480469 6.183594 25.480469 6.183594 25.480469 Z M 6.183594 25.480469 " fill-opacity="1" fill-rule="nonzero"/></svg>