<svg xmlns="http://www.w3.org/2000/svg" xmlns:xlink="http://www.w3.org/1999/xlink" width="64" zoomAndPan="magnify" viewBox="0 0 48 44.249999" height="59" preserveAspectRatio="xMidYMid meet" version="1.0"><path fill="#8875a4" d="M 21.316406 41.238281 C 10.285156 39.042969 2.300781 27.140625 4.972656 17.027344 C 5.023438 16.824219 5.082031 16.625 5.144531 16.425781 C 7.746094 7.992188 16.886719 4.464844 19.070312 3.621094 C 28.449219 0 41.019531 1.058594 43.792969 6.582031 C 44.285156 7.554688 44.398438 8.527344 44.433594 8.851562 C 45.007812 14.023438 39.53125 16.15625 39.300781 20.5 C 39.285156 20.746094 39.289062 20.980469 39.308594 21.207031 C 39.613281 25.085938 44.238281 26.304688 44.675781 29.878906 C 45.691406 38.164062 32.761719 43.511719 21.316406 41.238281 " fill-opacity="1" fill-rule="nonzero"/><path fill="#8875a4" d="M 27.125 9.648438 C 27.125 9.648438 27.3125 7.878906 27.957031 7.605469 C 29.078125 7.132812 31.628906 7.0625 33.933594 7.667969 C 39.007812 8.996094 40.097656 11.09375 40.324219 11.394531 C 40.550781 11.699219 39.601562 13.445312 39.601562 13.445312 L 27.125 9.648438 " fill-opacity="1" fill-rule="nonzero"/><path fill="#000000" d="M 24.886719 21.15625 C 24.527344 18.984375 25.984375 16.257812 26.753906 16.109375 C 27.523438 15.960938 36.492188 17.003906 36.804688 17.59375 C 37.121094 18.183594 37.601562 21.144531 36.832031 22.546875 C 36.0625 23.953125 24.886719 21.15625 24.886719 21.15625 " fill-opacity="1" fill-rule="nonzero"/><path fill="#8875a4" d="M 21.316406 41.238281 C 10.285156 39.042969 2.300781 27.140625 4.972656 17.027344 C 5.023438 16.824219 5.082031 16.625 5.144531 16.425781 L 39.308594 21.207031 C 39.613281 25.085938 44.238281 26.304688 44.675781 29.878906 C 45.691406 38.164062 32.761719 43.511719 21.316406 41.238281 " fill-opacity="1" fill-rule="nonzero"/><path fill="#000000" d="M 21.816406 35.125 L 18.496094 33.882812 C 18.375 33.839844 18.332031 33.714844 18.398438 33.601562 L 19.078125 32.464844 C 19.078125 32.464844 19.082031 32.460938 19.082031 32.457031 L 21.070312 28.675781 C 21.132812 28.558594 21.289062 28.496094 21.414062 28.542969 L 24.734375 29.785156 C 24.847656 29.828125 24.894531 29.945312 24.835938 30.054688 L 22.964844 33.898438 C 22.960938 33.902344 22.152344 35.003906 22.152344 35.003906 C 22.085938 35.117188 21.9375 35.167969 21.816406 35.125 " fill-opacity="1" fill-rule="nonzero"/><path fill="#8875a4" d="M 21.609375 35.027344 L 18.222656 33.761719 C 18.121094 33.722656 18.085938 33.617188 18.140625 33.523438 L 18.890625 32.453125 L 20.832031 28.566406 C 20.882812 28.46875 21.015625 28.417969 21.121094 28.457031 L 24.507812 29.722656 C 24.605469 29.757812 24.644531 29.859375 24.59375 29.949219 L 22.652344 33.847656 L 21.894531 34.925781 C 21.839844 35.019531 21.710938 35.0625 21.609375 35.027344 " fill-opacity="1" fill-rule="nonzero"/><path fill="#000000" d="M 21.636719 34.957031 C 21.703125 34.984375 21.796875 34.953125 21.832031 34.886719 L 21.835938 34.882812 L 22.589844 33.808594 L 24.53125 29.917969 C 24.542969 29.890625 24.546875 29.863281 24.539062 29.839844 C 24.53125 29.816406 24.507812 29.800781 24.480469 29.789062 L 21.09375 28.523438 C 21.023438 28.496094 20.929688 28.535156 20.894531 28.601562 L 18.953125 32.492188 L 18.949219 32.496094 L 18.203125 33.5625 C 18.1875 33.589844 18.183594 33.617188 18.191406 33.640625 C 18.199219 33.664062 18.21875 33.683594 18.25 33.691406 Z M 21.6875 35.113281 C 21.652344 35.113281 21.617188 35.105469 21.585938 35.09375 L 18.199219 33.828125 C 18.128906 33.804688 18.078125 33.753906 18.054688 33.6875 C 18.03125 33.621094 18.039062 33.550781 18.078125 33.484375 L 18.082031 33.480469 L 18.828125 32.414062 L 20.765625 28.535156 C 20.835938 28.402344 21.007812 28.335938 21.144531 28.386719 L 24.53125 29.652344 C 24.601562 29.679688 24.648438 29.726562 24.675781 29.789062 C 24.699219 29.851562 24.691406 29.921875 24.660156 29.984375 L 22.714844 33.882812 L 21.957031 34.964844 C 21.898438 35.058594 21.792969 35.113281 21.6875 35.113281 " fill-opacity="1" fill-rule="nonzero"/><path fill="#000000" d="M 22.382812 33.765625 C 22.375 33.765625 22.367188 33.765625 22.359375 33.761719 L 19.003906 32.507812 C 18.964844 32.492188 18.949219 32.453125 18.960938 32.414062 C 18.976562 32.375 19.015625 32.359375 19.054688 32.371094 L 22.410156 33.625 C 22.445312 33.636719 22.464844 33.679688 22.453125 33.71875 C 22.441406 33.746094 22.414062 33.765625 22.382812 33.765625 " fill-opacity="1" fill-rule="nonzero"/><path fill="#ffffff" d="M 18.761719 33.566406 L 21.457031 34.574219 C 21.535156 34.605469 21.636719 34.566406 21.683594 34.492188 L 21.929688 34.078125 C 21.976562 34.003906 21.945312 33.917969 21.867188 33.886719 L 19.171875 32.882812 C 19.09375 32.851562 18.992188 32.886719 18.949219 32.960938 L 18.699219 33.378906 C 18.652344 33.453125 18.683594 33.539062 18.761719 33.566406 " fill-opacity="1" fill-rule="nonzero"/><path fill="#000000" d="M 18.789062 33.5 L 21.480469 34.503906 C 21.527344 34.523438 21.59375 34.5 21.621094 34.457031 L 21.867188 34.039062 C 21.878906 34.023438 21.882812 34.003906 21.875 33.988281 C 21.871094 33.976562 21.859375 33.964844 21.839844 33.957031 L 19.148438 32.949219 C 19.101562 32.933594 19.035156 32.957031 19.011719 33 L 18.761719 33.417969 C 18.75 33.433594 18.746094 33.453125 18.753906 33.464844 C 18.757812 33.480469 18.769531 33.492188 18.789062 33.5 Z M 21.515625 34.65625 C 21.488281 34.65625 21.457031 34.652344 21.429688 34.640625 L 18.738281 33.636719 C 18.679688 33.613281 18.636719 33.570312 18.617188 33.515625 C 18.597656 33.460938 18.601562 33.394531 18.636719 33.34375 L 18.886719 32.925781 C 18.949219 32.820312 19.085938 32.773438 19.199219 32.8125 L 21.890625 33.820312 C 21.949219 33.84375 21.996094 33.886719 22.015625 33.941406 C 22.035156 33.996094 22.027344 34.058594 21.992188 34.113281 L 21.746094 34.53125 C 21.699219 34.609375 21.605469 34.65625 21.515625 34.65625 " fill-opacity="1" fill-rule="nonzero"/><path fill="#8875a4" d="M 20.371094 33.925781 L 21.351562 34.292969 C 21.398438 34.3125 21.453125 34.292969 21.480469 34.25 L 21.5625 34.109375 C 21.589844 34.066406 21.574219 34.019531 21.527344 34.003906 L 20.542969 33.636719 C 20.5 33.617188 20.445312 33.640625 20.417969 33.679688 L 20.335938 33.824219 C 20.308594 33.863281 20.324219 33.910156 20.371094 33.925781 " fill-opacity="1" fill-rule="nonzero"/><path fill="#8875a4" d="M 19.539062 33.617188 L 20.007812 33.792969 C 20.050781 33.808594 20.109375 33.789062 20.132812 33.746094 L 20.21875 33.605469 C 20.242188 33.5625 20.226562 33.515625 20.179688 33.5 L 19.714844 33.324219 C 19.667969 33.308594 19.613281 33.328125 19.589844 33.371094 L 19.503906 33.511719 C 19.480469 33.554688 19.496094 33.601562 19.539062 33.617188 " fill-opacity="1" fill-rule="nonzero"/><path fill="#ffffff" d="M 22.167969 30.175781 L 21.957031 30.574219 C 21.933594 30.621094 21.867188 30.648438 21.816406 30.628906 L 21.375 30.460938 C 21.328125 30.445312 21.308594 30.394531 21.332031 30.351562 L 21.539062 29.953125 C 21.5625 29.902344 21.628906 29.878906 21.679688 29.898438 L 22.125 30.0625 C 22.171875 30.082031 22.1875 30.128906 22.167969 30.175781 " fill-opacity="1" fill-rule="nonzero"/><path fill="#ffffff" d="M 22.992188 30.480469 L 22.78125 30.882812 C 22.757812 30.929688 22.695312 30.953125 22.644531 30.9375 L 22.199219 30.769531 C 22.152344 30.753906 22.132812 30.703125 22.15625 30.660156 L 22.363281 30.261719 C 22.390625 30.210938 22.453125 30.1875 22.503906 30.207031 L 22.949219 30.371094 C 22.996094 30.390625 23.015625 30.4375 22.992188 30.480469 " fill-opacity="1" fill-rule="nonzero"/><path fill="#ffffff" d="M 22.554688 29.433594 L 22.339844 29.84375 C 22.316406 29.890625 22.253906 29.917969 22.203125 29.898438 L 21.757812 29.730469 C 21.710938 29.714844 21.691406 29.664062 21.714844 29.621094 L 21.929688 29.210938 C 21.953125 29.164062 22.019531 29.136719 22.070312 29.15625 L 22.511719 29.324219 C 22.558594 29.339844 22.578125 29.390625 22.554688 29.433594 " fill-opacity="1" fill-rule="nonzero"/><path fill="#ffffff" d="M 23.378906 29.742188 L 23.167969 30.152344 C 23.140625 30.199219 23.078125 30.226562 23.027344 30.207031 L 22.582031 30.039062 C 22.535156 30.023438 22.515625 29.972656 22.539062 29.929688 L 22.753906 29.519531 C 22.777344 29.472656 22.84375 29.445312 22.894531 29.464844 L 23.339844 29.632812 C 23.386719 29.648438 23.402344 29.699219 23.378906 29.742188 " fill-opacity="1" fill-rule="nonzero"/><path fill="#ffffff" d="M 20.953125 30.605469 L 20.742188 31.007812 C 20.71875 31.054688 20.652344 31.078125 20.601562 31.058594 L 20.160156 30.894531 C 20.113281 30.875 20.09375 30.828125 20.117188 30.785156 L 20.324219 30.382812 C 20.351562 30.335938 20.414062 30.3125 20.464844 30.332031 L 20.910156 30.496094 C 20.957031 30.515625 20.972656 30.5625 20.953125 30.605469 " fill-opacity="1" fill-rule="nonzero"/><path fill="#ffffff" d="M 21.777344 30.914062 L 21.566406 31.316406 C 21.542969 31.363281 21.480469 31.386719 21.429688 31.367188 L 20.984375 31.203125 C 20.9375 31.183594 20.917969 31.136719 20.941406 31.09375 L 21.148438 30.691406 C 21.175781 30.644531 21.238281 30.621094 21.289062 30.640625 L 21.734375 30.804688 C 21.78125 30.820312 21.800781 30.871094 21.777344 30.914062 " fill-opacity="1" fill-rule="nonzero"/><path fill="#ffffff" d="M 22.601562 31.222656 L 22.394531 31.621094 C 22.367188 31.671875 22.304688 31.695312 22.253906 31.675781 L 21.808594 31.511719 C 21.761719 31.492188 21.742188 31.445312 21.765625 31.402344 L 21.976562 31 C 22 30.953125 22.0625 30.929688 22.113281 30.945312 L 22.558594 31.113281 C 22.605469 31.128906 22.625 31.179688 22.601562 31.222656 " fill-opacity="1" fill-rule="nonzero"/><path fill="#ffffff" d="M 23.425781 31.53125 L 23.21875 31.929688 C 23.191406 31.980469 23.128906 32.003906 23.078125 31.984375 L 22.632812 31.820312 C 22.585938 31.800781 22.566406 31.753906 22.589844 31.707031 L 22.800781 31.308594 C 22.824219 31.261719 22.890625 31.234375 22.941406 31.253906 L 23.382812 31.421875 C 23.429688 31.4375 23.449219 31.488281 23.425781 31.53125 " fill-opacity="1" fill-rule="nonzero"/><path fill="#ffffff" d="M 20.5625 31.347656 L 20.351562 31.746094 C 20.328125 31.796875 20.265625 31.820312 20.214844 31.800781 L 19.769531 31.632812 C 19.722656 31.617188 19.703125 31.570312 19.726562 31.523438 L 19.933594 31.125 C 19.960938 31.078125 20.023438 31.050781 20.074219 31.070312 L 20.519531 31.238281 C 20.566406 31.253906 20.585938 31.304688 20.5625 31.347656 " fill-opacity="1" fill-rule="nonzero"/><path fill="#ffffff" d="M 21.386719 31.65625 L 21.179688 32.054688 C 21.152344 32.101562 21.089844 32.128906 21.039062 32.109375 L 20.59375 31.941406 C 20.546875 31.925781 20.527344 31.878906 20.550781 31.832031 L 20.761719 31.433594 C 20.785156 31.386719 20.847656 31.359375 20.898438 31.378906 L 21.34375 31.546875 C 21.390625 31.5625 21.410156 31.609375 21.386719 31.65625 " fill-opacity="1" fill-rule="nonzero"/><path fill="#ffffff" d="M 22.210938 31.964844 L 22.003906 32.363281 C 21.976562 32.410156 21.914062 32.4375 21.863281 32.417969 L 21.417969 32.25 C 21.371094 32.234375 21.355469 32.183594 21.375 32.140625 L 21.585938 31.742188 C 21.609375 31.691406 21.675781 31.667969 21.726562 31.6875 L 22.167969 31.855469 C 22.214844 31.871094 22.234375 31.917969 22.210938 31.964844 " fill-opacity="1" fill-rule="nonzero"/><path fill="#ffffff" d="M 23.035156 32.269531 L 22.828125 32.671875 C 22.804688 32.71875 22.738281 32.742188 22.6875 32.726562 L 22.246094 32.558594 C 22.199219 32.542969 22.179688 32.492188 22.203125 32.449219 L 22.410156 32.050781 C 22.433594 32 22.5 31.976562 22.550781 31.996094 L 22.996094 32.160156 C 23.042969 32.179688 23.058594 32.226562 23.035156 32.269531 " fill-opacity="1" fill-rule="nonzero"/><path fill="#ffffff" d="M 21.339844 29.867188 L 21.132812 30.265625 C 21.109375 30.3125 21.042969 30.339844 20.992188 30.320312 L 20.546875 30.152344 C 20.5 30.136719 20.484375 30.085938 20.507812 30.042969 L 20.714844 29.644531 C 20.738281 29.59375 20.804688 29.570312 20.855469 29.589844 L 21.296875 29.757812 C 21.34375 29.773438 21.363281 29.820312 21.339844 29.867188 " fill-opacity="1" fill-rule="nonzero"/><path fill="#ffffff" d="M 21.730469 29.125 L 21.515625 29.535156 C 21.492188 29.585938 21.425781 29.609375 21.375 29.589844 L 20.933594 29.421875 C 20.886719 29.40625 20.867188 29.359375 20.890625 29.3125 L 21.105469 28.902344 C 21.128906 28.855469 21.191406 28.832031 21.242188 28.847656 L 21.6875 29.015625 C 21.734375 29.03125 21.753906 29.082031 21.730469 29.125 " fill-opacity="1" fill-rule="nonzero"/><path fill="#cbacf9" d="M 24.203125 30.050781 L 23.605469 31.195312 C 23.578125 31.242188 23.515625 31.269531 23.464844 31.25 L 23.019531 31.082031 C 22.972656 31.066406 22.957031 31.015625 22.976562 30.972656 L 23.578125 29.828125 C 23.601562 29.78125 23.667969 29.757812 23.71875 29.773438 L 24.164062 29.941406 C 24.210938 29.957031 24.226562 30.007812 24.203125 30.050781 " fill-opacity="1" fill-rule="nonzero"/><path fill="#ffffff" d="M 19.417969 32.117188 L 19.496094 31.972656 C 19.511719 31.9375 19.554688 31.921875 19.59375 31.933594 L 20.089844 32.121094 C 20.121094 32.132812 20.136719 32.164062 20.121094 32.195312 L 20.042969 32.339844 C 20.027344 32.375 19.980469 32.390625 19.945312 32.378906 L 19.449219 32.191406 C 19.414062 32.179688 19.402344 32.148438 19.417969 32.117188 " fill-opacity="1" fill-rule="nonzero"/><path fill="#ffffff" d="M 20.242188 32.425781 L 20.320312 32.277344 C 20.335938 32.246094 20.382812 32.230469 20.417969 32.242188 L 20.914062 32.425781 C 20.949219 32.441406 20.960938 32.472656 20.945312 32.503906 L 20.867188 32.648438 C 20.851562 32.683594 20.808594 32.699219 20.773438 32.6875 L 20.273438 32.5 C 20.242188 32.488281 20.226562 32.457031 20.242188 32.425781 " fill-opacity="1" fill-rule="nonzero"/><path fill="#ffffff" d="M 21.070312 32.734375 L 21.144531 32.585938 C 21.160156 32.554688 21.207031 32.535156 21.242188 32.550781 L 21.738281 32.734375 C 21.773438 32.75 21.785156 32.78125 21.769531 32.8125 L 21.695312 32.957031 C 21.675781 32.992188 21.632812 33.007812 21.597656 32.996094 L 21.097656 32.808594 C 21.066406 32.796875 21.054688 32.761719 21.070312 32.734375 " fill-opacity="1" fill-rule="nonzero"/><path fill="#cbacf9" d="M 21.894531 33.042969 L 21.96875 32.894531 C 21.984375 32.863281 22.03125 32.847656 22.066406 32.859375 L 22.5625 33.046875 C 22.597656 33.058594 22.609375 33.089844 22.59375 33.121094 L 22.519531 33.265625 C 22.5 33.300781 22.457031 33.316406 22.421875 33.304688 L 21.921875 33.117188 C 21.890625 33.105469 21.878906 33.074219 21.894531 33.042969 " fill-opacity="1" fill-rule="nonzero"/><path fill="#8875a4" d="M 26.722656 25.191406 C 26.457031 25.152344 26.210938 25.335938 26.171875 25.597656 L 24.800781 34.832031 C 24.761719 35.097656 24.945312 35.34375 25.210938 35.382812 L 32.199219 36.417969 L 33.933594 26.269531 C 33.351562 26.230469 26.722656 25.191406 26.722656 25.191406 " fill-opacity="1" fill-rule="nonzero"/><path fill="#8875a4" d="M 40.703125 27.300781 L 33.933594 26.269531 L 32.199219 36.417969 L 39.007812 37.316406 C 39.273438 37.359375 39.519531 37.175781 39.5625 36.90625 L 41.101562 27.863281 C 41.144531 27.59375 40.964844 27.34375 40.703125 27.300781 " fill-opacity="1" fill-rule="nonzero"/><path fill="#cbacf9" d="M 40.703125 27.300781 L 33.933594 26.269531 C 33.351562 26.230469 26.722656 25.191406 26.722656 25.191406 C 26.457031 25.152344 26.210938 25.335938 26.171875 25.597656 L 24.800781 34.832031 C 24.761719 35.097656 24.945312 35.34375 25.210938 35.382812 L 32.199219 36.417969 L 39.007812 37.316406 C 39.273438 37.359375 39.519531 37.175781 39.5625 36.90625 L 41.101562 27.863281 C 41.144531 27.59375 40.964844 27.34375 40.703125 27.300781 " fill-opacity="1" fill-rule="nonzero"/><path fill="#8875a4" d="M 31.714844 35.632812 L 25.644531 34.792969 L 27.054688 25.292969 L 27.722656 24.949219 L 32.695312 32.324219 L 32.242188 35.101562 L 31.714844 35.632812 " fill-opacity="1" fill-rule="nonzero"/><path fill="#ffffff" d="M 27.722656 24.949219 L 33.757812 25.847656 L 32.242188 35.101562 L 26.265625 34.230469 L 27.722656 24.949219 " fill-opacity="1" fill-rule="nonzero"/><path fill="#000000" d="M 26.351562 34.167969 L 32.179688 35.019531 L 33.675781 25.90625 L 27.78125 25.035156 Z M 32.242188 35.171875 C 32.238281 35.171875 32.234375 35.171875 32.230469 35.171875 L 26.257812 34.300781 C 26.238281 34.300781 26.21875 34.289062 26.207031 34.273438 C 26.195312 34.257812 26.191406 34.238281 26.195312 34.21875 L 27.648438 24.941406 C 27.65625 24.898438 27.691406 24.875 27.734375 24.878906 L 33.769531 25.773438 C 33.789062 25.777344 33.804688 25.789062 33.816406 25.804688 C 33.828125 25.820312 33.832031 25.839844 33.832031 25.859375 L 32.3125 35.113281 C 32.308594 35.148438 32.277344 35.171875 32.242188 35.171875 " fill-opacity="1" fill-rule="nonzero"/><path fill="#000000" d="M 30.789062 27.066406 C 30.785156 27.066406 30.78125 27.066406 30.777344 27.066406 L 28.714844 26.757812 C 28.675781 26.753906 28.648438 26.714844 28.65625 26.675781 C 28.660156 26.636719 28.699219 26.609375 28.738281 26.613281 L 30.800781 26.921875 C 30.839844 26.925781 30.867188 26.964844 30.863281 27.003906 C 30.855469 27.039062 30.824219 27.066406 30.789062 27.066406 " fill-opacity="1" fill-rule="nonzero"/><path fill="#000000" d="M 31.628906 27.78125 C 31.625 27.78125 31.621094 27.78125 31.617188 27.78125 L 28.628906 27.335938 C 28.589844 27.332031 28.5625 27.292969 28.570312 27.253906 C 28.574219 27.214844 28.613281 27.1875 28.652344 27.191406 L 31.640625 27.636719 C 31.679688 27.640625 31.707031 27.679688 31.699219 27.71875 C 31.695312 27.753906 31.664062 27.78125 31.628906 27.78125 " fill-opacity="1" fill-rule="nonzero"/><path fill="#000000" d="M 32.226562 28.457031 C 32.226562 28.457031 32.222656 28.457031 32.21875 28.457031 L 28.546875 27.914062 C 28.503906 27.90625 28.476562 27.871094 28.484375 27.832031 C 28.488281 27.792969 28.527344 27.765625 28.566406 27.769531 L 32.238281 28.3125 C 32.277344 28.320312 32.304688 28.355469 32.300781 28.398438 C 32.296875 28.433594 32.265625 28.457031 32.226562 28.457031 " fill-opacity="1" fill-rule="nonzero"/><path fill="#000000" d="M 32.058594 29.613281 C 32.054688 29.613281 32.050781 29.613281 32.046875 29.613281 L 28.375 29.066406 C 28.332031 29.0625 28.304688 29.023438 28.3125 28.984375 C 28.316406 28.945312 28.355469 28.917969 28.394531 28.925781 L 32.066406 29.46875 C 32.105469 29.472656 32.136719 29.511719 32.128906 29.550781 C 32.125 29.585938 32.09375 29.613281 32.058594 29.613281 " fill-opacity="1" fill-rule="nonzero"/><path fill="#000000" d="M 31.972656 30.191406 C 31.96875 30.191406 31.964844 30.191406 31.960938 30.191406 L 28.289062 29.644531 C 28.25 29.640625 28.21875 29.601562 28.226562 29.5625 C 28.234375 29.523438 28.269531 29.496094 28.308594 29.5 L 31.980469 30.046875 C 32.023438 30.050781 32.050781 30.089844 32.042969 30.128906 C 32.039062 30.164062 32.007812 30.191406 31.972656 30.191406 " fill-opacity="1" fill-rule="nonzero"/><path fill="#000000" d="M 31.886719 30.769531 C 31.882812 30.769531 31.878906 30.769531 31.875 30.765625 L 28.203125 30.222656 C 28.164062 30.21875 28.136719 30.179688 28.140625 30.140625 C 28.148438 30.101562 28.183594 30.074219 28.222656 30.078125 L 31.894531 30.621094 C 31.9375 30.628906 31.964844 30.664062 31.957031 30.707031 C 31.953125 30.742188 31.921875 30.769531 31.886719 30.769531 " fill-opacity="1" fill-rule="nonzero"/><path fill="#000000" d="M 31.714844 31.921875 C 31.710938 31.921875 31.707031 31.921875 31.703125 31.921875 L 28.03125 31.375 C 27.992188 31.371094 27.964844 31.335938 27.96875 31.292969 C 27.976562 31.253906 28.011719 31.226562 28.050781 31.234375 L 31.726562 31.777344 C 31.765625 31.785156 31.792969 31.820312 31.785156 31.859375 C 31.78125 31.894531 31.75 31.921875 31.714844 31.921875 " fill-opacity="1" fill-rule="nonzero"/><path fill="#000000" d="M 31.628906 32.5 C 31.625 32.5 31.621094 32.5 31.617188 32.5 L 27.945312 31.953125 C 27.90625 31.949219 27.878906 31.910156 27.882812 31.871094 C 27.890625 31.832031 27.925781 31.804688 27.96875 31.808594 L 31.640625 32.355469 C 31.679688 32.359375 31.707031 32.398438 31.699219 32.4375 C 31.695312 32.472656 31.664062 32.5 31.628906 32.5 " fill-opacity="1" fill-rule="nonzero"/><path fill="#000000" d="M 31.542969 33.078125 C 31.539062 33.078125 31.535156 33.078125 31.53125 33.074219 L 27.859375 32.53125 C 27.820312 32.527344 27.792969 32.488281 27.796875 32.449219 C 27.804688 32.410156 27.839844 32.382812 27.882812 32.386719 L 31.554688 32.933594 C 31.59375 32.9375 31.621094 32.976562 31.613281 33.015625 C 31.609375 33.050781 31.578125 33.078125 31.542969 33.078125 " fill-opacity="1" fill-rule="nonzero"/><path fill="#8875a4" d="M 38.6875 36.667969 L 32.625 35.777344 L 34.113281 26.292969 L 34.734375 25.945312 L 39.699219 33.367188 L 39.21875 36.140625 L 38.6875 36.667969 " fill-opacity="1" fill-rule="nonzero"/><path fill="#ffffff" d="M 34.734375 25.945312 L 40.816406 26.898438 L 39.21875 36.140625 L 33.253906 35.21875 L 34.734375 25.945312 " fill-opacity="1" fill-rule="nonzero"/><path fill="#000000" d="M 33.335938 35.160156 L 39.160156 36.058594 L 40.730469 26.960938 L 34.792969 26.027344 Z M 39.21875 36.214844 C 39.214844 36.214844 39.210938 36.214844 39.207031 36.210938 L 33.242188 35.292969 C 33.222656 35.289062 33.203125 35.277344 33.195312 35.261719 C 33.183594 35.246094 33.175781 35.226562 33.179688 35.207031 L 34.660156 25.933594 C 34.667969 25.894531 34.703125 25.867188 34.742188 25.871094 L 40.824219 26.828125 C 40.84375 26.832031 40.863281 26.839844 40.875 26.859375 C 40.886719 26.875 40.890625 26.894531 40.886719 26.914062 L 39.289062 36.152344 C 39.285156 36.1875 39.253906 36.214844 39.21875 36.214844 " fill-opacity="1" fill-rule="nonzero"/><path fill="#000000" d="M 37.835938 28.09375 C 37.832031 28.09375 37.828125 28.09375 37.824219 28.09375 L 35.765625 27.769531 C 35.726562 27.765625 35.699219 27.726562 35.703125 27.6875 C 35.710938 27.648438 35.75 27.621094 35.789062 27.625 L 37.847656 27.949219 C 37.886719 27.957031 37.914062 27.992188 37.910156 28.035156 C 37.902344 28.070312 37.871094 28.09375 37.835938 28.09375 " fill-opacity="1" fill-rule="nonzero"/><path fill="#000000" d="M 38.667969 28.816406 C 38.664062 28.816406 38.660156 28.816406 38.65625 28.816406 L 35.675781 28.347656 C 35.632812 28.339844 35.605469 28.304688 35.613281 28.261719 C 35.621094 28.222656 35.65625 28.195312 35.695312 28.203125 L 38.679688 28.671875 C 38.71875 28.675781 38.746094 28.714844 38.742188 28.753906 C 38.734375 28.789062 38.703125 28.816406 38.667969 28.816406 " fill-opacity="1" fill-rule="nonzero"/><path fill="#000000" d="M 39.082031 30.652344 C 39.078125 30.652344 39.074219 30.652344 39.070312 30.652344 L 35.402344 30.078125 C 35.363281 30.070312 35.335938 30.03125 35.34375 29.992188 C 35.347656 29.953125 35.386719 29.925781 35.425781 29.933594 L 39.09375 30.507812 C 39.132812 30.515625 39.160156 30.550781 39.152344 30.589844 C 39.148438 30.628906 39.117188 30.652344 39.082031 30.652344 " fill-opacity="1" fill-rule="nonzero"/><path fill="#000000" d="M 38.992188 31.230469 C 38.988281 31.230469 38.984375 31.230469 38.980469 31.226562 L 35.3125 30.652344 C 35.273438 30.644531 35.246094 30.609375 35.25 30.570312 C 35.257812 30.53125 35.296875 30.503906 35.335938 30.507812 L 39.003906 31.085938 C 39.042969 31.089844 39.070312 31.128906 39.0625 31.167969 C 39.058594 31.203125 39.027344 31.230469 38.992188 31.230469 " fill-opacity="1" fill-rule="nonzero"/><path fill="#000000" d="M 38.902344 31.804688 C 38.898438 31.804688 38.894531 31.804688 38.890625 31.804688 L 35.222656 31.230469 C 35.183594 31.222656 35.15625 31.1875 35.160156 31.144531 C 35.167969 31.105469 35.203125 31.078125 35.242188 31.085938 L 38.910156 31.660156 C 38.953125 31.667969 38.980469 31.703125 38.972656 31.746094 C 38.964844 31.78125 38.9375 31.804688 38.902344 31.804688 " fill-opacity="1" fill-rule="nonzero"/><path fill="#000000" d="M 38.71875 32.957031 C 38.714844 32.957031 38.710938 32.957031 38.707031 32.957031 L 35.039062 32.382812 C 35 32.375 34.972656 32.339844 34.980469 32.296875 C 34.984375 32.257812 35.023438 32.230469 35.0625 32.238281 L 38.730469 32.8125 C 38.769531 32.820312 38.796875 32.859375 38.792969 32.898438 C 38.785156 32.933594 38.753906 32.957031 38.71875 32.957031 " fill-opacity="1" fill-rule="nonzero"/><path fill="#000000" d="M 38.628906 33.535156 C 38.625 33.535156 38.621094 33.535156 38.617188 33.535156 L 34.949219 32.957031 C 34.910156 32.953125 34.882812 32.914062 34.890625 32.875 C 34.894531 32.835938 34.933594 32.808594 34.972656 32.816406 L 38.640625 33.390625 C 38.679688 33.398438 38.707031 33.433594 38.699219 33.472656 C 38.695312 33.507812 38.664062 33.535156 38.628906 33.535156 " fill-opacity="1" fill-rule="nonzero"/><path fill="#000000" d="M 38.539062 34.113281 C 38.535156 34.113281 38.53125 34.113281 38.527344 34.109375 L 34.859375 33.535156 C 34.820312 33.527344 34.792969 33.492188 34.796875 33.453125 C 34.804688 33.410156 34.839844 33.382812 34.882812 33.390625 L 38.550781 33.96875 C 38.589844 33.972656 38.617188 34.011719 38.609375 34.050781 C 38.605469 34.085938 38.574219 34.113281 38.539062 34.113281 " fill-opacity="1" fill-rule="nonzero"/><path fill="#000000" d="M 33.867188 33.398438 C 33.859375 33.398438 33.851562 33.398438 33.84375 33.394531 C 33.777344 33.382812 33.734375 33.320312 33.75 33.253906 C 33.777344 33.101562 33.734375 32.941406 33.632812 32.808594 C 33.523438 32.671875 33.363281 32.578125 33.179688 32.542969 C 32.804688 32.46875 32.449219 32.675781 32.386719 32.996094 C 32.375 33.0625 32.308594 33.105469 32.246094 33.09375 C 32.179688 33.082031 32.136719 33.015625 32.148438 32.949219 C 32.234375 32.496094 32.714844 32.207031 33.222656 32.304688 C 33.464844 32.347656 33.679688 32.476562 33.824219 32.660156 C 33.972656 32.851562 34.027344 33.078125 33.988281 33.300781 C 33.976562 33.359375 33.925781 33.398438 33.867188 33.398438 " fill-opacity="1" fill-rule="nonzero"/><path fill="#000000" d="M 34.554688 29.441406 C 34.546875 29.441406 34.539062 29.441406 34.53125 29.441406 C 34.464844 29.429688 34.421875 29.363281 34.433594 29.300781 C 34.460938 29.144531 34.421875 28.988281 34.316406 28.855469 C 34.210938 28.714844 34.046875 28.621094 33.863281 28.585938 C 33.488281 28.515625 33.132812 28.71875 33.070312 29.039062 C 33.058594 29.105469 32.996094 29.148438 32.929688 29.136719 C 32.863281 29.125 32.820312 29.0625 32.832031 28.996094 C 32.917969 28.542969 33.402344 28.25 33.910156 28.347656 C 34.152344 28.394531 34.363281 28.519531 34.507812 28.707031 C 34.65625 28.894531 34.714844 29.121094 34.671875 29.34375 C 34.660156 29.402344 34.609375 29.441406 34.554688 29.441406 " fill-opacity="1" fill-rule="nonzero"/><path fill="#ffffff" d="M 23.433594 19.03125 C 23.183594 19.144531 23.519531 25.035156 23.601562 25.402344 C 23.679688 25.769531 24.21875 26.453125 24.28125 26.796875 C 24.34375 27.144531 24.5 28.546875 24.367188 28.730469 C 24.230469 28.917969 23.902344 28.519531 23.835938 28.355469 C 23.773438 28.207031 23.652344 27.707031 23.628906 27.609375 C 23.628906 27.605469 23.621094 27.605469 23.621094 27.609375 C 23.601562 27.726562 23.472656 28.445312 23.433594 28.691406 C 23.390625 28.957031 23.398438 29.984375 22.902344 30.152344 C 22.40625 30.320312 22.878906 28.476562 22.734375 28.238281 C 22.589844 28.003906 21.785156 28.457031 21.285156 27.5 C 21.003906 26.964844 21.648438 25.996094 21.636719 25.476562 C 21.625 24.960938 20.40625 18.019531 20.960938 16.945312 C 21.511719 15.875 23.6875 18.921875 23.433594 19.03125 " fill-opacity="1" fill-rule="nonzero"/><path fill="#000000" d="M 23.40625 18.964844 Z M 23.464844 19.097656 Z M 21.300781 16.789062 C 21.179688 16.789062 21.089844 16.851562 21.023438 16.980469 C 20.609375 17.789062 21.242188 22.152344 21.546875 24.25 C 21.644531 24.914062 21.707031 25.351562 21.710938 25.476562 C 21.714844 25.691406 21.617188 25.96875 21.511719 26.265625 C 21.363281 26.6875 21.191406 27.167969 21.347656 27.464844 C 21.664062 28.066406 22.09375 28.074219 22.410156 28.082031 C 22.582031 28.085938 22.730469 28.089844 22.796875 28.203125 C 22.859375 28.304688 22.835938 28.554688 22.792969 28.988281 C 22.753906 29.386719 22.691406 29.980469 22.816406 30.082031 C 22.824219 30.085938 22.835938 30.097656 22.878906 30.082031 C 23.246094 29.957031 23.308594 29.257812 23.339844 28.878906 C 23.347656 28.792969 23.355469 28.726562 23.363281 28.679688 C 23.402344 28.425781 23.535156 27.683594 23.550781 27.597656 L 23.5625 27.539062 L 23.621094 27.535156 C 23.660156 27.535156 23.691406 27.558594 23.699219 27.59375 C 23.765625 27.863281 23.855469 28.214844 23.902344 28.328125 C 23.957031 28.457031 24.15625 28.691406 24.265625 28.707031 C 24.285156 28.707031 24.296875 28.703125 24.308594 28.6875 C 24.414062 28.542969 24.289062 27.265625 24.210938 26.8125 C 24.179688 26.648438 24.027344 26.386719 23.878906 26.132812 C 23.722656 25.867188 23.570312 25.609375 23.527344 25.417969 C 23.488281 25.234375 23.382812 23.675781 23.320312 22.125 C 23.207031 19.359375 23.308594 19.039062 23.382812 18.980469 C 23.363281 18.738281 22.234375 17.066406 21.457031 16.816406 C 21.398438 16.800781 21.347656 16.789062 21.300781 16.789062 Z M 22.84375 30.234375 C 22.792969 30.234375 22.75 30.214844 22.726562 30.195312 C 22.554688 30.054688 22.582031 29.621094 22.648438 28.976562 C 22.675781 28.695312 22.714844 28.34375 22.671875 28.277344 C 22.644531 28.234375 22.535156 28.230469 22.40625 28.226562 C 22.074219 28.222656 21.574219 28.210938 21.21875 27.535156 C 21.035156 27.179688 21.214844 26.667969 21.375 26.21875 C 21.472656 25.933594 21.570312 25.667969 21.5625 25.480469 C 21.5625 25.367188 21.496094 24.90625 21.402344 24.269531 C 21.070312 21.996094 20.457031 17.761719 20.894531 16.914062 C 21.003906 16.703125 21.179688 16.613281 21.40625 16.65625 C 22.191406 16.796875 23.480469 18.566406 23.527344 18.964844 C 23.535156 19.039062 23.503906 19.078125 23.476562 19.09375 C 23.414062 19.210938 23.378906 20.089844 23.46875 22.214844 C 23.53125 23.714844 23.632812 25.214844 23.671875 25.386719 C 23.707031 25.558594 23.859375 25.8125 24.003906 26.0625 C 24.167969 26.335938 24.320312 26.597656 24.351562 26.785156 C 24.382812 26.949219 24.597656 28.535156 24.425781 28.773438 C 24.382812 28.832031 24.320312 28.859375 24.25 28.851562 C 24.046875 28.824219 23.820312 28.511719 23.769531 28.382812 C 23.734375 28.296875 23.683594 28.113281 23.636719 27.941406 C 23.589844 28.203125 23.53125 28.546875 23.507812 28.703125 C 23.5 28.746094 23.492188 28.8125 23.488281 28.890625 C 23.449219 29.300781 23.382812 30.066406 22.925781 30.222656 C 22.898438 30.230469 22.871094 30.234375 22.84375 30.234375 " fill-opacity="1" fill-rule="nonzero"/><path fill="#cbacf9" d="M 25.660156 16.527344 C 26.386719 18.0625 28.683594 19.972656 31.96875 20.355469 C 35.257812 20.742188 38.433594 18.800781 38.433594 18.800781 C 38.433594 18.800781 39.195312 20.777344 39.195312 21.078125 C 39.195312 21.378906 34.503906 25.050781 34.71875 25.777344 C 34.929688 26.503906 35.359375 27.277344 36 27.445312 C 36.640625 27.617188 42.851562 23.53125 43.074219 22.136719 C 43.53125 19.277344 41.519531 15.40625 40.652344 13.761719 C 39.03125 10.683594 30.03125 8.636719 27.125 9.796875 C 23.527344 11.230469 20.492188 15.8125 20.152344 17.515625 C 19.8125 19.222656 20.285156 23.9375 21.195312 24.507812 C 21.761719 24.859375 23.960938 24.664062 23.925781 23.394531 C 23.867188 21.402344 23.226562 19.359375 23.8125 18.894531 C 24.414062 18.421875 25.660156 16.527344 25.660156 16.527344 " fill-opacity="1" fill-rule="nonzero"/><path fill="#000000" d="M 38.433594 18.871094 C 38.421875 18.871094 38.40625 18.867188 38.394531 18.859375 C 38.359375 18.839844 38.351562 18.792969 38.371094 18.761719 C 39.292969 17.304688 39.636719 15.875 39.886719 14.832031 C 39.917969 14.707031 39.945312 14.589844 39.972656 14.480469 C 39.984375 14.441406 40.023438 14.417969 40.0625 14.425781 C 40.101562 14.4375 40.125 14.476562 40.113281 14.515625 C 40.085938 14.625 40.058594 14.742188 40.027344 14.867188 C 39.773438 15.921875 39.425781 17.363281 38.496094 18.839844 C 38.480469 18.859375 38.457031 18.871094 38.433594 18.871094 " fill-opacity="1" fill-rule="nonzero"/><path fill="#000000" d="M 25.644531 16.484375 C 25.617188 16.484375 25.589844 16.464844 25.578125 16.441406 C 24.867188 14.832031 24.953125 12.4375 25.105469 11.527344 C 25.113281 11.488281 25.148438 11.460938 25.1875 11.46875 C 25.226562 11.476562 25.253906 11.511719 25.25 11.554688 C 25.097656 12.445312 25.015625 14.800781 25.710938 16.378906 C 25.726562 16.417969 25.710938 16.460938 25.671875 16.476562 C 25.664062 16.480469 25.652344 16.484375 25.644531 16.484375 " fill-opacity="1" fill-rule="nonzero"/><path fill="#000000" d="M 39.601562 16.183594 C 39.585938 16.183594 39.570312 16.175781 39.554688 16.164062 C 38.34375 15.105469 36.210938 14.574219 36.191406 14.566406 C 36.152344 14.558594 36.128906 14.519531 36.136719 14.480469 C 36.148438 14.441406 36.1875 14.417969 36.226562 14.425781 C 36.246094 14.433594 38.414062 14.96875 39.652344 16.054688 C 39.679688 16.082031 39.683594 16.128906 39.65625 16.15625 C 39.644531 16.175781 39.625 16.183594 39.601562 16.183594 " fill-opacity="1" fill-rule="nonzero"/><path fill="#000000" d="M 25.09375 13.855469 C 25.058594 13.855469 25.027344 13.832031 25.023438 13.796875 C 25.011719 13.757812 25.039062 13.722656 25.078125 13.710938 C 25.117188 13.703125 26.015625 13.519531 26.558594 13.519531 C 26.597656 13.519531 26.628906 13.550781 26.628906 13.589844 C 26.628906 13.632812 26.597656 13.664062 26.558594 13.664062 C 26.03125 13.664062 25.117188 13.851562 25.109375 13.855469 C 25.101562 13.855469 25.097656 13.855469 25.09375 13.855469 " fill-opacity="1" fill-rule="nonzero"/><path fill="#ffffff" d="M 33.320312 27.445312 C 33.226562 27.5 33.566406 27.902344 33.460938 27.894531 C 33.03125 27.867188 32.609375 27.679688 32.335938 27.871094 C 32.035156 28.089844 32.632812 29.003906 33.636719 29.066406 C 34.160156 29.097656 34.402344 28.964844 34.5 28.90625 C 35.582031 28.238281 35.335938 27.582031 35.9375 27.230469 C 36.757812 26.75 36.046875 25.175781 34.605469 26.253906 C 34.386719 26.414062 34.304688 27.089844 34.054688 27.179688 C 33.808594 27.269531 33.496094 27.339844 33.320312 27.445312 " fill-opacity="1" fill-rule="nonzero"/><path fill="#000000" d="M 33.355469 27.507812 Z M 33.40625 27.878906 L 33.410156 27.878906 Z M 32.652344 27.859375 C 32.546875 27.859375 32.457031 27.878906 32.378906 27.929688 C 32.3125 27.980469 32.328125 28.082031 32.347656 28.136719 C 32.441406 28.46875 32.941406 28.949219 33.640625 28.992188 C 34.164062 29.027344 34.386719 28.886719 34.460938 28.84375 C 35.0625 28.472656 35.238281 28.113281 35.394531 27.796875 C 35.511719 27.558594 35.625 27.332031 35.898438 27.167969 C 36.109375 27.046875 36.222656 26.835938 36.210938 26.597656 C 36.199219 26.347656 36.054688 26.128906 35.835938 26.023438 C 35.519531 25.875 35.097656 25.976562 34.648438 26.3125 C 34.566406 26.375 34.496094 26.550781 34.429688 26.722656 C 34.335938 26.960938 34.246094 27.1875 34.078125 27.25 C 33.992188 27.28125 33.894531 27.308594 33.804688 27.339844 C 33.648438 27.386719 33.488281 27.4375 33.378906 27.496094 C 33.390625 27.535156 33.4375 27.621094 33.464844 27.671875 C 33.535156 27.792969 33.578125 27.867188 33.539062 27.929688 C 33.519531 27.957031 33.492188 27.972656 33.453125 27.96875 C 33.316406 27.960938 33.183594 27.933594 33.054688 27.910156 C 32.90625 27.882812 32.769531 27.859375 32.652344 27.859375 Z M 33.796875 29.144531 C 33.746094 29.144531 33.691406 29.140625 33.632812 29.136719 C 32.832031 29.085938 32.308594 28.535156 32.207031 28.179688 C 32.160156 28.019531 32.191406 27.886719 32.296875 27.8125 C 32.507812 27.664062 32.785156 27.714844 33.078125 27.765625 C 33.175781 27.785156 33.277344 27.804688 33.378906 27.816406 C 33.367188 27.789062 33.351562 27.765625 33.339844 27.742188 C 33.253906 27.589844 33.175781 27.445312 33.28125 27.382812 C 33.40625 27.308594 33.578125 27.253906 33.761719 27.199219 C 33.851562 27.171875 33.945312 27.140625 34.027344 27.113281 C 34.132812 27.074219 34.21875 26.859375 34.292969 26.667969 C 34.371094 26.46875 34.445312 26.28125 34.5625 26.195312 C 35.230469 25.695312 35.6875 25.792969 35.898438 25.890625 C 36.167969 26.019531 36.34375 26.289062 36.355469 26.589844 C 36.367188 26.882812 36.226562 27.144531 35.972656 27.292969 C 35.734375 27.433594 35.640625 27.621094 35.523438 27.863281 C 35.367188 28.179688 35.171875 28.574219 34.539062 28.964844 C 34.464844 29.011719 34.25 29.144531 33.796875 29.144531 " fill-opacity="1" fill-rule="nonzero"/><path fill="#ffffff" d="M 37.421875 28.703125 L 37.617188 27.484375 L 37.019531 27.421875 C 36.988281 27.417969 36.953125 27.425781 36.921875 27.4375 L 36.867188 27.457031 C 36.796875 27.484375 36.71875 27.472656 36.660156 27.425781 C 36.628906 27.398438 36.589844 27.382812 36.550781 27.378906 L 32.121094 26.921875 C 32.082031 26.917969 32.046875 26.921875 32.007812 26.925781 L 30.894531 27.105469 L 31.863281 27.578125 C 31.917969 27.605469 31.972656 27.625 32.03125 27.636719 L 36.386719 28.496094 C 36.425781 28.503906 36.460938 28.5 36.5 28.488281 L 36.507812 28.484375 C 36.574219 28.460938 36.652344 28.472656 36.707031 28.519531 L 36.738281 28.542969 C 36.761719 28.5625 36.792969 28.578125 36.828125 28.585938 L 37.421875 28.703125 " fill-opacity="1" fill-rule="nonzero"/><path fill="#000000" d="M 36.578125 28.402344 C 36.640625 28.402344 36.703125 28.421875 36.753906 28.464844 L 36.78125 28.484375 C 36.800781 28.5 36.820312 28.507812 36.839844 28.511719 L 37.363281 28.617188 L 37.53125 27.546875 L 37.011719 27.496094 C 36.992188 27.492188 36.96875 27.496094 36.949219 27.503906 L 36.894531 27.523438 C 36.800781 27.5625 36.691406 27.542969 36.613281 27.480469 C 36.59375 27.464844 36.570312 27.453125 36.542969 27.449219 L 32.113281 26.996094 C 32.082031 26.992188 32.050781 26.992188 32.019531 26.996094 L 31.132812 27.140625 L 31.898438 27.511719 C 31.945312 27.535156 31.992188 27.554688 32.046875 27.5625 L 36.402344 28.425781 C 36.425781 28.429688 36.449219 28.429688 36.472656 28.421875 L 36.484375 28.417969 C 36.515625 28.40625 36.546875 28.402344 36.578125 28.402344 Z M 37.421875 28.777344 C 37.417969 28.777344 37.414062 28.773438 37.410156 28.773438 L 36.8125 28.65625 C 36.769531 28.648438 36.726562 28.628906 36.691406 28.597656 L 36.664062 28.574219 C 36.625 28.546875 36.578125 28.539062 36.53125 28.554688 L 36.523438 28.558594 C 36.476562 28.574219 36.421875 28.578125 36.371094 28.570312 L 32.019531 27.707031 C 31.953125 27.695312 31.890625 27.671875 31.832031 27.644531 L 30.863281 27.171875 C 30.835938 27.15625 30.820312 27.125 30.824219 27.09375 C 30.828125 27.0625 30.851562 27.039062 30.882812 27.03125 L 31.996094 26.855469 C 32.039062 26.847656 32.085938 26.847656 32.125 26.851562 L 36.558594 27.304688 C 36.613281 27.3125 36.664062 27.332031 36.707031 27.367188 C 36.742188 27.398438 36.796875 27.40625 36.839844 27.390625 L 36.898438 27.367188 C 36.9375 27.351562 36.984375 27.347656 37.027344 27.351562 L 37.625 27.410156 C 37.644531 27.414062 37.664062 27.421875 37.675781 27.4375 C 37.6875 27.457031 37.691406 27.476562 37.6875 27.496094 L 37.496094 28.714844 C 37.492188 28.734375 37.480469 28.75 37.464844 28.761719 C 37.453125 28.769531 37.4375 28.777344 37.421875 28.777344 " fill-opacity="1" fill-rule="nonzero"/><path fill="#000000" d="M 31.96875 27.484375 C 31.964844 27.484375 31.960938 27.480469 31.957031 27.480469 C 31.917969 27.472656 31.890625 27.433594 31.898438 27.394531 L 31.996094 26.914062 C 32.003906 26.875 32.042969 26.851562 32.082031 26.859375 C 32.121094 26.867188 32.148438 26.90625 32.140625 26.945312 L 32.042969 27.425781 C 32.035156 27.457031 32.003906 27.484375 31.96875 27.484375 " fill-opacity="1" fill-rule="nonzero"/><path fill="#cbacf9" d="M 38.628906 27.617188 L 37.597656 27.476562 L 37.417969 28.703125 L 38.449219 28.84375 C 38.636719 28.867188 38.8125 28.742188 38.839844 28.554688 L 38.921875 27.996094 C 38.949219 27.8125 38.816406 27.640625 38.628906 27.617188 " fill-opacity="1" fill-rule="nonzero"/><path fill="#000000" d="M 37.5 28.640625 L 38.457031 28.769531 C 38.605469 28.792969 38.746094 28.691406 38.765625 28.546875 L 38.847656 27.984375 C 38.859375 27.917969 38.84375 27.847656 38.800781 27.792969 C 38.757812 27.734375 38.691406 27.699219 38.617188 27.6875 L 37.65625 27.558594 Z M 38.496094 28.917969 C 38.476562 28.917969 38.457031 28.917969 38.4375 28.914062 L 37.40625 28.777344 C 37.386719 28.773438 37.371094 28.765625 37.359375 28.75 C 37.347656 28.734375 37.339844 28.714844 37.34375 28.695312 L 37.523438 27.464844 C 37.53125 27.425781 37.566406 27.398438 37.605469 27.40625 L 38.636719 27.542969 C 38.75 27.558594 38.847656 27.617188 38.917969 27.707031 C 38.980469 27.792969 39.007812 27.898438 38.992188 28.003906 L 38.910156 28.566406 C 38.882812 28.769531 38.699219 28.917969 38.496094 28.917969 " fill-opacity="1" fill-rule="nonzero"/><path fill="#000000" d="M 37.210938 28.480469 C 37.207031 28.480469 37.203125 28.480469 37.203125 28.480469 C 37.160156 28.472656 37.132812 28.4375 37.140625 28.398438 L 37.234375 27.683594 C 37.238281 27.640625 37.277344 27.613281 37.316406 27.621094 C 37.355469 27.625 37.382812 27.660156 37.378906 27.703125 L 37.285156 28.417969 C 37.277344 28.453125 37.246094 28.480469 37.210938 28.480469 " fill-opacity="1" fill-rule="nonzero"/><path fill="#000000" d="M 36.640625 28.34375 C 36.636719 28.34375 36.632812 28.34375 36.628906 28.339844 C 36.589844 28.335938 36.5625 28.300781 36.570312 28.257812 L 36.648438 27.675781 C 36.652344 27.636719 36.691406 27.609375 36.730469 27.613281 C 36.769531 27.621094 36.796875 27.65625 36.792969 27.695312 L 36.710938 28.277344 C 36.707031 28.316406 36.675781 28.34375 36.640625 28.34375 " fill-opacity="1" fill-rule="nonzero"/><path fill="#000000" d="M 36.289062 27.707031 C 36.285156 27.707031 36.28125 27.707031 36.277344 27.707031 L 34.96875 27.550781 C 34.929688 27.546875 34.902344 27.511719 34.90625 27.472656 C 34.910156 27.429688 34.949219 27.402344 34.988281 27.40625 L 36.296875 27.5625 C 36.335938 27.566406 36.363281 27.601562 36.359375 27.640625 C 36.355469 27.679688 36.324219 27.707031 36.289062 27.707031 " fill-opacity="1" fill-rule="nonzero"/><path fill="#000000" d="M 33.050781 27.316406 C 33.046875 27.316406 33.046875 27.316406 33.042969 27.316406 L 32.253906 27.21875 C 32.214844 27.214844 32.1875 27.179688 32.191406 27.136719 C 32.195312 27.097656 32.230469 27.070312 32.269531 27.074219 L 33.058594 27.167969 C 33.101562 27.175781 33.128906 27.210938 33.125 27.25 C 33.117188 27.289062 33.085938 27.316406 33.050781 27.316406 " fill-opacity="1" fill-rule="nonzero"/><path fill="#ffffff" d="M 38.554688 28.605469 C 38.550781 28.605469 38.546875 28.605469 38.542969 28.605469 L 37.753906 28.503906 C 37.714844 28.5 37.6875 28.460938 37.691406 28.421875 C 37.695312 28.382812 37.734375 28.355469 37.773438 28.359375 L 38.5625 28.460938 C 38.601562 28.464844 38.632812 28.5 38.625 28.542969 C 38.621094 28.578125 38.589844 28.605469 38.554688 28.605469 " fill-opacity="1" fill-rule="nonzero"/><path fill="#ffffff" d="M 35.144531 26.179688 L 34.933594 26.097656 C 34.933594 26.097656 34.472656 25.9375 34.019531 26.1875 C 33.671875 26.375 33.136719 26.691406 32.933594 26.992188 C 32.882812 27.070312 32.773438 27.308594 32.882812 27.410156 C 32.988281 27.515625 33.230469 27.398438 33.425781 27.214844 C 33.679688 26.976562 34.355469 27.09375 34.355469 27.09375 L 35.144531 26.179688 " fill-opacity="1" fill-rule="nonzero"/><path fill="#000000" d="M 33.011719 27.535156 C 32.941406 27.535156 32.878906 27.511719 32.828125 27.464844 C 32.683594 27.320312 32.8125 27.046875 32.875 26.953125 C 33.035156 26.714844 33.394531 26.441406 33.984375 26.121094 C 34.457031 25.863281 34.910156 25.976562 34.929688 25.980469 C 34.96875 25.988281 34.992188 26.027344 34.980469 26.066406 C 34.972656 26.105469 34.933594 26.128906 34.894531 26.121094 C 34.886719 26.117188 34.472656 26.019531 34.050781 26.25 C 33.496094 26.554688 33.140625 26.816406 32.996094 27.03125 C 32.941406 27.113281 32.871094 27.300781 32.933594 27.359375 C 32.953125 27.378906 32.980469 27.390625 33.015625 27.390625 C 33.101562 27.386719 33.214844 27.320312 33.316406 27.214844 C 33.574219 26.945312 34.171875 27.058594 34.195312 27.0625 C 34.234375 27.070312 34.261719 27.109375 34.253906 27.148438 C 34.246094 27.1875 34.207031 27.214844 34.167969 27.207031 C 34.015625 27.175781 33.589844 27.140625 33.425781 27.3125 C 33.289062 27.453125 33.148438 27.53125 33.019531 27.535156 C 33.015625 27.535156 33.015625 27.535156 33.011719 27.535156 " fill-opacity="1" fill-rule="nonzero"/><path fill="#000000" d="M 34.183594 27.207031 C 34.144531 27.207031 34.113281 27.179688 34.109375 27.144531 C 34.105469 27.101562 34.132812 27.066406 34.175781 27.0625 C 34.210938 27.058594 34.253906 27.015625 34.289062 26.980469 C 34.308594 26.953125 34.332031 26.933594 34.355469 26.917969 C 34.390625 26.894531 34.433594 26.90625 34.457031 26.9375 C 34.476562 26.972656 34.46875 27.019531 34.433594 27.039062 C 34.425781 27.046875 34.40625 27.0625 34.390625 27.078125 C 34.34375 27.128906 34.28125 27.199219 34.191406 27.207031 C 34.1875 27.207031 34.183594 27.207031 34.183594 27.207031 " fill-opacity="1" fill-rule="nonzero"/><path fill="#ffffff" d="M 27.957031 14.914062 C 27.972656 15.242188 28.109375 16.058594 28.972656 16.660156 C 29.246094 16.851562 29.355469 16.933594 29.355469 16.933594 C 29.355469 16.933594 29.527344 17.550781 29.738281 17.636719 C 29.953125 17.722656 30.464844 17.203125 30.464844 17.203125 C 30.464844 17.203125 31.320312 17.203125 31.730469 17.121094 C 32.144531 17.035156 32.796875 16.367188 32.796875 16.367188 L 27.957031 14.914062 " fill-opacity="1" fill-rule="nonzero"/><path fill="#000000" d="M 28.039062 15.015625 C 28.074219 15.375 28.25 16.066406 29.011719 16.601562 C 29.285156 16.789062 29.394531 16.875 29.398438 16.875 C 29.414062 16.886719 29.421875 16.898438 29.425781 16.914062 C 29.492188 17.15625 29.644531 17.519531 29.765625 17.566406 C 29.871094 17.609375 30.183594 17.386719 30.414062 17.152344 C 30.425781 17.140625 30.445312 17.132812 30.464844 17.132812 C 30.472656 17.132812 31.316406 17.132812 31.714844 17.046875 C 32.015625 16.984375 32.46875 16.578125 32.660156 16.398438 Z M 29.789062 17.71875 C 29.761719 17.71875 29.734375 17.714844 29.710938 17.703125 C 29.492188 17.617188 29.335938 17.125 29.292969 16.976562 C 29.25 16.945312 29.136719 16.863281 28.929688 16.71875 C 28.027344 16.09375 27.898438 15.25 27.882812 14.917969 C 27.882812 14.894531 27.894531 14.871094 27.910156 14.859375 C 27.929688 14.84375 27.957031 14.839844 27.976562 14.847656 L 32.820312 16.296875 C 32.84375 16.304688 32.863281 16.324219 32.867188 16.347656 C 32.875 16.371094 32.867188 16.398438 32.851562 16.417969 C 32.824219 16.445312 32.175781 17.101562 31.746094 17.191406 C 31.371094 17.269531 30.652344 17.277344 30.496094 17.277344 C 30.382812 17.390625 30.027344 17.71875 29.789062 17.71875 " fill-opacity="1" fill-rule="nonzero"/><path fill="#000000" d="M 27.320312 14.320312 C 27.355469 13.691406 26.753906 13.550781 27.152344 12.753906 C 27.550781 11.957031 27.234375 11.675781 27.550781 11.164062 C 27.863281 10.652344 28.628906 9.117188 29.625 9.058594 C 30.621094 9 31.320312 8.660156 32.230469 8.859375 C 33.140625 9.058594 33.464844 9.882812 34.175781 10.109375 C 34.890625 10.339844 35.371094 11.816406 35.042969 12.566406 C 34.820312 13.074219 35.203125 14.617188 34.503906 15.101562 C 33.800781 15.589844 33.808594 16.480469 33.066406 16.59375 C 32.644531 16.660156 31.457031 17.160156 30.734375 16.679688 C 29.984375 16.179688 29.882812 16.535156 29.152344 16.320312 C 28.429688 16.105469 28.460938 15.710938 28.230469 15.398438 C 28.003906 15.085938 27.292969 14.832031 27.320312 14.320312 " fill-opacity="1" fill-rule="nonzero"/><path fill="#cbacf9" d="M 20.21875 23.964844 L 12.5 17.890625 C 12.445312 17.835938 12.320312 17.78125 12.214844 17.757812 C 12.140625 17.742188 11.683594 17.785156 11.683594 17.785156 C 11.683594 17.785156 9.1875 20.171875 9.394531 20.382812 L 14.742188 28 C 14.785156 28.042969 15.039062 28.632812 15.039062 28.632812 C 15.039062 28.632812 15.390625 28.914062 15.492188 28.941406 C 15.574219 28.960938 15.644531 28.964844 15.667969 28.945312 L 20.238281 24.53125 C 20.359375 24.421875 20.425781 24.175781 20.21875 23.964844 " fill-opacity="1" fill-rule="nonzero"/><path fill="#ffffff" d="M 19.992188 23.640625 L 13.109375 16.734375 C 12.972656 16.605469 12.8125 16.515625 12.699219 16.613281 L 7.945312 21.152344 C 7.824219 21.261719 7.875 21.4375 8.078125 21.648438 L 14.894531 28.597656 C 14.984375 28.6875 15.285156 28.777344 15.335938 28.730469 L 20.128906 24.136719 C 20.246094 24.023438 20.199219 23.851562 19.992188 23.640625 " fill-opacity="1" fill-rule="nonzero"/><path fill="#000000" d="M 15.210938 28.851562 C 15.117188 28.851562 14.996094 28.800781 14.839844 28.648438 L 8.027344 21.699219 C 7.878906 21.546875 7.804688 21.410156 7.808594 21.289062 C 7.808594 21.214844 7.839844 21.148438 7.894531 21.097656 L 10.382812 18.699219 C 10.410156 18.671875 10.457031 18.671875 10.484375 18.699219 C 10.515625 18.730469 10.511719 18.773438 10.484375 18.800781 L 7.996094 21.203125 C 7.96875 21.230469 7.953125 21.257812 7.953125 21.292969 C 7.953125 21.371094 8.015625 21.480469 8.132812 21.597656 L 14.945312 28.542969 C 15.050781 28.648438 15.195312 28.757812 15.289062 28.675781 L 20.074219 24.136719 C 20.101562 24.109375 20.113281 24.082031 20.117188 24.046875 C 20.117188 23.96875 20.054688 23.859375 19.9375 23.742188 L 15.378906 19.09375 C 15.351562 19.0625 15.351562 19.019531 15.378906 18.988281 C 15.410156 18.960938 15.453125 18.960938 15.484375 18.992188 L 20.042969 23.640625 C 20.191406 23.789062 20.261719 23.929688 20.261719 24.050781 C 20.257812 24.121094 20.230469 24.1875 20.171875 24.242188 L 15.386719 28.78125 C 15.34375 28.820312 15.285156 28.851562 15.210938 28.851562 " fill-opacity="1" fill-rule="nonzero"/><path fill="#8875a4" d="M 17.761719 25.003906 L 11.839844 18.976562 C 11.761719 18.890625 11.558594 18.757812 11.441406 18.855469 L 9.371094 20.886719 C 9.261719 20.988281 9.304688 21.148438 9.492188 21.339844 L 15.414062 27.367188 C 15.496094 27.449219 15.765625 27.53125 15.8125 27.488281 L 17.882812 25.453125 C 17.992188 25.351562 17.949219 25.191406 17.761719 25.003906 " fill-opacity="1" fill-rule="nonzero"/><path fill="#8875a4" d="M 16.992188 21.277344 L 15.347656 19.601562 C 15.324219 19.578125 15.253906 19.554688 15.238281 19.566406 L 14.121094 20.625 C 14.09375 20.652344 14.105469 20.695312 14.152344 20.746094 L 15.789062 22.417969 C 15.808594 22.441406 15.863281 22.476562 15.894531 22.449219 L 17.023438 21.398438 C 17.050781 21.371094 17.042969 21.328125 16.992188 21.277344 " fill-opacity="1" fill-rule="nonzero"/><path fill="#000000" d="M 14.9375 25.925781 C 14.917969 25.925781 14.898438 25.917969 14.886719 25.90625 L 11.820312 22.734375 C 11.792969 22.707031 11.792969 22.660156 11.820312 22.632812 C 11.851562 22.605469 11.898438 22.605469 11.925781 22.632812 L 14.988281 25.804688 C 15.015625 25.832031 15.015625 25.878906 14.988281 25.90625 C 14.972656 25.921875 14.957031 25.925781 14.9375 25.925781 " fill-opacity="1" fill-rule="nonzero"/><path fill="#000000" d="M 15.089844 24.582031 C 15.074219 24.582031 15.054688 24.574219 15.039062 24.558594 L 14.148438 23.636719 C 14.121094 23.609375 14.121094 23.5625 14.152344 23.535156 C 14.179688 23.507812 14.226562 23.507812 14.253906 23.535156 L 15.144531 24.457031 C 15.171875 24.484375 15.171875 24.53125 15.140625 24.558594 C 15.128906 24.574219 15.109375 24.582031 15.089844 24.582031 " fill-opacity="1" fill-rule="nonzero"/><path fill="#000000" d="M 13.21875 21.457031 C 13.199219 21.457031 13.179688 21.449219 13.164062 21.433594 L 12.273438 20.515625 C 12.246094 20.484375 12.246094 20.441406 12.277344 20.410156 C 12.304688 20.382812 12.351562 20.382812 12.378906 20.414062 L 13.269531 21.332031 C 13.296875 21.363281 13.296875 21.410156 13.269531 21.4375 C 13.253906 21.449219 13.234375 21.457031 13.21875 21.457031 " fill-opacity="1" fill-rule="nonzero"/><path fill="#cbacf9" d="M 15.113281 29.222656 L 12.074219 29.855469 C 12.011719 29.867188 11.949219 29.847656 11.910156 29.808594 L 4.539062 21.890625 C 4.488281 21.832031 4.480469 21.746094 4.519531 21.667969 L 4.550781 21.597656 C 4.59375 21.515625 4.675781 21.457031 4.765625 21.449219 L 7.773438 21.324219 C 7.828125 21.320312 7.875 21.335938 7.910156 21.371094 L 15.335938 28.726562 C 15.390625 28.78125 15.398438 28.871094 15.359375 28.953125 L 15.300781 29.074219 C 15.265625 29.152344 15.191406 29.207031 15.113281 29.222656 " fill-opacity="1" fill-rule="nonzero"/><path fill="#ffffff" d="M 15.253906 28.800781 L 12.152344 29.417969 C 12.097656 29.429688 12.042969 29.414062 12.007812 29.375 L 4.734375 21.546875 C 4.699219 21.511719 4.730469 21.445312 4.785156 21.433594 L 8.03125 20.964844 C 8.050781 20.960938 8.070312 20.964844 8.082031 20.980469 L 15.304688 28.691406 C 15.339844 28.726562 15.308594 28.792969 15.253906 28.800781 " fill-opacity="1" fill-rule="nonzero"/><path fill="#000000" d="M 8.046875 21.035156 L 8.042969 21.035156 C 8.046875 21.035156 8.046875 21.035156 8.046875 21.035156 Z M 4.796875 21.507812 L 12.0625 29.324219 C 12.078125 29.34375 12.109375 29.351562 12.140625 29.347656 L 15.238281 28.730469 C 15.238281 28.730469 15.242188 28.730469 15.242188 28.730469 L 8.035156 21.039062 Z M 12.121094 29.492188 C 12.054688 29.492188 11.996094 29.46875 11.957031 29.425781 L 4.679688 21.597656 C 4.648438 21.5625 4.636719 21.511719 4.652344 21.464844 C 4.671875 21.414062 4.71875 21.371094 4.773438 21.363281 L 8.023438 20.890625 C 8.0625 20.886719 8.105469 20.898438 8.136719 20.929688 L 15.359375 28.640625 C 15.390625 28.675781 15.398438 28.722656 15.382812 28.769531 C 15.367188 28.824219 15.320312 28.863281 15.265625 28.875 L 12.167969 29.488281 C 12.152344 29.492188 12.136719 29.492188 12.121094 29.492188 " fill-opacity="1" fill-rule="nonzero"/><path fill="#8875a4" d="M 14.835938 28.589844 L 12.210938 29.070312 C 12.171875 29.078125 12.132812 29.066406 12.109375 29.039062 L 5.183594 21.636719 C 5.164062 21.617188 5.183594 21.578125 5.210938 21.574219 L 7.882812 21.144531 C 7.910156 21.140625 7.941406 21.148438 7.960938 21.167969 L 14.882812 28.492188 C 14.914062 28.523438 14.886719 28.582031 14.835938 28.589844 " fill-opacity="1" fill-rule="nonzero"/><path fill="#cbacf9" d="M 8.894531 24.996094 C 8.875 24.996094 8.855469 24.988281 8.839844 24.972656 L 6.5625 22.542969 C 6.535156 22.511719 6.535156 22.46875 6.566406 22.441406 C 6.59375 22.410156 6.640625 22.414062 6.667969 22.441406 L 8.949219 24.871094 C 8.976562 24.902344 8.972656 24.949219 8.945312 24.976562 C 8.929688 24.988281 8.914062 24.996094 8.894531 24.996094 " fill-opacity="1" fill-rule="nonzero"/><path fill="#cbacf9" d="M 9.148438 24.320312 C 9.128906 24.320312 9.109375 24.3125 9.09375 24.296875 L 7.335938 22.421875 C 7.308594 22.394531 7.308594 22.347656 7.339844 22.320312 C 7.367188 22.292969 7.414062 22.292969 7.441406 22.324219 L 9.199219 24.195312 C 9.230469 24.226562 9.226562 24.273438 9.199219 24.300781 C 9.183594 24.3125 9.164062 24.320312 9.148438 24.320312 " fill-opacity="1" fill-rule="nonzero"/><path fill="#cbacf9" d="M 10.535156 24.785156 C 10.515625 24.785156 10.5 24.777344 10.484375 24.761719 L 8.203125 22.335938 C 8.175781 22.304688 8.175781 22.257812 8.207031 22.230469 C 8.234375 22.203125 8.28125 22.203125 8.308594 22.234375 L 10.589844 24.664062 C 10.617188 24.691406 10.617188 24.738281 10.585938 24.765625 C 10.574219 24.78125 10.554688 24.785156 10.535156 24.785156 " fill-opacity="1" fill-rule="nonzero"/><path fill="#cbacf9" d="M 11.8125 27.289062 C 11.792969 27.289062 11.773438 27.28125 11.757812 27.269531 L 10.21875 25.625 C 10.191406 25.597656 10.191406 25.550781 10.222656 25.523438 C 10.25 25.496094 10.296875 25.496094 10.324219 25.527344 L 11.867188 27.167969 C 11.894531 27.199219 11.890625 27.242188 11.863281 27.269531 C 11.847656 27.285156 11.832031 27.289062 11.8125 27.289062 " fill-opacity="1" fill-rule="nonzero"/><path fill="#cbacf9" d="M 12.921875 27.34375 C 12.902344 27.34375 12.882812 27.335938 12.871094 27.320312 L 11.128906 25.46875 C 11.101562 25.4375 11.105469 25.390625 11.132812 25.363281 C 11.164062 25.335938 11.210938 25.339844 11.238281 25.367188 L 12.976562 27.222656 C 13.003906 27.25 13.003906 27.296875 12.972656 27.324219 C 12.957031 27.335938 12.941406 27.34375 12.921875 27.34375 " fill-opacity="1" fill-rule="nonzero"/><path fill="#cbacf9" d="M 13.375 14.535156 L 13.367188 14.535156 C 11.613281 14.535156 10.191406 13.113281 10.191406 11.359375 L 10.191406 11.355469 C 10.191406 9.601562 11.613281 8.179688 13.367188 8.179688 L 13.375 8.179688 C 15.128906 8.179688 16.550781 9.601562 16.550781 11.355469 L 16.550781 11.359375 C 16.550781 13.113281 15.128906 14.535156 13.375 14.535156 " fill-opacity="1" fill-rule="nonzero"/><path fill="#000000" d="M 13.367188 8.253906 C 11.65625 8.253906 10.265625 9.644531 10.265625 11.355469 C 10.265625 13.070312 11.65625 14.460938 13.367188 14.460938 L 13.375 14.460938 C 15.085938 14.460938 16.476562 13.070312 16.476562 11.359375 C 16.476562 9.644531 15.085938 8.253906 13.375 8.253906 Z M 13.375 14.609375 L 13.367188 14.609375 C 11.578125 14.609375 10.117188 13.148438 10.117188 11.359375 C 10.117188 9.566406 11.578125 8.109375 13.367188 8.109375 L 13.375 8.109375 C 15.164062 8.109375 16.621094 9.566406 16.621094 11.355469 C 16.621094 13.148438 15.164062 14.609375 13.375 14.609375 " fill-opacity="1" fill-rule="nonzero"/><path fill="#000000" d="M 13.328125 13.832031 L 13.324219 13.832031 C 11.9375 13.832031 10.8125 12.703125 10.8125 11.316406 L 10.8125 11.3125 C 10.8125 9.925781 11.9375 8.800781 13.324219 8.800781 L 13.328125 8.800781 C 14.71875 8.800781 15.84375 9.925781 15.84375 11.3125 L 15.84375 11.316406 C 15.84375 12.703125 14.71875 13.832031 13.328125 13.832031 " fill-opacity="1" fill-rule="nonzero"/><path fill="#ffffff" d="M 13.808594 10.476562 C 13.820312 9.949219 13.75 9.128906 13.289062 8.3125 C 12.332031 6.609375 10.238281 5.921875 10.035156 6.195312 C 9.882812 6.394531 10.648438 7.210938 12.054688 8.71875 C 12.761719 9.476562 13.378906 10.074219 13.808594 10.476562 " fill-opacity="1" fill-rule="nonzero"/><path fill="#ffffff" d="M 14.027344 10.492188 C 13.960938 9.429688 14.050781 8.5625 14.140625 7.96875 C 14.484375 5.722656 15.332031 4.574219 15.523438 4.324219 C 15.664062 4.140625 16.347656 3.242188 16.640625 3.378906 C 16.894531 3.496094 16.75 4.328125 16.519531 5.566406 C 16.308594 6.710938 16.203125 7.285156 15.988281 7.824219 C 15.746094 8.421875 15.214844 9.472656 14.027344 10.492188 " fill-opacity="1" fill-rule="nonzero"/><path fill="#ffffff" d="M 13.816406 10.71875 C 13.53125 10.449219 12.804688 9.832031 11.832031 9.863281 C 11.378906 9.878906 10.8125 10.035156 10.8125 10.207031 C 10.804688 10.429688 11.796875 10.640625 12.390625 10.710938 C 12.980469 10.785156 13.480469 10.753906 13.816406 10.71875 " fill-opacity="1" fill-rule="nonzero"/><path fill="#ffffff" d="M 14.285156 11.199219 C 14.414062 11.402344 14.601562 11.675781 14.84375 11.976562 C 14.960938 12.121094 15.3125 12.550781 15.71875 12.898438 C 16.351562 13.441406 17.417969 14.042969 17.640625 13.8125 C 17.851562 13.59375 17.339844 12.542969 16.527344 12.015625 C 16.261719 11.839844 15.984375 11.738281 15.5 11.5625 C 15.007812 11.382812 14.585938 11.269531 14.285156 11.199219 " fill-opacity="1" fill-rule="nonzero"/><path fill="#8875a4" d="M 11.324219 8.007812 C 11.304688 8.007812 11.285156 8 11.269531 7.984375 C 10.097656 6.71875 9.832031 6.339844 9.976562 6.152344 C 10.011719 6.105469 10.070312 6.078125 10.15625 6.066406 C 10.539062 6.027344 11.527344 6.367188 12.386719 7.109375 C 12.417969 7.136719 12.421875 7.183594 12.394531 7.214844 C 12.367188 7.242188 12.324219 7.246094 12.292969 7.222656 C 11.472656 6.515625 10.519531 6.175781 10.171875 6.214844 C 10.109375 6.21875 10.09375 6.238281 10.089844 6.238281 C 10.085938 6.246094 10.046875 6.320312 10.339844 6.703125 C 10.535156 6.957031 10.835938 7.300781 11.375 7.886719 C 11.402344 7.914062 11.402344 7.960938 11.371094 7.988281 C 11.359375 8 11.339844 8.007812 11.324219 8.007812 " fill-opacity="1" fill-rule="nonzero"/><path fill="#8875a4" d="M 14.789062 5.691406 C 14.78125 5.691406 14.769531 5.691406 14.761719 5.6875 C 14.722656 5.671875 14.707031 5.628906 14.722656 5.589844 C 14.871094 5.238281 15.125 4.726562 15.464844 4.28125 C 16.324219 3.152344 16.585938 3.273438 16.671875 3.3125 C 16.90625 3.421875 16.878906 3.878906 16.757812 4.636719 C 16.753906 4.675781 16.714844 4.703125 16.675781 4.699219 C 16.636719 4.691406 16.609375 4.65625 16.613281 4.613281 C 16.664062 4.316406 16.789062 3.527344 16.613281 3.445312 C 16.570312 3.425781 16.332031 3.382812 15.578125 4.367188 C 15.25 4.800781 15.003906 5.304688 14.855469 5.648438 C 14.84375 5.675781 14.816406 5.691406 14.789062 5.691406 " fill-opacity="1" fill-rule="nonzero"/><path fill="#8875a4" d="M 12.550781 12.71875 C 12.636719 12.808594 13.019531 13.238281 13.019531 13.898438 C 13.015625 14.550781 12.640625 15.171875 12.488281 15.132812 C 12.359375 15.101562 12.304688 14.585938 12.550781 12.71875 " fill-opacity="1" fill-rule="nonzero"/><path fill="#cbacf9" d="M 12.601562 12.890625 C 12.367188 14.738281 12.464844 15.019531 12.507812 15.0625 C 12.597656 15.042969 12.945312 14.527344 12.945312 13.898438 C 12.945312 13.433594 12.75 13.085938 12.601562 12.890625 Z M 12.507812 15.0625 L 12.511719 15.0625 Z M 12.5 15.207031 C 12.492188 15.207031 12.480469 15.207031 12.46875 15.203125 C 12.320312 15.167969 12.183594 14.941406 12.480469 12.707031 C 12.484375 12.679688 12.503906 12.65625 12.527344 12.648438 C 12.554688 12.640625 12.585938 12.648438 12.605469 12.667969 C 12.75 12.824219 13.09375 13.257812 13.089844 13.898438 C 13.089844 14.476562 12.816406 15.007812 12.625 15.15625 C 12.582031 15.191406 12.542969 15.207031 12.5 15.207031 " fill-opacity="1" fill-rule="nonzero"/><path fill="#8875a4" d="M 12.414062 12.195312 C 12.023438 12.664062 11.398438 13.296875 10.488281 13.820312 C 9.480469 14.402344 8.121094 14.851562 7.964844 14.585938 C 7.835938 14.371094 8.535156 13.71875 8.894531 13.425781 C 9.417969 13 10.519531 12.285156 12.414062 12.195312 " fill-opacity="1" fill-rule="nonzero"/><path fill="#cbacf9" d="M 12.246094 12.277344 C 10.941406 12.367188 9.800781 12.785156 8.9375 13.484375 C 8.382812 13.933594 7.957031 14.433594 8.027344 14.550781 C 8.128906 14.71875 9.339844 14.398438 10.453125 13.757812 C 11.121094 13.375 11.722656 12.875 12.246094 12.277344 Z M 8.203125 14.734375 C 8.054688 14.734375 7.945312 14.699219 7.902344 14.625 C 7.714844 14.3125 8.65625 13.523438 8.847656 13.371094 C 9.769531 12.621094 11.003906 12.1875 12.410156 12.121094 C 12.4375 12.121094 12.46875 12.136719 12.480469 12.160156 C 12.492188 12.1875 12.488281 12.21875 12.46875 12.242188 C 11.910156 12.910156 11.253906 13.464844 10.523438 13.886719 C 9.796875 14.304688 8.734375 14.734375 8.203125 14.734375 " fill-opacity="1" fill-rule="nonzero"/><path fill="#8875a4" d="M 12.3125 11.800781 C 11.925781 11.347656 11.28125 10.722656 10.332031 10.304688 C 8.304688 9.40625 5.976562 9.917969 5.9375 10.304688 C 5.917969 10.511719 6.574219 10.515625 8.40625 11.359375 C 9.625 11.917969 10.109375 12.273438 10.933594 12.234375 C 11.527344 12.203125 12 11.984375 12.3125 11.800781 " fill-opacity="1" fill-rule="nonzero"/><path fill="#cbacf9" d="M 7.859375 9.878906 C 7.074219 9.878906 6.425781 10.019531 6.136719 10.191406 C 6.046875 10.242188 6.011719 10.289062 6.011719 10.3125 C 6.007812 10.359375 6.230469 10.433594 6.492188 10.523438 C 6.871094 10.652344 7.507812 10.867188 8.433594 11.292969 C 8.695312 11.410156 8.921875 11.523438 9.121094 11.621094 C 9.878906 11.988281 10.296875 12.191406 10.929688 12.160156 C 11.359375 12.136719 11.785156 12.011719 12.199219 11.78125 C 11.652344 11.160156 11.015625 10.6875 10.300781 10.371094 C 9.484375 10.007812 8.609375 9.878906 7.859375 9.878906 Z M 10.804688 12.308594 C 10.207031 12.308594 9.761719 12.09375 9.058594 11.75 C 8.859375 11.652344 8.632812 11.542969 8.375 11.425781 C 7.453125 11.003906 6.824219 10.789062 6.445312 10.660156 C 6.011719 10.515625 5.851562 10.457031 5.867188 10.296875 C 5.875 10.214844 5.941406 10.136719 6.066406 10.066406 C 6.667969 9.710938 8.621094 9.46875 10.359375 10.238281 C 11.121094 10.574219 11.796875 11.082031 12.367188 11.753906 C 12.378906 11.769531 12.386719 11.792969 12.382812 11.8125 C 12.378906 11.835938 12.367188 11.855469 12.347656 11.863281 C 11.890625 12.132812 11.417969 12.28125 10.9375 12.304688 C 10.894531 12.308594 10.847656 12.308594 10.804688 12.308594 " fill-opacity="1" fill-rule="nonzero"/><path fill="#8875a4" d="M 12.691406 11.761719 C 13.171875 11.285156 13.996094 10.609375 15.179688 10.289062 C 15.925781 10.085938 17.105469 9.941406 17.226562 10.25 C 17.351562 10.582031 16.265625 11.457031 15.09375 11.785156 C 14.09375 12.066406 13.207031 11.902344 12.691406 11.761719 " fill-opacity="1" fill-rule="nonzero"/><path fill="#cbacf9" d="M 12.835938 11.722656 C 13.609375 11.917969 14.363281 11.917969 15.074219 11.714844 C 16.011719 11.453125 16.929688 10.816406 17.128906 10.421875 C 17.160156 10.359375 17.171875 10.3125 17.15625 10.277344 C 17.078125 10.070312 16.109375 10.113281 15.199219 10.359375 C 14.332031 10.59375 13.539062 11.054688 12.835938 11.722656 Z M 13.964844 12.015625 C 13.542969 12.015625 13.113281 11.953125 12.671875 11.832031 C 12.648438 11.824219 12.628906 11.804688 12.621094 11.777344 C 12.617188 11.753906 12.625 11.726562 12.640625 11.707031 C 13.382812 10.972656 14.230469 10.472656 15.164062 10.21875 C 15.792969 10.046875 17.140625 9.824219 17.292969 10.226562 C 17.320312 10.296875 17.308594 10.386719 17.261719 10.488281 C 17.046875 10.910156 16.113281 11.574219 15.113281 11.855469 C 14.742188 11.960938 14.359375 12.015625 13.964844 12.015625 " fill-opacity="1" fill-rule="nonzero"/><path fill="#ffffff" d="M 25.566406 4.136719 L 26.019531 4.238281 L 26 3.945312 Z M 26.09375 4.402344 C 26.089844 4.402344 26.085938 4.402344 26.078125 4.402344 L 25.316406 4.230469 C 25.285156 4.222656 25.265625 4.199219 25.261719 4.167969 C 25.257812 4.136719 25.273438 4.105469 25.304688 4.09375 L 26.039062 3.769531 C 26.0625 3.757812 26.085938 3.761719 26.105469 3.773438 C 26.128906 3.785156 26.140625 3.808594 26.140625 3.832031 L 26.167969 4.328125 C 26.167969 4.347656 26.160156 4.371094 26.144531 4.386719 C 26.128906 4.398438 26.113281 4.402344 26.09375 4.402344 " fill-opacity="1" fill-rule="nonzero"/><path fill="#ffffff" d="M 36.910156 5.234375 C 36.898438 5.234375 36.890625 5.230469 36.882812 5.226562 C 36.226562 4.964844 35.542969 4.738281 34.84375 4.550781 C 32.335938 3.878906 29.710938 3.742188 27.046875 4.136719 C 27.007812 4.144531 26.96875 4.117188 26.964844 4.078125 C 26.957031 4.035156 26.984375 4 27.027344 3.996094 C 29.710938 3.59375 32.351562 3.734375 34.882812 4.410156 C 35.585938 4.597656 36.277344 4.828125 36.9375 5.09375 C 36.972656 5.109375 36.992188 5.148438 36.976562 5.1875 C 36.964844 5.214844 36.9375 5.234375 36.910156 5.234375 " fill-opacity="1" fill-rule="nonzero"/><path fill="#ffffff" d="M 40.410156 5.777344 C 40.394531 5.777344 40.382812 5.773438 40.371094 5.765625 C 38.867188 4.804688 37.191406 4.070312 35.386719 3.589844 C 35.042969 3.496094 34.691406 3.414062 34.34375 3.34375 C 34.304688 3.335938 34.277344 3.296875 34.285156 3.257812 C 34.296875 3.214844 34.332031 3.191406 34.375 3.199219 C 34.726562 3.273438 35.078125 3.355469 35.421875 3.449219 C 37.246094 3.933594 38.933594 4.675781 40.449219 5.644531 C 40.480469 5.667969 40.492188 5.710938 40.46875 5.746094 C 40.457031 5.765625 40.433594 5.777344 40.410156 5.777344 " fill-opacity="1" fill-rule="nonzero"/><path fill="#ffffff" d="M 24.390625 3.613281 C 24.359375 3.613281 24.332031 3.589844 24.320312 3.558594 C 24.3125 3.519531 24.332031 3.480469 24.371094 3.46875 C 26.957031 2.726562 29.574219 2.472656 32.15625 2.714844 C 32.195312 2.71875 32.222656 2.753906 32.21875 2.792969 C 32.214844 2.832031 32.179688 2.863281 32.140625 2.859375 C 29.578125 2.621094 26.976562 2.875 24.414062 3.609375 C 24.40625 3.609375 24.398438 3.613281 24.390625 3.613281 " fill-opacity="1" fill-rule="nonzero"/><path fill="#ffffff" d="M 42.566406 9.007812 C 42.523438 9.007812 42.492188 8.976562 42.492188 8.9375 L 42.492188 8.636719 C 42.492188 8.597656 42.523438 8.566406 42.566406 8.566406 C 42.605469 8.566406 42.636719 8.597656 42.636719 8.636719 L 42.636719 8.9375 C 42.636719 8.976562 42.605469 9.007812 42.566406 9.007812 " fill-opacity="1" fill-rule="nonzero"/><path fill="#ffffff" d="M 42.5625 7.964844 C 42.523438 7.964844 42.492188 7.929688 42.492188 7.890625 L 42.492188 7.59375 C 42.492188 7.550781 42.523438 7.519531 42.5625 7.519531 C 42.605469 7.519531 42.636719 7.550781 42.636719 7.589844 L 42.636719 7.890625 C 42.636719 7.929688 42.605469 7.964844 42.5625 7.964844 " fill-opacity="1" fill-rule="nonzero"/><path fill="#ffffff" d="M 43.238281 8.335938 L 42.9375 8.335938 C 42.898438 8.335938 42.867188 8.304688 42.867188 8.265625 C 42.867188 8.222656 42.898438 8.191406 42.9375 8.191406 L 43.238281 8.191406 C 43.277344 8.191406 43.308594 8.222656 43.308594 8.265625 C 43.308594 8.304688 43.277344 8.335938 43.238281 8.335938 " fill-opacity="1" fill-rule="nonzero"/><path fill="#ffffff" d="M 42.191406 8.335938 L 41.890625 8.335938 C 41.851562 8.335938 41.820312 8.304688 41.820312 8.265625 C 41.820312 8.222656 41.851562 8.191406 41.890625 8.191406 L 42.191406 8.191406 C 42.230469 8.191406 42.265625 8.222656 42.265625 8.265625 C 42.265625 8.304688 42.230469 8.335938 42.191406 8.335938 " fill-opacity="1" fill-rule="nonzero"/><path fill="#ffffff" d="M 41.265625 6.183594 C 41.070312 6.183594 40.914062 6.339844 40.914062 6.53125 C 40.914062 6.722656 41.070312 6.878906 41.265625 6.878906 C 41.457031 6.878906 41.613281 6.722656 41.613281 6.53125 C 41.613281 6.339844 41.457031 6.183594 41.265625 6.183594 Z M 41.265625 7.027344 C 40.992188 7.027344 40.769531 6.804688 40.769531 6.53125 C 40.769531 6.257812 40.992188 6.035156 41.265625 6.035156 C 41.539062 6.035156 41.761719 6.257812 41.761719 6.53125 C 41.761719 6.804688 41.539062 7.027344 41.265625 7.027344 " fill-opacity="1" fill-rule="nonzero"/><path fill="#ffffff" d="M 29.6875 35.613281 C 29.722656 36.097656 29.835938 39.222656 26.953125 41.335938 C 26.945312 41.34375 26.929688 41.347656 26.917969 41.347656 C 26.632812 41.335938 23.320312 41.105469 20.457031 37.3125 C 20.4375 37.285156 20.445312 37.242188 20.480469 37.226562 C 20.902344 37.042969 23.230469 35.976562 23.964844 34.53125 C 23.980469 34.496094 24.027344 34.488281 24.054688 34.515625 C 24.375 34.820312 26.117188 36.273438 29.617188 35.5625 C 29.652344 35.554688 29.683594 35.578125 29.6875 35.613281 " fill-opacity="1" fill-rule="nonzero"/><path fill="#000000" d="M 20.527344 37.285156 C 21.714844 38.855469 23.113281 39.996094 24.683594 40.679688 C 25.871094 41.199219 26.738281 41.265625 26.914062 41.273438 C 28.113281 40.394531 28.933594 39.238281 29.34375 37.84375 C 29.660156 36.777344 29.632812 35.90625 29.617188 35.636719 C 28.945312 35.773438 28.335938 35.828125 27.789062 35.828125 C 25.511719 35.828125 24.308594 34.851562 24.019531 34.582031 C 23.277344 36.015625 21.023438 37.066406 20.527344 37.285156 Z M 26.921875 41.417969 C 26.917969 41.417969 26.917969 41.417969 26.914062 41.417969 C 26.550781 41.402344 23.261719 41.152344 20.398438 37.359375 C 20.375 37.324219 20.367188 37.285156 20.378906 37.246094 C 20.386719 37.207031 20.414062 37.175781 20.449219 37.160156 C 20.898438 36.964844 23.179688 35.914062 23.898438 34.496094 C 23.917969 34.460938 23.953125 34.433594 23.992188 34.429688 C 24.035156 34.421875 24.074219 34.433594 24.105469 34.460938 C 24.414062 34.757812 26.132812 36.195312 29.605469 35.492188 C 29.640625 35.484375 29.679688 35.492188 29.707031 35.515625 C 29.738281 35.535156 29.757812 35.570312 29.757812 35.609375 C 29.777344 35.859375 29.816406 36.769531 29.484375 37.886719 C 29.0625 39.3125 28.226562 40.496094 26.996094 41.394531 C 26.976562 41.410156 26.949219 41.417969 26.921875 41.417969 " fill-opacity="1" fill-rule="nonzero"/><path fill="#000000" d="M 21.703125 37.503906 C 21.675781 37.503906 21.648438 37.488281 21.636719 37.460938 C 21.621094 37.425781 21.636719 37.382812 21.671875 37.363281 C 23.089844 36.703125 24.234375 35.359375 24.246094 35.347656 C 24.269531 35.316406 24.316406 35.3125 24.347656 35.339844 C 24.378906 35.363281 24.382812 35.410156 24.355469 35.441406 C 24.34375 35.453125 23.179688 36.820312 21.734375 37.496094 C 21.722656 37.5 21.714844 37.503906 21.703125 37.503906 " fill-opacity="1" fill-rule="nonzero"/><path fill="#000000" d="M 22.269531 38.25 C 22.246094 38.25 22.21875 38.234375 22.207031 38.210938 C 22.1875 38.175781 22.203125 38.132812 22.238281 38.113281 C 22.886719 37.78125 23.496094 37.289062 24.050781 36.65625 C 24.078125 36.625 24.121094 36.625 24.152344 36.648438 C 24.183594 36.675781 24.1875 36.722656 24.160156 36.753906 C 23.59375 37.398438 22.96875 37.902344 22.304688 38.242188 C 22.292969 38.246094 22.28125 38.25 22.269531 38.25 " fill-opacity="1" fill-rule="nonzero"/><path fill="#000000" d="M 24.476562 36.316406 C 24.464844 36.316406 24.449219 36.3125 24.433594 36.300781 C 24.402344 36.277344 24.394531 36.230469 24.417969 36.199219 C 24.664062 35.875 24.792969 35.644531 24.792969 35.640625 C 24.8125 35.605469 24.855469 35.59375 24.890625 35.613281 C 24.925781 35.632812 24.9375 35.675781 24.917969 35.710938 C 24.914062 35.722656 24.785156 35.953125 24.535156 36.285156 C 24.523438 36.304688 24.5 36.316406 24.476562 36.316406 " fill-opacity="1" fill-rule="nonzero"/><path fill="#000000" d="M 23.113281 38.878906 C 23.089844 38.878906 23.066406 38.867188 23.054688 38.847656 C 23.03125 38.816406 23.035156 38.769531 23.070312 38.746094 C 24.761719 37.519531 25.394531 35.953125 25.398438 35.9375 C 25.414062 35.898438 25.457031 35.882812 25.496094 35.898438 C 25.53125 35.910156 25.550781 35.953125 25.535156 35.992188 C 25.53125 36.007812 24.882812 37.613281 23.15625 38.863281 C 23.140625 38.875 23.128906 38.878906 23.113281 38.878906 " fill-opacity="1" fill-rule="nonzero"/><path fill="#000000" d="M 23.878906 39.441406 C 23.859375 39.441406 23.839844 39.429688 23.824219 39.414062 C 23.796875 39.382812 23.800781 39.339844 23.832031 39.3125 C 25.546875 37.839844 26.046875 36.117188 26.050781 36.097656 C 26.0625 36.0625 26.101562 36.039062 26.140625 36.050781 C 26.179688 36.058594 26.203125 36.101562 26.191406 36.140625 C 26.1875 36.15625 25.675781 37.925781 23.925781 39.421875 C 23.914062 39.433594 23.898438 39.441406 23.878906 39.441406 " fill-opacity="1" fill-rule="nonzero"/><path fill="#000000" d="M 24.808594 39.910156 C 24.789062 39.910156 24.769531 39.898438 24.753906 39.882812 C 24.730469 39.851562 24.734375 39.804688 24.761719 39.78125 C 25.070312 39.523438 25.351562 39.21875 25.605469 38.875 C 25.628906 38.839844 25.675781 38.835938 25.707031 38.859375 C 25.738281 38.882812 25.746094 38.929688 25.722656 38.960938 C 25.460938 39.3125 25.171875 39.628906 24.855469 39.890625 C 24.84375 39.902344 24.828125 39.910156 24.808594 39.910156 " fill-opacity="1" fill-rule="nonzero"/><path fill="#000000" d="M 26.050781 38.398438 C 26.039062 38.398438 26.027344 38.394531 26.015625 38.386719 C 25.980469 38.367188 25.96875 38.324219 25.988281 38.289062 C 26.589844 37.246094 26.773438 36.265625 26.773438 36.257812 C 26.78125 36.21875 26.820312 36.191406 26.859375 36.199219 C 26.898438 36.207031 26.925781 36.242188 26.917969 36.285156 C 26.914062 36.292969 26.726562 37.296875 26.113281 38.359375 C 26.101562 38.382812 26.074219 38.398438 26.050781 38.398438 " fill-opacity="1" fill-rule="nonzero"/><path fill="#ffffff" d="M 10.878906 31.390625 C 10.941406 31.820312 11.449219 34.558594 14.367188 35.835938 C 14.375 35.84375 14.386719 35.84375 14.398438 35.839844 C 14.644531 35.773438 17.480469 34.933594 19.234375 31.078125 C 19.246094 31.050781 19.230469 31.015625 19.199219 31.007812 C 18.796875 30.929688 16.566406 30.453125 15.644531 29.339844 C 15.621094 29.3125 15.582031 29.3125 15.5625 29.34375 C 15.34375 29.671875 14.113281 31.273438 10.929688 31.332031 C 10.898438 31.335938 10.875 31.363281 10.878906 31.390625 " fill-opacity="1" fill-rule="nonzero"/><path fill="#000000" d="M 10.949219 31.382812 Z M 10.953125 31.40625 C 10.992188 31.652344 11.140625 32.40625 11.613281 33.261719 C 12.242188 34.394531 13.175781 35.234375 14.386719 35.765625 C 14.730469 35.671875 17.441406 34.820312 19.15625 31.074219 C 18.664062 30.976562 16.53125 30.5 15.605469 29.40625 C 15.347656 29.785156 14.082031 31.339844 10.953125 31.40625 Z M 14.386719 35.914062 C 14.367188 35.914062 14.351562 35.910156 14.335938 35.902344 C 11.414062 34.625 10.882812 31.929688 10.804688 31.402344 C 10.800781 31.367188 10.8125 31.332031 10.835938 31.304688 C 10.855469 31.277344 10.890625 31.261719 10.925781 31.261719 C 14.078125 31.199219 15.292969 29.617188 15.503906 29.300781 C 15.523438 29.269531 15.558594 29.25 15.597656 29.246094 C 15.636719 29.246094 15.675781 29.261719 15.699219 29.292969 C 16.601562 30.382812 18.785156 30.851562 19.210938 30.9375 C 19.25 30.941406 19.28125 30.964844 19.296875 31 C 19.316406 31.035156 19.316406 31.074219 19.300781 31.109375 C 17.546875 34.964844 14.734375 35.824219 14.417969 35.910156 C 14.40625 35.914062 14.398438 35.914062 14.386719 35.914062 " fill-opacity="1" fill-rule="nonzero"/><path fill="#000000" d="M 18.171875 31.496094 C 18.167969 31.496094 18.164062 31.492188 18.15625 31.492188 C 16.769531 31.1875 15.488281 30.222656 15.476562 30.214844 C 15.445312 30.1875 15.4375 30.144531 15.460938 30.113281 C 15.484375 30.078125 15.53125 30.074219 15.5625 30.097656 C 15.574219 30.105469 16.832031 31.050781 18.1875 31.351562 C 18.230469 31.359375 18.253906 31.398438 18.246094 31.4375 C 18.238281 31.472656 18.207031 31.496094 18.171875 31.496094 " fill-opacity="1" fill-rule="nonzero"/><path fill="#000000" d="M 17.824219 32.253906 C 17.820312 32.253906 17.8125 32.253906 17.808594 32.253906 C 17.160156 32.085938 16.519531 31.769531 15.902344 31.316406 C 15.867188 31.292969 15.863281 31.246094 15.886719 31.214844 C 15.910156 31.179688 15.953125 31.175781 15.988281 31.199219 C 16.589844 31.640625 17.214844 31.949219 17.84375 32.109375 C 17.882812 32.121094 17.90625 32.160156 17.894531 32.199219 C 17.886719 32.234375 17.859375 32.253906 17.824219 32.253906 " fill-opacity="1" fill-rule="nonzero"/><path fill="#000000" d="M 15.53125 31 C 15.511719 31 15.496094 30.996094 15.480469 30.984375 C 15.199219 30.738281 15.042969 30.566406 15.035156 30.558594 C 15.011719 30.527344 15.011719 30.480469 15.042969 30.453125 C 15.074219 30.429688 15.117188 30.429688 15.144531 30.460938 C 15.148438 30.460938 15.304688 30.636719 15.578125 30.871094 C 15.609375 30.898438 15.613281 30.945312 15.585938 30.976562 C 15.570312 30.992188 15.550781 31 15.53125 31 " fill-opacity="1" fill-rule="nonzero"/><path fill="#000000" d="M 17.214844 32.964844 C 17.207031 32.964844 17.195312 32.960938 17.1875 32.957031 C 15.4375 32.203125 14.5625 30.929688 14.554688 30.917969 C 14.53125 30.886719 14.542969 30.839844 14.574219 30.816406 C 14.609375 30.796875 14.652344 30.804688 14.675781 30.835938 C 14.683594 30.847656 15.539062 32.089844 17.246094 32.824219 C 17.28125 32.839844 17.296875 32.882812 17.28125 32.921875 C 17.269531 32.949219 17.242188 32.964844 17.214844 32.964844 " fill-opacity="1" fill-rule="nonzero"/><path fill="#000000" d="M 16.65625 33.601562 C 16.644531 33.601562 16.632812 33.597656 16.621094 33.59375 C 14.808594 32.628906 14.019531 31.1875 14.011719 31.175781 C 13.992188 31.136719 14.007812 31.09375 14.042969 31.074219 C 14.078125 31.054688 14.121094 31.070312 14.140625 31.105469 C 14.148438 31.117188 14.917969 32.519531 16.691406 33.464844 C 16.726562 33.484375 16.738281 33.527344 16.722656 33.5625 C 16.707031 33.585938 16.683594 33.601562 16.65625 33.601562 " fill-opacity="1" fill-rule="nonzero"/><path fill="#000000" d="M 15.9375 34.191406 C 15.925781 34.191406 15.914062 34.1875 15.90625 34.179688 C 15.582031 34.011719 15.265625 33.796875 14.96875 33.539062 C 14.941406 33.511719 14.9375 33.464844 14.964844 33.4375 C 14.988281 33.40625 15.035156 33.402344 15.066406 33.429688 C 15.351562 33.679688 15.65625 33.886719 15.972656 34.050781 C 16.007812 34.070312 16.023438 34.113281 16.003906 34.152344 C 15.992188 34.175781 15.964844 34.191406 15.9375 34.191406 " fill-opacity="1" fill-rule="nonzero"/><path fill="#000000" d="M 14.566406 33.117188 C 14.546875 33.117188 14.527344 33.109375 14.511719 33.09375 C 13.769531 32.285156 13.425781 31.472656 13.410156 31.441406 C 13.394531 31.402344 13.410156 31.359375 13.449219 31.34375 C 13.484375 31.328125 13.527344 31.347656 13.542969 31.382812 C 13.546875 31.390625 13.894531 32.207031 14.621094 32.992188 C 14.648438 33.023438 14.644531 33.070312 14.617188 33.097656 C 14.601562 33.109375 14.585938 33.117188 14.566406 33.117188 " fill-opacity="1" fill-rule="nonzero"/></svg>