<svg xmlns="http://www.w3.org/2000/svg" xmlns:xlink="http://www.w3.org/1999/xlink" width="64" zoomAndPan="magnify" viewBox="0 0 48 44.249999" height="59" preserveAspectRatio="xMidYMid meet" version="1.0"><defs><clipPath id="1da923297a"><path d="M 2.574219 0.195312 L 45.351562 0.195312 L 45.351562 42.972656 L 2.574219 42.972656 Z M 2.574219 0.195312 " clip-rule="nonzero"/></clipPath></defs><g clip-path="url(#1da923297a)"><path fill="#fefefe" d="M 15.613281 24.726562 C 16.589844 23.484375 17.171875 21.917969 17.171875 20.214844 C 17.171875 16.1875 13.910156 12.925781 9.882812 12.925781 C 5.855469 12.925781 2.59375 16.1875 2.59375 20.214844 C 2.59375 24.242188 5.855469 27.503906 9.882812 27.503906 C 11.640625 27.503906 13.253906 26.882812 14.511719 25.847656 C 14.546875 25.816406 14.601562 25.820312 14.636719 25.851562 L 17.5625 28.644531 C 17.582031 28.664062 17.589844 28.6875 17.589844 28.714844 L 17.589844 31.976562 C 17.589844 32.011719 17.609375 32.039062 17.636719 32.054688 C 17.664062 32.074219 17.695312 32.074219 17.726562 32.0625 L 18.941406 31.46875 C 18.972656 31.453125 18.992188 31.421875 18.992188 31.382812 L 18.992188 28.371094 C 18.992188 28.171875 18.910156 27.992188 18.777344 27.863281 L 15.621094 24.851562 C 15.585938 24.816406 15.582031 24.761719 15.613281 24.726562 Z M 12.09375 43.230469 L 12.09375 33.042969 C 12.09375 33.003906 12.058594 32.96875 12.019531 32.96875 L 9.625 32.96875 C 9.585938 32.96875 9.554688 33.003906 9.554688 33.042969 L 9.554688 43.230469 C 9.554688 43.269531 9.585938 43.304688 9.625 43.304688 L 12.019531 43.304688 C 12.058594 43.304688 12.09375 43.269531 12.09375 43.230469 Z M 16.46875 33.910156 C 17.148438 33.761719 18.433594 33.132812 19.65625 32.546875 C 21.742188 31.546875 22.269531 31.433594 23.707031 31.714844 C 23.714844 31.714844 23.71875 31.714844 23.726562 31.71875 C 23.808594 31.753906 23.898438 31.773438 23.992188 31.773438 C 24 31.773438 24.003906 31.777344 24.011719 31.777344 L 24.609375 31.902344 C 25.648438 32.128906 29.28125 32.804688 29.28125 33.957031 C 29.28125 34.144531 29.273438 34.246094 29.214844 34.433594 C 29.121094 34.730469 29.097656 34.667969 28.988281 34.792969 C 28.65625 35.164062 28.175781 35.355469 27.667969 35.316406 L 21.527344 34.820312 C 21.140625 34.792969 20.800781 35.082031 20.769531 35.46875 C 20.738281 35.855469 21.027344 36.195312 21.417969 36.222656 L 27.558594 36.71875 C 28.03125 36.753906 28.492188 36.679688 28.910156 36.511719 C 29.253906 36.375 29.570312 36.175781 29.835938 35.929688 C 29.84375 35.921875 29.851562 35.917969 29.859375 35.910156 C 29.882812 35.902344 29.90625 35.890625 29.925781 35.875 C 29.929688 35.875 29.929688 35.875 29.929688 35.875 L 37.585938 31.429688 C 37.984375 31.199219 38.445312 31.144531 38.871094 31.25 C 40.3125 31.605469 40.589844 33.457031 39.320312 34.203125 C 35.585938 36.398438 27.0625 41.773438 24.929688 41.648438 C 21.128906 41.429688 17.332031 40.738281 13.609375 41.28125 C 13.578125 41.285156 13.554688 41.277344 13.53125 41.257812 C 13.511719 41.238281 13.5 41.214844 13.5 41.1875 L 13.5 34.371094 C 13.5 34.324219 13.539062 34.28125 13.589844 34.28125 C 14.554688 34.222656 15.527344 34.113281 16.46875 33.910156 Z M 30.832031 20.214844 C 30.832031 21.917969 31.414062 23.484375 32.394531 24.726562 C 32.425781 24.761719 32.421875 24.816406 32.386719 24.851562 L 29.265625 27.828125 C 29.265625 27.828125 29.265625 27.828125 29.261719 27.832031 C 29.109375 27.960938 29.007812 28.15625 29.007812 28.371094 L 29.007812 31.820312 C 29.007812 31.859375 29.03125 31.890625 29.0625 31.90625 C 29.488281 32.101562 29.902344 32.339844 30.257812 32.636719 C 30.285156 32.660156 30.324219 32.664062 30.355469 32.648438 C 30.390625 32.632812 30.410156 32.601562 30.410156 32.5625 L 30.417969 28.710938 C 30.417969 28.683594 30.425781 28.660156 30.445312 28.644531 L 33.371094 25.851562 C 33.402344 25.820312 33.457031 25.816406 33.492188 25.847656 C 34.753906 26.882812 36.363281 27.503906 38.121094 27.503906 C 42.148438 27.503906 45.414062 24.242188 45.414062 20.214844 C 45.414062 16.1875 42.148438 12.925781 38.121094 12.925781 C 34.097656 12.925781 30.832031 16.1875 30.832031 20.214844 Z M 35.152344 23.628906 L 35.152344 18.625 C 35.152344 18.574219 35.191406 18.53125 35.246094 18.53125 L 36.539062 18.53125 C 36.589844 18.53125 36.632812 18.488281 36.632812 18.4375 L 36.632812 16.800781 C 36.632812 16.167969 37.152344 15.648438 37.785156 15.648438 C 38.421875 15.648438 38.941406 16.167969 38.941406 16.800781 L 38.941406 18.4375 C 38.941406 18.488281 38.980469 18.53125 39.035156 18.53125 L 39.804688 18.53125 C 41.230469 18.53125 42.398438 19.699219 42.398438 21.125 C 42.398438 22.554688 41.230469 23.722656 39.804688 23.722656 L 35.246094 23.722656 C 35.191406 23.722656 35.152344 23.679688 35.152344 23.628906 Z M 24.789062 14.738281 C 24.742188 14.742188 24.707031 14.78125 24.707031 14.832031 L 24.707031 30.566406 C 24.707031 30.59375 24.695312 30.621094 24.671875 30.640625 C 24.648438 30.65625 24.621094 30.664062 24.59375 30.65625 L 24.121094 30.558594 C 24.117188 30.558594 24.117188 30.558594 24.117188 30.558594 L 23.378906 30.449219 C 23.332031 30.441406 23.300781 30.402344 23.300781 30.355469 L 23.300781 14.832031 C 23.300781 14.78125 23.261719 14.742188 23.214844 14.738281 C 19.558594 14.34375 16.710938 11.25 16.710938 7.488281 C 16.710938 3.464844 19.976562 0.199219 24.003906 0.199219 C 28.027344 0.199219 31.292969 3.464844 31.292969 7.488281 C 31.292969 11.25 28.445312 14.34375 24.789062 14.738281 Z M 28.085938 7.570312 C 28.117188 7.554688 28.132812 7.523438 28.132812 7.488281 C 28.132812 7.453125 28.117188 7.425781 28.085938 7.410156 L 22.058594 3.929688 C 22.027344 3.910156 21.996094 3.910156 21.964844 3.929688 C 21.933594 3.945312 21.917969 3.976562 21.917969 4.007812 L 21.917969 10.96875 C 21.917969 11.003906 21.933594 11.035156 21.964844 11.050781 C 21.996094 11.066406 22.027344 11.066406 22.058594 11.050781 Z M 11.472656 16.964844 C 12.640625 16.964844 13.589844 17.914062 13.589844 19.082031 C 13.589844 20.988281 11.605469 23.15625 9.921875 23.917969 C 9.894531 23.929688 9.871094 23.929688 9.84375 23.917969 C 8.160156 23.15625 6.175781 20.988281 6.175781 19.082031 C 6.175781 17.914062 7.125 16.964844 8.292969 16.964844 C 8.890625 16.964844 9.429688 17.214844 9.816406 17.613281 C 9.832031 17.632812 9.855469 17.644531 9.882812 17.644531 C 9.910156 17.644531 9.933594 17.632812 9.949219 17.613281 C 10.335938 17.214844 10.875 16.964844 11.472656 16.964844 Z M 11.472656 16.964844 " fill-opacity="1" fill-rule="evenodd"/></g></svg>