<svg xmlns="http://www.w3.org/2000/svg" xmlns:xlink="http://www.w3.org/1999/xlink" width="64" zoomAndPan="magnify" viewBox="0 0 48 44.249999" height="59" preserveAspectRatio="xMidYMid meet" version="1.0"><defs><clipPath id="b17f5f25e2"><path d="M 24.09375 20.015625 L 47.597656 20.015625 L 47.597656 42.742188 L 24.09375 42.742188 Z M 24.09375 20.015625 " clip-rule="nonzero"/></clipPath><clipPath id="8f7ac8b83e"><path d="M 0.398438 0.753906 L 31 0.753906 L 31 39 L 0.398438 39 Z M 0.398438 0.753906 " clip-rule="nonzero"/></clipPath></defs><g clip-path="url(#b17f5f25e2)"><path fill="#fefefe" d="M 41.617188 40.320312 L 37.125 38.03125 C 36.398438 37.660156 35.535156 37.671875 34.820312 38.058594 L 30.386719 40.460938 C 30.304688 40.503906 30.222656 40.5 30.148438 40.445312 C 30.070312 40.390625 30.039062 40.316406 30.054688 40.226562 L 30.84375 35.246094 C 30.972656 34.441406 30.695312 33.625 30.105469 33.0625 L 26.453125 29.589844 C 26.382812 29.523438 26.363281 29.445312 26.390625 29.359375 C 26.417969 29.269531 26.480469 29.214844 26.574219 29.203125 L 31.554688 28.414062 C 32.359375 28.289062 33.050781 27.773438 33.402344 27.035156 L 35.578125 22.488281 C 35.617188 22.402344 35.683594 22.359375 35.777344 22.359375 C 35.777344 22.359375 35.78125 22.359375 35.78125 22.359375 C 35.871094 22.359375 35.9375 22.402344 35.980469 22.484375 L 38.269531 26.976562 C 38.636719 27.703125 39.34375 28.203125 40.152344 28.308594 L 45.148438 28.972656 C 45.242188 28.984375 45.304688 29.035156 45.332031 29.125 C 45.363281 29.210938 45.34375 29.289062 45.277344 29.355469 L 41.710938 32.917969 C 41.132812 33.496094 40.878906 34.320312 41.027344 35.121094 L 41.941406 40.078125 C 41.957031 40.171875 41.929688 40.246094 41.855469 40.300781 C 41.777344 40.355469 41.699219 40.363281 41.617188 40.320312 Z M 46.871094 30.949219 C 47.542969 30.277344 47.773438 29.300781 47.46875 28.402344 C 47.164062 27.5 46.386719 26.863281 45.445312 26.738281 L 40.449219 26.074219 C 40.375 26.066406 40.308594 26.019531 40.277344 25.953125 L 37.988281 21.460938 C 37.558594 20.613281 36.679688 20.09375 35.75 20.105469 C 34.800781 20.117188 33.953125 20.660156 33.542969 21.515625 L 31.371094 26.0625 C 31.335938 26.132812 31.273438 26.179688 31.199219 26.191406 L 26.222656 26.976562 C 25.28125 27.125 24.523438 27.78125 24.242188 28.6875 C 23.957031 29.59375 24.210938 30.566406 24.898438 31.222656 L 28.550781 34.695312 C 28.605469 34.746094 28.632812 34.820312 28.621094 34.894531 L 27.828125 39.875 C 27.679688 40.8125 28.070312 41.738281 28.847656 42.285156 C 29.277344 42.589844 29.773438 42.742188 30.277344 42.742188 C 30.679688 42.742188 31.085938 42.644531 31.457031 42.441406 L 35.890625 40.039062 C 35.957031 40.003906 36.035156 40.003906 36.101562 40.039062 L 40.59375 42.328125 C 41.4375 42.761719 42.4375 42.675781 43.199219 42.109375 C 43.960938 41.539062 44.328125 40.605469 44.15625 39.671875 L 43.242188 34.710938 C 43.230469 34.640625 43.253906 34.566406 43.304688 34.511719 L 46.871094 30.949219 " fill-opacity="1" fill-rule="nonzero"/></g><g clip-path="url(#8f7ac8b83e)"><path fill="#fefefe" d="M 22.019531 17.640625 C 21.566406 17.851562 21.304688 18.328125 21.375 18.820312 C 21.441406 19.3125 21.824219 19.703125 22.316406 19.777344 C 24.355469 20.09375 26.355469 20.988281 28.265625 22.433594 C 28.761719 22.808594 29.46875 22.710938 29.84375 22.214844 C 30.21875 21.71875 30.121094 21.011719 29.625 20.636719 C 28.222656 19.574219 26.765625 18.769531 25.269531 18.226562 C 27.535156 16.332031 28.945312 13.53125 28.945312 10.65625 C 28.945312 5.199219 24.574219 0.757812 19.199219 0.757812 C 13.792969 0.757812 9.398438 5.175781 9.398438 10.605469 C 9.398438 13.554688 10.476562 16.144531 12.378906 17.929688 C 5.484375 20.027344 0.398438 26.570312 0.398438 33.882812 C 0.398438 36.207031 2.996094 38.742188 5.359375 38.742188 L 22.957031 38.742188 C 23.578125 38.742188 24.085938 38.234375 24.085938 37.609375 C 24.085938 36.988281 23.578125 36.476562 22.957031 36.476562 L 5.359375 36.476562 C 4.246094 36.476562 2.652344 34.953125 2.652344 33.875 C 2.652344 26.769531 8.210938 20.5 15.300781 19.585938 C 15.796875 19.523438 16.191406 19.148438 16.269531 18.652344 C 16.351562 18.160156 16.097656 17.675781 15.644531 17.460938 C 13.144531 16.265625 11.652344 13.703125 11.652344 10.601562 C 11.652344 6.417969 15.039062 3.011719 19.199219 3.011719 C 23.332031 3.011719 26.691406 6.441406 26.691406 10.65625 C 26.691406 13.546875 24.8125 16.355469 22.019531 17.640625 " fill-opacity="1" fill-rule="nonzero"/></g></svg>