<svg xmlns="http://www.w3.org/2000/svg" xmlns:xlink="http://www.w3.org/1999/xlink" width="64" zoomAndPan="magnify" viewBox="0 0 48 44.249999" height="59" preserveAspectRatio="xMidYMid meet" version="1.0"><defs><clipPath id="ff3d7bdcbc"><path d="M 3.511719 1 L 43 1 L 43 41 L 3.511719 41 Z M 3.511719 1 " clip-rule="nonzero"/></clipPath><clipPath id="0c4d6af720"><path d="M 7.023438 32.65625 L 10.679688 32.65625 L 10.679688 33.621094 L 7.023438 33.621094 Z M 7.023438 32.65625 " clip-rule="nonzero"/></clipPath><clipPath id="190e708efe"><path d="M 8.890625 33.597656 C 7.605469 33.597656 6.566406 32.558594 6.566406 31.273438 C 6.566406 29.992188 7.605469 28.953125 8.890625 28.953125 C 10.171875 28.953125 11.214844 29.992188 11.214844 31.273438 C 11.214844 32.558594 10.171875 33.597656 8.890625 33.597656 Z M 8.890625 33.597656 " clip-rule="nonzero"/></clipPath><clipPath id="ab7143b4cd"><path d="M 6.894531 32.59375 L 10.804688 32.59375 L 10.804688 33.621094 L 6.894531 33.621094 Z M 6.894531 32.59375 " clip-rule="nonzero"/></clipPath><clipPath id="c832dab299"><path d="M 8.890625 33.597656 C 7.605469 33.597656 6.566406 32.558594 6.566406 31.273438 C 6.566406 29.992188 7.605469 28.953125 8.890625 28.953125 C 10.171875 28.953125 11.214844 29.992188 11.214844 31.273438 C 11.214844 32.558594 10.171875 33.597656 8.890625 33.597656 Z M 8.890625 33.597656 " clip-rule="nonzero"/></clipPath><clipPath id="c3678485fa"><path d="M 7.34375 29.34375 L 10.421875 29.34375 L 10.421875 32.039062 L 7.34375 32.039062 Z M 7.34375 29.34375 " clip-rule="nonzero"/></clipPath><clipPath id="b54c17a22d"><path d="M 8.890625 33.597656 C 7.605469 33.597656 6.566406 32.558594 6.566406 31.273438 C 6.566406 29.992188 7.605469 28.953125 8.890625 28.953125 C 10.171875 28.953125 11.214844 29.992188 11.214844 31.273438 C 11.214844 32.558594 10.171875 33.597656 8.890625 33.597656 Z M 8.890625 33.597656 " clip-rule="nonzero"/></clipPath><clipPath id="b2ecf7e51d"><path d="M 8.089844 30.15625 L 9.671875 30.15625 L 9.671875 33.128906 L 8.089844 33.128906 Z M 8.089844 30.15625 " clip-rule="nonzero"/></clipPath><clipPath id="51991477a2"><path d="M 8.890625 33.597656 C 7.605469 33.597656 6.566406 32.558594 6.566406 31.273438 C 6.566406 29.992188 7.605469 28.953125 8.890625 28.953125 C 10.171875 28.953125 11.214844 29.992188 11.214844 31.273438 C 11.214844 32.558594 10.171875 33.597656 8.890625 33.597656 Z M 8.890625 33.597656 " clip-rule="nonzero"/></clipPath><clipPath id="38bdeca111"><path d="M 8.371094 31.503906 L 9.375 31.503906 L 9.375 33.214844 L 8.371094 33.214844 Z M 8.371094 31.503906 " clip-rule="nonzero"/></clipPath><clipPath id="4f7aab3df1"><path d="M 8.890625 33.597656 C 7.605469 33.597656 6.566406 32.558594 6.566406 31.273438 C 6.566406 29.992188 7.605469 28.953125 8.890625 28.953125 C 10.171875 28.953125 11.214844 29.992188 11.214844 31.273438 C 11.214844 32.558594 10.171875 33.597656 8.890625 33.597656 Z M 8.890625 33.597656 " clip-rule="nonzero"/></clipPath><clipPath id="f90aa07d32"><path d="M 8.582031 30.96875 L 9.179688 30.96875 L 9.179688 31.226562 L 8.582031 31.226562 Z M 8.582031 30.96875 " clip-rule="nonzero"/></clipPath><clipPath id="41fbda04e1"><path d="M 8.890625 33.597656 C 7.605469 33.597656 6.566406 32.558594 6.566406 31.273438 C 6.566406 29.992188 7.605469 28.953125 8.890625 28.953125 C 10.171875 28.953125 11.214844 29.992188 11.214844 31.273438 C 11.214844 32.558594 10.171875 33.597656 8.890625 33.597656 Z M 8.890625 33.597656 " clip-rule="nonzero"/></clipPath><clipPath id="735abd4cbd"><path d="M 8.027344 29.453125 L 9.757812 29.453125 L 9.757812 31.78125 L 8.027344 31.78125 Z M 8.027344 29.453125 " clip-rule="nonzero"/></clipPath><clipPath id="f825c43acc"><path d="M 8.890625 33.597656 C 7.605469 33.597656 6.566406 32.558594 6.566406 31.273438 C 6.566406 29.992188 7.605469 28.953125 8.890625 28.953125 C 10.171875 28.953125 11.214844 29.992188 11.214844 31.273438 C 11.214844 32.558594 10.171875 33.597656 8.890625 33.597656 Z M 8.890625 33.597656 " clip-rule="nonzero"/></clipPath></defs><g clip-path="url(#ff3d7bdcbc)"><path fill="#8875a4" d="M 26.570312 1.675781 C 17.484375 0 10.5625 6.261719 10.050781 6.738281 C 9.238281 7.5 3.511719 13.03125 3.777344 21.707031 C 4.011719 29.355469 8.796875 36.53125 15.597656 39.21875 C 26.46875 43.511719 40.65625 36.539062 42.710938 24.242188 C 44.480469 13.664062 36.339844 3.472656 26.570312 1.675781 " fill-opacity="1" fill-rule="nonzero"/></g><path fill="#ffffff" d="M 5.214844 22.726562 C 5.214844 23.632812 5.949219 24.367188 6.855469 24.367188 L 16.683594 24.367188 C 17.589844 24.367188 18.324219 23.632812 18.324219 22.726562 L 18.324219 6.585938 C 18.324219 5.679688 17.589844 4.945312 16.683594 4.945312 C 16.683594 4.945312 6.722656 4.949219 6.660156 4.957031 C 5.847656 5.050781 5.214844 5.742188 5.214844 6.585938 L 5.214844 22.726562 " fill-opacity="1" fill-rule="nonzero"/><path fill="#000000" d="M 16.683594 24.441406 L 6.855469 24.441406 C 5.910156 24.441406 5.140625 23.671875 5.140625 22.726562 L 5.140625 10.195312 C 5.140625 10.15625 5.175781 10.125 5.214844 10.125 C 5.253906 10.125 5.285156 10.15625 5.285156 10.195312 L 5.285156 22.726562 C 5.285156 23.59375 5.988281 24.296875 6.855469 24.296875 L 16.683594 24.296875 C 17.550781 24.296875 18.253906 23.59375 18.253906 22.726562 L 18.253906 6.585938 C 18.253906 5.71875 17.550781 5.015625 16.683594 5.015625 L 6.855469 5.015625 C 6.792969 5.015625 6.730469 5.019531 6.667969 5.027344 C 5.878906 5.117188 5.285156 5.789062 5.285156 6.585938 L 5.285156 8.585938 C 5.285156 8.625 5.253906 8.65625 5.214844 8.65625 C 5.175781 8.65625 5.140625 8.625 5.140625 8.585938 L 5.140625 6.585938 C 5.140625 5.714844 5.792969 4.984375 6.652344 4.886719 C 6.71875 4.878906 6.785156 4.875 6.855469 4.875 L 16.683594 4.875 C 17.628906 4.875 18.398438 5.640625 18.398438 6.585938 L 18.398438 22.726562 C 18.398438 23.671875 17.628906 24.441406 16.683594 24.441406 " fill-opacity="1" fill-rule="nonzero"/><path fill="#000000" d="M 13.277344 15.582031 L 10.582031 15.582031 C 10.402344 15.582031 10.257812 15.4375 10.257812 15.257812 C 10.257812 15.078125 10.402344 14.933594 10.582031 14.933594 L 13.277344 14.933594 C 13.457031 14.933594 13.601562 15.078125 13.601562 15.257812 C 13.601562 15.4375 13.457031 15.582031 13.277344 15.582031 " fill-opacity="1" fill-rule="nonzero"/><path fill="#8875a4" d="M 16.515625 17.363281 L 7.347656 17.363281 C 7.167969 17.363281 7.023438 17.21875 7.023438 17.039062 C 7.023438 16.859375 7.167969 16.714844 7.347656 16.714844 L 16.515625 16.714844 C 16.691406 16.714844 16.839844 16.859375 16.839844 17.039062 C 16.839844 17.21875 16.691406 17.363281 16.515625 17.363281 " fill-opacity="1" fill-rule="nonzero"/><path fill="#8875a4" d="M 16.515625 18.613281 L 7.347656 18.613281 C 7.167969 18.613281 7.023438 18.46875 7.023438 18.289062 C 7.023438 18.109375 7.167969 17.964844 7.347656 17.964844 L 16.515625 17.964844 C 16.691406 17.964844 16.839844 18.109375 16.839844 18.289062 C 16.839844 18.46875 16.691406 18.613281 16.515625 18.613281 " fill-opacity="1" fill-rule="nonzero"/><path fill="#000000" d="M 9.515625 12.085938 C 10.074219 12.613281 10.828125 12.9375 11.660156 12.9375 C 12.488281 12.9375 13.242188 12.613281 13.800781 12.085938 C 13.15625 11.882812 12.425781 11.769531 11.660156 11.769531 C 10.890625 11.769531 10.160156 11.882812 9.515625 12.085938 " fill-opacity="1" fill-rule="nonzero"/><path fill="#8875a4" d="M 12.730469 9.972656 L 13.023438 8.988281 C 13.132812 8.617188 12.984375 8.214844 12.660156 8.007812 C 12.519531 7.914062 12.355469 7.867188 12.1875 7.867188 L 11.203125 7.867188 C 10.980469 7.867188 10.769531 7.949219 10.609375 8.101562 L 10.554688 8.152344 C 10.296875 8.390625 10.207031 8.757812 10.328125 9.085938 L 10.652344 9.984375 L 12.730469 9.972656 " fill-opacity="1" fill-rule="nonzero"/><path fill="#ffffff" d="M 11.726562 8.328125 L 10.636719 8.328125 L 10.636719 9.945312 C 10.636719 10.28125 10.777344 10.578125 11.0625 10.769531 L 11.0625 11.664062 C 11.0625 12.015625 11.347656 12.300781 11.699219 12.300781 C 12.050781 12.300781 12.335938 12.015625 12.335938 11.664062 L 12.335938 10.796875 C 12.570312 10.605469 12.761719 10.296875 12.761719 9.945312 L 12.761719 9.328125 C 12.761719 8.765625 12.289062 8.328125 11.726562 8.328125 " fill-opacity="1" fill-rule="nonzero"/><path fill="#8875a4" d="M 11.675781 12.371094 C 11.285156 12.371094 10.96875 12.054688 10.96875 11.664062 L 10.96875 10.78125 C 10.96875 10.742188 11 10.710938 11.039062 10.710938 C 11.078125 10.710938 11.109375 10.742188 11.109375 10.78125 L 11.109375 11.664062 C 11.109375 11.976562 11.363281 12.230469 11.675781 12.230469 C 11.988281 12.230469 12.242188 11.976562 12.242188 11.664062 L 12.242188 10.816406 C 12.242188 10.777344 12.277344 10.746094 12.316406 10.746094 C 12.355469 10.746094 12.386719 10.777344 12.386719 10.816406 L 12.386719 11.664062 C 12.386719 12.054688 12.066406 12.371094 11.675781 12.371094 " fill-opacity="1" fill-rule="nonzero"/><path fill="#8875a4" d="M 11.691406 11.070312 C 11.652344 11.070312 11.621094 11.039062 11.621094 11 C 11.621094 10.960938 11.652344 10.929688 11.691406 10.929688 C 12.234375 10.929688 12.675781 10.488281 12.675781 9.945312 L 12.675781 9.328125 C 12.675781 8.804688 12.25 8.378906 11.726562 8.378906 L 10.710938 8.378906 L 10.710938 9.945312 C 10.710938 10.332031 10.9375 10.683594 11.285156 10.839844 C 11.320312 10.855469 11.335938 10.898438 11.320312 10.933594 C 11.304688 10.96875 11.261719 10.984375 11.226562 10.96875 C 10.828125 10.789062 10.570312 10.386719 10.570312 9.945312 L 10.570312 8.308594 C 10.570312 8.269531 10.601562 8.238281 10.640625 8.238281 L 11.726562 8.238281 C 12.328125 8.238281 12.816406 8.726562 12.816406 9.328125 L 12.816406 9.945312 C 12.816406 10.566406 12.3125 11.070312 11.691406 11.070312 " fill-opacity="1" fill-rule="nonzero"/><path fill="#8875a4" d="M 12.378906 8.269531 L 10.679688 9.375 L 10.679688 8.308594 C 10.679688 8.308594 12.378906 8.296875 12.378906 8.269531 " fill-opacity="1" fill-rule="nonzero"/><path fill="#8875a4" d="M 11.660156 13.007812 C 9.894531 13.007812 8.460938 11.574219 8.460938 9.8125 C 8.460938 8.050781 9.894531 6.617188 11.660156 6.617188 C 13.335938 6.617188 14.738281 7.925781 14.847656 9.601562 C 14.851562 9.640625 14.820312 9.671875 14.78125 9.675781 C 14.742188 9.675781 14.710938 9.648438 14.707031 9.609375 C 14.601562 8.011719 13.261719 6.757812 11.660156 6.757812 C 9.972656 6.757812 8.605469 8.128906 8.605469 9.8125 C 8.605469 11.496094 9.972656 12.867188 11.660156 12.867188 C 12.542969 12.867188 13.382812 12.484375 13.960938 11.816406 C 13.988281 11.789062 14.03125 11.785156 14.0625 11.8125 C 14.089844 11.835938 14.09375 11.882812 14.070312 11.910156 C 13.460938 12.609375 12.582031 13.007812 11.660156 13.007812 " fill-opacity="1" fill-rule="nonzero"/><path fill="#ffffff" d="M 39.851562 24.558594 L 30.058594 24.558594 C 29.152344 24.558594 28.421875 23.824219 28.421875 22.921875 L 28.421875 6.808594 C 28.421875 5.90625 29.152344 5.171875 30.058594 5.171875 L 39.851562 5.171875 C 40.753906 5.171875 41.484375 5.90625 41.484375 6.808594 L 41.484375 22.921875 C 41.484375 23.824219 40.753906 24.558594 39.851562 24.558594 " fill-opacity="1" fill-rule="nonzero"/><path fill="#000000" d="M 30.058594 5.246094 C 29.195312 5.246094 28.492188 5.945312 28.492188 6.808594 L 28.492188 22.921875 C 28.492188 23.785156 29.195312 24.484375 30.058594 24.484375 L 39.851562 24.484375 C 40.714844 24.484375 41.414062 23.785156 41.414062 22.921875 L 41.414062 6.808594 C 41.414062 5.945312 40.714844 5.246094 39.851562 5.246094 Z M 39.851562 24.628906 L 30.058594 24.628906 C 29.117188 24.628906 28.351562 23.863281 28.351562 22.921875 L 28.351562 6.808594 C 28.351562 5.867188 29.117188 5.101562 30.058594 5.101562 L 39.851562 5.101562 C 40.792969 5.101562 41.558594 5.867188 41.558594 6.808594 L 41.558594 22.921875 C 41.558594 23.863281 40.792969 24.628906 39.851562 24.628906 " fill-opacity="1" fill-rule="nonzero"/><path fill="#ffffff" d="M 31.84375 10.242188 C 31.84375 8.519531 33.238281 7.121094 34.957031 7.121094 C 36.679688 7.121094 38.074219 8.519531 38.074219 10.242188 C 38.074219 11.964844 36.679688 13.359375 34.957031 13.359375 C 33.238281 13.359375 31.84375 11.964844 31.84375 10.242188 " fill-opacity="1" fill-rule="nonzero"/><path fill="#8875a4" d="M 34.957031 13.429688 C 33.203125 13.429688 31.773438 12 31.773438 10.242188 C 31.773438 9.867188 31.835938 9.496094 31.964844 9.148438 C 31.976562 9.109375 32.019531 9.089844 32.054688 9.105469 C 32.089844 9.117188 32.109375 9.160156 32.097656 9.195312 C 31.976562 9.53125 31.914062 9.882812 31.914062 10.242188 C 31.914062 11.921875 33.28125 13.289062 34.957031 13.289062 C 36.636719 13.289062 38.003906 11.921875 38.003906 10.242188 C 38.003906 8.5625 36.636719 7.195312 34.957031 7.195312 C 34.042969 7.195312 33.1875 7.597656 32.605469 8.304688 C 32.582031 8.335938 32.535156 8.339844 32.507812 8.316406 C 32.476562 8.292969 32.472656 8.246094 32.496094 8.214844 C 33.105469 7.476562 34.003906 7.050781 34.957031 7.050781 C 36.714844 7.050781 38.144531 8.484375 38.144531 10.242188 C 38.144531 12 36.714844 13.429688 34.957031 13.429688 " fill-opacity="1" fill-rule="nonzero"/><path fill="#8875a4" d="M 34.910156 8.191406 C 34.910156 8.191406 34.339844 7.714844 33.59375 8.707031 C 32.929688 9.582031 33.777344 10.367188 33.492188 10.910156 C 33.207031 11.453125 32.246094 11.75 32.246094 11.75 C 32.246094 11.75 32.554688 12.371094 32.9375 12.644531 L 37.003906 12.644531 C 37.003906 12.644531 37.847656 11.726562 37.847656 11.464844 C 37.847656 11.464844 36.945312 11.417969 36.882812 10.636719 C 36.820312 9.859375 37.164062 9.371094 36.394531 8.488281 C 35.597656 7.578125 34.910156 8.191406 34.910156 8.191406 " fill-opacity="1" fill-rule="nonzero"/><path fill="#000000" d="M 32.820312 12.511719 C 33.378906 13.035156 34.128906 13.359375 34.957031 13.359375 C 35.785156 13.359375 36.539062 13.035156 37.097656 12.511719 C 36.449219 12.308594 35.726562 12.195312 34.957031 12.195312 C 34.191406 12.195312 33.464844 12.308594 32.820312 12.511719 " fill-opacity="1" fill-rule="nonzero"/><path fill="#8875a4" d="M 32.960938 12.542969 C 33.515625 13.023438 34.21875 13.289062 34.957031 13.289062 C 35.695312 13.289062 36.402344 13.023438 36.957031 12.542969 C 36.328125 12.359375 35.65625 12.269531 34.957031 12.269531 C 34.261719 12.269531 33.589844 12.359375 32.960938 12.542969 Z M 34.957031 13.429688 C 34.144531 13.429688 33.367188 13.121094 32.773438 12.5625 C 32.753906 12.542969 32.746094 12.519531 32.753906 12.492188 C 32.757812 12.46875 32.777344 12.449219 32.800781 12.441406 C 33.476562 12.234375 34.203125 12.125 34.957031 12.125 C 35.714844 12.125 36.441406 12.234375 37.117188 12.441406 C 37.140625 12.449219 37.160156 12.46875 37.164062 12.492188 C 37.171875 12.519531 37.164062 12.542969 37.144531 12.5625 C 36.550781 13.121094 35.773438 13.429688 34.957031 13.429688 " fill-opacity="1" fill-rule="nonzero"/><path fill="#ffffff" d="M 34.976562 12.722656 C 34.707031 12.722656 34.484375 12.503906 34.484375 12.230469 L 34.484375 9.722656 L 35.46875 9.722656 L 35.46875 12.230469 C 35.46875 12.503906 35.25 12.722656 34.976562 12.722656 " fill-opacity="1" fill-rule="nonzero"/><path fill="#8875a4" d="M 34.554688 9.792969 L 34.554688 12.230469 C 34.554688 12.464844 34.746094 12.652344 34.976562 12.652344 C 35.210938 12.652344 35.398438 12.464844 35.398438 12.230469 L 35.398438 9.792969 Z M 34.976562 12.796875 C 34.667969 12.796875 34.414062 12.542969 34.414062 12.230469 L 34.414062 9.722656 C 34.414062 9.683594 34.445312 9.652344 34.484375 9.652344 L 35.46875 9.652344 C 35.507812 9.652344 35.539062 9.683594 35.539062 9.722656 L 35.539062 12.230469 C 35.539062 12.542969 35.289062 12.796875 34.976562 12.796875 " fill-opacity="1" fill-rule="nonzero"/><path fill="#ffffff" d="M 34.992188 11.464844 C 35.546875 11.464844 35.992188 11.019531 35.992188 10.464844 L 35.992188 9.875 C 35.992188 9.339844 35.558594 8.90625 35.023438 8.90625 L 33.988281 8.90625 L 33.988281 10.464844 C 33.988281 10.871094 34.230469 11.21875 34.578125 11.378906 L 34.992188 11.464844 " fill-opacity="1" fill-rule="nonzero"/><path fill="#8875a4" d="M 34.992188 11.539062 C 34.953125 11.539062 34.921875 11.503906 34.921875 11.464844 C 34.921875 11.425781 34.953125 11.394531 34.992188 11.394531 C 35.503906 11.394531 35.921875 10.976562 35.921875 10.464844 L 35.921875 9.875 C 35.921875 9.378906 35.519531 8.976562 35.023438 8.976562 L 34.0625 8.976562 L 34.0625 10.464844 C 34.0625 10.828125 34.273438 11.160156 34.605469 11.3125 C 34.640625 11.328125 34.65625 11.371094 34.640625 11.40625 C 34.625 11.441406 34.582031 11.457031 34.546875 11.441406 C 34.164062 11.269531 33.917969 10.882812 33.917969 10.464844 L 33.917969 8.90625 C 33.917969 8.867188 33.949219 8.835938 33.988281 8.835938 L 35.023438 8.835938 C 35.597656 8.835938 36.0625 9.300781 36.0625 9.875 L 36.0625 10.464844 C 36.0625 11.054688 35.582031 11.539062 34.992188 11.539062 " fill-opacity="1" fill-rule="nonzero"/><path fill="#8875a4" d="M 35.054688 8.941406 L 34.027344 9.917969 L 34.027344 8.90625 C 34.027344 8.90625 35.054688 8.964844 35.054688 8.941406 " fill-opacity="1" fill-rule="nonzero"/><path fill="#8875a4" d="M 38.152344 17.363281 L 30.378906 17.363281 C 30.199219 17.363281 30.054688 17.21875 30.054688 17.039062 C 30.054688 16.859375 30.199219 16.714844 30.378906 16.714844 L 38.152344 16.714844 C 38.332031 16.714844 38.476562 16.859375 38.476562 17.039062 C 38.476562 17.21875 38.332031 17.363281 38.152344 17.363281 " fill-opacity="1" fill-rule="nonzero"/><path fill="#8875a4" d="M 39.539062 18.738281 L 30.378906 18.738281 C 30.199219 18.738281 30.054688 18.59375 30.054688 18.414062 C 30.054688 18.234375 30.199219 18.089844 30.378906 18.089844 L 39.539062 18.089844 C 39.71875 18.089844 39.863281 18.234375 39.863281 18.414062 C 39.863281 18.59375 39.71875 18.738281 39.539062 18.738281 " fill-opacity="1" fill-rule="nonzero"/><path fill="#8875a4" d="M 38.152344 20.113281 L 30.378906 20.113281 C 30.199219 20.113281 30.054688 19.96875 30.054688 19.789062 C 30.054688 19.609375 30.199219 19.464844 30.378906 19.464844 L 38.152344 19.464844 C 38.332031 19.464844 38.476562 19.609375 38.476562 19.789062 C 38.476562 19.96875 38.332031 20.113281 38.152344 20.113281 " fill-opacity="1" fill-rule="nonzero"/><path fill="#8875a4" d="M 39.539062 21.488281 L 33.183594 21.488281 C 33.003906 21.488281 32.859375 21.339844 32.859375 21.164062 C 32.859375 20.984375 33.003906 20.835938 33.183594 20.835938 L 39.539062 20.835938 C 39.71875 20.835938 39.863281 20.984375 39.863281 21.164062 C 39.863281 21.339844 39.71875 21.488281 39.539062 21.488281 " fill-opacity="1" fill-rule="nonzero"/><path fill="#000000" d="M 36.304688 15.582031 L 33.613281 15.582031 C 33.433594 15.582031 33.289062 15.4375 33.289062 15.257812 C 33.289062 15.078125 33.433594 14.933594 33.613281 14.933594 L 36.304688 14.933594 C 36.484375 14.933594 36.628906 15.078125 36.628906 15.257812 C 36.628906 15.4375 36.484375 15.582031 36.304688 15.582031 " fill-opacity="1" fill-rule="nonzero"/><path fill="#ffffff" d="M 30.328125 19.847656 C 30.328125 20.753906 29.59375 21.484375 28.6875 21.484375 L 18.871094 21.484375 C 17.964844 21.484375 17.230469 20.753906 17.230469 19.847656 L 17.230469 3.082031 C 17.230469 2.175781 17.964844 1.445312 18.871094 1.445312 L 28.6875 1.445312 C 29.59375 1.445312 30.328125 2.175781 30.328125 3.082031 L 30.328125 19.847656 " fill-opacity="1" fill-rule="nonzero"/><path fill="#000000" d="M 28.6875 21.554688 L 18.871094 21.554688 C 17.925781 21.554688 17.160156 20.789062 17.160156 19.847656 L 17.160156 3.082031 C 17.160156 2.140625 17.925781 1.375 18.871094 1.375 L 28.6875 1.375 C 29.632812 1.375 30.398438 2.140625 30.398438 3.082031 L 30.398438 12.214844 C 30.398438 12.253906 30.367188 12.285156 30.328125 12.285156 C 30.289062 12.285156 30.253906 12.253906 30.253906 12.214844 L 30.253906 3.082031 C 30.253906 2.21875 29.550781 1.515625 28.6875 1.515625 L 18.871094 1.515625 C 18.003906 1.515625 17.300781 2.21875 17.300781 3.082031 L 17.300781 19.847656 C 17.300781 20.710938 18.003906 21.414062 18.871094 21.414062 L 28.6875 21.414062 C 29.550781 21.414062 30.253906 20.710938 30.253906 19.847656 L 30.253906 14.304688 C 30.253906 14.265625 30.289062 14.234375 30.328125 14.234375 C 30.367188 14.234375 30.398438 14.265625 30.398438 14.304688 L 30.398438 19.847656 C 30.398438 20.789062 29.632812 21.554688 28.6875 21.554688 " fill-opacity="1" fill-rule="nonzero"/><path fill="#000000" d="M 25.042969 12.023438 L 22.34375 12.023438 C 22.164062 12.023438 22.019531 11.875 22.019531 11.695312 C 22.019531 11.515625 22.164062 11.371094 22.34375 11.371094 L 25.042969 11.371094 C 25.222656 11.371094 25.367188 11.515625 25.367188 11.695312 C 25.367188 11.875 25.222656 12.023438 25.042969 12.023438 " fill-opacity="1" fill-rule="nonzero"/><path fill="#8875a4" d="M 28.28125 13.929688 L 19.105469 13.929688 C 18.925781 13.929688 18.78125 13.78125 18.78125 13.601562 C 18.78125 13.425781 18.925781 13.277344 19.105469 13.277344 L 28.28125 13.277344 C 28.457031 13.277344 28.605469 13.425781 28.605469 13.601562 C 28.605469 13.78125 28.457031 13.929688 28.28125 13.929688 " fill-opacity="1" fill-rule="nonzero"/><path fill="#8875a4" d="M 28.28125 15.34375 L 19.105469 15.34375 C 18.925781 15.34375 18.78125 15.199219 18.78125 15.019531 C 18.78125 14.839844 18.925781 14.695312 19.105469 14.695312 L 28.28125 14.695312 C 28.457031 14.695312 28.605469 14.839844 28.605469 15.019531 C 28.605469 15.199219 28.457031 15.34375 28.28125 15.34375 " fill-opacity="1" fill-rule="nonzero"/><path fill="#8875a4" d="M 25.246094 16.761719 L 19.105469 16.761719 C 18.925781 16.761719 18.78125 16.613281 18.78125 16.4375 C 18.78125 16.257812 18.925781 16.109375 19.105469 16.109375 L 25.246094 16.109375 C 25.425781 16.109375 25.570312 16.257812 25.570312 16.4375 C 25.570312 16.613281 25.425781 16.761719 25.246094 16.761719 " fill-opacity="1" fill-rule="nonzero"/><path fill="#8875a4" d="M 28.28125 18.175781 L 19.105469 18.175781 C 18.925781 18.175781 18.78125 18.03125 18.78125 17.851562 C 18.78125 17.671875 18.925781 17.527344 19.105469 17.527344 L 28.28125 17.527344 C 28.457031 17.527344 28.605469 17.671875 28.605469 17.851562 C 28.605469 18.03125 28.457031 18.175781 28.28125 18.175781 " fill-opacity="1" fill-rule="nonzero"/><path fill="#000000" d="M 22.609375 7.933594 C 21.988281 7.933594 21.523438 7.351562 21.675781 6.746094 C 21.921875 5.753906 22.460938 4.472656 23.625 4.292969 C 24.839844 4.101562 25.496094 5.582031 25.816406 6.714844 C 25.988281 7.324219 25.527344 7.933594 24.890625 7.933594 L 22.609375 7.933594 " fill-opacity="1" fill-rule="nonzero"/><path fill="#cbacf9" d="M 23.582031 9.890625 C 24.480469 9.867188 25.078125 9.675781 25.726562 9.0625 C 24.976562 8.832031 24.609375 8.820312 23.71875 8.820312 C 22.832031 8.820312 22.292969 8.867188 21.542969 9.097656 C 21.542969 9.097656 22.390625 9.917969 23.582031 9.890625 " fill-opacity="1" fill-rule="nonzero"/><path fill="#000000" d="M 21.527344 9.171875 C 21.496094 9.171875 21.46875 9.152344 21.457031 9.121094 C 21.449219 9.082031 21.472656 9.042969 21.507812 9.03125 C 22.210938 8.847656 22.953125 8.75 23.71875 8.75 C 24.410156 8.75 25.085938 8.828125 25.726562 8.980469 C 25.761719 8.988281 25.785156 9.027344 25.777344 9.066406 C 25.769531 9.105469 25.730469 9.128906 25.691406 9.117188 C 25.0625 8.96875 24.398438 8.890625 23.71875 8.890625 C 22.964844 8.890625 22.234375 8.984375 21.546875 9.171875 C 21.539062 9.171875 21.53125 9.171875 21.527344 9.171875 " fill-opacity="1" fill-rule="nonzero"/><path fill="#ffffff" d="M 23.742188 9.449219 C 23.425781 9.449219 23.171875 9.195312 23.171875 8.878906 L 23.171875 5.46875 L 24.3125 5.46875 L 24.3125 8.878906 C 24.3125 9.195312 24.054688 9.449219 23.742188 9.449219 " fill-opacity="1" fill-rule="nonzero"/><path fill="#000000" d="M 23.242188 5.539062 L 23.242188 8.878906 C 23.242188 9.15625 23.464844 9.378906 23.742188 9.378906 C 24.015625 9.378906 24.242188 9.15625 24.242188 8.878906 L 24.242188 5.539062 Z M 23.742188 9.519531 C 23.386719 9.519531 23.101562 9.234375 23.101562 8.878906 L 23.101562 5.46875 C 23.101562 5.429688 23.132812 5.398438 23.171875 5.398438 L 24.3125 5.398438 C 24.351562 5.398438 24.382812 5.429688 24.382812 5.46875 L 24.382812 8.878906 C 24.382812 9.234375 24.09375 9.519531 23.742188 9.519531 " fill-opacity="1" fill-rule="nonzero"/><path fill="#ffffff" d="M 23.316406 7.382812 C 22.945312 7.203125 22.6875 6.796875 22.6875 6.328125 L 22.6875 5.722656 C 22.6875 5.058594 23.183594 4.519531 23.792969 4.519531 C 24.363281 4.519531 24.828125 5.023438 24.828125 5.644531 L 24.828125 6.328125 C 24.828125 6.96875 24.347656 7.488281 23.757812 7.488281 L 23.316406 7.382812 " fill-opacity="1" fill-rule="nonzero"/><path fill="#000000" d="M 23.757812 7.558594 C 23.71875 7.558594 23.6875 7.527344 23.6875 7.488281 C 23.6875 7.449219 23.71875 7.417969 23.757812 7.417969 C 24.308594 7.417969 24.757812 6.929688 24.757812 6.328125 L 24.757812 5.644531 C 24.757812 5.0625 24.324219 4.59375 23.792969 4.59375 C 23.222656 4.59375 22.757812 5.097656 22.757812 5.722656 L 22.757812 6.328125 C 22.757812 6.753906 22.988281 7.144531 23.347656 7.320312 C 23.382812 7.339844 23.394531 7.382812 23.378906 7.414062 C 23.363281 7.449219 23.320312 7.464844 23.285156 7.449219 C 22.878906 7.246094 22.617188 6.808594 22.617188 6.328125 L 22.617188 5.722656 C 22.617188 5.019531 23.144531 4.449219 23.792969 4.449219 C 24.402344 4.449219 24.898438 4.984375 24.898438 5.644531 L 24.898438 6.328125 C 24.898438 7.007812 24.386719 7.558594 23.757812 7.558594 " fill-opacity="1" fill-rule="nonzero"/><path fill="#000000" d="M 22.679688 5.394531 L 24.902344 5.394531 C 24.902344 5.394531 24.859375 4.957031 24.460938 4.664062 C 24.121094 4.414062 23.671875 4.390625 23.289062 4.5625 C 23.027344 4.679688 22.757812 4.890625 22.710938 5.265625 L 22.679688 5.394531 " fill-opacity="1" fill-rule="nonzero"/><path fill="#000000" d="M 23.761719 6.816406 C 23.625 6.816406 23.5 6.761719 23.40625 6.664062 C 23.382812 6.632812 23.382812 6.589844 23.410156 6.5625 C 23.441406 6.535156 23.484375 6.535156 23.511719 6.566406 C 23.578125 6.632812 23.664062 6.671875 23.761719 6.671875 C 23.855469 6.671875 23.945312 6.632812 24.007812 6.566406 C 24.035156 6.535156 24.082031 6.535156 24.109375 6.5625 C 24.136719 6.589844 24.136719 6.632812 24.113281 6.664062 C 24.019531 6.761719 23.894531 6.816406 23.761719 6.816406 " fill-opacity="1" fill-rule="nonzero"/><path fill="#000000" d="M 23.605469 9.953125 C 23.472656 9.953125 23.339844 9.945312 23.210938 9.929688 C 22.347656 9.824219 21.582031 9.394531 21.042969 8.710938 C 19.9375 7.304688 20.183594 5.257812 21.59375 4.152344 C 22.273438 3.617188 23.125 3.378906 23.984375 3.484375 C 24.84375 3.585938 25.613281 4.019531 26.148438 4.703125 C 26.515625 5.167969 26.75 5.730469 26.820312 6.316406 C 26.824219 6.355469 26.796875 6.390625 26.757812 6.394531 C 26.71875 6.402344 26.683594 6.371094 26.679688 6.335938 C 26.613281 5.769531 26.390625 5.238281 26.039062 4.789062 C 25.527344 4.136719 24.789062 3.722656 23.96875 3.625 C 23.144531 3.527344 22.332031 3.753906 21.679688 4.265625 C 20.332031 5.324219 20.097656 7.277344 21.15625 8.625 C 21.667969 9.277344 22.402344 9.6875 23.226562 9.789062 C 24.050781 9.886719 24.863281 9.660156 25.515625 9.148438 C 26.097656 8.691406 26.496094 8.039062 26.640625 7.316406 C 26.648438 7.277344 26.6875 7.25 26.722656 7.257812 C 26.761719 7.265625 26.789062 7.304688 26.78125 7.34375 C 26.628906 8.101562 26.210938 8.78125 25.601562 9.257812 C 25.023438 9.710938 24.328125 9.953125 23.605469 9.953125 " fill-opacity="1" fill-rule="nonzero"/><path fill="#000000" d="M 23.269531 40.472656 L 28.152344 40.472656 C 27.761719 36.425781 27.382812 33.488281 27.382812 33.488281 L 19.800781 32.164062 L 19.042969 34.320312 C 18.816406 34.976562 18.507812 35.941406 18.214844 37.132812 C 18.058594 37.789062 17.820312 38.835938 17.640625 40.472656 L 23.269531 40.472656 " fill-opacity="1" fill-rule="nonzero"/><path fill="#8875a4" d="M 23.40625 39.371094 C 23.398438 39.371094 23.390625 39.371094 23.382812 39.367188 C 23.34375 39.351562 23.328125 39.3125 23.339844 39.273438 C 23.519531 38.820312 23.90625 38.707031 24.359375 38.613281 C 24.398438 38.605469 24.433594 38.628906 24.441406 38.667969 C 24.449219 38.707031 24.425781 38.746094 24.386719 38.753906 C 23.960938 38.839844 23.625 38.9375 23.472656 39.328125 C 23.460938 39.355469 23.4375 39.371094 23.40625 39.371094 " fill-opacity="1" fill-rule="nonzero"/><path fill="#8875a4" d="M 19.089844 38.730469 C 19.054688 38.730469 19.027344 38.703125 19.019531 38.667969 C 19.015625 38.632812 19.039062 38.59375 19.078125 38.589844 C 20.820312 38.296875 21.164062 36.972656 21.179688 36.914062 C 21.1875 36.878906 21.226562 36.855469 21.265625 36.863281 C 21.300781 36.875 21.324219 36.910156 21.316406 36.949219 C 21.3125 36.964844 20.9375 38.421875 19.101562 38.726562 C 19.097656 38.730469 19.09375 38.730469 19.089844 38.730469 " fill-opacity="1" fill-rule="nonzero"/><path fill="#8875a4" d="M 27.472656 37.515625 C 27.464844 37.515625 27.453125 37.511719 27.445312 37.507812 C 26.371094 37.042969 26.398438 36.027344 26.398438 36.019531 C 26.402344 35.980469 26.433594 35.949219 26.472656 35.949219 C 26.511719 35.949219 26.542969 35.984375 26.539062 36.023438 C 26.539062 36.0625 26.519531 36.953125 27.5 37.378906 C 27.539062 37.394531 27.554688 37.4375 27.539062 37.472656 C 27.527344 37.5 27.5 37.515625 27.472656 37.515625 " fill-opacity="1" fill-rule="nonzero"/><path fill="#000000" d="M 18 34.777344 C 17.820312 35.402344 17.535156 36.261719 17.851562 36.671875 C 18.421875 37.421875 18.898438 37.304688 19.605469 37.046875 C 21.023438 36.527344 23.28125 35.714844 23.941406 36.167969 L 23.96875 34.777344 L 18 34.777344 " fill-opacity="1" fill-rule="nonzero"/><path fill="#cbacf9" d="M 26.117188 21.46875 C 27.292969 21.460938 28.367188 22.128906 28.882812 23.175781 C 29.476562 24.394531 30.320312 27.578125 30.351562 28.96875 C 30.410156 31.398438 28.28125 31.535156 28.21875 31.539062 C 28.214844 31.539062 28.214844 31.539062 28.214844 31.542969 C 28.222656 31.613281 28.472656 34.253906 28.492188 34.722656 C 28.527344 35.578125 26.9375 36.917969 25.109375 36.257812 C 23.292969 35.601562 18.328125 34.296875 17.824219 35.40625 C 17.820312 35.410156 17.820312 35.410156 17.820312 35.40625 L 19.902344 27.679688 C 19.902344 27.679688 19.902344 27.675781 19.902344 27.675781 L 18.191406 27.761719 L 16.796875 26.953125 L 17.152344 25.390625 C 17.820312 22.722656 19.613281 21.5 21.925781 21.488281 L 26.117188 21.46875 " fill-opacity="1" fill-rule="nonzero"/><path fill="#ffffff" d="M 20.636719 27.429688 C 20.316406 27.371094 20.402344 27 19.28125 26.933594 C 16.039062 26.738281 17.609375 25.09375 19.464844 25.410156 C 20.082031 25.511719 20.324219 25.910156 20.554688 26.011719 C 22.496094 26.859375 21.273438 27.546875 20.636719 27.429688 " fill-opacity="1" fill-rule="nonzero"/><path fill="#000000" d="M 18.992188 25.4375 C 18.335938 25.4375 17.78125 25.671875 17.566406 25.949219 C 17.476562 26.066406 17.457031 26.183594 17.503906 26.289062 C 17.570312 26.433594 17.875 26.777344 19.285156 26.863281 C 20.0625 26.910156 20.28125 27.097656 20.441406 27.238281 C 20.511719 27.300781 20.5625 27.34375 20.648438 27.359375 C 20.964844 27.417969 21.441406 27.257812 21.523438 26.992188 C 21.605469 26.722656 21.242188 26.386719 20.527344 26.074219 C 20.441406 26.039062 20.363281 25.972656 20.269531 25.894531 C 20.085938 25.738281 19.851562 25.546875 19.453125 25.476562 C 19.296875 25.453125 19.140625 25.4375 18.992188 25.4375 Z M 20.789062 27.515625 C 20.730469 27.515625 20.675781 27.507812 20.621094 27.5 C 20.496094 27.476562 20.425781 27.414062 20.347656 27.34375 C 20.203125 27.21875 20.003906 27.046875 19.277344 27.003906 C 17.914062 26.921875 17.492188 26.601562 17.375 26.347656 C 17.304688 26.195312 17.332031 26.023438 17.453125 25.863281 C 17.746094 25.488281 18.582031 25.1875 19.476562 25.339844 C 19.914062 25.410156 20.171875 25.628906 20.359375 25.785156 C 20.445312 25.855469 20.519531 25.917969 20.582031 25.945312 C 21.609375 26.394531 21.734375 26.785156 21.660156 27.035156 C 21.566406 27.332031 21.148438 27.515625 20.789062 27.515625 " fill-opacity="1" fill-rule="nonzero"/><path fill="#ffffff" d="M 24.714844 21.921875 C 24.824219 21.832031 24.765625 21.652344 24.625 21.636719 L 24.402344 21.609375 C 24.167969 21.582031 23.972656 21.425781 23.894531 21.207031 L 23.53125 18.535156 L 22.789062 18.800781 L 21.808594 18.316406 L 21.894531 21.171875 C 21.886719 21.417969 21.726562 21.640625 21.484375 21.726562 L 21.199219 21.828125 C 21.046875 21.882812 21.039062 22.085938 21.1875 22.152344 C 21.773438 22.40625 24.148438 22.40625 24.714844 21.921875 " fill-opacity="1" fill-rule="nonzero"/><path fill="#000000" d="M 24.714844 21.921875 Z M 21.882812 18.429688 L 21.964844 21.167969 C 21.957031 21.453125 21.78125 21.695312 21.511719 21.792969 L 21.222656 21.894531 C 21.179688 21.910156 21.152344 21.945312 21.152344 21.988281 C 21.152344 22.03125 21.175781 22.066406 21.214844 22.085938 C 21.753906 22.320312 24.121094 22.335938 24.667969 21.871094 C 24.695312 21.84375 24.707031 21.808594 24.695312 21.773438 C 24.6875 21.746094 24.660156 21.710938 24.617188 21.707031 L 24.394531 21.679688 C 24.132812 21.648438 23.914062 21.476562 23.828125 21.230469 C 23.824219 21.226562 23.824219 21.222656 23.824219 21.21875 L 23.472656 18.632812 L 22.8125 18.867188 C 22.796875 18.875 22.777344 18.871094 22.757812 18.863281 Z M 22.632812 22.394531 C 21.996094 22.394531 21.410156 22.324219 21.160156 22.214844 C 21.0625 22.175781 21.007812 22.085938 21.011719 21.984375 C 21.015625 21.882812 21.078125 21.796875 21.175781 21.761719 L 21.460938 21.660156 C 21.675781 21.582031 21.820312 21.390625 21.824219 21.167969 L 21.738281 18.316406 C 21.738281 18.292969 21.75 18.269531 21.769531 18.253906 C 21.789062 18.242188 21.816406 18.242188 21.839844 18.25 L 22.792969 18.722656 L 23.507812 18.46875 C 23.527344 18.460938 23.550781 18.464844 23.570312 18.472656 C 23.585938 18.484375 23.601562 18.503906 23.601562 18.527344 L 23.964844 21.191406 C 24.035156 21.382812 24.203125 21.515625 24.414062 21.539062 L 24.632812 21.566406 C 24.726562 21.578125 24.804688 21.640625 24.832031 21.734375 C 24.859375 21.824219 24.832031 21.917969 24.761719 21.976562 C 24.414062 22.273438 23.480469 22.394531 22.632812 22.394531 " fill-opacity="1" fill-rule="nonzero"/><path fill="#ffffff" d="M 23.863281 16.410156 C 25.125 16.875 24.910156 17.695312 24.910156 17.695312 C 24.894531 17.917969 24.882812 18.332031 24.925781 18.480469 C 24.960938 18.605469 25.164062 18.835938 25.171875 18.90625 C 25.183594 18.972656 25.074219 19.113281 24.855469 19.164062 C 24.855469 19.164062 24.769531 20.257812 24.484375 20.4375 C 24.195312 20.617188 23.09375 20.273438 23.09375 20.273438 L 22.90625 20.199219 C 22.308594 19.957031 21.941406 19.457031 21.769531 18.839844 C 21.769531 18.839844 20.964844 15.34375 23.863281 16.410156 " fill-opacity="1" fill-rule="nonzero"/><path fill="#000000" d="M 23.117188 20.207031 C 23.53125 20.335938 24.257812 20.492188 24.445312 20.375 C 24.632812 20.257812 24.753906 19.566406 24.78125 19.160156 C 24.785156 19.128906 24.808594 19.101562 24.839844 19.09375 C 25.023438 19.050781 25.101562 18.941406 25.101562 18.914062 C 25.097656 18.894531 25.046875 18.824219 25.011719 18.769531 C 24.945312 18.675781 24.878906 18.578125 24.859375 18.5 C 24.808594 18.320312 24.828125 17.855469 24.839844 17.6875 C 24.839844 17.683594 24.839844 17.679688 24.839844 17.675781 C 24.847656 17.644531 25.019531 16.914062 23.835938 16.476562 C 23.082031 16.199219 22.523438 16.214844 22.175781 16.519531 C 21.460938 17.148438 21.832031 18.808594 21.835938 18.824219 C 22.019531 19.464844 22.398438 19.917969 22.933594 20.132812 Z M 24.214844 20.558594 C 23.789062 20.558594 23.160156 20.367188 23.070312 20.339844 C 23.070312 20.339844 23.066406 20.339844 23.066406 20.335938 L 22.878906 20.261719 C 22.300781 20.03125 21.894531 19.546875 21.699219 18.859375 C 21.683594 18.785156 21.304688 17.097656 22.082031 16.414062 C 22.472656 16.070312 23.078125 16.046875 23.886719 16.34375 C 25.128906 16.800781 25 17.613281 24.980469 17.703125 C 24.960938 17.941406 24.957031 18.328125 24.996094 18.460938 C 25.007812 18.515625 25.074219 18.613281 25.128906 18.691406 C 25.199219 18.792969 25.234375 18.847656 25.242188 18.894531 C 25.257812 19.003906 25.132812 19.152344 24.921875 19.21875 C 24.898438 19.457031 24.800781 20.320312 24.519531 20.496094 C 24.449219 20.539062 24.339844 20.558594 24.214844 20.558594 " fill-opacity="1" fill-rule="nonzero"/><path fill="#000000" d="M 23.445312 15.816406 C 23.777344 15.898438 24.101562 16.105469 24.273438 16.125 C 24.550781 16.152344 24.75 15.796875 25.101562 15.925781 C 25.410156 16.042969 25.582031 16.304688 25.625 16.597656 C 25.632812 16.648438 25.636719 16.699219 25.628906 16.753906 C 25.566406 17.5 25.097656 17.660156 24.910156 17.695312 C 24.910156 17.695312 23.8125 17.59375 23.597656 17.644531 C 23.394531 17.691406 23.085938 18.003906 22.992188 18.449219 C 22.980469 18.503906 22.929688 18.546875 22.871094 18.550781 C 22.804688 18.554688 22.742188 18.507812 22.730469 18.441406 C 22.695312 18.230469 22.59375 17.804688 22.375 17.789062 C 22.125 17.777344 21.804688 18.273438 22.132812 18.585938 C 22.234375 18.683594 22.203125 18.859375 22.070312 18.910156 C 21.964844 18.953125 21.828125 18.957031 21.683594 18.835938 C 21.683594 18.835938 21.03125 17.699219 21.34375 16.734375 C 21.652344 15.773438 23.003906 15.710938 23.445312 15.816406 " fill-opacity="1" fill-rule="nonzero"/><path fill="#000000" d="M 25.210938 18.894531 C 25.191406 18.894531 25.171875 18.886719 25.160156 18.871094 C 25.132812 18.84375 25.132812 18.796875 25.164062 18.769531 C 25.238281 18.703125 25.292969 18.546875 25.300781 18.371094 C 25.304688 18.25 25.289062 18.128906 25.253906 18.042969 C 25.222656 17.972656 25.183594 17.929688 25.148438 17.925781 C 25.085938 17.925781 25 18.035156 24.964844 18.226562 C 24.957031 18.265625 24.921875 18.289062 24.882812 18.28125 C 24.84375 18.273438 24.820312 18.238281 24.824219 18.199219 C 24.875 17.941406 25.003906 17.777344 25.15625 17.785156 C 25.25 17.789062 25.328125 17.863281 25.382812 17.988281 C 25.429688 18.09375 25.449219 18.234375 25.441406 18.378906 C 25.429688 18.589844 25.359375 18.78125 25.257812 18.875 C 25.246094 18.886719 25.226562 18.894531 25.210938 18.894531 " fill-opacity="1" fill-rule="nonzero"/><path fill="#000000" d="M 24.109375 18.355469 C 24.101562 18.484375 24.125 18.605469 24.175781 18.695312 C 24.203125 18.742188 24.257812 18.820312 24.339844 18.824219 C 24.480469 18.832031 24.609375 18.628906 24.621094 18.382812 C 24.628906 18.253906 24.605469 18.132812 24.554688 18.042969 C 24.527344 17.996094 24.472656 17.917969 24.386719 17.914062 C 24.25 17.902344 24.121094 18.109375 24.109375 18.355469 Z M 24.347656 18.964844 C 24.34375 18.964844 24.339844 18.964844 24.335938 18.964844 C 24.222656 18.960938 24.121094 18.886719 24.050781 18.761719 C 23.988281 18.648438 23.960938 18.5 23.96875 18.347656 C 23.984375 18.019531 24.164062 17.769531 24.382812 17.769531 C 24.386719 17.769531 24.390625 17.769531 24.394531 17.769531 C 24.507812 17.777344 24.609375 17.847656 24.675781 17.972656 C 24.742188 18.085938 24.769531 18.234375 24.761719 18.386719 C 24.746094 18.714844 24.566406 18.964844 24.347656 18.964844 " fill-opacity="1" fill-rule="nonzero"/><path fill="#000000" d="M 24.078125 18.191406 C 24.074219 18.191406 24.074219 18.191406 24.070312 18.191406 L 22.863281 18.082031 C 22.824219 18.078125 22.796875 18.042969 22.800781 18.003906 C 22.804688 17.964844 22.835938 17.9375 22.875 17.941406 L 24.082031 18.050781 C 24.121094 18.050781 24.152344 18.085938 24.148438 18.125 C 24.144531 18.164062 24.113281 18.191406 24.078125 18.191406 " fill-opacity="1" fill-rule="nonzero"/><path fill="#ffffff" d="M 22.152344 23.398438 C 22.152344 23.398438 22.625 24.132812 23.046875 24.003906 C 23.269531 23.9375 23.484375 23.207031 23.574219 23.183594 C 23.859375 23.101562 24.398438 22.964844 24.730469 22.371094 C 25.039062 21.820312 24.972656 21.523438 24.894531 21.386719 C 24.855469 21.324219 24.855469 21.246094 24.898438 21.1875 C 24.957031 21.097656 25.015625 20.96875 24.953125 20.832031 C 24.933594 20.78125 24.933594 20.726562 24.957031 20.679688 C 25.035156 20.496094 25.179688 20.074219 24.898438 19.992188 C 24.820312 19.96875 24.738281 20 24.691406 20.0625 C 24.601562 20.1875 24.414062 20.421875 24.179688 20.570312 C 23.851562 20.777344 23.65625 20.921875 23.492188 21.015625 C 23.347656 21.09375 23.273438 20.390625 22.933594 20.125 C 22.632812 19.890625 22.53125 20.007812 22.5 20.117188 C 22.46875 20.230469 22.65625 20.273438 22.761719 20.800781 C 22.886719 21.414062 22.757812 21.933594 22.71875 22.207031 C 22.675781 22.535156 22.152344 23.398438 22.152344 23.398438 " fill-opacity="1" fill-rule="nonzero"/><path fill="#000000" d="M 22.238281 23.394531 C 22.378906 23.605469 22.738281 24.023438 23.027344 23.9375 C 23.132812 23.902344 23.273438 23.601562 23.355469 23.421875 C 23.457031 23.207031 23.492188 23.132812 23.554688 23.113281 L 23.589844 23.105469 C 23.878906 23.019531 24.363281 22.882812 24.667969 22.339844 C 24.964844 21.804688 24.898438 21.535156 24.832031 21.421875 C 24.78125 21.335938 24.78125 21.230469 24.839844 21.148438 C 24.886719 21.074219 24.9375 20.964844 24.890625 20.859375 C 24.863281 20.796875 24.863281 20.71875 24.890625 20.652344 C 24.988281 20.425781 25.019531 20.234375 24.972656 20.136719 C 24.953125 20.097656 24.921875 20.074219 24.878906 20.058594 C 24.828125 20.046875 24.777344 20.0625 24.746094 20.105469 C 24.652344 20.234375 24.460938 20.472656 24.21875 20.628906 C 24.074219 20.71875 23.960938 20.796875 23.855469 20.863281 C 23.726562 20.953125 23.621094 21.019531 23.527344 21.074219 C 23.496094 21.09375 23.460938 21.097656 23.429688 21.085938 C 23.351562 21.054688 23.304688 20.941406 23.238281 20.769531 C 23.164062 20.578125 23.058594 20.3125 22.890625 20.179688 C 22.722656 20.050781 22.648438 20.054688 22.625 20.0625 C 22.59375 20.074219 22.578125 20.109375 22.570312 20.136719 C 22.566406 20.148438 22.578125 20.167969 22.605469 20.214844 C 22.667969 20.304688 22.765625 20.453125 22.832031 20.785156 C 22.941406 21.3125 22.863281 21.765625 22.8125 22.066406 C 22.804688 22.125 22.796875 22.175781 22.789062 22.21875 C 22.75 22.515625 22.339844 23.222656 22.238281 23.394531 Z M 22.945312 24.089844 C 22.515625 24.089844 22.113281 23.464844 22.09375 23.433594 C 22.078125 23.414062 22.078125 23.382812 22.09375 23.359375 C 22.097656 23.351562 22.609375 22.503906 22.648438 22.199219 C 22.65625 22.152344 22.664062 22.101562 22.675781 22.042969 C 22.722656 21.753906 22.796875 21.316406 22.695312 20.8125 C 22.632812 20.507812 22.546875 20.378906 22.488281 20.292969 C 22.449219 20.230469 22.410156 20.175781 22.433594 20.101562 C 22.457031 20.011719 22.507812 19.953125 22.578125 19.929688 C 22.683594 19.894531 22.8125 19.941406 22.980469 20.070312 C 23.175781 20.222656 23.289062 20.507812 23.371094 20.71875 C 23.402344 20.800781 23.445312 20.90625 23.472656 20.941406 C 23.558594 20.890625 23.65625 20.828125 23.777344 20.746094 C 23.882812 20.679688 24 20.601562 24.140625 20.507812 C 24.363281 20.367188 24.546875 20.144531 24.632812 20.019531 C 24.699219 19.933594 24.8125 19.894531 24.917969 19.925781 C 25 19.949219 25.066406 20 25.101562 20.078125 C 25.183594 20.253906 25.101562 20.515625 25.019531 20.707031 C 25.007812 20.738281 25.007812 20.773438 25.019531 20.800781 C 25.078125 20.933594 25.054688 21.082031 24.957031 21.226562 C 24.929688 21.261719 24.929688 21.3125 24.953125 21.351562 C 25.054688 21.523438 25.109375 21.84375 24.792969 22.40625 C 24.460938 23 23.917969 23.15625 23.628906 23.242188 L 23.605469 23.246094 C 23.578125 23.277344 23.527344 23.390625 23.484375 23.480469 C 23.34375 23.785156 23.222656 24.023438 23.066406 24.070312 C 23.027344 24.085938 22.984375 24.089844 22.945312 24.089844 " fill-opacity="1" fill-rule="nonzero"/><path fill="#cbacf9" d="M 23.703125 23.722656 L 22.277344 22.816406 C 22.277344 22.816406 20.355469 25.925781 18.898438 26.984375 C 18.1875 27.496094 16.8125 26.894531 16.8125 26.894531 C 16.8125 26.894531 15.492188 31.96875 18.039062 32.695312 C 22.289062 33.90625 23.703125 23.722656 23.703125 23.722656 " fill-opacity="1" fill-rule="nonzero"/><path fill="#8875a4" d="M 27.984375 31.671875 C 26.386719 31.671875 24.148438 30.433594 22.515625 29.222656 C 22.484375 29.199219 22.480469 29.152344 22.503906 29.121094 C 22.527344 29.089844 22.570312 29.085938 22.601562 29.109375 C 24.234375 30.324219 26.699219 31.683594 28.265625 31.515625 C 28.304688 31.511719 28.339844 31.539062 28.34375 31.578125 C 28.351562 31.617188 28.320312 31.652344 28.28125 31.65625 C 28.1875 31.667969 28.085938 31.671875 27.984375 31.671875 " fill-opacity="1" fill-rule="nonzero"/><path fill="#8875a4" d="M 25.828125 27.757812 C 24.9375 27.757812 23.296875 26.992188 23.21875 26.957031 C 23.183594 26.9375 23.167969 26.894531 23.183594 26.859375 C 23.203125 26.824219 23.242188 26.808594 23.28125 26.828125 C 23.300781 26.835938 25.304688 27.777344 26.046875 27.59375 C 27.285156 27.292969 26.988281 25.703125 26.984375 25.6875 C 26.976562 25.648438 27.003906 25.609375 27.042969 25.605469 C 27.078125 25.597656 27.117188 25.621094 27.125 25.660156 C 27.128906 25.675781 27.445312 27.398438 26.078125 27.734375 C 26.003906 27.75 25.921875 27.757812 25.828125 27.757812 " fill-opacity="1" fill-rule="nonzero"/><path fill="#8875a4" d="M 18.773438 27.203125 C 18.75 27.203125 18.730469 27.191406 18.714844 27.171875 C 18.691406 27.140625 18.699219 27.097656 18.730469 27.074219 C 20.261719 25.929688 22.160156 22.785156 22.179688 22.753906 C 22.199219 22.722656 22.242188 22.710938 22.277344 22.730469 C 22.3125 22.75 22.320312 22.792969 22.300781 22.828125 C 22.28125 22.859375 20.367188 26.027344 18.816406 27.1875 C 18.800781 27.195312 18.789062 27.203125 18.773438 27.203125 " fill-opacity="1" fill-rule="nonzero"/><path fill="#8875a4" d="M 18.648438 32.914062 C 18.59375 32.914062 18.539062 32.914062 18.484375 32.910156 C 18.445312 32.90625 18.414062 32.871094 18.417969 32.832031 C 18.421875 32.792969 18.457031 32.761719 18.496094 32.765625 C 21.726562 33.042969 23.480469 24.472656 23.621094 23.757812 L 23.042969 23.386719 C 23.011719 23.367188 23 23.324219 23.019531 23.289062 C 23.042969 23.257812 23.085938 23.246094 23.121094 23.269531 L 23.738281 23.664062 C 23.765625 23.679688 23.777344 23.707031 23.769531 23.734375 C 23.765625 23.761719 23.320312 26.121094 22.457031 28.417969 C 21.949219 29.769531 21.398438 30.832031 20.820312 31.582031 C 20.132812 32.46875 19.40625 32.914062 18.648438 32.914062 " fill-opacity="1" fill-rule="nonzero"/><path fill="#ffffff" d="M 7.648438 36.332031 C 7.648438 35.539062 8.292969 34.890625 9.089844 34.890625 C 9.886719 34.890625 10.53125 35.539062 10.53125 36.332031 C 10.53125 37.128906 9.886719 37.777344 9.089844 37.777344 C 8.292969 37.777344 7.648438 37.128906 7.648438 36.332031 " fill-opacity="1" fill-rule="nonzero"/><path fill="#000000" d="M 9.089844 37.847656 C 8.257812 37.847656 7.578125 37.167969 7.578125 36.332031 C 7.578125 36.15625 7.609375 35.980469 7.671875 35.816406 C 7.683594 35.777344 7.722656 35.757812 7.761719 35.773438 C 7.796875 35.785156 7.816406 35.828125 7.804688 35.863281 C 7.75 36.011719 7.71875 36.171875 7.71875 36.332031 C 7.71875 37.089844 8.335938 37.703125 9.089844 37.703125 C 9.847656 37.703125 10.460938 37.089844 10.460938 36.332031 C 10.460938 35.578125 9.847656 34.960938 9.089844 34.960938 C 8.679688 34.960938 8.292969 35.144531 8.03125 35.464844 C 8.007812 35.492188 7.960938 35.496094 7.933594 35.472656 C 7.902344 35.449219 7.898438 35.402344 7.921875 35.371094 C 8.210938 35.023438 8.636719 34.820312 9.089844 34.820312 C 9.925781 34.820312 10.601562 35.5 10.601562 36.332031 C 10.601562 37.167969 9.925781 37.847656 9.089844 37.847656 " fill-opacity="1" fill-rule="nonzero"/><path fill="#000000" d="M 8.101562 37.382812 C 8.359375 37.625 8.707031 37.777344 9.089844 37.777344 C 9.472656 37.777344 9.820312 37.625 10.078125 37.382812 C 9.78125 37.289062 9.445312 37.238281 9.089844 37.238281 C 8.734375 37.238281 8.402344 37.289062 8.101562 37.382812 " fill-opacity="1" fill-rule="nonzero"/><path fill="#ffffff" d="M 9.097656 37.480469 C 8.972656 37.480469 8.871094 37.378906 8.871094 37.253906 L 8.871094 36.09375 L 9.328125 36.09375 L 9.328125 37.253906 C 9.328125 37.378906 9.222656 37.480469 9.097656 37.480469 " fill-opacity="1" fill-rule="nonzero"/><path fill="#000000" d="M 9.980469 36.515625 C 9.949219 36.15625 10.109375 35.929688 9.753906 35.523438 C 9.386719 35.101562 9.070312 35.386719 9.070312 35.386719 C 9.070312 35.386719 8.804688 35.164062 8.457031 35.625 C 8.152344 36.027344 8.542969 36.390625 8.414062 36.640625 C 8.28125 36.894531 7.835938 37.03125 7.835938 37.03125 C 7.835938 37.03125 7.976562 37.316406 8.15625 37.445312 L 10.035156 37.445312 C 10.035156 37.445312 10.425781 37.019531 10.425781 36.898438 C 10.425781 36.898438 10.007812 36.878906 9.980469 36.515625 " fill-opacity="1" fill-rule="nonzero"/><path fill="#000000" d="M 8.101562 37.382812 C 8.359375 37.625 8.707031 37.777344 9.089844 37.777344 C 9.472656 37.777344 9.820312 37.625 10.078125 37.382812 C 9.78125 37.289062 9.445312 37.238281 9.089844 37.238281 C 8.734375 37.238281 8.402344 37.289062 8.101562 37.382812 " fill-opacity="1" fill-rule="nonzero"/><path fill="#000000" d="M 8.246094 37.414062 C 8.488281 37.601562 8.78125 37.703125 9.089844 37.703125 C 9.398438 37.703125 9.691406 37.601562 9.933594 37.414062 C 9.667969 37.34375 9.382812 37.308594 9.089844 37.308594 C 8.796875 37.308594 8.515625 37.34375 8.246094 37.414062 Z M 9.089844 37.847656 C 8.703125 37.847656 8.335938 37.699219 8.054688 37.433594 L 7.964844 37.351562 L 8.082031 37.316406 C 8.398438 37.214844 8.738281 37.167969 9.089844 37.167969 C 9.445312 37.167969 9.785156 37.214844 10.101562 37.316406 L 10.214844 37.351562 L 10.128906 37.433594 C 9.847656 37.699219 9.476562 37.847656 9.089844 37.847656 " fill-opacity="1" fill-rule="nonzero"/><path fill="#ffffff" d="M 9.121094 35.714844 L 9.105469 35.714844 L 8.640625 36.179688 L 8.640625 36.4375 C 8.640625 36.605469 8.734375 36.753906 8.871094 36.835938 L 8.871094 37.253906 C 8.871094 37.378906 8.972656 37.480469 9.097656 37.480469 C 9.222656 37.480469 9.328125 37.378906 9.328125 37.253906 L 9.328125 36.84375 C 9.472656 36.765625 9.570312 36.613281 9.570312 36.4375 L 9.570312 36.164062 C 9.570312 35.917969 9.367188 35.714844 9.121094 35.714844 " fill-opacity="1" fill-rule="nonzero"/><path fill="#000000" d="M 9.097656 37.550781 C 8.933594 37.550781 8.800781 37.417969 8.800781 37.253906 L 8.800781 36.847656 C 8.800781 36.808594 8.832031 36.777344 8.871094 36.777344 C 8.910156 36.777344 8.941406 36.808594 8.941406 36.847656 L 8.941406 37.253906 C 8.941406 37.339844 9.011719 37.410156 9.097656 37.410156 C 9.183594 37.410156 9.253906 37.339844 9.253906 37.253906 L 9.253906 36.855469 C 9.253906 36.816406 9.289062 36.785156 9.328125 36.785156 C 9.367188 36.785156 9.398438 36.816406 9.398438 36.855469 L 9.398438 37.253906 C 9.398438 37.417969 9.261719 37.550781 9.097656 37.550781 " fill-opacity="1" fill-rule="nonzero"/><path fill="#000000" d="M 9.105469 36.972656 C 9.066406 36.972656 9.035156 36.9375 9.035156 36.898438 C 9.035156 36.859375 9.066406 36.828125 9.105469 36.828125 C 9.320312 36.828125 9.496094 36.652344 9.496094 36.4375 L 9.496094 36.164062 C 9.496094 35.964844 9.34375 35.800781 9.148438 35.789062 L 8.714844 36.21875 L 8.714844 36.4375 C 8.714844 36.589844 8.804688 36.730469 8.941406 36.792969 C 8.980469 36.808594 8.996094 36.851562 8.976562 36.886719 C 8.960938 36.921875 8.921875 36.9375 8.882812 36.921875 C 8.695312 36.835938 8.570312 36.644531 8.570312 36.4375 L 8.570312 36.1875 C 8.570312 36.171875 8.578125 36.152344 8.59375 36.136719 L 9.070312 35.664062 C 9.089844 35.648438 9.117188 35.644531 9.144531 35.644531 C 9.421875 35.65625 9.640625 35.886719 9.640625 36.164062 L 9.640625 36.4375 C 9.640625 36.730469 9.398438 36.972656 9.105469 36.972656 " fill-opacity="1" fill-rule="nonzero"/><path fill="#ffffff" d="M 11.601562 33.710938 C 11.601562 32.722656 12.398438 31.925781 13.386719 31.925781 C 14.371094 31.925781 15.171875 32.722656 15.171875 33.710938 C 15.171875 34.699219 14.371094 35.5 13.386719 35.5 C 12.398438 35.5 11.601562 34.699219 11.601562 33.710938 " fill-opacity="1" fill-rule="nonzero"/><path fill="#cbacf9" d="M 12.128906 35.011719 C 12.449219 35.3125 12.882812 35.5 13.359375 35.5 C 13.839844 35.5 14.273438 35.3125 14.59375 35.011719 C 14.222656 34.894531 13.804688 34.832031 13.359375 34.832031 C 12.917969 34.832031 12.5 34.894531 12.128906 35.011719 " fill-opacity="1" fill-rule="nonzero"/><path fill="#000000" d="M 13.9375 32.667969 C 13.855469 32.617188 13.761719 32.585938 13.664062 32.585938 L 13.097656 32.585938 C 12.972656 32.585938 12.851562 32.636719 12.757812 32.722656 L 12.726562 32.75 C 12.578125 32.886719 12.527344 33.097656 12.597656 33.289062 L 12.78125 33.804688 L 13.976562 33.796875 L 14.144531 33.230469 C 14.210938 33.019531 14.125 32.789062 13.9375 32.667969 " fill-opacity="1" fill-rule="nonzero"/><path fill="#ffffff" d="M 13.640625 32.894531 C 13.640625 32.890625 13.632812 32.890625 13.632812 32.890625 L 12.777344 33.445312 L 12.777344 33.78125 C 12.777344 33.972656 12.867188 34.144531 13.003906 34.257812 L 13.003906 34.769531 C 13.003906 34.96875 13.167969 35.132812 13.371094 35.132812 C 13.574219 35.132812 13.738281 34.96875 13.738281 34.769531 L 13.738281 34.269531 C 13.886719 34.160156 13.984375 33.984375 13.984375 33.78125 L 13.984375 33.425781 C 13.984375 33.1875 13.84375 32.984375 13.640625 32.894531 " fill-opacity="1" fill-rule="nonzero"/><path fill="#000000" d="M 13.378906 34.457031 C 13.339844 34.457031 13.308594 34.425781 13.308594 34.386719 C 13.308594 34.347656 13.339844 34.316406 13.378906 34.316406 C 13.675781 34.316406 13.914062 34.078125 13.914062 33.78125 L 13.914062 33.425781 C 13.914062 33.144531 13.683594 32.914062 13.402344 32.914062 L 12.847656 32.914062 L 12.847656 33.78125 C 12.847656 33.992188 12.96875 34.183594 13.160156 34.269531 C 13.195312 34.285156 13.210938 34.328125 13.195312 34.363281 C 13.179688 34.398438 13.136719 34.414062 13.101562 34.398438 C 12.859375 34.289062 12.707031 34.046875 12.707031 33.78125 L 12.707031 32.839844 C 12.707031 32.800781 12.738281 32.769531 12.777344 32.769531 L 13.402344 32.769531 C 13.761719 32.769531 14.054688 33.066406 14.054688 33.425781 L 14.054688 33.78125 C 14.054688 34.15625 13.753906 34.457031 13.378906 34.457031 " fill-opacity="1" fill-rule="nonzero"/><path fill="#000000" d="M 13.359375 35.570312 C 13.355469 35.570312 13.351562 35.570312 13.347656 35.570312 C 12.847656 35.566406 12.382812 35.371094 12.03125 35.015625 C 11.308594 34.28125 11.316406 33.097656 12.050781 32.375 C 12.746094 31.6875 13.867188 31.65625 14.601562 32.308594 C 14.628906 32.332031 14.632812 32.378906 14.605469 32.40625 C 14.578125 32.4375 14.535156 32.4375 14.507812 32.414062 C 13.828125 31.8125 12.792969 31.839844 12.148438 32.476562 C 11.472656 33.144531 11.464844 34.238281 12.132812 34.914062 C 12.457031 35.242188 12.886719 35.425781 13.347656 35.429688 C 13.351562 35.429688 13.355469 35.429688 13.359375 35.429688 C 13.816406 35.429688 14.246094 35.253906 14.574219 34.929688 C 14.925781 34.582031 15.113281 34.09375 15.082031 33.597656 C 15.082031 33.558594 15.109375 33.523438 15.148438 33.523438 C 15.1875 33.519531 15.222656 33.550781 15.222656 33.589844 C 15.257812 34.128906 15.054688 34.652344 14.671875 35.03125 C 14.320312 35.378906 13.855469 35.570312 13.359375 35.570312 " fill-opacity="1" fill-rule="nonzero"/><path fill="#000000" d="M 13.371094 35.207031 C 13.132812 35.207031 12.933594 35.007812 12.933594 34.769531 L 12.933594 34.257812 C 12.933594 34.21875 12.964844 34.1875 13.003906 34.1875 C 13.042969 34.1875 13.078125 34.21875 13.078125 34.257812 L 13.078125 34.769531 C 13.078125 34.929688 13.210938 35.0625 13.371094 35.0625 C 13.535156 35.0625 13.667969 34.929688 13.667969 34.769531 L 13.667969 34.28125 C 13.667969 34.242188 13.699219 34.210938 13.738281 34.210938 C 13.777344 34.210938 13.808594 34.242188 13.808594 34.28125 L 13.808594 34.769531 C 13.808594 35.007812 13.613281 35.207031 13.371094 35.207031 " fill-opacity="1" fill-rule="nonzero"/><g clip-path="url(#0c4d6af720)"><g clip-path="url(#190e708efe)"><path fill="#cbacf9" d="M 7.039062 32.921875 C 7.511719 33.371094 8.144531 33.648438 8.847656 33.652344 C 9.546875 33.65625 10.183594 33.382812 10.660156 32.941406 C 10.113281 32.769531 9.5 32.671875 8.851562 32.667969 C 8.203125 32.664062 7.585938 32.753906 7.039062 32.921875 " fill-opacity="1" fill-rule="nonzero"/></g></g><g clip-path="url(#ab7143b4cd)"><g clip-path="url(#c832dab299)"><path fill="#000000" d="M 7.179688 32.953125 C 7.644531 33.355469 8.230469 33.578125 8.847656 33.578125 C 8.851562 33.582031 8.855469 33.582031 8.859375 33.582031 C 9.46875 33.582031 10.054688 33.363281 10.519531 32.972656 C 9.992188 32.820312 9.433594 32.742188 8.851562 32.738281 C 8.269531 32.734375 7.707031 32.808594 7.179688 32.953125 Z M 8.859375 33.722656 C 8.855469 33.722656 8.851562 33.722656 8.847656 33.722656 C 8.152344 33.71875 7.492188 33.453125 6.992188 32.972656 L 6.902344 32.890625 L 7.019531 32.855469 C 7.59375 32.679688 8.210938 32.59375 8.851562 32.597656 C 9.492188 32.597656 10.109375 32.691406 10.679688 32.875 L 10.796875 32.910156 L 10.707031 32.992188 C 10.203125 33.464844 9.546875 33.722656 8.859375 33.722656 " fill-opacity="1" fill-rule="nonzero"/></g></g><g clip-path="url(#c3678485fa)"><g clip-path="url(#b54c17a22d)"><path fill="#000000" d="M 10.390625 31.136719 C 10.160156 30.308594 9.6875 29.226562 8.800781 29.359375 C 7.949219 29.484375 7.550781 30.417969 7.363281 31.144531 C 7.253906 31.582031 7.589844 32.011719 8.042969 32.011719 L 9.710938 32.023438 C 10.171875 32.023438 10.515625 31.582031 10.390625 31.136719 " fill-opacity="1" fill-rule="nonzero"/></g></g><g clip-path="url(#b2ecf7e51d)"><g clip-path="url(#51991477a2)"><path fill="#ffffff" d="M 9.65625 30.175781 C 9.65625 30.171875 9.65625 30.167969 9.65625 30.167969 L 8.140625 30.15625 C 8.140625 30.15625 8.140625 30.160156 8.140625 30.160156 C 8.121094 30.238281 8.109375 30.316406 8.109375 30.398438 L 8.109375 30.839844 C 8.105469 31.136719 8.246094 31.398438 8.457031 31.550781 L 8.449219 32.707031 C 8.449219 32.9375 8.632812 33.125 8.863281 33.125 C 9.09375 33.128906 9.28125 32.941406 9.28125 32.710938 L 9.289062 31.574219 C 9.515625 31.425781 9.667969 31.15625 9.667969 30.847656 L 9.671875 30.351562 C 9.671875 30.289062 9.667969 30.230469 9.65625 30.175781 " fill-opacity="1" fill-rule="nonzero"/></g></g><g clip-path="url(#38bdeca111)"><g clip-path="url(#4f7aab3df1)"><path fill="#000000" d="M 8.867188 33.195312 C 8.867188 33.195312 8.863281 33.195312 8.863281 33.195312 C 8.734375 33.195312 8.613281 33.144531 8.519531 33.050781 C 8.429688 32.960938 8.378906 32.835938 8.378906 32.707031 L 8.386719 31.585938 C 8.386719 31.546875 8.417969 31.515625 8.457031 31.515625 C 8.496094 31.515625 8.527344 31.546875 8.527344 31.585938 L 8.519531 32.707031 C 8.519531 32.898438 8.675781 33.054688 8.863281 33.054688 C 9.058594 33.058594 9.210938 32.902344 9.210938 32.710938 L 9.21875 31.585938 C 9.21875 31.546875 9.25 31.515625 9.289062 31.515625 C 9.328125 31.515625 9.359375 31.546875 9.359375 31.585938 L 9.355469 32.710938 C 9.351562 32.980469 9.132812 33.195312 8.867188 33.195312 " fill-opacity="1" fill-rule="nonzero"/></g></g><g clip-path="url(#f90aa07d32)"><g clip-path="url(#41fbda04e1)"><path fill="#000000" d="M 8.890625 31.21875 C 8.785156 31.21875 8.6875 31.175781 8.617188 31.101562 C 8.589844 31.074219 8.59375 31.027344 8.621094 31 C 8.648438 30.976562 8.695312 30.976562 8.722656 31.003906 C 8.765625 31.050781 8.824219 31.078125 8.890625 31.078125 C 8.953125 31.078125 9.015625 31.054688 9.058594 31.007812 C 9.085938 30.976562 9.128906 30.976562 9.160156 31.003906 C 9.1875 31.03125 9.1875 31.074219 9.160156 31.105469 C 9.089844 31.179688 8.996094 31.21875 8.890625 31.21875 " fill-opacity="1" fill-rule="nonzero"/></g></g><g clip-path="url(#735abd4cbd)"><g clip-path="url(#f825c43acc)"><path fill="#000000" d="M 8.886719 31.765625 C 8.886719 31.765625 8.886719 31.765625 8.882812 31.765625 C 8.84375 31.765625 8.8125 31.730469 8.8125 31.691406 C 8.8125 31.652344 8.84375 31.621094 8.882812 31.621094 C 8.886719 31.621094 8.886719 31.621094 8.886719 31.621094 C 9.074219 31.621094 9.253906 31.542969 9.386719 31.398438 C 9.523438 31.253906 9.597656 31.058594 9.597656 30.847656 L 9.601562 30.347656 C 9.601562 30.148438 9.53125 29.960938 9.402344 29.816406 C 9.273438 29.675781 9.101562 29.597656 8.921875 29.597656 C 8.726562 29.597656 8.542969 29.679688 8.402344 29.828125 C 8.261719 29.980469 8.183594 30.183594 8.179688 30.398438 L 8.179688 30.839844 C 8.175781 31.144531 8.339844 31.425781 8.59375 31.550781 C 8.628906 31.570312 8.640625 31.613281 8.625 31.648438 C 8.605469 31.683594 8.566406 31.695312 8.53125 31.679688 C 8.226562 31.527344 8.035156 31.199219 8.035156 30.839844 L 8.039062 30.398438 C 8.039062 30.144531 8.132812 29.910156 8.296875 29.730469 C 8.464844 29.554688 8.683594 29.457031 8.917969 29.457031 C 8.917969 29.457031 8.921875 29.457031 8.921875 29.457031 C 9.144531 29.457031 9.351562 29.550781 9.507812 29.722656 C 9.660156 29.890625 9.746094 30.113281 9.742188 30.351562 L 9.742188 30.851562 C 9.738281 31.09375 9.648438 31.324219 9.488281 31.496094 C 9.328125 31.667969 9.113281 31.765625 8.886719 31.765625 " fill-opacity="1" fill-rule="nonzero"/></g></g><path fill="#000000" d="M 8.882812 33.679688 C 7.882812 33.679688 6.945312 33.046875 6.613281 32.046875 C 6.410156 31.441406 6.457031 30.792969 6.742188 30.222656 C 7.027344 29.652344 7.519531 29.226562 8.125 29.023438 C 9.375 28.605469 10.730469 29.285156 11.148438 30.535156 C 11.285156 30.949219 11.308594 31.394531 11.210938 31.820312 C 11.203125 31.859375 11.164062 31.882812 11.125 31.875 C 11.085938 31.867188 11.0625 31.828125 11.074219 31.789062 C 11.164062 31.390625 11.144531 30.972656 11.011719 30.578125 C 10.621094 29.402344 9.34375 28.765625 8.167969 29.160156 C 7.597656 29.347656 7.136719 29.75 6.867188 30.285156 C 6.601562 30.824219 6.558594 31.433594 6.746094 32.003906 C 7.140625 33.179688 8.414062 33.816406 9.589844 33.421875 C 10.097656 33.253906 10.53125 32.90625 10.808594 32.449219 C 10.828125 32.414062 10.871094 32.40625 10.902344 32.425781 C 10.9375 32.445312 10.949219 32.488281 10.929688 32.523438 C 10.636719 33.011719 10.175781 33.378906 9.636719 33.558594 C 9.386719 33.640625 9.132812 33.679688 8.882812 33.679688 " fill-opacity="1" fill-rule="nonzero"/><path fill="#ffffff" d="M 39.195312 33.558594 L 35.40625 33.558594 C 35.277344 33.558594 35.203125 33.421875 35.269531 33.3125 L 37.617188 29.472656 C 37.667969 29.390625 37.757812 29.339844 37.851562 29.339844 L 41.613281 29.339844 C 41.753906 29.339844 41.835938 29.492188 41.765625 29.609375 L 39.433594 33.425781 C 39.382812 33.507812 39.292969 33.558594 39.195312 33.558594 " fill-opacity="1" fill-rule="nonzero"/><path fill="#000000" d="M 37.851562 29.410156 C 37.78125 29.410156 37.714844 29.449219 37.675781 29.507812 L 35.328125 33.351562 C 35.3125 33.378906 35.308594 33.414062 35.328125 33.441406 C 35.34375 33.46875 35.371094 33.488281 35.40625 33.488281 L 39.195312 33.488281 C 39.265625 33.488281 39.335938 33.449219 39.371094 33.390625 L 41.703125 29.574219 C 41.726562 29.539062 41.726562 29.5 41.707031 29.464844 C 41.6875 29.429688 41.652344 29.410156 41.613281 29.410156 Z M 39.195312 33.628906 L 35.40625 33.628906 C 35.320312 33.628906 35.246094 33.585938 35.203125 33.511719 C 35.160156 33.4375 35.164062 33.351562 35.207031 33.277344 L 37.558594 29.433594 C 37.621094 29.332031 37.734375 29.269531 37.851562 29.269531 L 41.613281 29.269531 C 41.703125 29.269531 41.785156 29.316406 41.828125 29.394531 C 41.875 29.476562 41.875 29.570312 41.824219 29.648438 L 39.492188 33.464844 C 39.429688 33.566406 39.316406 33.628906 39.195312 33.628906 " fill-opacity="1" fill-rule="nonzero"/><path fill="#000000" d="M 40.089844 31.109375 L 37.425781 31.109375 L 37.578125 30.855469 L 40.246094 30.855469 L 40.089844 31.109375 " fill-opacity="1" fill-rule="nonzero"/><path fill="#000000" d="M 40.394531 30.609375 L 37.730469 30.609375 L 38.203125 29.832031 L 40.867188 29.832031 L 40.394531 30.609375 " fill-opacity="1" fill-rule="nonzero"/><path fill="#000000" d="M 38.238281 36.707031 L 34.613281 36.707031 L 37.300781 32.574219 C 37.386719 32.445312 37.53125 32.367188 37.6875 32.367188 L 40.628906 32.367188 C 40.816406 32.367188 40.929688 32.566406 40.832031 32.722656 L 38.238281 36.707031 " fill-opacity="1" fill-rule="nonzero"/><path fill="#8875a4" d="M 39.011719 33.816406 C 38.894531 34 38.640625 34.144531 38.445312 34.144531 C 38.25 34.144531 38.191406 34 38.308594 33.816406 C 38.425781 33.636719 38.679688 33.488281 38.871094 33.488281 C 39.066406 33.488281 39.128906 33.636719 39.011719 33.816406 " fill-opacity="1" fill-rule="nonzero"/><path fill="#000000" d="M 37.949219 37.054688 L 31.773438 37.054688 C 31.605469 37.054688 31.46875 36.917969 31.46875 36.75 L 31.46875 36.679688 L 38.253906 36.679688 L 38.253906 36.75 C 38.253906 36.917969 38.117188 37.054688 37.949219 37.054688 " fill-opacity="1" fill-rule="nonzero"/><path fill="#ffffff" d="M 38.050781 36.78125 L 34.9375 36.78125 C 34.898438 36.78125 34.867188 36.75 34.867188 36.710938 C 34.867188 36.671875 34.898438 36.640625 34.9375 36.640625 L 38.050781 36.640625 C 38.089844 36.640625 38.121094 36.671875 38.121094 36.710938 C 38.121094 36.75 38.089844 36.78125 38.050781 36.78125 " fill-opacity="1" fill-rule="nonzero"/><path fill="#ffffff" d="M 11.039062 25.703125 C 11.035156 25.703125 11.027344 25.703125 11.019531 25.699219 C 10.980469 25.6875 10.960938 25.648438 10.972656 25.609375 C 11.0625 25.332031 11.148438 25.164062 11.152344 25.15625 C 11.171875 25.125 11.210938 25.109375 11.246094 25.128906 C 11.28125 25.148438 11.296875 25.191406 11.277344 25.222656 C 11.277344 25.226562 11.191406 25.386719 11.109375 25.652344 C 11.097656 25.683594 11.070312 25.703125 11.039062 25.703125 Z M 10.871094 26.632812 C 10.867188 26.632812 10.867188 26.632812 10.867188 26.632812 C 10.828125 26.628906 10.796875 26.597656 10.800781 26.558594 C 10.808594 26.398438 10.828125 26.238281 10.859375 26.078125 C 10.863281 26.039062 10.902344 26.015625 10.941406 26.023438 C 10.976562 26.027344 11.003906 26.066406 10.996094 26.105469 C 10.96875 26.257812 10.949219 26.414062 10.941406 26.566406 C 10.9375 26.601562 10.90625 26.632812 10.871094 26.632812 Z M 10.9375 27.574219 C 10.90625 27.574219 10.875 27.550781 10.867188 27.515625 C 10.835938 27.359375 10.8125 27.199219 10.800781 27.039062 C 10.800781 27 10.828125 26.964844 10.867188 26.964844 C 10.90625 26.960938 10.941406 26.992188 10.941406 27.03125 C 10.953125 27.183594 10.976562 27.339844 11.007812 27.488281 C 11.015625 27.527344 10.988281 27.5625 10.953125 27.570312 C 10.945312 27.574219 10.941406 27.574219 10.9375 27.574219 Z M 11.214844 28.386719 C 11.1875 28.386719 11.164062 28.371094 11.148438 28.347656 C 11.09375 28.226562 11.042969 28.105469 10.996094 27.980469 C 10.984375 27.945312 11.003906 27.90625 11.042969 27.890625 C 11.078125 27.878906 11.117188 27.898438 11.132812 27.933594 C 11.171875 28.054688 11.222656 28.171875 11.277344 28.285156 C 11.292969 28.320312 11.28125 28.363281 11.246094 28.378906 C 11.234375 28.386719 11.222656 28.386719 11.214844 28.386719 " fill-opacity="1" fill-rule="nonzero"/><path fill="#ffffff" d="M 15.246094 36.738281 C 15.230469 36.738281 15.214844 36.734375 15.199219 36.71875 C 14.976562 36.523438 14.882812 36.347656 14.878906 36.339844 C 14.859375 36.308594 14.871094 36.265625 14.90625 36.246094 C 14.941406 36.226562 14.984375 36.238281 15.003906 36.273438 C 15.003906 36.277344 15.089844 36.433594 15.292969 36.613281 C 15.324219 36.640625 15.324219 36.6875 15.300781 36.714844 C 15.285156 36.730469 15.265625 36.738281 15.246094 36.738281 Z M 16.070312 37.195312 C 16.0625 37.195312 16.054688 37.195312 16.046875 37.191406 C 15.890625 37.140625 15.738281 37.078125 15.597656 37.003906 C 15.566406 36.984375 15.550781 36.941406 15.570312 36.90625 C 15.589844 36.871094 15.632812 36.859375 15.667969 36.878906 C 15.796875 36.949219 15.941406 37.011719 16.089844 37.054688 C 16.125 37.066406 16.148438 37.105469 16.136719 37.144531 C 16.125 37.175781 16.097656 37.195312 16.070312 37.195312 Z M 16.933594 37.316406 C 16.792969 37.316406 16.652344 37.308594 16.523438 37.292969 C 16.484375 37.289062 16.457031 37.253906 16.460938 37.214844 C 16.464844 37.175781 16.5 37.148438 16.539062 37.152344 C 16.664062 37.167969 16.796875 37.175781 16.933594 37.175781 C 16.957031 37.175781 16.976562 37.175781 17 37.175781 C 17.039062 37.175781 17.074219 37.207031 17.074219 37.246094 C 17.074219 37.285156 17.042969 37.316406 17.003906 37.316406 C 16.980469 37.316406 16.957031 37.316406 16.933594 37.316406 " fill-opacity="1" fill-rule="nonzero"/><path fill="#ffffff" d="M 34.085938 32.992188 C 34.070312 32.992188 34.054688 32.984375 34.042969 32.976562 L 32.5 31.769531 C 32.46875 31.746094 32.460938 31.703125 32.488281 31.671875 C 32.511719 31.640625 32.554688 31.636719 32.585938 31.660156 L 34.128906 32.863281 C 34.160156 32.886719 34.164062 32.933594 34.140625 32.964844 C 34.128906 32.980469 34.105469 32.992188 34.085938 32.992188 " fill-opacity="1" fill-rule="nonzero"/><path fill="#ffffff" d="M 34.644531 32.367188 C 34.625 32.367188 34.605469 32.359375 34.59375 32.34375 L 33 30.667969 C 32.972656 30.640625 32.976562 30.59375 33.003906 30.570312 C 33.03125 30.542969 33.078125 30.542969 33.105469 30.570312 L 34.695312 32.246094 C 34.722656 32.273438 34.722656 32.320312 34.691406 32.347656 C 34.679688 32.359375 34.660156 32.367188 34.644531 32.367188 " fill-opacity="1" fill-rule="nonzero"/><path fill="#ffffff" d="M 35.175781 31.765625 C 35.152344 31.765625 35.132812 31.757812 35.117188 31.738281 L 34.042969 30.375 C 34.019531 30.34375 34.023438 30.296875 34.054688 30.273438 C 34.085938 30.25 34.128906 30.253906 34.152344 30.285156 L 35.230469 31.652344 C 35.253906 31.683594 35.25 31.726562 35.21875 31.75 C 35.203125 31.761719 35.1875 31.765625 35.175781 31.765625 " fill-opacity="1" fill-rule="nonzero"/><path fill="#ffffff" d="M 28.867188 37.578125 C 28.855469 37.578125 28.84375 37.574219 28.832031 37.570312 C 28.800781 37.550781 28.785156 37.507812 28.804688 37.472656 C 28.820312 37.449219 29.132812 36.898438 29.8125 36.339844 C 30.441406 35.824219 31.515625 35.214844 33.054688 35.222656 C 33.09375 35.222656 33.125 35.253906 33.125 35.292969 C 33.125 35.332031 33.089844 35.363281 33.050781 35.363281 C 33.046875 35.363281 33.035156 35.363281 33.027344 35.363281 C 30.1875 35.363281 28.941406 37.519531 28.929688 37.542969 C 28.917969 37.5625 28.894531 37.578125 28.867188 37.578125 " fill-opacity="1" fill-rule="nonzero"/><path fill="#ffffff" d="M 38.476562 28.566406 C 38.449219 28.566406 38.425781 28.550781 38.414062 28.527344 L 37.453125 26.46875 L 37.167969 28.09375 C 37.160156 28.125 37.136719 28.148438 37.109375 28.152344 C 37.078125 28.15625 37.050781 28.144531 37.035156 28.117188 L 35.40625 25.175781 C 35.386719 25.140625 35.398438 25.097656 35.433594 25.078125 C 35.46875 25.058594 35.511719 25.070312 35.53125 25.105469 L 37.0625 27.875 L 37.355469 26.222656 C 37.359375 26.191406 37.382812 26.167969 37.414062 26.164062 C 37.445312 26.160156 37.476562 26.179688 37.488281 26.207031 L 38.542969 28.464844 C 38.558594 28.5 38.542969 28.542969 38.507812 28.558594 C 38.496094 28.566406 38.488281 28.566406 38.476562 28.566406 " fill-opacity="1" fill-rule="nonzero"/><path fill="#ffffff" d="M 15.347656 28.992188 C 15.328125 28.992188 15.3125 28.984375 15.296875 28.972656 C 15.269531 28.945312 15.269531 28.898438 15.296875 28.871094 L 15.449219 28.714844 C 15.472656 28.683594 15.519531 28.683594 15.546875 28.710938 C 15.574219 28.738281 15.578125 28.785156 15.550781 28.8125 L 15.398438 28.96875 C 15.386719 28.984375 15.367188 28.992188 15.347656 28.992188 " fill-opacity="1" fill-rule="nonzero"/><path fill="#ffffff" d="M 14.820312 29.542969 C 14.800781 29.542969 14.785156 29.535156 14.769531 29.523438 C 14.742188 29.496094 14.742188 29.449219 14.769531 29.421875 L 14.917969 29.265625 C 14.945312 29.238281 14.992188 29.234375 15.019531 29.261719 C 15.046875 29.289062 15.046875 29.335938 15.023438 29.363281 L 14.871094 29.519531 C 14.855469 29.535156 14.839844 29.542969 14.820312 29.542969 " fill-opacity="1" fill-rule="nonzero"/><path fill="#ffffff" d="M 14.96875 29 C 14.949219 29 14.933594 28.992188 14.917969 28.980469 L 14.765625 28.828125 C 14.738281 28.800781 14.738281 28.757812 14.765625 28.726562 C 14.792969 28.699219 14.835938 28.699219 14.863281 28.726562 L 15.015625 28.878906 C 15.046875 28.90625 15.046875 28.949219 15.019531 28.980469 C 15.003906 28.992188 14.984375 29 14.96875 29 " fill-opacity="1" fill-rule="nonzero"/><path fill="#ffffff" d="M 15.503906 29.527344 C 15.484375 29.527344 15.46875 29.519531 15.453125 29.507812 L 15.300781 29.355469 C 15.273438 29.328125 15.273438 29.285156 15.300781 29.257812 C 15.328125 29.226562 15.371094 29.226562 15.398438 29.253906 L 15.554688 29.40625 C 15.582031 29.433594 15.582031 29.476562 15.554688 29.507812 C 15.539062 29.519531 15.523438 29.527344 15.503906 29.527344 " fill-opacity="1" fill-rule="nonzero"/><path fill="#ffffff" d="M 13.089844 30.15625 C 12.90625 30.238281 12.824219 30.457031 12.902344 30.644531 C 12.945312 30.738281 13.015625 30.808594 13.109375 30.84375 C 13.199219 30.878906 13.296875 30.875 13.382812 30.835938 C 13.566406 30.753906 13.652344 30.535156 13.570312 30.34375 C 13.53125 30.253906 13.457031 30.183594 13.367188 30.148438 C 13.277344 30.113281 13.179688 30.113281 13.089844 30.15625 Z M 13.238281 31.011719 C 13.175781 31.011719 13.113281 31 13.054688 30.976562 C 12.929688 30.925781 12.828125 30.828125 12.773438 30.703125 C 12.664062 30.445312 12.777344 30.140625 13.03125 30.023438 C 13.15625 29.96875 13.292969 29.964844 13.417969 30.015625 C 13.542969 30.066406 13.644531 30.160156 13.699219 30.289062 C 13.8125 30.546875 13.695312 30.851562 13.441406 30.964844 C 13.375 30.996094 13.304688 31.011719 13.238281 31.011719 " fill-opacity="1" fill-rule="nonzero"/><path fill="#ffffff" d="M 13.585938 28.851562 C 13.480469 28.898438 13.433594 29.027344 13.480469 29.136719 C 13.503906 29.191406 13.542969 29.230469 13.597656 29.25 C 13.648438 29.269531 13.707031 29.269531 13.753906 29.246094 C 13.863281 29.199219 13.910156 29.070312 13.863281 28.960938 C 13.839844 28.910156 13.800781 28.867188 13.746094 28.847656 C 13.695312 28.828125 13.636719 28.828125 13.585938 28.851562 Z M 13.671875 29.40625 C 13.628906 29.40625 13.585938 29.398438 13.546875 29.382812 C 13.457031 29.347656 13.386719 29.28125 13.351562 29.191406 C 13.273438 29.011719 13.351562 28.800781 13.53125 28.722656 C 13.613281 28.683594 13.710938 28.679688 13.796875 28.714844 C 13.886719 28.75 13.957031 28.816406 13.992188 28.90625 C 14.070312 29.085938 13.992188 29.296875 13.8125 29.375 C 13.769531 29.394531 13.71875 29.40625 13.671875 29.40625 " fill-opacity="1" fill-rule="nonzero"/></svg>